M48
; DRILL file KiCad 10.0.3 date 2026-09-11T18:38:54
; FORMAT={-:-/ absolute / metric / decimal}
; #@! TF.CreationDate,2026-09-11T18:38:54+02:00
; #@! TF.GenerationSoftware,Kicad,Pcbnew,10.0.3
; #@! TF.FileFunction,Plated,1,2,PTH
FMAT,2
METRIC
; #@! TA.AperFunction,Plated,PTH,ViaDrill
T1C0.300
; #@! TA.AperFunction,Plated,PTH,ViaDrill
T2C0.400
; #@! TA.AperFunction,Plated,PTH,ComponentDrill
T3C0.800
; #@! TA.AperFunction,Plated,PTH,ComponentDrill
T4C1.000
; #@! TA.AperFunction,Plated,PTH,ComponentDrill
T5C1.200
; #@! TA.AperFunction,Plated,PTH,ComponentDrill
T6C1.300
; #@! TA.AperFunction,Plated,PTH,ComponentDrill
T7C1.400
; #@! TA.AperFunction,Plated,PTH,ComponentDrill
T8C1.500
%
G90
G05
T1
X147.3Y-112.5
X148.15Y-118.55
X164.35Y-107.4
X165.6Y-90.65
X166.95Y-133.5
X167.25Y-124.5
X170.5Y-129.0
X171.8Y-93.45
X172.25Y-147.75
X176.15Y-123.65
X182.85Y-107.45
X190.2Y-99.95
T2
X153.006Y-92.813
X159.5Y-97.5
X161.25Y-92.0
X167.2Y-120.25
X172.0Y-125.15
X173.75Y-124.35
X182.4Y-122.75
X228.106Y-127.093
X230.85Y-130.6
T3
X145.3Y-100.25
X145.3Y-107.87
X147.84Y-100.25
X147.84Y-107.87
X150.38Y-100.25
X150.38Y-107.87
X152.92Y-100.25
X152.92Y-107.87
X155.46Y-100.25
X155.46Y-107.87
X158.0Y-100.25
X158.0Y-107.87
X160.54Y-100.25
X160.54Y-107.87
X229.25Y-119.25
X229.25Y-121.75
X229.5Y-106.75
X229.5Y-109.25
T4
X190.25Y-143.25
X200.25Y-143.25
X237.5Y-113.13
X237.5Y-115.67
X237.5Y-118.21
X237.5Y-120.75
X237.5Y-123.29
X237.5Y-125.83
X237.5Y-128.37
X237.5Y-130.91
X237.5Y-133.45
X237.5Y-135.99
T5
X171.0Y-88.1
X171.0Y-113.5
X178.25Y-88.05
X178.25Y-113.45
X188.25Y-88.05
X188.25Y-113.45
X195.5Y-88.05
X195.5Y-113.45
X205.75Y-88.05
X205.75Y-113.45
X213.0Y-88.0
X213.0Y-113.4
T6
X175.463Y-121.188
X175.463Y-128.688
X190.462Y-121.188
X190.462Y-128.688
X195.462Y-121.188
X195.462Y-128.688
X200.462Y-121.188
X200.462Y-128.688
T7
X178.65Y-154.132
X186.15Y-154.132
X193.65Y-154.132
X201.15Y-154.132
T8
X159.6Y-136.25
X159.6Y-142.75
X167.35Y-82.5
X172.8Y-82.5
X178.25Y-82.5
X179.9Y-136.25
X179.9Y-142.75
X184.6Y-82.5
X190.05Y-82.5
X195.5Y-82.5
X202.0Y-82.5
X207.45Y-82.5
X212.9Y-82.5
M30
