%TF.GenerationSoftware,KiCad,Pcbnew,10.0.3*%
%TF.CreationDate,2026-09-11T18:41:02+02:00*%
%TF.ProjectId,ControlBoard,436f6e74-726f-46c4-926f-6172642e6b69,rev?*%
%TF.SameCoordinates,Original*%
%TF.FileFunction,Paste,Top*%
%TF.FilePolarity,Positive*%
%FSLAX46Y46*%
G04 Gerber Fmt 4.6, Leading zero omitted, Abs format (unit mm)*
G04 Created by KiCad (PCBNEW 10.0.3) date 2026-09-11 18:41:02*
%MOMM*%
%LPD*%
G01*
G04 APERTURE LIST*
G04 Aperture macros list*
%AMRoundRect*
0 Rectangle with rounded corners*
0 $1 Rounding radius*
0 $2 $3 $4 $5 $6 $7 $8 $9 X,Y pos of 4 corners*
0 Add a 4 corners polygon primitive as box body*
4,1,4,$2,$3,$4,$5,$6,$7,$8,$9,$2,$3,0*
0 Add four circle primitives for the rounded corners*
1,1,$1+$1,$2,$3*
1,1,$1+$1,$4,$5*
1,1,$1+$1,$6,$7*
1,1,$1+$1,$8,$9*
0 Add four rect primitives between the rounded corners*
20,1,$1+$1,$2,$3,$4,$5,0*
20,1,$1+$1,$4,$5,$6,$7,0*
20,1,$1+$1,$6,$7,$8,$9,0*
20,1,$1+$1,$8,$9,$2,$3,0*%
G04 Aperture macros list end*
%ADD10RoundRect,0.150000X0.825000X0.150000X-0.825000X0.150000X-0.825000X-0.150000X0.825000X-0.150000X0*%
%ADD11RoundRect,0.250000X0.650000X-0.325000X0.650000X0.325000X-0.650000X0.325000X-0.650000X-0.325000X0*%
%ADD12RoundRect,0.200000X-0.275000X0.200000X-0.275000X-0.200000X0.275000X-0.200000X0.275000X0.200000X0*%
%ADD13RoundRect,0.075000X0.650000X0.075000X-0.650000X0.075000X-0.650000X-0.075000X0.650000X-0.075000X0*%
%ADD14RoundRect,0.150000X-0.825000X-0.150000X0.825000X-0.150000X0.825000X0.150000X-0.825000X0.150000X0*%
%ADD15RoundRect,0.225000X-0.250000X0.225000X-0.250000X-0.225000X0.250000X-0.225000X0.250000X0.225000X0*%
%ADD16RoundRect,0.225000X0.250000X-0.225000X0.250000X0.225000X-0.250000X0.225000X-0.250000X-0.225000X0*%
%ADD17RoundRect,0.225000X0.225000X0.250000X-0.225000X0.250000X-0.225000X-0.250000X0.225000X-0.250000X0*%
%ADD18RoundRect,0.200000X0.200000X0.275000X-0.200000X0.275000X-0.200000X-0.275000X0.200000X-0.275000X0*%
%ADD19RoundRect,0.200000X-0.200000X-0.275000X0.200000X-0.275000X0.200000X0.275000X-0.200000X0.275000X0*%
%ADD20RoundRect,0.225000X-0.225000X-0.250000X0.225000X-0.250000X0.225000X0.250000X-0.225000X0.250000X0*%
%ADD21RoundRect,0.250000X-0.650000X0.325000X-0.650000X-0.325000X0.650000X-0.325000X0.650000X0.325000X0*%
%ADD22RoundRect,0.249999X0.450001X1.850001X-0.450001X1.850001X-0.450001X-1.850001X0.450001X-1.850001X0*%
%ADD23RoundRect,0.225000X-0.335876X-0.017678X-0.017678X-0.335876X0.335876X0.017678X0.017678X0.335876X0*%
%ADD24RoundRect,0.250000X1.125000X-1.275000X1.125000X1.275000X-1.125000X1.275000X-1.125000X-1.275000X0*%
%ADD25RoundRect,0.250000X0.350000X-0.850000X0.350000X0.850000X-0.350000X0.850000X-0.350000X-0.850000X0*%
%ADD26R,2.600000X3.100000*%
%ADD27R,1.550000X0.600000*%
%ADD28RoundRect,0.150000X-0.470000X0.150000X-0.470000X-0.150000X0.470000X-0.150000X0.470000X0.150000X0*%
%ADD29RoundRect,0.075000X-0.545000X0.075000X-0.545000X-0.075000X0.545000X-0.075000X0.545000X0.075000X0*%
%ADD30RoundRect,0.200000X0.275000X-0.200000X0.275000X0.200000X-0.275000X0.200000X-0.275000X-0.200000X0*%
%ADD31RoundRect,0.150000X-0.512500X-0.150000X0.512500X-0.150000X0.512500X0.150000X-0.512500X0.150000X0*%
%ADD32RoundRect,0.250002X1.799998X2.499998X-1.799998X2.499998X-1.799998X-2.499998X1.799998X-2.499998X0*%
%ADD33RoundRect,0.225000X0.017678X-0.335876X0.335876X-0.017678X-0.017678X0.335876X-0.335876X0.017678X0*%
%ADD34RoundRect,0.075000X0.662500X0.075000X-0.662500X0.075000X-0.662500X-0.075000X0.662500X-0.075000X0*%
%ADD35RoundRect,0.075000X0.075000X0.662500X-0.075000X0.662500X-0.075000X-0.662500X0.075000X-0.662500X0*%
%ADD36RoundRect,0.250001X0.106066X0.813171X-0.813171X-0.106066X-0.106066X-0.813171X0.813171X0.106066X0*%
%ADD37RoundRect,0.087500X-0.662500X-0.087500X0.662500X-0.087500X0.662500X0.087500X-0.662500X0.087500X0*%
%ADD38RoundRect,0.087500X-0.250000X-0.087500X0.250000X-0.087500X0.250000X0.087500X-0.250000X0.087500X0*%
%ADD39RoundRect,0.225000X-0.375000X0.225000X-0.375000X-0.225000X0.375000X-0.225000X0.375000X0.225000X0*%
%ADD40RoundRect,0.250000X0.325000X0.650000X-0.325000X0.650000X-0.325000X-0.650000X0.325000X-0.650000X0*%
%ADD41RoundRect,0.218750X-0.218750X-0.256250X0.218750X-0.256250X0.218750X0.256250X-0.218750X0.256250X0*%
G04 APERTURE END LIST*
D10*
%TO.C,U9*%
X152725000Y-65155000D03*
X152725000Y-63885000D03*
X152725000Y-62615000D03*
X152725000Y-61345000D03*
X147775000Y-61345000D03*
X147775000Y-62615000D03*
X147775000Y-63885000D03*
X147775000Y-65155000D03*
%TD*%
D11*
%TO.C,C51*%
X158350000Y-136675000D03*
X158350000Y-133725000D03*
%TD*%
%TO.C,C6*%
X157900000Y-105575000D03*
X157900000Y-102625000D03*
%TD*%
D12*
%TO.C,R16*%
X160850000Y-138125000D03*
X160850000Y-139775000D03*
%TD*%
D13*
%TO.C,U2*%
X154000000Y-74000000D03*
X154000000Y-73500000D03*
X154000000Y-73000000D03*
X154000000Y-72500000D03*
X154000000Y-72000000D03*
X149700000Y-72000000D03*
X149700000Y-72500000D03*
X149700000Y-73000000D03*
X149700000Y-73500000D03*
X149700000Y-74000000D03*
%TD*%
D14*
%TO.C,U5*%
X158000000Y-69880000D03*
X158000000Y-71150000D03*
X158000000Y-72420000D03*
X158000000Y-73690000D03*
X158000000Y-74960000D03*
X158000000Y-76230000D03*
X158000000Y-77500000D03*
X158000000Y-78770000D03*
X162950000Y-78770000D03*
X162950000Y-77500000D03*
X162950000Y-76230000D03*
X162950000Y-74960000D03*
X162950000Y-73690000D03*
X162950000Y-72420000D03*
X162950000Y-71150000D03*
X162950000Y-69880000D03*
%TD*%
D15*
%TO.C,C37*%
X166000000Y-60250000D03*
X166000000Y-61800000D03*
%TD*%
D16*
%TO.C,C54*%
X125500000Y-132525000D03*
X125500000Y-130975000D03*
%TD*%
D17*
%TO.C,C61*%
X153525000Y-104000000D03*
X151975000Y-104000000D03*
%TD*%
D18*
%TO.C,R27*%
X186750000Y-108250000D03*
X185100000Y-108250000D03*
%TD*%
D16*
%TO.C,C59*%
X141250000Y-132550000D03*
X141250000Y-131000000D03*
%TD*%
D19*
%TO.C,R32*%
X160100000Y-91500000D03*
X161750000Y-91500000D03*
%TD*%
D20*
%TO.C,C25*%
X154025000Y-87050000D03*
X155575000Y-87050000D03*
%TD*%
D11*
%TO.C,C55*%
X127500000Y-132475000D03*
X127500000Y-129525000D03*
%TD*%
D20*
%TO.C,C47*%
X125100000Y-73250000D03*
X126650000Y-73250000D03*
%TD*%
D16*
%TO.C,C28*%
X171100000Y-135250000D03*
X171100000Y-133700000D03*
%TD*%
D17*
%TO.C,C30*%
X130975000Y-91600000D03*
X129425000Y-91600000D03*
%TD*%
D21*
%TO.C,C45*%
X154850000Y-128975000D03*
X154850000Y-131925000D03*
%TD*%
D15*
%TO.C,C40*%
X122200000Y-89825000D03*
X122200000Y-91375000D03*
%TD*%
D16*
%TO.C,C16*%
X155750000Y-105775000D03*
X155750000Y-104225000D03*
%TD*%
D19*
%TO.C,R29*%
X185600000Y-118000000D03*
X187250000Y-118000000D03*
%TD*%
D22*
%TO.C,L2*%
X154600000Y-100250000D03*
X150900000Y-100250000D03*
%TD*%
D19*
%TO.C,R21*%
X134175000Y-74750000D03*
X135825000Y-74750000D03*
%TD*%
D16*
%TO.C,C31*%
X122600000Y-80550000D03*
X122600000Y-79000000D03*
%TD*%
D19*
%TO.C,R30*%
X160100000Y-88500000D03*
X161750000Y-88500000D03*
%TD*%
D23*
%TO.C,C35*%
X137451992Y-82851992D03*
X138548008Y-83948008D03*
%TD*%
D18*
%TO.C,R22*%
X142825000Y-74750000D03*
X141175000Y-74750000D03*
%TD*%
D16*
%TO.C,C24*%
X147850000Y-71950000D03*
X147850000Y-70400000D03*
%TD*%
D17*
%TO.C,C64*%
X147350000Y-101600000D03*
X145800000Y-101600000D03*
%TD*%
%TO.C,C56*%
X117250000Y-142450000D03*
X115700000Y-142450000D03*
%TD*%
D24*
%TO.C,U11*%
X119475000Y-127415000D03*
X122525000Y-127415000D03*
X119475000Y-124065000D03*
X122525000Y-124065000D03*
D25*
X118720000Y-132040000D03*
X123280000Y-132040000D03*
%TD*%
D11*
%TO.C,C50*%
X152250000Y-125825000D03*
X152250000Y-122875000D03*
%TD*%
D17*
%TO.C,C41*%
X132175000Y-77600000D03*
X130625000Y-77600000D03*
%TD*%
D26*
%TO.C,U6*%
X165600000Y-135700000D03*
D27*
X162900000Y-133795000D03*
X162900000Y-135065000D03*
X162900000Y-136335000D03*
X162900000Y-137605000D03*
X168300000Y-137605000D03*
X168300000Y-136335000D03*
X168300000Y-135065000D03*
X168300000Y-133795000D03*
%TD*%
D12*
%TO.C,R38*%
X155750000Y-107175000D03*
X155750000Y-108825000D03*
%TD*%
D17*
%TO.C,C36*%
X147025000Y-66750000D03*
X145475000Y-66750000D03*
%TD*%
D20*
%TO.C,C63*%
X148750000Y-96300000D03*
X150300000Y-96300000D03*
%TD*%
D28*
%TO.C,J12*%
X104550000Y-124370000D03*
X104550000Y-125170000D03*
D29*
X104550000Y-126320000D03*
X104550000Y-127320000D03*
X104550000Y-127820000D03*
X104550000Y-128820000D03*
D28*
X104550000Y-129970000D03*
X104550000Y-130770000D03*
X104550000Y-130770000D03*
X104550000Y-129970000D03*
D29*
X104550000Y-129320000D03*
X104550000Y-128320000D03*
X104550000Y-126820000D03*
X104550000Y-125820000D03*
D28*
X104550000Y-125170000D03*
X104550000Y-124370000D03*
%TD*%
D30*
%TO.C,R35*%
X102250000Y-136075000D03*
X102250000Y-134425000D03*
%TD*%
D19*
%TO.C,R26*%
X160100000Y-87000000D03*
X161750000Y-87000000D03*
%TD*%
D24*
%TO.C,U13*%
X135225000Y-127415000D03*
X138275000Y-127415000D03*
X135225000Y-124065000D03*
X138275000Y-124065000D03*
D25*
X134470000Y-132040000D03*
X139030000Y-132040000D03*
%TD*%
D15*
%TO.C,C44*%
X157100000Y-129925000D03*
X157100000Y-131475000D03*
%TD*%
D12*
%TO.C,R28*%
X127100000Y-68425000D03*
X127100000Y-70075000D03*
%TD*%
D16*
%TO.C,C22*%
X164000000Y-68300000D03*
X164000000Y-66750000D03*
%TD*%
D19*
%TO.C,R39*%
X149100000Y-109000000D03*
X150750000Y-109000000D03*
%TD*%
D31*
%TO.C,U8*%
X108462500Y-126450000D03*
X108462500Y-127400000D03*
X108462500Y-128350000D03*
X110737500Y-128350000D03*
X110737500Y-127400000D03*
X110737500Y-126450000D03*
%TD*%
D11*
%TO.C,C57*%
X130250000Y-132475000D03*
X130250000Y-129525000D03*
%TD*%
D15*
%TO.C,C29*%
X132500000Y-90225000D03*
X132500000Y-91775000D03*
%TD*%
D32*
%TO.C,L1*%
X170900000Y-125950000D03*
X160300000Y-125950000D03*
%TD*%
D15*
%TO.C,C43*%
X100500000Y-134475000D03*
X100500000Y-136025000D03*
%TD*%
D30*
%TO.C,R40*%
X149000000Y-107325000D03*
X149000000Y-105675000D03*
%TD*%
D33*
%TO.C,C34*%
X137303984Y-88348008D03*
X138400000Y-87251992D03*
%TD*%
D11*
%TO.C,C49*%
X154850000Y-125800000D03*
X154850000Y-122850000D03*
%TD*%
D30*
%TO.C,R20*%
X119400000Y-89825000D03*
X119400000Y-88175000D03*
%TD*%
%TO.C,R37*%
X169850000Y-141850000D03*
X169850000Y-140200000D03*
%TD*%
D34*
%TO.C,U7*%
X131162500Y-88350000D03*
X131162500Y-87850000D03*
X131162500Y-87350000D03*
X131162500Y-86850000D03*
X131162500Y-86350000D03*
X131162500Y-85850000D03*
X131162500Y-85350000D03*
X131162500Y-84850000D03*
X131162500Y-84350000D03*
X131162500Y-83850000D03*
X131162500Y-83350000D03*
X131162500Y-82850000D03*
D35*
X129750000Y-81437500D03*
X129250000Y-81437500D03*
X128750000Y-81437500D03*
X128250000Y-81437500D03*
X127750000Y-81437500D03*
X127250000Y-81437500D03*
X126750000Y-81437500D03*
X126250000Y-81437500D03*
X125750000Y-81437500D03*
X125250000Y-81437500D03*
X124750000Y-81437500D03*
X124250000Y-81437500D03*
D34*
X122837500Y-82850000D03*
X122837500Y-83350000D03*
X122837500Y-83850000D03*
X122837500Y-84350000D03*
X122837500Y-84850000D03*
X122837500Y-85350000D03*
X122837500Y-85850000D03*
X122837500Y-86350000D03*
X122837500Y-86850000D03*
X122837500Y-87350000D03*
X122837500Y-87850000D03*
X122837500Y-88350000D03*
D35*
X124250000Y-89762500D03*
X124750000Y-89762500D03*
X125250000Y-89762500D03*
X125750000Y-89762500D03*
X126250000Y-89762500D03*
X126750000Y-89762500D03*
X127250000Y-89762500D03*
X127750000Y-89762500D03*
X128250000Y-89762500D03*
X128750000Y-89762500D03*
X129250000Y-89762500D03*
X129750000Y-89762500D03*
%TD*%
D15*
%TO.C,C27*%
X171100000Y-136925000D03*
X171100000Y-138475000D03*
%TD*%
D30*
%TO.C,R25*%
X126000000Y-60075000D03*
X126000000Y-58425000D03*
%TD*%
D36*
%TO.C,Y1*%
X135976777Y-84421142D03*
X134421142Y-85976777D03*
X135623223Y-87178858D03*
X137178858Y-85623223D03*
%TD*%
D30*
%TO.C,R23*%
X105800000Y-120425000D03*
X105800000Y-118775000D03*
%TD*%
D19*
%TO.C,R31*%
X160100000Y-90000000D03*
X161750000Y-90000000D03*
%TD*%
D37*
%TO.C,U12*%
X152650000Y-88750000D03*
X152650000Y-89250000D03*
X152650000Y-89750000D03*
X152650000Y-90250000D03*
X152650000Y-90750000D03*
X156850000Y-90750000D03*
X156850000Y-90250000D03*
X156850000Y-89750000D03*
X156850000Y-89250000D03*
X156850000Y-88750000D03*
%TD*%
D11*
%TO.C,C60*%
X143250000Y-132475000D03*
X143250000Y-129525000D03*
%TD*%
%TO.C,C52*%
X114500000Y-132475000D03*
X114500000Y-129525000D03*
%TD*%
D16*
%TO.C,C26*%
X160600000Y-135225000D03*
X160600000Y-133675000D03*
%TD*%
%TO.C,C53*%
X116500000Y-132550000D03*
X116500000Y-131000000D03*
%TD*%
D38*
%TO.C,U10*%
X162800000Y-60400000D03*
X162800000Y-60900000D03*
X162800000Y-61400000D03*
X164225000Y-61400000D03*
X164225000Y-60900000D03*
X164225000Y-60400000D03*
%TD*%
D39*
%TO.C,D1*%
X149000000Y-130350000D03*
X149000000Y-133650000D03*
%TD*%
D31*
%TO.C,U14*%
X151725000Y-105500000D03*
X151725000Y-106450000D03*
X151725000Y-107400000D03*
X154000000Y-107400000D03*
X154000000Y-106450000D03*
X154000000Y-105500000D03*
%TD*%
D30*
%TO.C,R34*%
X108200000Y-123225000D03*
X108200000Y-121575000D03*
%TD*%
D16*
%TO.C,C32*%
X125600000Y-79175000D03*
X125600000Y-77625000D03*
%TD*%
%TO.C,C33*%
X127200000Y-79175000D03*
X127200000Y-77625000D03*
%TD*%
%TO.C,C23*%
X155850000Y-71275000D03*
X155850000Y-69725000D03*
%TD*%
D20*
%TO.C,C48*%
X126000000Y-63450000D03*
X127550000Y-63450000D03*
%TD*%
D18*
%TO.C,R24*%
X104025000Y-118825000D03*
X102375000Y-118825000D03*
%TD*%
D21*
%TO.C,C46*%
X152250000Y-129025000D03*
X152250000Y-131975000D03*
%TD*%
D12*
%TO.C,R33*%
X107500000Y-130675000D03*
X107500000Y-132325000D03*
%TD*%
D18*
%TO.C,R36*%
X168350000Y-139450000D03*
X166700000Y-139450000D03*
%TD*%
D16*
%TO.C,C39*%
X128800000Y-79175000D03*
X128800000Y-77625000D03*
%TD*%
D40*
%TO.C,C62*%
X147150000Y-99600000D03*
X144200000Y-99600000D03*
%TD*%
D15*
%TO.C,C65*%
X186750000Y-110475000D03*
X186750000Y-112025000D03*
%TD*%
D20*
%TO.C,C42*%
X108625000Y-58750000D03*
X110175000Y-58750000D03*
%TD*%
D41*
%TO.C,FB3*%
X130612500Y-79400000D03*
X132187500Y-79400000D03*
%TD*%
D16*
%TO.C,C58*%
X132250000Y-132550000D03*
X132250000Y-131000000D03*
%TD*%
M02*
