%TF.GenerationSoftware,KiCad,Pcbnew,10.0.3*%
%TF.CreationDate,2026-09-11T18:41:02+02:00*%
%TF.ProjectId,ControlBoard,436f6e74-726f-46c4-926f-6172642e6b69,rev?*%
%TF.SameCoordinates,Original*%
%TF.FileFunction,Copper,L1,Top*%
%TF.FilePolarity,Positive*%
%FSLAX46Y46*%
G04 Gerber Fmt 4.6, Leading zero omitted, Abs format (unit mm)*
G04 Created by KiCad (PCBNEW 10.0.3) date 2026-09-11 18:41:02*
%MOMM*%
%LPD*%
G01*
G04 APERTURE LIST*
G04 Aperture macros list*
%AMRoundRect*
0 Rectangle with rounded corners*
0 $1 Rounding radius*
0 $2 $3 $4 $5 $6 $7 $8 $9 X,Y pos of 4 corners*
0 Add a 4 corners polygon primitive as box body*
4,1,4,$2,$3,$4,$5,$6,$7,$8,$9,$2,$3,0*
0 Add four circle primitives for the rounded corners*
1,1,$1+$1,$2,$3*
1,1,$1+$1,$4,$5*
1,1,$1+$1,$6,$7*
1,1,$1+$1,$8,$9*
0 Add four rect primitives between the rounded corners*
20,1,$1+$1,$2,$3,$4,$5,0*
20,1,$1+$1,$4,$5,$6,$7,0*
20,1,$1+$1,$6,$7,$8,$9,0*
20,1,$1+$1,$8,$9,$2,$3,0*%
G04 Aperture macros list end*
%TA.AperFunction,Conductor*%
%ADD10C,0.200000*%
%TD*%
%TA.AperFunction,SMDPad,CuDef*%
%ADD11RoundRect,0.150000X0.825000X0.150000X-0.825000X0.150000X-0.825000X-0.150000X0.825000X-0.150000X0*%
%TD*%
%TA.AperFunction,ComponentPad*%
%ADD12R,1.730000X2.030000*%
%TD*%
%TA.AperFunction,ComponentPad*%
%ADD13O,1.730000X2.030000*%
%TD*%
%TA.AperFunction,SMDPad,CuDef*%
%ADD14RoundRect,0.250000X0.650000X-0.325000X0.650000X0.325000X-0.650000X0.325000X-0.650000X-0.325000X0*%
%TD*%
%TA.AperFunction,SMDPad,CuDef*%
%ADD15RoundRect,0.200000X-0.275000X0.200000X-0.275000X-0.200000X0.275000X-0.200000X0.275000X0.200000X0*%
%TD*%
%TA.AperFunction,SMDPad,CuDef*%
%ADD16RoundRect,0.075000X0.650000X0.075000X-0.650000X0.075000X-0.650000X-0.075000X0.650000X-0.075000X0*%
%TD*%
%TA.AperFunction,SMDPad,CuDef*%
%ADD17RoundRect,0.150000X-0.825000X-0.150000X0.825000X-0.150000X0.825000X0.150000X-0.825000X0.150000X0*%
%TD*%
%TA.AperFunction,SMDPad,CuDef*%
%ADD18RoundRect,0.225000X-0.250000X0.225000X-0.250000X-0.225000X0.250000X-0.225000X0.250000X0.225000X0*%
%TD*%
%TA.AperFunction,ComponentPad*%
%ADD19C,1.440000*%
%TD*%
%TA.AperFunction,SMDPad,CuDef*%
%ADD20RoundRect,0.225000X0.250000X-0.225000X0.250000X0.225000X-0.250000X0.225000X-0.250000X-0.225000X0*%
%TD*%
%TA.AperFunction,ComponentPad*%
%ADD21R,1.700000X1.700000*%
%TD*%
%TA.AperFunction,ComponentPad*%
%ADD22C,1.700000*%
%TD*%
%TA.AperFunction,SMDPad,CuDef*%
%ADD23RoundRect,0.225000X0.225000X0.250000X-0.225000X0.250000X-0.225000X-0.250000X0.225000X-0.250000X0*%
%TD*%
%TA.AperFunction,SMDPad,CuDef*%
%ADD24RoundRect,0.200000X0.200000X0.275000X-0.200000X0.275000X-0.200000X-0.275000X0.200000X-0.275000X0*%
%TD*%
%TA.AperFunction,ComponentPad*%
%ADD25RoundRect,0.250000X-0.550000X0.550000X-0.550000X-0.550000X0.550000X-0.550000X0.550000X0.550000X0*%
%TD*%
%TA.AperFunction,ComponentPad*%
%ADD26C,1.600000*%
%TD*%
%TA.AperFunction,SMDPad,CuDef*%
%ADD27RoundRect,0.200000X-0.200000X-0.275000X0.200000X-0.275000X0.200000X0.275000X-0.200000X0.275000X0*%
%TD*%
%TA.AperFunction,SMDPad,CuDef*%
%ADD28RoundRect,0.225000X-0.225000X-0.250000X0.225000X-0.250000X0.225000X0.250000X-0.225000X0.250000X0*%
%TD*%
%TA.AperFunction,ComponentPad*%
%ADD29RoundRect,0.250000X-0.550000X-0.550000X0.550000X-0.550000X0.550000X0.550000X-0.550000X0.550000X0*%
%TD*%
%TA.AperFunction,SMDPad,CuDef*%
%ADD30RoundRect,0.250000X-0.650000X0.325000X-0.650000X-0.325000X0.650000X-0.325000X0.650000X0.325000X0*%
%TD*%
%TA.AperFunction,SMDPad,CuDef*%
%ADD31RoundRect,0.249999X0.450001X1.850001X-0.450001X1.850001X-0.450001X-1.850001X0.450001X-1.850001X0*%
%TD*%
%TA.AperFunction,SMDPad,CuDef*%
%ADD32RoundRect,0.225000X-0.335876X-0.017678X-0.017678X-0.335876X0.335876X0.017678X0.017678X0.335876X0*%
%TD*%
%TA.AperFunction,SMDPad,CuDef*%
%ADD33RoundRect,0.250000X0.350000X-0.850000X0.350000X0.850000X-0.350000X0.850000X-0.350000X-0.850000X0*%
%TD*%
%TA.AperFunction,SMDPad,CuDef*%
%ADD34RoundRect,0.249997X2.650003X-2.950003X2.650003X2.950003X-2.650003X2.950003X-2.650003X-2.950003X0*%
%TD*%
%TA.AperFunction,SMDPad,CuDef*%
%ADD35R,1.550000X0.600000*%
%TD*%
%TA.AperFunction,ComponentPad*%
%ADD36C,0.600000*%
%TD*%
%TA.AperFunction,SMDPad,CuDef*%
%ADD37R,2.950000X4.900000*%
%TD*%
%TA.AperFunction,ComponentPad*%
%ADD38O,1.800000X1.000000*%
%TD*%
%TA.AperFunction,SMDPad,CuDef*%
%ADD39RoundRect,0.150000X-0.470000X0.150000X-0.470000X-0.150000X0.470000X-0.150000X0.470000X0.150000X0*%
%TD*%
%TA.AperFunction,SMDPad,CuDef*%
%ADD40RoundRect,0.075000X-0.545000X0.075000X-0.545000X-0.075000X0.545000X-0.075000X0.545000X0.075000X0*%
%TD*%
%TA.AperFunction,ComponentPad*%
%ADD41O,2.100000X1.000000*%
%TD*%
%TA.AperFunction,SMDPad,CuDef*%
%ADD42RoundRect,0.200000X0.275000X-0.200000X0.275000X0.200000X-0.275000X0.200000X-0.275000X-0.200000X0*%
%TD*%
%TA.AperFunction,SMDPad,CuDef*%
%ADD43RoundRect,0.150000X-0.512500X-0.150000X0.512500X-0.150000X0.512500X0.150000X-0.512500X0.150000X0*%
%TD*%
%TA.AperFunction,ComponentPad*%
%ADD44RoundRect,0.250001X1.149999X-1.149999X1.149999X1.149999X-1.149999X1.149999X-1.149999X-1.149999X0*%
%TD*%
%TA.AperFunction,ComponentPad*%
%ADD45C,2.800000*%
%TD*%
%TA.AperFunction,SMDPad,CuDef*%
%ADD46RoundRect,0.250002X1.799998X2.499998X-1.799998X2.499998X-1.799998X-2.499998X1.799998X-2.499998X0*%
%TD*%
%TA.AperFunction,SMDPad,CuDef*%
%ADD47RoundRect,0.225000X0.017678X-0.335876X0.335876X-0.017678X-0.017678X0.335876X-0.335876X0.017678X0*%
%TD*%
%TA.AperFunction,SMDPad,CuDef*%
%ADD48RoundRect,0.075000X0.662500X0.075000X-0.662500X0.075000X-0.662500X-0.075000X0.662500X-0.075000X0*%
%TD*%
%TA.AperFunction,SMDPad,CuDef*%
%ADD49RoundRect,0.075000X0.075000X0.662500X-0.075000X0.662500X-0.075000X-0.662500X0.075000X-0.662500X0*%
%TD*%
%TA.AperFunction,SMDPad,CuDef*%
%ADD50RoundRect,0.250001X0.106066X0.813171X-0.813171X-0.106066X-0.106066X-0.813171X0.813171X0.106066X0*%
%TD*%
%TA.AperFunction,SMDPad,CuDef*%
%ADD51RoundRect,0.087500X-0.662500X-0.087500X0.662500X-0.087500X0.662500X0.087500X-0.662500X0.087500X0*%
%TD*%
%TA.AperFunction,ComponentPad*%
%ADD52RoundRect,0.250000X0.550000X0.550000X-0.550000X0.550000X-0.550000X-0.550000X0.550000X-0.550000X0*%
%TD*%
%TA.AperFunction,ComponentPad*%
%ADD53RoundRect,0.250001X-1.149999X-1.149999X1.149999X-1.149999X1.149999X1.149999X-1.149999X1.149999X0*%
%TD*%
%TA.AperFunction,SMDPad,CuDef*%
%ADD54RoundRect,0.087500X-0.250000X-0.087500X0.250000X-0.087500X0.250000X0.087500X-0.250000X0.087500X0*%
%TD*%
%TA.AperFunction,SMDPad,CuDef*%
%ADD55RoundRect,0.225000X-0.375000X0.225000X-0.375000X-0.225000X0.375000X-0.225000X0.375000X0.225000X0*%
%TD*%
%TA.AperFunction,SMDPad,CuDef*%
%ADD56RoundRect,0.250000X0.325000X0.650000X-0.325000X0.650000X-0.325000X-0.650000X0.325000X-0.650000X0*%
%TD*%
%TA.AperFunction,SMDPad,CuDef*%
%ADD57RoundRect,0.218750X-0.218750X-0.256250X0.218750X-0.256250X0.218750X0.256250X-0.218750X0.256250X0*%
%TD*%
%TA.AperFunction,ViaPad*%
%ADD58C,0.500000*%
%TD*%
%TA.AperFunction,ViaPad*%
%ADD59C,0.700000*%
%TD*%
%TA.AperFunction,ViaPad*%
%ADD60C,1.000000*%
%TD*%
%TA.AperFunction,ViaPad*%
%ADD61C,0.800000*%
%TD*%
%TA.AperFunction,Conductor*%
%ADD62C,0.500000*%
%TD*%
%TA.AperFunction,Conductor*%
%ADD63C,0.300000*%
%TD*%
%TA.AperFunction,Conductor*%
%ADD64C,0.250000*%
%TD*%
%TA.AperFunction,Conductor*%
%ADD65C,1.000000*%
%TD*%
%TA.AperFunction,Conductor*%
%ADD66C,0.400000*%
%TD*%
G04 APERTURE END LIST*
D10*
%TO.N,Net-(U6-SW)*%
X171400000Y-134100000D02*
X171400000Y-128150000D01*
X169000000Y-128150000D01*
X169000000Y-132750000D01*
X168600000Y-133100000D01*
X168150000Y-133500000D01*
X168150000Y-134100000D01*
X171400000Y-134100000D01*
%TA.AperFunction,Conductor*%
G36*
X171400000Y-134100000D02*
G01*
X168150000Y-134100000D01*
X168150000Y-133500000D01*
X168600000Y-133100000D01*
X169000000Y-132750000D01*
X169000000Y-128150000D01*
X171400000Y-128150000D01*
X171400000Y-134100000D01*
G37*
%TD.AperFunction*%
%TO.N,+12V*%
X153475000Y-106650000D02*
X154925000Y-106650000D01*
X155500000Y-107250000D01*
X156100000Y-107250000D01*
X156100000Y-105500000D01*
X155500000Y-105500000D01*
X154750000Y-106250000D01*
X153474914Y-106250275D01*
X153475000Y-106650000D01*
%TA.AperFunction,Conductor*%
G36*
X156100000Y-107250000D02*
G01*
X155500000Y-107250000D01*
X154925000Y-106650000D01*
X153475000Y-106650000D01*
X153474914Y-106250275D01*
X154750000Y-106250000D01*
X155500000Y-105500000D01*
X156100000Y-105500000D01*
X156100000Y-107250000D01*
G37*
%TD.AperFunction*%
%TO.N,Net-(U14-SW)*%
X153500000Y-105750000D02*
X154500000Y-105750000D01*
X154750000Y-105500000D01*
X154750000Y-103250000D01*
X155250000Y-102750000D01*
X155250000Y-98250000D01*
X154000000Y-98250000D01*
X154000000Y-102500000D01*
X153500000Y-103000000D01*
X153500000Y-105750000D01*
%TA.AperFunction,Conductor*%
G36*
X155250000Y-102750000D02*
G01*
X154750000Y-103250000D01*
X154750000Y-105500000D01*
X154500000Y-105750000D01*
X153500000Y-105750000D01*
X153500000Y-103000000D01*
X154000000Y-102500000D01*
X154000000Y-98250000D01*
X155250000Y-98250000D01*
X155250000Y-102750000D01*
G37*
%TD.AperFunction*%
%TO.N,+12V*%
X158500000Y-123250000D02*
X156250000Y-125500000D01*
X151500000Y-125500000D01*
X151500000Y-129000000D01*
X156000000Y-129000000D01*
X156750000Y-129750000D01*
X157500000Y-129750000D01*
X158750000Y-128500000D01*
X158750000Y-123250000D01*
X158500000Y-123250000D01*
%TA.AperFunction,Conductor*%
G36*
X158750000Y-128500000D02*
G01*
X157500000Y-129750000D01*
X156750000Y-129750000D01*
X156000000Y-129000000D01*
X151500000Y-129000000D01*
X151500000Y-125500000D01*
X156250000Y-125500000D01*
X158500000Y-123250000D01*
X158750000Y-123250000D01*
X158750000Y-128500000D01*
G37*
%TD.AperFunction*%
%TO.N,+3V3*%
X147450000Y-98250000D02*
X151250000Y-98250000D01*
X151250000Y-102250000D01*
X147450000Y-102250000D01*
X147450000Y-98250000D01*
%TA.AperFunction,Conductor*%
G36*
X147450000Y-98250000D02*
G01*
X151250000Y-98250000D01*
X151250000Y-102250000D01*
X147450000Y-102250000D01*
X147450000Y-98250000D01*
G37*
%TD.AperFunction*%
%TO.N,+12V*%
X148500000Y-128050000D02*
X148500000Y-128050000D01*
G75*
G02*
X148800000Y-127750000I300000J0D01*
G01*
X151700000Y-127750000D01*
G75*
G02*
X152000000Y-128050000I0J-300000D01*
G01*
X152000000Y-128700000D01*
G75*
G02*
X151700000Y-129000000I-300000J0D01*
G01*
X148800000Y-129000000D01*
G75*
G02*
X148500000Y-128700000I0J300000D01*
G01*
X148500000Y-128050000D01*
%TA.AperFunction,Conductor*%
G36*
X148500000Y-128050000D02*
G01*
X148500000Y-128050000D01*
G75*
G02*
X148800000Y-127750000I300000J0D01*
G01*
X151700000Y-127750000D01*
G75*
G02*
X152000000Y-128050000I0J-300000D01*
G01*
X152000000Y-128700000D01*
G75*
G02*
X151700000Y-129000000I-300000J0D01*
G01*
X148800000Y-129000000D01*
G75*
G02*
X148500000Y-128700000I0J300000D01*
G01*
X148500000Y-128050000D01*
G37*
%TD.AperFunction*%
%TD*%
D11*
%TO.P,U9,1,A0_1*%
%TO.N,Masa*%
X152725000Y-65155000D03*
%TO.P,U9,2,A1_2*%
X152725000Y-63885000D03*
%TO.P,U9,3,A2_3*%
X152725000Y-62615000D03*
%TO.P,U9,4,VSS_4*%
X152725000Y-61345000D03*
%TO.P,U9,5,SDA_5*%
%TO.N,SDA*%
X147775000Y-61345000D03*
%TO.P,U9,6,SCL_6*%
%TO.N,SCL*%
X147775000Y-62615000D03*
%TO.P,U9,7,WP_7*%
%TO.N,Masa*%
X147775000Y-63885000D03*
%TO.P,U9,8,VDD_8*%
%TO.N,+3V3*%
X147775000Y-65155000D03*
%TD*%
D12*
%TO.P,M1,1,-_1*%
%TO.N,Masa*%
X188000000Y-148000000D03*
D13*
%TO.P,M1,2,+_2*%
%TO.N,+12V*%
X190540000Y-148000000D03*
%TO.P,M1,3,Tacho_3*%
%TO.N,unconnected-(M1-Tacho-Pad3)*%
X193080000Y-148000000D03*
%TO.P,M1,4,PWM_4*%
%TO.N,/Fan0*%
X195620000Y-148000000D03*
%TD*%
D14*
%TO.P,C51,1*%
%TO.N,+24V*%
X158350000Y-136675000D03*
%TO.P,C51,2*%
%TO.N,Masa*%
X158350000Y-133725000D03*
%TD*%
%TO.P,C6,1*%
%TO.N,+12V*%
X157900000Y-105575000D03*
%TO.P,C6,2*%
%TO.N,Masa*%
X157900000Y-102625000D03*
%TD*%
D15*
%TO.P,R16,1*%
%TO.N,Net-(U6-PG)*%
X160850000Y-138125000D03*
%TO.P,R16,2*%
%TO.N,Net-(U6-VCC)*%
X160850000Y-139775000D03*
%TD*%
D16*
%TO.P,U2,1,ADDR_1*%
%TO.N,Masa*%
X154000000Y-74000000D03*
%TO.P,U2,2,ALERT/RDY_2*%
%TO.N,unconnected-(U2-ALERT{slash}RDY-Pad2)*%
X154000000Y-73500000D03*
%TO.P,U2,3,GND_3*%
%TO.N,Masa*%
X154000000Y-73000000D03*
%TO.P,U2,4,AIN0_4*%
%TO.N,Net-(U2-AIN0)*%
X154000000Y-72500000D03*
%TO.P,U2,5,AIN1_5*%
%TO.N,Net-(U2-AIN1)*%
X154000000Y-72000000D03*
%TO.P,U2,6,AIN2_6*%
%TO.N,unconnected-(U2-AIN2-Pad6)*%
X149700000Y-72000000D03*
%TO.P,U2,7,AIN3_7*%
%TO.N,unconnected-(U2-AIN3-Pad7)*%
X149700000Y-72500000D03*
%TO.P,U2,8,VDD_8*%
%TO.N,+5V*%
X149700000Y-73000000D03*
%TO.P,U2,9,SDA_9*%
%TO.N,SDA*%
X149700000Y-73500000D03*
%TO.P,U2,10,SCL_10*%
%TO.N,SCL*%
X149700000Y-74000000D03*
%TD*%
D17*
%TO.P,U5,1,A4_1*%
%TO.N,Net-(J6-Pin_6)*%
X158000000Y-69880000D03*
%TO.P,U5,2,A6_2*%
%TO.N,Net-(J7-Pin_6)*%
X158000000Y-71150000D03*
%TO.P,U5,3,A_3*%
%TO.N,Net-(U2-AIN0)*%
X158000000Y-72420000D03*
%TO.P,U5,4,A7_4*%
%TO.N,Net-(J7-Pin_7)*%
X158000000Y-73690000D03*
%TO.P,U5,5,A5_5*%
%TO.N,Net-(J6-Pin_7)*%
X158000000Y-74960000D03*
%TO.P,U5,6,~{E}_6*%
%TO.N,Masa*%
X158000000Y-76230000D03*
%TO.P,U5,7,VEE_7*%
X158000000Y-77500000D03*
%TO.P,U5,8,GND_8*%
X158000000Y-78770000D03*
%TO.P,U5,9,S2_9*%
%TO.N,S2*%
X162950000Y-78770000D03*
%TO.P,U5,10,S1_10*%
%TO.N,S1*%
X162950000Y-77500000D03*
%TO.P,U5,11,S0_11*%
%TO.N,S0*%
X162950000Y-76230000D03*
%TO.P,U5,12,A3_12*%
%TO.N,Net-(J5-Pin_7)*%
X162950000Y-74960000D03*
%TO.P,U5,13,A0_13*%
%TO.N,Net-(J4-Pin_6)*%
X162950000Y-73690000D03*
%TO.P,U5,14,A1_14*%
%TO.N,Net-(J4-Pin_7)*%
X162950000Y-72420000D03*
%TO.P,U5,15,A2_15*%
%TO.N,Net-(J5-Pin_6)*%
X162950000Y-71150000D03*
%TO.P,U5,16,VCC_16*%
%TO.N,+5V*%
X162950000Y-69880000D03*
%TD*%
D18*
%TO.P,C37,1*%
%TO.N,+3V3*%
X166000000Y-60250000D03*
%TO.P,C37,2*%
%TO.N,Masa*%
X166000000Y-61800000D03*
%TD*%
D19*
%TO.P,RV3,1,1_1*%
%TO.N,/Set2*%
X176245000Y-88210000D03*
%TO.P,RV3,2,2_2*%
X176245000Y-90750000D03*
%TO.P,RV3,3,3_3*%
%TO.N,Masa*%
X176245000Y-93290000D03*
%TD*%
D20*
%TO.P,C54,1*%
%TO.N,+15V*%
X125500000Y-132525000D03*
%TO.P,C54,2*%
%TO.N,Masa*%
X125500000Y-130975000D03*
%TD*%
D21*
%TO.P,J4,1,Pin_1_1*%
%TO.N,+24V*%
X195000000Y-56000000D03*
D22*
%TO.P,J4,2,Pin_2_2*%
%TO.N,+15V*%
X195000000Y-58540000D03*
%TO.P,J4,3,Pin_3_3*%
%TO.N,+5V*%
X195000000Y-61080000D03*
%TO.P,J4,4,Pin_4_4*%
%TO.N,Masa*%
X195000000Y-63620000D03*
%TO.P,J4,5,Pin_5_5*%
%TO.N,/Det0*%
X195000000Y-66160000D03*
%TO.P,J4,6,Pin_6_6*%
%TO.N,Net-(J4-Pin_6)*%
X195000000Y-68700000D03*
%TO.P,J4,7,Pin_7_7*%
%TO.N,Net-(J4-Pin_7)*%
X195000000Y-71240000D03*
%TO.P,J4,8,Pin_8_8*%
%TO.N,R0*%
X195000000Y-73780000D03*
%TO.P,J4,9,Pin_9_9*%
%TO.N,/Set0*%
X195000000Y-76320000D03*
%TO.P,J4,10,Pin_10_10*%
%TO.N,Masa*%
X195000000Y-78860000D03*
%TD*%
D21*
%TO.P,J7,1,Pin_1_1*%
%TO.N,+24V*%
X175250000Y-55920000D03*
D22*
%TO.P,J7,2,Pin_2_2*%
%TO.N,+15V*%
X175250000Y-58460000D03*
%TO.P,J7,3,Pin_3_3*%
%TO.N,+5V*%
X175250000Y-61000000D03*
%TO.P,J7,4,Pin_4_4*%
%TO.N,Masa*%
X175250000Y-63540000D03*
%TO.P,J7,5,Pin_5_5*%
%TO.N,/Det3*%
X175250000Y-66080000D03*
%TO.P,J7,6,Pin_6_6*%
%TO.N,Net-(J7-Pin_6)*%
X175250000Y-68620000D03*
%TO.P,J7,7,Pin_7_7*%
%TO.N,Net-(J7-Pin_7)*%
X175250000Y-71160000D03*
%TO.P,J7,8,Pin_8_8*%
%TO.N,R3*%
X175250000Y-73700000D03*
%TO.P,J7,9,Pin_9_9*%
%TO.N,/Set3*%
X175250000Y-76240000D03*
%TO.P,J7,10,Pin_10_10*%
%TO.N,Masa*%
X175250000Y-78780000D03*
%TD*%
D23*
%TO.P,C61,1*%
%TO.N,Net-(U14-SW)*%
X153525000Y-104000000D03*
%TO.P,C61,2*%
%TO.N,Net-(U14-BOOT)*%
X151975000Y-104000000D03*
%TD*%
D24*
%TO.P,R27,1*%
%TO.N,VIN*%
X186750000Y-108250000D03*
%TO.P,R27,2*%
%TO.N,Net-(R27-Pad2)*%
X185100000Y-108250000D03*
%TD*%
D21*
%TO.P,J2,1,Pin_1_1*%
%TO.N,Masa*%
X105750000Y-91330000D03*
D22*
%TO.P,J2,2,Pin_2_2*%
%TO.N,Net-(J2-Pin_2)*%
X105750000Y-88790000D03*
%TO.P,J2,3,Pin_3_3*%
%TO.N,Net-(J2-Pin_3)*%
X105750000Y-86250000D03*
%TO.P,J2,4,Pin_4_4*%
%TO.N,Net-(J2-Pin_4)*%
X105750000Y-83710000D03*
%TO.P,J2,5,Pin_5_5*%
%TO.N,+3V3*%
X105750000Y-81170000D03*
%TD*%
D20*
%TO.P,C59,1*%
%TO.N,+5V*%
X141250000Y-132550000D03*
%TO.P,C59,2*%
%TO.N,Masa*%
X141250000Y-131000000D03*
%TD*%
D25*
%TO.P,C1,1*%
%TO.N,+24V*%
X129250000Y-137500000D03*
D26*
%TO.P,C1,2*%
%TO.N,Masa*%
X129250000Y-140000000D03*
%TD*%
D27*
%TO.P,R32,1*%
%TO.N,Net-(U12-VOUTA)*%
X160100000Y-91500000D03*
%TO.P,R32,2*%
%TO.N,/Set0*%
X161750000Y-91500000D03*
%TD*%
D28*
%TO.P,C25,1*%
%TO.N,+5V*%
X154025000Y-87050000D03*
%TO.P,C25,2*%
%TO.N,Masa*%
X155575000Y-87050000D03*
%TD*%
D14*
%TO.P,C55,1*%
%TO.N,+15V*%
X127500000Y-132475000D03*
%TO.P,C55,2*%
%TO.N,Masa*%
X127500000Y-129525000D03*
%TD*%
D28*
%TO.P,C47,1*%
%TO.N,Net-(U7-PB12)*%
X125100000Y-73250000D03*
%TO.P,C47,2*%
%TO.N,Masa*%
X126650000Y-73250000D03*
%TD*%
D20*
%TO.P,C28,1*%
%TO.N,Net-(U6-BOOT)*%
X171100000Y-135250000D03*
%TO.P,C28,2*%
%TO.N,Net-(U6-SW)*%
X171100000Y-133700000D03*
%TD*%
D12*
%TO.P,M4,1,-_1*%
%TO.N,Masa*%
X148920000Y-148160000D03*
D13*
%TO.P,M4,2,+_2*%
%TO.N,+12V*%
X151460000Y-148160000D03*
%TO.P,M4,3,Tacho_3*%
%TO.N,unconnected-(M4-Tacho-Pad3)*%
X154000000Y-148160000D03*
%TO.P,M4,4,PWM_4*%
%TO.N,/Fan3*%
X156540000Y-148160000D03*
%TD*%
D23*
%TO.P,C30,1*%
%TO.N,+3V3*%
X130975000Y-91600000D03*
%TO.P,C30,2*%
%TO.N,Masa*%
X129425000Y-91600000D03*
%TD*%
D29*
%TO.P,C7,1*%
%TO.N,+3V3*%
X155500000Y-57250000D03*
D26*
%TO.P,C7,2*%
%TO.N,Masa*%
X158000000Y-57250000D03*
%TD*%
D30*
%TO.P,C45,1*%
%TO.N,+12V*%
X154850000Y-128975000D03*
%TO.P,C45,2*%
%TO.N,Masa*%
X154850000Y-131925000D03*
%TD*%
D18*
%TO.P,C40,1*%
%TO.N,+3V3*%
X122200000Y-89825000D03*
%TO.P,C40,2*%
%TO.N,Masa*%
X122200000Y-91375000D03*
%TD*%
D19*
%TO.P,RV1,1,1_1*%
%TO.N,/Set3*%
X168000000Y-88250000D03*
%TO.P,RV1,2,2_2*%
X168000000Y-90790000D03*
%TO.P,RV1,3,3_3*%
%TO.N,Masa*%
X168000000Y-93330000D03*
%TD*%
D20*
%TO.P,C16,1*%
%TO.N,+12V*%
X155750000Y-105775000D03*
%TO.P,C16,2*%
%TO.N,Masa*%
X155750000Y-104225000D03*
%TD*%
D27*
%TO.P,R29,1*%
%TO.N,Net-(U2-AIN1)*%
X185600000Y-118000000D03*
%TO.P,R29,2*%
%TO.N,Masa*%
X187250000Y-118000000D03*
%TD*%
D31*
%TO.P,L2,1,1_1*%
%TO.N,Net-(U14-SW)*%
X154600000Y-100250000D03*
%TO.P,L2,2,2_2*%
%TO.N,+3V3*%
X150900000Y-100250000D03*
%TD*%
D27*
%TO.P,R21,1*%
%TO.N,+3V3*%
X134175000Y-74750000D03*
%TO.P,R21,2*%
%TO.N,SDA*%
X135825000Y-74750000D03*
%TD*%
D20*
%TO.P,C31,1*%
%TO.N,+3V3*%
X122600000Y-80550000D03*
%TO.P,C31,2*%
%TO.N,Masa*%
X122600000Y-79000000D03*
%TD*%
D27*
%TO.P,R30,1*%
%TO.N,Net-(U12-VOUTC)*%
X160100000Y-88500000D03*
%TO.P,R30,2*%
%TO.N,/Set2*%
X161750000Y-88500000D03*
%TD*%
D32*
%TO.P,C35,1*%
%TO.N,/RCC_OSC_OUT*%
X137451992Y-82851992D03*
%TO.P,C35,2*%
%TO.N,Masa*%
X138548008Y-83948008D03*
%TD*%
D12*
%TO.P,M2,1,-_1*%
%TO.N,Masa*%
X175000000Y-148000000D03*
D13*
%TO.P,M2,2,+_2*%
%TO.N,+12V*%
X177540000Y-148000000D03*
%TO.P,M2,3,Tacho_3*%
%TO.N,unconnected-(M2-Tacho-Pad3)*%
X180080000Y-148000000D03*
%TO.P,M2,4,PWM_4*%
%TO.N,/Fan1*%
X182620000Y-148000000D03*
%TD*%
D24*
%TO.P,R22,1*%
%TO.N,+3V3*%
X142825000Y-74750000D03*
%TO.P,R22,2*%
%TO.N,SCL*%
X141175000Y-74750000D03*
%TD*%
D20*
%TO.P,C24,1*%
%TO.N,+5V*%
X147850000Y-71950000D03*
%TO.P,C24,2*%
%TO.N,Masa*%
X147850000Y-70400000D03*
%TD*%
D21*
%TO.P,J9,1,Pin_1_1*%
%TO.N,+3V3*%
X125210000Y-102250000D03*
D22*
%TO.P,J9,2,Pin_2_2*%
%TO.N,/SYS_JTMS_SWDIO*%
X127750000Y-102250000D03*
%TO.P,J9,3,Pin_3_3*%
%TO.N,/SYS_JTCK_SWCLK*%
X130290000Y-102250000D03*
%TO.P,J9,4,Pin_4_4*%
%TO.N,Masa*%
X132830000Y-102250000D03*
%TD*%
D23*
%TO.P,C64,1*%
%TO.N,+3V3*%
X147350000Y-101600000D03*
%TO.P,C64,2*%
%TO.N,Masa*%
X145800000Y-101600000D03*
%TD*%
D21*
%TO.P,J8,1,Pin_1_1*%
%TO.N,+3V3*%
X108180000Y-55750000D03*
D22*
%TO.P,J8,2,Pin_2_2*%
%TO.N,Masa*%
X110720000Y-55750000D03*
%TO.P,J8,3,Pin_3_3*%
%TO.N,/CS*%
X113260000Y-55750000D03*
%TO.P,J8,4,Pin_4_4*%
%TO.N,/Reset*%
X115800000Y-55750000D03*
%TO.P,J8,5,Pin_5_5*%
%TO.N,/DC{slash}RS*%
X118340000Y-55750000D03*
%TO.P,J8,6,Pin_6_6*%
%TO.N,/MOSI*%
X120880000Y-55750000D03*
%TO.P,J8,7,Pin_7_7*%
%TO.N,/SCK*%
X123420000Y-55750000D03*
%TO.P,J8,8,Pin_8_8*%
%TO.N,/LED*%
X125960000Y-55750000D03*
%TO.P,J8,9,Pin_9_9*%
%TO.N,/MISO*%
X128500000Y-55750000D03*
%TO.P,J8,10,Pin_10_10*%
%TO.N,/SCK*%
X131040000Y-55750000D03*
%TO.P,J8,11,Pin_11_11*%
%TO.N,/T_CS*%
X133580000Y-55750000D03*
%TO.P,J8,12,Pin_12_12*%
%TO.N,/MOSI*%
X136120000Y-55750000D03*
%TO.P,J8,13,Pin_13_13*%
%TO.N,/MISO*%
X138660000Y-55750000D03*
%TO.P,J8,14,Pin_14_14*%
%TO.N,/T_IRQ*%
X141200000Y-55750000D03*
%TD*%
D23*
%TO.P,C56,1*%
%TO.N,+24V*%
X117250000Y-142450000D03*
%TO.P,C56,2*%
%TO.N,Masa*%
X115700000Y-142450000D03*
%TD*%
D33*
%TO.P,U11,1,IN_1*%
%TO.N,+24V*%
X118720000Y-132040000D03*
D34*
%TO.P,U11,2,GND_2*%
%TO.N,Masa*%
X121000000Y-125740000D03*
D33*
%TO.P,U11,3,OUT_3*%
%TO.N,+15V*%
X123280000Y-132040000D03*
%TD*%
D14*
%TO.P,C50,1*%
%TO.N,+12V*%
X152250000Y-125825000D03*
%TO.P,C50,2*%
%TO.N,Masa*%
X152250000Y-122875000D03*
%TD*%
D23*
%TO.P,C41,1*%
%TO.N,+3V3*%
X132175000Y-77600000D03*
%TO.P,C41,2*%
%TO.N,Masa*%
X130625000Y-77600000D03*
%TD*%
D35*
%TO.P,U6,1,GND_1*%
%TO.N,Masa*%
X162900000Y-133795000D03*
%TO.P,U6,2,VIN_2*%
%TO.N,+24V*%
X162900000Y-135065000D03*
%TO.P,U6,3,EN_3*%
X162900000Y-136335000D03*
%TO.P,U6,4,PG_4*%
%TO.N,Net-(U6-PG)*%
X162900000Y-137605000D03*
%TO.P,U6,5,FB_5*%
%TO.N,Net-(U6-FB)*%
X168300000Y-137605000D03*
%TO.P,U6,6,VCC_6*%
%TO.N,Net-(U6-VCC)*%
X168300000Y-136335000D03*
%TO.P,U6,7,BOOT_7*%
%TO.N,Net-(U6-BOOT)*%
X168300000Y-135065000D03*
%TO.P,U6,8,SW_8*%
%TO.N,Net-(U6-SW)*%
X168300000Y-133795000D03*
D36*
%TO.P,U6,9,GND_9*%
%TO.N,Masa*%
X164950000Y-133750000D03*
X164950000Y-135050000D03*
X164950000Y-136350000D03*
X164950000Y-137650000D03*
D37*
X165600000Y-135700000D03*
D36*
X166250000Y-133750000D03*
X166250000Y-135050000D03*
X166250000Y-136350000D03*
X166250000Y-137650000D03*
%TD*%
D15*
%TO.P,R38,1*%
%TO.N,+12V*%
X155750000Y-107175000D03*
%TO.P,R38,2*%
%TO.N,Net-(U14-EN)*%
X155750000Y-108825000D03*
%TD*%
D23*
%TO.P,C36,1*%
%TO.N,+3V3*%
X147025000Y-66750000D03*
%TO.P,C36,2*%
%TO.N,Masa*%
X145475000Y-66750000D03*
%TD*%
D28*
%TO.P,C63,1*%
%TO.N,+3V3*%
X148750000Y-96300000D03*
%TO.P,C63,2*%
%TO.N,Masa*%
X150300000Y-96300000D03*
%TD*%
D38*
%TO.P,J12,*%
%TO.N,*%
X99750000Y-131890000D03*
D39*
%TO.P,J12,A1,GND_A1*%
%TO.N,Masa*%
X104550000Y-124370000D03*
%TO.P,J12,A4,VBUS_A4*%
%TO.N,Vbus*%
X104550000Y-125170000D03*
D40*
%TO.P,J12,A5,CC1_A5*%
%TO.N,Net-(J12-CC1)*%
X104550000Y-126320000D03*
%TO.P,J12,A6,D+_A6*%
%TO.N,/D+*%
X104550000Y-127320000D03*
%TO.P,J12,A7,D-_A7*%
%TO.N,/D-*%
X104550000Y-127820000D03*
%TO.P,J12,A8,SBU1_A8*%
%TO.N,unconnected-(J12-SBU1-PadA8)*%
X104550000Y-128820000D03*
D39*
%TO.P,J12,A9,VBUS_A9*%
%TO.N,Vbus*%
X104550000Y-129970000D03*
%TO.P,J12,A12,GND_A12*%
%TO.N,Masa*%
X104550000Y-130770000D03*
%TO.P,J12,B1,GND_B1*%
X104550000Y-130770000D03*
%TO.P,J12,B4,VBUS_B4*%
%TO.N,Vbus*%
X104550000Y-129970000D03*
D40*
%TO.P,J12,B5,CC2_B5*%
%TO.N,Net-(J12-CC2)*%
X104550000Y-129320000D03*
%TO.P,J12,B6,D+_B6*%
%TO.N,/D+*%
X104550000Y-128320000D03*
%TO.P,J12,B7,D-_B7*%
%TO.N,/D-*%
X104550000Y-126820000D03*
%TO.P,J12,B8,SBU2_B8*%
%TO.N,unconnected-(J12-SBU2-PadB8)*%
X104550000Y-125820000D03*
D39*
%TO.P,J12,B9,VBUS_B9*%
%TO.N,Vbus*%
X104550000Y-125170000D03*
%TO.P,J12,B12,GND_B12*%
%TO.N,Masa*%
X104550000Y-124370000D03*
D41*
%TO.P,J12,SH,SHIELD_SH*%
%TO.N,Net-(J12-SHIELD)*%
X103950000Y-123250000D03*
D38*
X99750000Y-123250000D03*
D41*
X103950000Y-131890000D03*
%TD*%
D42*
%TO.P,R35,1*%
%TO.N,Masa*%
X102250000Y-136075000D03*
%TO.P,R35,2*%
%TO.N,Net-(J12-SHIELD)*%
X102250000Y-134425000D03*
%TD*%
D27*
%TO.P,R26,1*%
%TO.N,Net-(U12-VOUTD)*%
X160100000Y-87000000D03*
%TO.P,R26,2*%
%TO.N,/Set3*%
X161750000Y-87000000D03*
%TD*%
D33*
%TO.P,U13,1,IN_1*%
%TO.N,+15V*%
X134470000Y-132040000D03*
D34*
%TO.P,U13,2,GND_2*%
%TO.N,Masa*%
X136750000Y-125740000D03*
D33*
%TO.P,U13,3,OUT_3*%
%TO.N,+5V*%
X139030000Y-132040000D03*
%TD*%
D18*
%TO.P,C44,1*%
%TO.N,+12V*%
X157100000Y-129925000D03*
%TO.P,C44,2*%
%TO.N,Masa*%
X157100000Y-131475000D03*
%TD*%
D15*
%TO.P,R28,1*%
%TO.N,Net-(J10-Pin_2)*%
X127100000Y-68425000D03*
%TO.P,R28,2*%
%TO.N,Net-(U7-PB12)*%
X127100000Y-70075000D03*
%TD*%
D20*
%TO.P,C22,1*%
%TO.N,+5V*%
X164000000Y-68300000D03*
%TO.P,C22,2*%
%TO.N,Masa*%
X164000000Y-66750000D03*
%TD*%
D27*
%TO.P,R39,1*%
%TO.N,Net-(U14-FB)*%
X149100000Y-109000000D03*
%TO.P,R39,2*%
%TO.N,Masa*%
X150750000Y-109000000D03*
%TD*%
D43*
%TO.P,U8,1,I/O1_1*%
%TO.N,/D-*%
X108462500Y-126450000D03*
%TO.P,U8,2,GND_2*%
%TO.N,Masa*%
X108462500Y-127400000D03*
%TO.P,U8,3,I/O2_3*%
%TO.N,/D+*%
X108462500Y-128350000D03*
%TO.P,U8,4,I/O2_4*%
%TO.N,/USB_D+*%
X110737500Y-128350000D03*
%TO.P,U8,5,VBUS_5*%
%TO.N,Vbus*%
X110737500Y-127400000D03*
%TO.P,U8,6,I/O1_6*%
%TO.N,/USB_D-*%
X110737500Y-126450000D03*
%TD*%
D21*
%TO.P,J6,1,Pin_1_1*%
%TO.N,+24V*%
X182000000Y-56000000D03*
D22*
%TO.P,J6,2,Pin_2_2*%
%TO.N,+15V*%
X182000000Y-58540000D03*
%TO.P,J6,3,Pin_3_3*%
%TO.N,+5V*%
X182000000Y-61080000D03*
%TO.P,J6,4,Pin_4_4*%
%TO.N,Masa*%
X182000000Y-63620000D03*
%TO.P,J6,5,Pin_5_5*%
%TO.N,/Det2*%
X182000000Y-66160000D03*
%TO.P,J6,6,Pin_6_6*%
%TO.N,Net-(J6-Pin_6)*%
X182000000Y-68700000D03*
%TO.P,J6,7,Pin_7_7*%
%TO.N,Net-(J6-Pin_7)*%
X182000000Y-71240000D03*
%TO.P,J6,8,Pin_8_8*%
%TO.N,R2*%
X182000000Y-73780000D03*
%TO.P,J6,9,Pin_9_9*%
%TO.N,/Set2*%
X182000000Y-76320000D03*
%TO.P,J6,10,Pin_10_10*%
%TO.N,Masa*%
X182000000Y-78860000D03*
%TD*%
D44*
%TO.P,J14,1,Pin_1_1*%
%TO.N,Masa*%
X193717500Y-113500000D03*
D45*
%TO.P,J14,2,Pin_2_2*%
%TO.N,VIN*%
X193717500Y-108500000D03*
%TD*%
D14*
%TO.P,C57,1*%
%TO.N,+15V*%
X130250000Y-132475000D03*
%TO.P,C57,2*%
%TO.N,Masa*%
X130250000Y-129525000D03*
%TD*%
D18*
%TO.P,C29,1*%
%TO.N,+3V3*%
X132500000Y-90225000D03*
%TO.P,C29,2*%
%TO.N,Masa*%
X132500000Y-91775000D03*
%TD*%
D19*
%TO.P,RV2,1,1_1*%
%TO.N,Net-(R27-Pad2)*%
X178545000Y-110360000D03*
%TO.P,RV2,2,2_2*%
%TO.N,Net-(U2-AIN1)*%
X178545000Y-112900000D03*
%TO.P,RV2,3,3_3*%
X178545000Y-115440000D03*
%TD*%
D46*
%TO.P,L1,1,1_1*%
%TO.N,Net-(U6-SW)*%
X170900000Y-125950000D03*
%TO.P,L1,2,2_2*%
%TO.N,+12V*%
X160300000Y-125950000D03*
%TD*%
D18*
%TO.P,C43,1*%
%TO.N,Net-(J12-SHIELD)*%
X100500000Y-134475000D03*
%TO.P,C43,2*%
%TO.N,Masa*%
X100500000Y-136025000D03*
%TD*%
D42*
%TO.P,R40,1*%
%TO.N,Net-(U14-FB)*%
X149000000Y-107325000D03*
%TO.P,R40,2*%
%TO.N,+3V3*%
X149000000Y-105675000D03*
%TD*%
D25*
%TO.P,C4,1*%
%TO.N,+3V3*%
X117250000Y-97817621D03*
D26*
%TO.P,C4,2*%
%TO.N,Masa*%
X117250000Y-100317621D03*
%TD*%
D47*
%TO.P,C34,1*%
%TO.N,/RCC_OSC_IN*%
X137303984Y-88348008D03*
%TO.P,C34,2*%
%TO.N,Masa*%
X138400000Y-87251992D03*
%TD*%
D14*
%TO.P,C49,1*%
%TO.N,+12V*%
X154850000Y-125800000D03*
%TO.P,C49,2*%
%TO.N,Masa*%
X154850000Y-122850000D03*
%TD*%
D42*
%TO.P,R20,1*%
%TO.N,+3V3*%
X119400000Y-89825000D03*
%TO.P,R20,2*%
%TO.N,/USB_D+*%
X119400000Y-88175000D03*
%TD*%
%TO.P,R37,1*%
%TO.N,Masa*%
X169850000Y-141850000D03*
%TO.P,R37,2*%
%TO.N,Net-(U6-FB)*%
X169850000Y-140200000D03*
%TD*%
D21*
%TO.P,J10,1,Pin_1_1*%
%TO.N,Masa*%
X129290000Y-66000000D03*
D22*
%TO.P,J10,2,Pin_2_2*%
%TO.N,Net-(J10-Pin_2)*%
X126750000Y-66000000D03*
%TO.P,J10,3,Pin_3_3*%
%TO.N,+3V3*%
X124210000Y-66000000D03*
%TD*%
D48*
%TO.P,U7,1,VBAT_1*%
%TO.N,+3V3*%
X131162500Y-88350000D03*
%TO.P,U7,2,PC13_2*%
%TO.N,Net-(J1-Pin_4)*%
X131162500Y-87850000D03*
%TO.P,U7,3,PC14_3*%
%TO.N,Net-(J1-Pin_3)*%
X131162500Y-87350000D03*
%TO.P,U7,4,PC15_4*%
%TO.N,Net-(J1-Pin_2)*%
X131162500Y-86850000D03*
%TO.P,U7,5,PF0_5*%
%TO.N,/RCC_OSC_IN*%
X131162500Y-86350000D03*
%TO.P,U7,6,PF1_6*%
%TO.N,/RCC_OSC_OUT*%
X131162500Y-85850000D03*
%TO.P,U7,7,PG10_7*%
%TO.N,unconnected-(U7-PG10-Pad7)*%
X131162500Y-85350000D03*
%TO.P,U7,8,PA0_8*%
%TO.N,S0*%
X131162500Y-84850000D03*
%TO.P,U7,9,PA1_9*%
%TO.N,S1*%
X131162500Y-84350000D03*
%TO.P,U7,10,PA2_10*%
%TO.N,S2*%
X131162500Y-83850000D03*
%TO.P,U7,11,PA3_11*%
%TO.N,unconnected-(U7-PA3-Pad11)*%
X131162500Y-83350000D03*
%TO.P,U7,12,PA4_12*%
%TO.N,unconnected-(U7-PA4-Pad12)*%
X131162500Y-82850000D03*
D49*
%TO.P,U7,13,PA5_13*%
%TO.N,/SCK*%
X129750000Y-81437500D03*
%TO.P,U7,14,PA6_14*%
%TO.N,/MISO*%
X129250000Y-81437500D03*
%TO.P,U7,15,PA7_15*%
%TO.N,/MOSI*%
X128750000Y-81437500D03*
%TO.P,U7,16,PB0_16*%
%TO.N,/T_IRQ*%
X128250000Y-81437500D03*
%TO.P,U7,17,PB1_17*%
%TO.N,/DC{slash}RS*%
X127750000Y-81437500D03*
%TO.P,U7,18,PB2_18*%
%TO.N,/Reset*%
X127250000Y-81437500D03*
%TO.P,U7,19,VSSA_19*%
%TO.N,Masa*%
X126750000Y-81437500D03*
%TO.P,U7,20,VREF+_20*%
%TO.N,Net-(U7-VDDA)*%
X126250000Y-81437500D03*
%TO.P,U7,21,VDDA_21*%
X125750000Y-81437500D03*
%TO.P,U7,22,PB10_22*%
%TO.N,/Fan2*%
X125250000Y-81437500D03*
%TO.P,U7,23,VSS_23*%
%TO.N,Masa*%
X124750000Y-81437500D03*
%TO.P,U7,24,VDD_24*%
%TO.N,+3V3*%
X124250000Y-81437500D03*
D48*
%TO.P,U7,25,PB11_25*%
%TO.N,/Fan3*%
X122837500Y-82850000D03*
%TO.P,U7,26,PB12_26*%
%TO.N,Net-(U7-PB12)*%
X122837500Y-83350000D03*
%TO.P,U7,27,PB13_27*%
%TO.N,Net-(J2-Pin_4)*%
X122837500Y-83850000D03*
%TO.P,U7,28,PB14_28*%
%TO.N,Net-(J2-Pin_3)*%
X122837500Y-84350000D03*
%TO.P,U7,29,PB15_29*%
%TO.N,Net-(J2-Pin_2)*%
X122837500Y-84850000D03*
%TO.P,U7,30,PA8_30*%
%TO.N,/CS*%
X122837500Y-85350000D03*
%TO.P,U7,31,PA9_31*%
%TO.N,/T_CS*%
X122837500Y-85850000D03*
%TO.P,U7,32,PA10_32*%
%TO.N,/VBUS_SENSE*%
X122837500Y-86350000D03*
%TO.P,U7,33,PA11_33*%
%TO.N,/USB_D-*%
X122837500Y-86850000D03*
%TO.P,U7,34,PA12_34*%
%TO.N,/USB_D+*%
X122837500Y-87350000D03*
%TO.P,U7,35,VSS_35*%
%TO.N,Masa*%
X122837500Y-87850000D03*
%TO.P,U7,36,VDD_36*%
%TO.N,+3V3*%
X122837500Y-88350000D03*
D49*
%TO.P,U7,37,PA13_37*%
%TO.N,/SYS_JTMS_SWDIO*%
X124250000Y-89762500D03*
%TO.P,U7,38,PA14_38*%
%TO.N,/SYS_JTCK_SWCLK*%
X124750000Y-89762500D03*
%TO.P,U7,39,PA15_39*%
%TO.N,SCL*%
X125250000Y-89762500D03*
%TO.P,U7,40,PB3_40*%
%TO.N,R0*%
X125750000Y-89762500D03*
%TO.P,U7,41,PB4_41*%
%TO.N,R1*%
X126250000Y-89762500D03*
%TO.P,U7,42,PB5_42*%
%TO.N,R2*%
X126750000Y-89762500D03*
%TO.P,U7,43,PB6_43*%
%TO.N,R3*%
X127250000Y-89762500D03*
%TO.P,U7,44,PB7_44*%
%TO.N,SDA*%
X127750000Y-89762500D03*
%TO.P,U7,45,PB8_45*%
%TO.N,/Fan0*%
X128250000Y-89762500D03*
%TO.P,U7,46,PB9_46*%
%TO.N,/Fan1*%
X128750000Y-89762500D03*
%TO.P,U7,47,VSS_47*%
%TO.N,Masa*%
X129250000Y-89762500D03*
%TO.P,U7,48,VDD_48*%
%TO.N,+3V3*%
X129750000Y-89762500D03*
%TD*%
D18*
%TO.P,C27,1*%
%TO.N,Net-(U6-VCC)*%
X171100000Y-136925000D03*
%TO.P,C27,2*%
%TO.N,Masa*%
X171100000Y-138475000D03*
%TD*%
D21*
%TO.P,J1,1,Pin_1_1*%
%TO.N,Masa*%
X105750000Y-76250000D03*
D22*
%TO.P,J1,2,Pin_2_2*%
%TO.N,Net-(J1-Pin_2)*%
X105750000Y-73710000D03*
%TO.P,J1,3,Pin_3_3*%
%TO.N,Net-(J1-Pin_3)*%
X105750000Y-71170000D03*
%TO.P,J1,4,Pin_4_4*%
%TO.N,Net-(J1-Pin_4)*%
X105750000Y-68630000D03*
%TO.P,J1,5,Pin_5_5*%
%TO.N,+3V3*%
X105750000Y-66090000D03*
%TD*%
D42*
%TO.P,R25,1*%
%TO.N,+3V3*%
X126000000Y-60075000D03*
%TO.P,R25,2*%
%TO.N,/LED*%
X126000000Y-58425000D03*
%TD*%
D50*
%TO.P,Y1,1,1_1*%
%TO.N,/RCC_OSC_OUT*%
X135976777Y-84421142D03*
%TO.P,Y1,2,G_2*%
%TO.N,Masa*%
X134421142Y-85976777D03*
%TO.P,Y1,3,3_3*%
%TO.N,/RCC_OSC_IN*%
X135623223Y-87178858D03*
%TO.P,Y1,4,G_4*%
%TO.N,Masa*%
X137178858Y-85623223D03*
%TD*%
D42*
%TO.P,R23,1*%
%TO.N,Vbus*%
X105800000Y-120425000D03*
%TO.P,R23,2*%
%TO.N,/VBUS_SENSE*%
X105800000Y-118775000D03*
%TD*%
D27*
%TO.P,R31,1*%
%TO.N,Net-(U12-VOUTB)*%
X160100000Y-90000000D03*
%TO.P,R31,2*%
%TO.N,/Set1*%
X161750000Y-90000000D03*
%TD*%
D51*
%TO.P,U12,1,VDD_1*%
%TO.N,+5V*%
X152650000Y-88750000D03*
%TO.P,U12,2,SCL_2*%
%TO.N,SCL*%
X152650000Y-89250000D03*
%TO.P,U12,3,SDA_3*%
%TO.N,SDA*%
X152650000Y-89750000D03*
%TO.P,U12,4,~{LDAC}_4*%
%TO.N,unconnected-(U12-~{LDAC}-Pad4)*%
X152650000Y-90250000D03*
%TO.P,U12,5,RDY/~{BSY}_5*%
%TO.N,unconnected-(U12-RDY{slash}~{BSY}-Pad5)*%
X152650000Y-90750000D03*
%TO.P,U12,6,VOUTA_6*%
%TO.N,Net-(U12-VOUTA)*%
X156850000Y-90750000D03*
%TO.P,U12,7,VOUTB_7*%
%TO.N,Net-(U12-VOUTB)*%
X156850000Y-90250000D03*
%TO.P,U12,8,VOUTC_8*%
%TO.N,Net-(U12-VOUTC)*%
X156850000Y-89750000D03*
%TO.P,U12,9,VOUTD_9*%
%TO.N,Net-(U12-VOUTD)*%
X156850000Y-89250000D03*
%TO.P,U12,10,VSS_10*%
%TO.N,Masa*%
X156850000Y-88750000D03*
%TD*%
D14*
%TO.P,C60,1*%
%TO.N,+5V*%
X143250000Y-132475000D03*
%TO.P,C60,2*%
%TO.N,Masa*%
X143250000Y-129525000D03*
%TD*%
D52*
%TO.P,C9,1*%
%TO.N,+15V*%
X170689759Y-57075000D03*
D26*
%TO.P,C9,2*%
%TO.N,Masa*%
X168189759Y-57075000D03*
%TD*%
D14*
%TO.P,C52,1*%
%TO.N,+24V*%
X114500000Y-132475000D03*
%TO.P,C52,2*%
%TO.N,Masa*%
X114500000Y-129525000D03*
%TD*%
D19*
%TO.P,RV4,1,1_1*%
%TO.N,/Set1*%
X184500000Y-88210000D03*
%TO.P,RV4,2,2_2*%
X184500000Y-90750000D03*
%TO.P,RV4,3,3_3*%
%TO.N,Masa*%
X184500000Y-93290000D03*
%TD*%
D21*
%TO.P,J11,1,Pin_1_1*%
%TO.N,+3V3*%
X134720000Y-71200000D03*
D22*
%TO.P,J11,2,Pin_2_2*%
%TO.N,SDA*%
X137260000Y-71200000D03*
%TO.P,J11,3,Pin_3_3*%
%TO.N,SCL*%
X139800000Y-71200000D03*
%TO.P,J11,4,Pin_4_4*%
%TO.N,Masa*%
X142340000Y-71200000D03*
%TD*%
D53*
%TO.P,J13,1,Pin_1_1*%
%TO.N,Masa*%
X113750000Y-148217500D03*
D45*
%TO.P,J13,2,Pin_2_2*%
%TO.N,+24V*%
X118750000Y-148217500D03*
%TD*%
D12*
%TO.P,M3,1,-_1*%
%TO.N,Masa*%
X161920000Y-148000000D03*
D13*
%TO.P,M3,2,+_2*%
%TO.N,+12V*%
X164460000Y-148000000D03*
%TO.P,M3,3,Tacho_3*%
%TO.N,unconnected-(M3-Tacho-Pad3)*%
X167000000Y-148000000D03*
%TO.P,M3,4,PWM_4*%
%TO.N,/Fan2*%
X169540000Y-148000000D03*
%TD*%
D20*
%TO.P,C26,1*%
%TO.N,+24V*%
X160600000Y-135225000D03*
%TO.P,C26,2*%
%TO.N,Masa*%
X160600000Y-133675000D03*
%TD*%
%TO.P,C53,1*%
%TO.N,+24V*%
X116500000Y-132550000D03*
%TO.P,C53,2*%
%TO.N,Masa*%
X116500000Y-131000000D03*
%TD*%
D25*
%TO.P,C5,1*%
%TO.N,+12V*%
X185250000Y-132067621D03*
D26*
%TO.P,C5,2*%
%TO.N,Masa*%
X185250000Y-134567621D03*
%TD*%
D54*
%TO.P,U10,1,SCL_1*%
%TO.N,SCL*%
X162800000Y-60400000D03*
%TO.P,U10,2,GND_2*%
%TO.N,Masa*%
X162800000Y-60900000D03*
%TO.P,U10,3,ALERT_3*%
%TO.N,unconnected-(U10-ALERT-Pad3)*%
X162800000Y-61400000D03*
%TO.P,U10,4,ADD0_4*%
%TO.N,Masa*%
X164225000Y-61400000D03*
%TO.P,U10,5,V+_5*%
%TO.N,+3V3*%
X164225000Y-60900000D03*
%TO.P,U10,6,SDA_6*%
%TO.N,SDA*%
X164225000Y-60400000D03*
%TD*%
D19*
%TO.P,RV5,1,1_1*%
%TO.N,/Set0*%
X192750000Y-88250000D03*
%TO.P,RV5,2,2_2*%
X192750000Y-90790000D03*
%TO.P,RV5,3,3_3*%
%TO.N,Masa*%
X192750000Y-93330000D03*
%TD*%
D55*
%TO.P,D1,1,K_1*%
%TO.N,+12V*%
X149000000Y-130350000D03*
%TO.P,D1,2,A_2*%
%TO.N,Masa*%
X149000000Y-133650000D03*
%TD*%
D43*
%TO.P,U14,1,BOOT_1*%
%TO.N,Net-(U14-BOOT)*%
X151725000Y-105500000D03*
%TO.P,U14,2,GND_2*%
%TO.N,Masa*%
X151725000Y-106450000D03*
%TO.P,U14,3,FB_3*%
%TO.N,Net-(U14-FB)*%
X151725000Y-107400000D03*
%TO.P,U14,4,EN_4*%
%TO.N,Net-(U14-EN)*%
X154000000Y-107400000D03*
%TO.P,U14,5,VIN_5*%
%TO.N,+12V*%
X154000000Y-106450000D03*
%TO.P,U14,6,SW_6*%
%TO.N,Net-(U14-SW)*%
X154000000Y-105500000D03*
%TD*%
D25*
%TO.P,C8,1*%
%TO.N,+12V*%
X178000000Y-132067621D03*
D26*
%TO.P,C8,2*%
%TO.N,Masa*%
X178000000Y-134567621D03*
%TD*%
D29*
%TO.P,C3,1*%
%TO.N,+5V*%
X166817621Y-103250000D03*
D26*
%TO.P,C3,2*%
%TO.N,Masa*%
X169317621Y-103250000D03*
%TD*%
D21*
%TO.P,J5,1,Pin_1_1*%
%TO.N,+24V*%
X188750000Y-56000000D03*
D22*
%TO.P,J5,2,Pin_2_2*%
%TO.N,+15V*%
X188750000Y-58540000D03*
%TO.P,J5,3,Pin_3_3*%
%TO.N,+5V*%
X188750000Y-61080000D03*
%TO.P,J5,4,Pin_4_4*%
%TO.N,Masa*%
X188750000Y-63620000D03*
%TO.P,J5,5,Pin_5_5*%
%TO.N,/Det1*%
X188750000Y-66160000D03*
%TO.P,J5,6,Pin_6_6*%
%TO.N,Net-(J5-Pin_6)*%
X188750000Y-68700000D03*
%TO.P,J5,7,Pin_7_7*%
%TO.N,Net-(J5-Pin_7)*%
X188750000Y-71240000D03*
%TO.P,J5,8,Pin_8_8*%
%TO.N,R1*%
X188750000Y-73780000D03*
%TO.P,J5,9,Pin_9_9*%
%TO.N,/Set1*%
X188750000Y-76320000D03*
%TO.P,J5,10,Pin_10_10*%
%TO.N,Masa*%
X188750000Y-78860000D03*
%TD*%
D42*
%TO.P,R34,1*%
%TO.N,Net-(J12-CC1)*%
X108200000Y-123225000D03*
%TO.P,R34,2*%
%TO.N,Masa*%
X108200000Y-121575000D03*
%TD*%
D20*
%TO.P,C32,1*%
%TO.N,Net-(U7-VDDA)*%
X125600000Y-79175000D03*
%TO.P,C32,2*%
%TO.N,Masa*%
X125600000Y-77625000D03*
%TD*%
%TO.P,C33,1*%
%TO.N,Net-(U7-VDDA)*%
X127200000Y-79175000D03*
%TO.P,C33,2*%
%TO.N,Masa*%
X127200000Y-77625000D03*
%TD*%
%TO.P,C23,1*%
%TO.N,Net-(U2-AIN0)*%
X155850000Y-71275000D03*
%TO.P,C23,2*%
%TO.N,Masa*%
X155850000Y-69725000D03*
%TD*%
D28*
%TO.P,C48,1*%
%TO.N,+3V3*%
X126000000Y-63450000D03*
%TO.P,C48,2*%
%TO.N,Masa*%
X127550000Y-63450000D03*
%TD*%
D24*
%TO.P,R24,1*%
%TO.N,/VBUS_SENSE*%
X104025000Y-118825000D03*
%TO.P,R24,2*%
%TO.N,Masa*%
X102375000Y-118825000D03*
%TD*%
D30*
%TO.P,C46,1*%
%TO.N,+12V*%
X152250000Y-129025000D03*
%TO.P,C46,2*%
%TO.N,Masa*%
X152250000Y-131975000D03*
%TD*%
D15*
%TO.P,R33,1*%
%TO.N,Net-(J12-CC2)*%
X107500000Y-130675000D03*
%TO.P,R33,2*%
%TO.N,Masa*%
X107500000Y-132325000D03*
%TD*%
D24*
%TO.P,R36,1*%
%TO.N,Net-(U6-FB)*%
X168350000Y-139450000D03*
%TO.P,R36,2*%
%TO.N,+12V*%
X166700000Y-139450000D03*
%TD*%
D20*
%TO.P,C39,1*%
%TO.N,Net-(U7-VDDA)*%
X128800000Y-79175000D03*
%TO.P,C39,2*%
%TO.N,Masa*%
X128800000Y-77625000D03*
%TD*%
D56*
%TO.P,C62,1*%
%TO.N,+3V3*%
X147150000Y-99600000D03*
%TO.P,C62,2*%
%TO.N,Masa*%
X144200000Y-99600000D03*
%TD*%
D18*
%TO.P,C65,1*%
%TO.N,VIN*%
X186750000Y-110475000D03*
%TO.P,C65,2*%
%TO.N,Masa*%
X186750000Y-112025000D03*
%TD*%
D28*
%TO.P,C42,1*%
%TO.N,+3V3*%
X108625000Y-58750000D03*
%TO.P,C42,2*%
%TO.N,Masa*%
X110175000Y-58750000D03*
%TD*%
D57*
%TO.P,FB3,1*%
%TO.N,Net-(U7-VDDA)*%
X130612500Y-79400000D03*
%TO.P,FB3,2*%
%TO.N,+3V3*%
X132187500Y-79400000D03*
%TD*%
D20*
%TO.P,C58,1*%
%TO.N,+15V*%
X132250000Y-132550000D03*
%TO.P,C58,2*%
%TO.N,Masa*%
X132250000Y-131000000D03*
%TD*%
D58*
%TO.N,Masa*%
X151150000Y-61350000D03*
D59*
X143250000Y-128000000D03*
D58*
X122200000Y-92600000D03*
X155878808Y-68341583D03*
D59*
X149000000Y-135250000D03*
X108200000Y-120600000D03*
X150250000Y-106500000D03*
X171850000Y-139950000D03*
X136250000Y-121500000D03*
X125500000Y-129500000D03*
D58*
X148950000Y-70400000D03*
D60*
X157000000Y-122600000D03*
D58*
X188295076Y-118000000D03*
D59*
X168350000Y-141950000D03*
X138250000Y-121500000D03*
X114500000Y-128000000D03*
X151600000Y-95700000D03*
D60*
X154850000Y-134600000D03*
D59*
X152900000Y-110050000D03*
D58*
X186750000Y-113350000D03*
D59*
X106000000Y-124000000D03*
X139250000Y-121500000D03*
X120500000Y-121500000D03*
D61*
X114350000Y-142400000D03*
D58*
X155550000Y-74100000D03*
X156900000Y-88000000D03*
X134000000Y-92500000D03*
D59*
X121500000Y-121500000D03*
X123500000Y-121500000D03*
X122500000Y-121500000D03*
X134250000Y-121500000D03*
D58*
X124750000Y-80000000D03*
D59*
X137250000Y-121500000D03*
D58*
X128450000Y-73250000D03*
D59*
X127509420Y-127692567D03*
X130250000Y-127750000D03*
X101400000Y-118800000D03*
D58*
X145750000Y-64750000D03*
D59*
X139000000Y-85600000D03*
X116500000Y-129750000D03*
D58*
X164000000Y-65650000D03*
D59*
X101250000Y-137250000D03*
X119500000Y-121500000D03*
X141250000Y-129500000D03*
X158350000Y-132450000D03*
X156300000Y-103100000D03*
X118500000Y-121500000D03*
D58*
X144250000Y-66750000D03*
D59*
X135250000Y-121500000D03*
D58*
X123600000Y-79000000D03*
X125600000Y-76400000D03*
D59*
X106000000Y-131000000D03*
D58*
X129112828Y-88401763D03*
D59*
X107500000Y-133500000D03*
D58*
X124400000Y-87800000D03*
X151155000Y-65155000D03*
D59*
X145400000Y-99600000D03*
X109525000Y-127412897D03*
D58*
X158000000Y-80150000D03*
X166000000Y-63000000D03*
D59*
X132250000Y-129500000D03*
X144400000Y-101600000D03*
D58*
X126800000Y-82800000D03*
%TO.N,SDA*%
X128900000Y-86250000D03*
%TO.N,SCL*%
X125950000Y-87700000D03*
D61*
%TO.N,+3V3*%
X148750000Y-98750000D03*
D58*
X119400000Y-90850000D03*
X122600000Y-81550000D03*
X132150000Y-76250000D03*
X121100000Y-88700000D03*
X144150000Y-68150000D03*
D61*
X148750000Y-100750000D03*
X148750000Y-99750000D03*
X148750000Y-101750000D03*
D58*
X144000000Y-74750000D03*
X126050000Y-61450000D03*
X131186169Y-89969529D03*
X166000000Y-59000000D03*
X133000000Y-74750000D03*
D60*
%TO.N,+12V*%
X149000000Y-128500000D03*
D59*
X165600000Y-139450000D03*
D60*
X150000000Y-128500000D03*
D58*
%TO.N,/Fan0*%
X129500000Y-95300000D03*
D59*
%TO.N,Net-(U6-VCC)*%
X162100000Y-139950000D03*
X169850000Y-136450000D03*
D58*
%TO.N,Net-(U2-AIN1)*%
X159100000Y-85750000D03*
%TO.N,+5V*%
X152100000Y-76650000D03*
X167400000Y-76400000D03*
X149450000Y-71100000D03*
X164650000Y-69550000D03*
X147500000Y-123800000D03*
%TO.N,Net-(J6-Pin_7)*%
X160050000Y-75000000D03*
%TO.N,S2*%
X160300000Y-79550000D03*
X140700000Y-80800000D03*
%TO.N,S1*%
X137850000Y-79900000D03*
X160350000Y-78500000D03*
%TO.N,S0*%
X139150000Y-80200000D03*
X160400000Y-77550000D03*
%TO.N,Net-(J4-Pin_7)*%
X164750000Y-72650000D03*
%TO.N,+15V*%
X136450000Y-132000000D03*
%TO.N,R0*%
X125550000Y-91550000D03*
%TO.N,R3*%
X127100000Y-88350000D03*
%TO.N,Net-(U7-PB12)*%
X121050000Y-76900000D03*
X118850000Y-81150000D03*
%TO.N,/Fan3*%
X120000000Y-82000000D03*
%TO.N,/Fan1*%
X135100000Y-97000000D03*
%TO.N,/DC{slash}RS*%
X127450000Y-80200000D03*
%TO.N,/MOSI*%
X128750000Y-80100000D03*
%TO.N,/SCK*%
X130800000Y-80650000D03*
%TO.N,/MISO*%
X129500000Y-80050000D03*
X131650000Y-58500000D03*
X134400000Y-58550000D03*
%TO.N,/T_CS*%
X132200000Y-68850000D03*
X118350000Y-76450000D03*
X117475000Y-85075000D03*
%TO.N,/T_IRQ*%
X129650000Y-82950000D03*
%TO.N,Vbus*%
X112050000Y-127400000D03*
X106750000Y-123250000D03*
%TO.N,R2*%
X126950000Y-91500000D03*
%TO.N,/Fan2*%
X125200000Y-83950000D03*
%TO.N,R1*%
X126450000Y-92350000D03*
%TO.N,Net-(J1-Pin_3)*%
X133750000Y-105750000D03*
%TO.N,Net-(J1-Pin_2)*%
X135500000Y-105000000D03*
%TO.N,Net-(J1-Pin_4)*%
X132000000Y-106500000D03*
%TO.N,Net-(J2-Pin_2)*%
X115750000Y-81250000D03*
%TO.N,Net-(J2-Pin_4)*%
X114750000Y-79000000D03*
%TO.N,Net-(J2-Pin_3)*%
X115269706Y-80133750D03*
%TD*%
%TO.N,Masa*%
D62*
X132250000Y-131000000D02*
X132250000Y-129500000D01*
D63*
X151725000Y-106450000D02*
X150300000Y-106450000D01*
D64*
X126750000Y-82750000D02*
X126800000Y-82800000D01*
D62*
X149000000Y-133650000D02*
X149000000Y-135250000D01*
D64*
X128825000Y-77600000D02*
X128800000Y-77625000D01*
D65*
X134250000Y-123240000D02*
X136750000Y-125740000D01*
D64*
X122200000Y-91375000D02*
X122200000Y-92600000D01*
D65*
X134250000Y-121500000D02*
X139250000Y-121500000D01*
D64*
X109512103Y-127400000D02*
X109525000Y-127412897D01*
X155850000Y-69725000D02*
X155850000Y-68350000D01*
D63*
X168350000Y-141950000D02*
X168450000Y-141850000D01*
D64*
X130625000Y-77600000D02*
X128825000Y-77600000D01*
X126750000Y-81437500D02*
X126750000Y-82750000D01*
D62*
X151000000Y-96300000D02*
X151600000Y-95700000D01*
D64*
X104550000Y-130770000D02*
X105770000Y-130770000D01*
D10*
X139000000Y-85600000D02*
X139000000Y-84400000D01*
D65*
X137250000Y-121500000D02*
X137250000Y-125240000D01*
D62*
X155750000Y-104225000D02*
X155750000Y-103650000D01*
D65*
X134250000Y-121500000D02*
X134250000Y-123240000D01*
D64*
X163801712Y-61400000D02*
X164225000Y-61400000D01*
D66*
X158350000Y-133725000D02*
X158350000Y-132450000D01*
D64*
X147775000Y-63885000D02*
X146615000Y-63885000D01*
D63*
X171100000Y-139200000D02*
X171850000Y-139950000D01*
D65*
X120500000Y-121500000D02*
X120500000Y-125240000D01*
D64*
X154000000Y-73000000D02*
X154792764Y-73000000D01*
X154792764Y-73000000D02*
X155050000Y-73257236D01*
D65*
X136250000Y-121500000D02*
X136250000Y-125240000D01*
D63*
X151800000Y-110050000D02*
X152900000Y-110050000D01*
D64*
X164000000Y-66750000D02*
X164000000Y-65650000D01*
X122600000Y-79000000D02*
X123600000Y-79000000D01*
D62*
X141250000Y-131000000D02*
X141250000Y-129500000D01*
X157100000Y-131475000D02*
X157100000Y-131500000D01*
D10*
X129250000Y-88450000D02*
X129200000Y-88400000D01*
D64*
X147850000Y-70400000D02*
X148950000Y-70400000D01*
X129250000Y-88538935D02*
X129250000Y-89762500D01*
X158000000Y-77500000D02*
X158000000Y-80150000D01*
X126650000Y-73250000D02*
X128450000Y-73250000D01*
D62*
X150300000Y-96300000D02*
X151000000Y-96300000D01*
D64*
X156850000Y-88050000D02*
X156900000Y-88000000D01*
D63*
X171100000Y-138475000D02*
X171100000Y-139200000D01*
D62*
X156775000Y-102625000D02*
X156300000Y-103100000D01*
D65*
X122500000Y-121500000D02*
X122500000Y-124240000D01*
D64*
X125600000Y-77625000D02*
X125600000Y-76400000D01*
D65*
X154850000Y-122850000D02*
X156750000Y-122850000D01*
D62*
X155750000Y-103650000D02*
X156300000Y-103100000D01*
D64*
X124350000Y-87850000D02*
X124400000Y-87800000D01*
D62*
X114400000Y-142450000D02*
X114350000Y-142400000D01*
D66*
X160600000Y-133675000D02*
X158400000Y-133675000D01*
D65*
X118500000Y-121500000D02*
X118500000Y-123240000D01*
D62*
X130250000Y-129525000D02*
X130250000Y-127750000D01*
D65*
X123500000Y-123240000D02*
X121000000Y-125740000D01*
D64*
X151155000Y-61345000D02*
X151150000Y-61350000D01*
X127200000Y-77625000D02*
X125600000Y-77625000D01*
D65*
X118500000Y-121500000D02*
X123500000Y-121500000D01*
D64*
X166000000Y-61800000D02*
X166000000Y-63000000D01*
X102375000Y-118825000D02*
X101425000Y-118825000D01*
X165600000Y-61400000D02*
X166000000Y-61800000D01*
D65*
X119500000Y-124240000D02*
X121000000Y-125740000D01*
D62*
X144200000Y-99600000D02*
X145400000Y-99600000D01*
D64*
X104550000Y-124370000D02*
X105630000Y-124370000D01*
D65*
X154825000Y-122875000D02*
X154850000Y-122850000D01*
X135250000Y-121500000D02*
X135250000Y-124240000D01*
X122500000Y-124240000D02*
X121000000Y-125740000D01*
D10*
X139000000Y-84400000D02*
X138548008Y-83948008D01*
D65*
X138250000Y-121500000D02*
X138250000Y-124240000D01*
D64*
X154792764Y-74000000D02*
X154000000Y-74000000D01*
D63*
X150300000Y-106450000D02*
X150250000Y-106500000D01*
D62*
X101250000Y-136025000D02*
X101250000Y-137250000D01*
D64*
X155192764Y-73742764D02*
X155550000Y-74100000D01*
D62*
X127500000Y-129525000D02*
X127500000Y-127701987D01*
D64*
X186750000Y-112025000D02*
X186750000Y-113350000D01*
D65*
X139250000Y-123240000D02*
X136750000Y-125740000D01*
D64*
X129112828Y-88401763D02*
X129250000Y-88538935D01*
X158000000Y-76230000D02*
X158000000Y-77500000D01*
X133275000Y-91775000D02*
X134000000Y-92500000D01*
D65*
X119500000Y-121500000D02*
X119500000Y-124240000D01*
X121500000Y-121500000D02*
X121500000Y-125240000D01*
D66*
X160720000Y-133795000D02*
X160600000Y-133675000D01*
D64*
X132500000Y-91775000D02*
X133275000Y-91775000D01*
D65*
X152250000Y-131975000D02*
X154800000Y-131975000D01*
D64*
X145475000Y-66750000D02*
X144250000Y-66750000D01*
D62*
X101250000Y-136025000D02*
X102200000Y-136025000D01*
D64*
X146615000Y-63885000D02*
X145750000Y-64750000D01*
D65*
X118500000Y-123240000D02*
X121000000Y-125740000D01*
D10*
X134587132Y-85810787D02*
X136991294Y-85810787D01*
D64*
X108200000Y-121575000D02*
X108200000Y-120800000D01*
X128400000Y-63450000D02*
X127550000Y-63450000D01*
D10*
X139000000Y-86651992D02*
X138400000Y-87251992D01*
D62*
X157100000Y-131500000D02*
X156675000Y-131925000D01*
D64*
X163301712Y-60900000D02*
X163801712Y-61400000D01*
X152725000Y-61345000D02*
X151155000Y-61345000D01*
D62*
X143250000Y-129525000D02*
X143250000Y-128000000D01*
X125500000Y-130975000D02*
X125500000Y-129500000D01*
X115700000Y-142450000D02*
X114400000Y-142450000D01*
D64*
X110720000Y-55750000D02*
X110720000Y-58205000D01*
D65*
X156750000Y-122850000D02*
X157000000Y-122600000D01*
D62*
X145800000Y-101600000D02*
X144400000Y-101600000D01*
D64*
X156850000Y-88750000D02*
X156850000Y-88050000D01*
X124750000Y-80000000D02*
X124750000Y-81437500D01*
D62*
X156675000Y-131925000D02*
X154850000Y-131925000D01*
D64*
X128800000Y-77625000D02*
X127200000Y-77625000D01*
X129425000Y-91600000D02*
X129250000Y-91425000D01*
X164225000Y-61400000D02*
X165600000Y-61400000D01*
D65*
X120500000Y-125240000D02*
X121000000Y-125740000D01*
D64*
X129290000Y-66000000D02*
X129290000Y-64340000D01*
D10*
X138976777Y-85623223D02*
X139000000Y-85600000D01*
D64*
X152725000Y-65155000D02*
X152725000Y-62615000D01*
D66*
X162900000Y-133795000D02*
X160720000Y-133795000D01*
D64*
X110720000Y-58205000D02*
X110175000Y-58750000D01*
D10*
X136991294Y-85810787D02*
X137178858Y-85623223D01*
D64*
X155050000Y-73742764D02*
X154792764Y-74000000D01*
D65*
X154850000Y-131925000D02*
X154850000Y-134600000D01*
D62*
X157900000Y-102625000D02*
X156775000Y-102625000D01*
D64*
X155050000Y-73257236D02*
X155050000Y-73742764D01*
X155950000Y-87050000D02*
X156900000Y-88000000D01*
D62*
X102200000Y-136025000D02*
X102250000Y-136075000D01*
D64*
X155050000Y-73742764D02*
X155192764Y-73742764D01*
D62*
X100500000Y-136025000D02*
X101250000Y-136025000D01*
D63*
X169850000Y-141850000D02*
X168450000Y-141850000D01*
D64*
X162800000Y-60900000D02*
X163301712Y-60900000D01*
X108462500Y-127400000D02*
X109512103Y-127400000D01*
D62*
X114500000Y-129525000D02*
X114500000Y-128000000D01*
D64*
X107500000Y-132325000D02*
X107500000Y-133500000D01*
X129290000Y-64340000D02*
X128400000Y-63450000D01*
D65*
X123500000Y-121500000D02*
X123500000Y-123240000D01*
D66*
X158420000Y-133795000D02*
X158350000Y-133725000D01*
D65*
X152250000Y-122875000D02*
X154825000Y-122875000D01*
D62*
X116500000Y-131000000D02*
X116500000Y-129750000D01*
D64*
X187250000Y-118000000D02*
X188300000Y-118000000D01*
X105630000Y-124370000D02*
X106000000Y-124000000D01*
D65*
X139250000Y-121500000D02*
X139250000Y-123240000D01*
D64*
X129250000Y-91425000D02*
X129250000Y-89762500D01*
X122837500Y-87850000D02*
X124350000Y-87850000D01*
D10*
X139000000Y-85600000D02*
X139000000Y-86651992D01*
D63*
X150750000Y-109000000D02*
X151800000Y-110050000D01*
D65*
X154800000Y-131975000D02*
X154850000Y-131925000D01*
X121500000Y-125240000D02*
X121000000Y-125740000D01*
D10*
X134421142Y-85976777D02*
X134587132Y-85810787D01*
D64*
X151155000Y-65155000D02*
X152725000Y-65155000D01*
X155575000Y-87050000D02*
X155950000Y-87050000D01*
D62*
X127500000Y-127701987D02*
X127509420Y-127692567D01*
D64*
X105770000Y-130770000D02*
X106000000Y-131000000D01*
D66*
X158400000Y-133675000D02*
X158350000Y-133725000D01*
D10*
X137178858Y-85623223D02*
X138976777Y-85623223D01*
%TO.N,SDA*%
D64*
X164225000Y-59975000D02*
X164225000Y-60400000D01*
X151500000Y-72492764D02*
X151500000Y-69250000D01*
X147775000Y-61345000D02*
X148749999Y-61345000D01*
X148749999Y-61345000D02*
X150200000Y-62795001D01*
X150200000Y-62795001D02*
X150200000Y-66650000D01*
X127750000Y-87400000D02*
X128900000Y-86250000D01*
X150700000Y-89750000D02*
X137260000Y-76310000D01*
X137260000Y-74750000D02*
X135825000Y-74750000D01*
X163500000Y-59250000D02*
X164225000Y-59975000D01*
X137260000Y-76310000D02*
X137260000Y-74750000D01*
X146850000Y-70000000D02*
X150200000Y-66650000D01*
X146850000Y-72550000D02*
X146850000Y-70000000D01*
X147800000Y-73500000D02*
X146850000Y-72550000D01*
X149700000Y-73500000D02*
X150492764Y-73500000D01*
X150492764Y-73500000D02*
X151500000Y-72492764D01*
X147115000Y-61345000D02*
X147775000Y-61345000D01*
X137260000Y-74750000D02*
X137260000Y-71200000D01*
X161500000Y-59250000D02*
X163500000Y-59250000D01*
X152650000Y-89750000D02*
X150700000Y-89750000D01*
X137260000Y-71200000D02*
X147115000Y-61345000D01*
X149700000Y-73500000D02*
X147800000Y-73500000D01*
X151500000Y-69250000D02*
X161500000Y-59250000D01*
X127750000Y-89762500D02*
X127750000Y-87400000D01*
%TO.N,SCL*%
X139800000Y-74750000D02*
X139800000Y-77235788D01*
X149350000Y-66600000D02*
X146250000Y-69700000D01*
X125250000Y-88400000D02*
X125950000Y-87700000D01*
X146250000Y-72800000D02*
X147450000Y-74000000D01*
X161100000Y-60400000D02*
X162800000Y-60400000D01*
X125250000Y-89762500D02*
X125250000Y-88400000D01*
X146800001Y-62615000D02*
X139800000Y-69615001D01*
X147450000Y-74000000D02*
X149700000Y-74000000D01*
X149350000Y-62850000D02*
X149350000Y-66600000D01*
X139800000Y-71200000D02*
X139800000Y-74750000D01*
X149700000Y-74000000D02*
X151000000Y-74000000D01*
X151000000Y-74000000D02*
X152000000Y-73000000D01*
X149115000Y-62615000D02*
X149350000Y-62850000D01*
X141175000Y-74750000D02*
X139800000Y-74750000D01*
X146250000Y-69700000D02*
X146250000Y-72800000D01*
X147775000Y-62615000D02*
X149115000Y-62615000D01*
X147775000Y-62615000D02*
X146800001Y-62615000D01*
X139800000Y-69615001D02*
X139800000Y-71200000D01*
X152000000Y-73000000D02*
X152000000Y-69500000D01*
X139800000Y-77235788D02*
X151814212Y-89250000D01*
X151814212Y-89250000D02*
X152650000Y-89250000D01*
X152000000Y-69500000D02*
X161100000Y-60400000D01*
%TO.N,+3V3*%
D63*
X149000000Y-105675000D02*
X149000000Y-101000000D01*
D64*
X134175000Y-74750000D02*
X133000000Y-74750000D01*
X108180000Y-58305000D02*
X108625000Y-58750000D01*
X124210000Y-64490000D02*
X125250000Y-63450000D01*
X122200000Y-88987500D02*
X122837500Y-88350000D01*
X108180000Y-55750000D02*
X108180000Y-58305000D01*
X166000000Y-60250000D02*
X166000000Y-59000000D01*
X164225000Y-60900000D02*
X165350000Y-60900000D01*
X132187500Y-77612500D02*
X132175000Y-77600000D01*
X145625000Y-68150000D02*
X144150000Y-68150000D01*
X165350000Y-60900000D02*
X166000000Y-60250000D01*
X122837500Y-88350000D02*
X121450000Y-88350000D01*
X130975000Y-91600000D02*
X130975000Y-90987500D01*
X123487500Y-81437500D02*
X122600000Y-80550000D01*
X124210000Y-66000000D02*
X124210000Y-64490000D01*
X121450000Y-88350000D02*
X121100000Y-88700000D01*
X132500000Y-89687500D02*
X131906250Y-89093750D01*
X132150000Y-79362500D02*
X132187500Y-79400000D01*
D63*
X149000000Y-101000000D02*
X149750000Y-100250000D01*
D64*
X131186169Y-89813831D02*
X131906250Y-89093750D01*
X119400000Y-89825000D02*
X119400000Y-90850000D01*
X131525000Y-88350000D02*
X131162500Y-88350000D01*
X130975000Y-91600000D02*
X130975000Y-90175000D01*
X147025000Y-66750000D02*
X145625000Y-68150000D01*
X122200000Y-89825000D02*
X122200000Y-88987500D01*
X132500000Y-90225000D02*
X132500000Y-89687500D01*
D62*
X148750000Y-96300000D02*
X148750000Y-98750000D01*
D64*
X124250000Y-81437500D02*
X123487500Y-81437500D01*
X131186169Y-89969529D02*
X131186169Y-89813831D01*
X122600000Y-80550000D02*
X122600000Y-81550000D01*
X132187500Y-79400000D02*
X132187500Y-77612500D01*
X126000000Y-60075000D02*
X126000000Y-61400000D01*
X130975000Y-90175000D02*
X131200000Y-89950000D01*
X125250000Y-63450000D02*
X126000000Y-63450000D01*
X131906250Y-89093750D02*
X131162500Y-88350000D01*
X147775000Y-65155000D02*
X147775000Y-66000000D01*
X126000000Y-61400000D02*
X126050000Y-61450000D01*
X132150000Y-76250000D02*
X132150000Y-79362500D01*
X147775000Y-66000000D02*
X147025000Y-66750000D01*
X142825000Y-74750000D02*
X144000000Y-74750000D01*
X130975000Y-90987500D02*
X129750000Y-89762500D01*
%TO.N,+12V*%
D65*
X150150000Y-125850000D02*
X150800000Y-126500000D01*
X157600000Y-107500000D02*
X157600000Y-112900000D01*
X157600000Y-112900000D02*
X150150000Y-120350000D01*
D62*
X149000000Y-130350000D02*
X149000000Y-129500000D01*
D65*
X156512500Y-106412500D02*
X155750000Y-107175000D01*
X150150000Y-120350000D02*
X150150000Y-125850000D01*
D62*
X149000000Y-129500000D02*
X150000000Y-128500000D01*
D63*
X166700000Y-139450000D02*
X165600000Y-139450000D01*
D65*
X150800000Y-126500000D02*
X155125000Y-126500000D01*
X156512500Y-106412500D02*
X157600000Y-107500000D01*
X157350000Y-105575000D02*
X156512500Y-106412500D01*
X157900000Y-105575000D02*
X157350000Y-105575000D01*
%TO.N,/Fan0*%
D64*
X128250000Y-90850000D02*
X128250000Y-89762500D01*
X127650000Y-93450000D02*
X127650000Y-91450000D01*
X129500000Y-95300000D02*
X127650000Y-93450000D01*
X127650000Y-91450000D02*
X128250000Y-90850000D01*
%TO.N,+24V*%
D65*
X130000000Y-136675000D02*
X130000000Y-136750000D01*
X130000000Y-136675000D02*
X158350000Y-136675000D01*
D62*
X114500000Y-132475000D02*
X118285000Y-132475000D01*
X118285000Y-132475000D02*
X118720000Y-132040000D01*
D65*
X158350000Y-136675000D02*
X159150000Y-136675000D01*
X162740000Y-135225000D02*
X162900000Y-135065000D01*
X127750000Y-136675000D02*
X130000000Y-136675000D01*
X128425000Y-136675000D02*
X129250000Y-137500000D01*
X127750000Y-136675000D02*
X128425000Y-136675000D01*
X160600000Y-135225000D02*
X161250000Y-135225000D01*
X118750000Y-143950000D02*
X117250000Y-142450000D01*
X117250000Y-142000000D02*
X118720000Y-140530000D01*
X118720000Y-140530000D02*
X122575000Y-136675000D01*
X118750000Y-148217500D02*
X118750000Y-143950000D01*
X130000000Y-136750000D02*
X129250000Y-137500000D01*
X161250000Y-135225000D02*
X161790000Y-135225000D01*
X118720000Y-140530000D02*
X118720000Y-132040000D01*
X117250000Y-142450000D02*
X117250000Y-142000000D01*
X122575000Y-136675000D02*
X127750000Y-136675000D01*
X161790000Y-135225000D02*
X162900000Y-136335000D01*
X159150000Y-136675000D02*
X160600000Y-135225000D01*
X161250000Y-135225000D02*
X162740000Y-135225000D01*
%TO.N,Net-(U6-PG)*%
D63*
X161370000Y-137605000D02*
X160850000Y-138125000D01*
X162900000Y-137605000D02*
X161370000Y-137605000D01*
%TO.N,Net-(U6-VCC)*%
X161925000Y-139775000D02*
X162100000Y-139950000D01*
X160850000Y-139775000D02*
X161925000Y-139775000D01*
X168300000Y-136335000D02*
X170510000Y-136335000D01*
X170510000Y-136335000D02*
X171100000Y-136925000D01*
%TO.N,Net-(U2-AIN0)*%
D64*
X154000000Y-72500000D02*
X155300000Y-72500000D01*
X157920000Y-72500000D02*
X158000000Y-72420000D01*
X155300000Y-72500000D02*
X157920000Y-72500000D01*
X155850000Y-71950000D02*
X155850000Y-71275000D01*
X155300000Y-72500000D02*
X155850000Y-71950000D01*
%TO.N,Net-(U2-AIN1)*%
X178545000Y-112900000D02*
X178545000Y-115440000D01*
X152800000Y-72407236D02*
X153207236Y-72000000D01*
X178550000Y-116500000D02*
X178550000Y-115445000D01*
X185600000Y-118000000D02*
X180050000Y-118000000D01*
X178550000Y-115445000D02*
X178545000Y-115440000D01*
X152800000Y-77000000D02*
X152800000Y-72407236D01*
X159100000Y-83300000D02*
X152800000Y-77000000D01*
X153207236Y-72000000D02*
X154000000Y-72000000D01*
X159100000Y-85750000D02*
X159100000Y-83300000D01*
X180050000Y-118000000D02*
X178550000Y-116500000D01*
%TO.N,+5V*%
X154025000Y-87050000D02*
X154025000Y-79675000D01*
X154025000Y-79675000D02*
X152100000Y-77750000D01*
X163715000Y-69115000D02*
X164215000Y-69115000D01*
X164215000Y-69115000D02*
X164650000Y-69550000D01*
X163715000Y-69115000D02*
X162950000Y-69880000D01*
X152650000Y-88750000D02*
X152650000Y-88425000D01*
D62*
X139465000Y-132475000D02*
X139030000Y-132040000D01*
X143250000Y-132475000D02*
X139465000Y-132475000D01*
D64*
X152100000Y-77750000D02*
X152100000Y-76650000D01*
X152650000Y-88425000D02*
X154025000Y-87050000D01*
X148700000Y-71100000D02*
X149450000Y-71100000D01*
X164000000Y-68300000D02*
X164000000Y-68830000D01*
X164000000Y-68830000D02*
X163715000Y-69115000D01*
D62*
X146800000Y-124500000D02*
X147500000Y-123800000D01*
X143925000Y-132475000D02*
X146800000Y-129600000D01*
X146800000Y-129600000D02*
X146800000Y-124500000D01*
X143250000Y-132475000D02*
X143925000Y-132475000D01*
D64*
X148900000Y-73000000D02*
X149700000Y-73000000D01*
X147850000Y-71950000D02*
X148900000Y-73000000D01*
X147850000Y-71950000D02*
X148700000Y-71100000D01*
%TO.N,Net-(J6-Pin_6)*%
X172875000Y-67525000D02*
X160355000Y-67525000D01*
X172955000Y-67445000D02*
X172875000Y-67525000D01*
X177845000Y-67445000D02*
X172955000Y-67445000D01*
X160355000Y-67525000D02*
X158000000Y-69880000D01*
X182000000Y-68700000D02*
X179100000Y-68700000D01*
X179100000Y-68700000D02*
X177845000Y-67445000D01*
%TO.N,Net-(J7-Pin_6)*%
X160995000Y-70505000D02*
X160350000Y-71150000D01*
X160350000Y-71150000D02*
X158000000Y-71150000D01*
X167930000Y-68620000D02*
X166045000Y-70505000D01*
X175250000Y-68620000D02*
X167930000Y-68620000D01*
X166045000Y-70505000D02*
X160995000Y-70505000D01*
%TO.N,Net-(J7-Pin_7)*%
X175250000Y-71160000D02*
X174615000Y-71795000D01*
X174615000Y-71795000D02*
X163975908Y-71795000D01*
X163975908Y-71795000D02*
X163955908Y-71775000D01*
X163955908Y-71775000D02*
X161525000Y-71775000D01*
X159610000Y-73690000D02*
X158000000Y-73690000D01*
X161525000Y-71775000D02*
X159610000Y-73690000D01*
%TO.N,Net-(J6-Pin_7)*%
X160010000Y-74960000D02*
X160050000Y-75000000D01*
X158000000Y-74960000D02*
X160010000Y-74960000D01*
%TO.N,S2*%
X136663604Y-79300000D02*
X139200000Y-79300000D01*
X161080000Y-78770000D02*
X160300000Y-79550000D01*
X162950000Y-78770000D02*
X161080000Y-78770000D01*
X132113604Y-83850000D02*
X136663604Y-79300000D01*
X139200000Y-79300000D02*
X140700000Y-80800000D01*
X131162500Y-83850000D02*
X132113604Y-83850000D01*
%TO.N,S1*%
X132250000Y-84350000D02*
X131162500Y-84350000D01*
X137850000Y-79900000D02*
X136700000Y-79900000D01*
X162950000Y-77500000D02*
X161350000Y-77500000D01*
X136700000Y-79900000D02*
X132250000Y-84350000D01*
X161350000Y-77500000D02*
X160350000Y-78500000D01*
%TO.N,S0*%
X136650000Y-80600000D02*
X132400000Y-84850000D01*
X161720000Y-76230000D02*
X160400000Y-77550000D01*
X132400000Y-84850000D02*
X131162500Y-84850000D01*
X162950000Y-76230000D02*
X161720000Y-76230000D01*
X139150000Y-80200000D02*
X138750000Y-80600000D01*
X138750000Y-80600000D02*
X136650000Y-80600000D01*
%TO.N,Net-(J5-Pin_7)*%
X185030000Y-74960000D02*
X162950000Y-74960000D01*
X188750000Y-71240000D02*
X185030000Y-74960000D01*
%TO.N,Net-(J4-Pin_6)*%
X184485000Y-72415000D02*
X170985000Y-72415000D01*
X195000000Y-68700000D02*
X193650000Y-70050000D01*
X186850000Y-70050000D02*
X184485000Y-72415000D01*
X193650000Y-70050000D02*
X186850000Y-70050000D01*
X169710000Y-73690000D02*
X162950000Y-73690000D01*
X170985000Y-72415000D02*
X169710000Y-73690000D01*
%TO.N,Net-(J4-Pin_7)*%
X162950000Y-72420000D02*
X164520000Y-72420000D01*
X164520000Y-72420000D02*
X164750000Y-72650000D01*
%TO.N,Net-(J5-Pin_6)*%
X176800000Y-69950000D02*
X169550000Y-69950000D01*
X183850000Y-69900000D02*
X176850000Y-69900000D01*
X168350000Y-71150000D02*
X162950000Y-71150000D01*
X176850000Y-69900000D02*
X176800000Y-69950000D01*
X169550000Y-69950000D02*
X168350000Y-71150000D01*
X188750000Y-68700000D02*
X185050000Y-68700000D01*
X185050000Y-68700000D02*
X183850000Y-69900000D01*
%TO.N,/Set2*%
X162750000Y-89500000D02*
X161750000Y-88500000D01*
X176245000Y-82075000D02*
X176245000Y-88210000D01*
X182000000Y-76320000D02*
X176245000Y-82075000D01*
X174955000Y-89500000D02*
X162750000Y-89500000D01*
X176245000Y-88210000D02*
X174955000Y-89500000D01*
%TO.N,+15V*%
D63*
X123740000Y-132500000D02*
X123280000Y-132040000D01*
D62*
X175250000Y-58460000D02*
X172210000Y-58460000D01*
X123715000Y-132475000D02*
X123280000Y-132040000D01*
X134035000Y-132475000D02*
X134470000Y-132040000D01*
X172210000Y-58460000D02*
X170825000Y-57075000D01*
X134470000Y-132040000D02*
X136410000Y-132040000D01*
X130250000Y-132475000D02*
X134035000Y-132475000D01*
X127500000Y-132475000D02*
X130250000Y-132475000D01*
X127500000Y-132475000D02*
X123715000Y-132475000D01*
X136410000Y-132040000D02*
X136450000Y-132000000D01*
X170825000Y-57075000D02*
X170689759Y-57075000D01*
%TO.N,R0*%
D64*
X125550000Y-91550000D02*
X125750000Y-91350000D01*
X125750000Y-91350000D02*
X125750000Y-89762500D01*
%TO.N,/Set0*%
X188750000Y-94750000D02*
X165000000Y-94750000D01*
X192750000Y-78570000D02*
X192750000Y-88250000D01*
X195000000Y-76320000D02*
X192750000Y-78570000D01*
X192750000Y-90790000D02*
X192710000Y-90790000D01*
X165000000Y-94750000D02*
X161750000Y-91500000D01*
X192710000Y-90790000D02*
X188750000Y-94750000D01*
%TO.N,R3*%
X127250000Y-88500000D02*
X127100000Y-88350000D01*
X127250000Y-89762500D02*
X127250000Y-88500000D01*
%TO.N,/Set3*%
X166750000Y-87000000D02*
X168000000Y-88250000D01*
X168000000Y-83500000D02*
X168000000Y-88250000D01*
X167995000Y-83495000D02*
X168000000Y-83500000D01*
X175250000Y-76240000D02*
X167995000Y-83495000D01*
X161750000Y-87000000D02*
X166750000Y-87000000D01*
%TO.N,Net-(U14-BOOT)*%
D63*
X151725000Y-104250000D02*
X151975000Y-104000000D01*
X151725000Y-105500000D02*
X151725000Y-104250000D01*
%TO.N,VIN*%
D64*
X186750000Y-108250000D02*
X186750000Y-110475000D01*
X193717500Y-108500000D02*
X187000000Y-108500000D01*
X187000000Y-108500000D02*
X186750000Y-108250000D01*
%TO.N,Net-(R27-Pad2)*%
X180655000Y-108250000D02*
X178545000Y-110360000D01*
X185100000Y-108250000D02*
X180655000Y-108250000D01*
%TO.N,Net-(U12-VOUTA)*%
X156850000Y-90750000D02*
X159350000Y-90750000D01*
X159350000Y-90750000D02*
X160100000Y-91500000D01*
%TO.N,Net-(U7-PB12)*%
X118850000Y-81150000D02*
X118850000Y-81850000D01*
X127100000Y-70850000D02*
X121050000Y-76900000D01*
X118850000Y-81850000D02*
X120350000Y-83350000D01*
X127100000Y-70075000D02*
X127100000Y-70850000D01*
X120350000Y-83350000D02*
X122837500Y-83350000D01*
%TO.N,Net-(U6-BOOT)*%
D63*
X168300000Y-135065000D02*
X170915000Y-135065000D01*
X170915000Y-135065000D02*
X171100000Y-135250000D01*
%TO.N,/Fan3*%
D64*
X120000000Y-82000000D02*
X120100000Y-82000000D01*
X120100000Y-82000000D02*
X120950000Y-82850000D01*
X120950000Y-82850000D02*
X122837500Y-82850000D01*
%TO.N,Net-(U12-VOUTC)*%
X156850000Y-89750000D02*
X158850000Y-89750000D01*
X158850000Y-89750000D02*
X160100000Y-88500000D01*
%TO.N,/RCC_OSC_OUT*%
D10*
X137451992Y-82851992D02*
X135976777Y-84327207D01*
X133000000Y-84862470D02*
X133155501Y-84706970D01*
X133848530Y-84551471D02*
X133978858Y-84421142D01*
X131162500Y-85850000D02*
X132550000Y-85850000D01*
X135573147Y-84421142D02*
X135976777Y-84421142D01*
X133693031Y-84706971D02*
X133848530Y-84551471D01*
X132550000Y-85850000D02*
X133000000Y-85400000D01*
X135976777Y-84327207D02*
X135976777Y-84421142D01*
X133978858Y-84421142D02*
X135573147Y-84421142D01*
X133424265Y-84706971D02*
G75*
G03*
X133693031Y-84706971I134383J134384D01*
G01*
X133155501Y-84706970D02*
G75*
G02*
X133424282Y-84706953I134399J-134430D01*
G01*
X133000000Y-85400000D02*
G75*
G03*
X133000018Y-85131218I-134400J134400D01*
G01*
X133000001Y-85131234D02*
G75*
G02*
X133000048Y-84862519I134399J134334D01*
G01*
%TO.N,/Fan1*%
D64*
X130850000Y-95750000D02*
X128300000Y-93200000D01*
X128750000Y-91000000D02*
X128750000Y-89762500D01*
X128300000Y-93200000D02*
X128300000Y-91450000D01*
X135100000Y-97000000D02*
X133850000Y-95750000D01*
X133850000Y-95750000D02*
X130850000Y-95750000D01*
X128300000Y-91450000D02*
X128750000Y-91000000D01*
%TO.N,/SYS_JTMS_SWDIO*%
X124250000Y-98750000D02*
X124250000Y-89762500D01*
X127750000Y-102250000D02*
X124250000Y-98750000D01*
%TO.N,/SYS_JTCK_SWCLK*%
X124750000Y-89762500D02*
X124750000Y-96710000D01*
X124750000Y-96710000D02*
X130290000Y-102250000D01*
%TO.N,/CS*%
X113260000Y-79760000D02*
X118850000Y-85350000D01*
X118850000Y-85350000D02*
X122837500Y-85350000D01*
X113260000Y-55750000D02*
X113260000Y-79760000D01*
%TO.N,/Reset*%
X124025000Y-82732236D02*
X124025000Y-83750000D01*
X127375000Y-82367764D02*
X127250000Y-82242764D01*
X121825000Y-82375000D02*
X123667764Y-82375000D01*
X115800000Y-55750000D02*
X115800000Y-76350000D01*
X126300000Y-84850000D02*
X127375000Y-83775000D01*
X124025000Y-83750000D02*
X125125000Y-84850000D01*
X125125000Y-84850000D02*
X126300000Y-84850000D01*
X115800000Y-76350000D02*
X121825000Y-82375000D01*
X127375000Y-83775000D02*
X127375000Y-82367764D01*
X123667764Y-82375000D02*
X124025000Y-82732236D01*
X127250000Y-82242764D02*
X127250000Y-81437500D01*
%TO.N,/DC{slash}RS*%
X127750000Y-80500000D02*
X127450000Y-80200000D01*
X127750000Y-81437500D02*
X127750000Y-80500000D01*
%TO.N,/MOSI*%
X124100000Y-62250000D02*
X132450000Y-62250000D01*
X120880000Y-55750000D02*
X120880000Y-59030000D01*
X128750000Y-81437500D02*
X128750000Y-80100000D01*
X132450000Y-62250000D02*
X136120000Y-58580000D01*
X120880000Y-59030000D02*
X124100000Y-62250000D01*
X136120000Y-58580000D02*
X136120000Y-55750000D01*
%TO.N,/SCK*%
X131050000Y-55760000D02*
X131040000Y-55750000D01*
X124200000Y-59350000D02*
X129500000Y-59350000D01*
X129750000Y-81437500D02*
X130012500Y-81437500D01*
X123420000Y-55750000D02*
X123420000Y-58570000D01*
X123420000Y-58570000D02*
X124200000Y-59350000D01*
X131050000Y-57800000D02*
X131050000Y-55760000D01*
X130012500Y-81437500D02*
X130800000Y-80650000D01*
X129500000Y-59350000D02*
X131050000Y-57800000D01*
%TO.N,/LED*%
X126000000Y-55790000D02*
X125960000Y-55750000D01*
X126000000Y-58425000D02*
X126000000Y-55790000D01*
%TO.N,/MISO*%
X131650000Y-58500000D02*
X134400000Y-58500000D01*
X129500000Y-80050000D02*
X129500000Y-80250000D01*
X129500000Y-80250000D02*
X129250000Y-80500000D01*
X129250000Y-80500000D02*
X129250000Y-81437500D01*
X134400000Y-58500000D02*
X134450000Y-58550000D01*
%TO.N,/T_CS*%
X125550000Y-69250000D02*
X118350000Y-76450000D01*
X118250000Y-85850000D02*
X122837500Y-85850000D01*
X117475000Y-85075000D02*
X118250000Y-85850000D01*
X131800000Y-69250000D02*
X125550000Y-69250000D01*
X132200000Y-68850000D02*
X131800000Y-69250000D01*
%TO.N,/T_IRQ*%
X129650000Y-82950000D02*
X128957236Y-82950000D01*
X128957236Y-82950000D02*
X128250000Y-82242764D01*
X128250000Y-82242764D02*
X128250000Y-81437500D01*
%TO.N,Net-(U6-FB)*%
D63*
X168300000Y-139400000D02*
X168350000Y-139450000D01*
X168350000Y-139450000D02*
X169100000Y-139450000D01*
X169100000Y-139450000D02*
X169850000Y-140200000D01*
X168300000Y-137605000D02*
X168300000Y-139400000D01*
%TO.N,Net-(U14-EN)*%
X155750000Y-108825000D02*
X155425000Y-108825000D01*
X155425000Y-108825000D02*
X154000000Y-107400000D01*
%TO.N,Vbus*%
D64*
X104550000Y-125170000D02*
X105830000Y-125170000D01*
X105830000Y-125170000D02*
X106800000Y-124200000D01*
X106800000Y-121425000D02*
X105800000Y-120425000D01*
X103929949Y-129970000D02*
X102400000Y-128440051D01*
X106800000Y-124200000D02*
X106800000Y-121425000D01*
X110737500Y-127400000D02*
X112050000Y-127400000D01*
X103930001Y-125170000D02*
X104550000Y-125170000D01*
X102400000Y-126700001D02*
X103930001Y-125170000D01*
X104550000Y-129970000D02*
X103929949Y-129970000D01*
X102400000Y-128440051D02*
X102400000Y-126700001D01*
%TO.N,Net-(J12-CC1)*%
X108200000Y-123625000D02*
X108200000Y-123225000D01*
X105505000Y-126320000D02*
X108200000Y-123625000D01*
X104550000Y-126320000D02*
X105505000Y-126320000D01*
%TO.N,/D+*%
D10*
X105985001Y-128793363D02*
X106105001Y-128793363D01*
X103897590Y-127320000D02*
X104550000Y-127320000D01*
X105480001Y-128320000D02*
X105486549Y-128313452D01*
X103630000Y-128052410D02*
X103630000Y-127587590D01*
X105486549Y-128313452D02*
X105505001Y-128295000D01*
X107436409Y-128100000D02*
X107750000Y-128100000D01*
X106585001Y-128295000D02*
X106705001Y-128295000D01*
X103630000Y-127587590D02*
X103897590Y-127320000D01*
X104550000Y-128320000D02*
X105480001Y-128320000D01*
X106345001Y-128553363D02*
X106345001Y-128535000D01*
X107750000Y-128100000D02*
X108000000Y-128350000D01*
X107241409Y-128295000D02*
X107436409Y-128100000D01*
X103897590Y-128320000D02*
X103630000Y-128052410D01*
X108000000Y-128350000D02*
X108462500Y-128350000D01*
X104550000Y-128320000D02*
X103897590Y-128320000D01*
X106705001Y-128295000D02*
X107241409Y-128295000D01*
X105745001Y-128535000D02*
X105745001Y-128553363D01*
X105505001Y-128295000D02*
G75*
G02*
X105745000Y-128535000I-1J-240000D01*
G01*
X106345001Y-128535000D02*
G75*
G02*
X106585001Y-128295001I239999J0D01*
G01*
X105745001Y-128553363D02*
G75*
G03*
X105985001Y-128793399I239999J-37D01*
G01*
X106105001Y-128793363D02*
G75*
G03*
X106344963Y-128553363I-1J239963D01*
G01*
%TO.N,/D-*%
X104550000Y-127820000D02*
X105350000Y-127820000D01*
X105350000Y-127820000D02*
X105470000Y-127700000D01*
X105202410Y-126820000D02*
X104550000Y-126820000D01*
X107055013Y-127845000D02*
X107350000Y-127550013D01*
X105470000Y-127700000D02*
X105470000Y-127087590D01*
X108109448Y-126450000D02*
X108462500Y-126450000D01*
X105350000Y-127820000D02*
X105480001Y-127820000D01*
X107350000Y-127209448D02*
X108109448Y-126450000D01*
X105480001Y-127820000D02*
X105505001Y-127845000D01*
X105505001Y-127845000D02*
X107055013Y-127845000D01*
X107350000Y-127550013D02*
X107350000Y-127209448D01*
X105470000Y-127087590D02*
X105202410Y-126820000D01*
%TO.N,Net-(J12-CC2)*%
D64*
X106145000Y-129320000D02*
X107500000Y-130675000D01*
X104550000Y-129320000D02*
X106145000Y-129320000D01*
%TO.N,Net-(J12-SHIELD)*%
D62*
X100550000Y-134425000D02*
X100500000Y-134475000D01*
X102250000Y-134425000D02*
X102250000Y-133590000D01*
X102250000Y-133590000D02*
X103950000Y-131890000D01*
X102250000Y-134425000D02*
X100550000Y-134425000D01*
%TO.N,Net-(U12-VOUTD)*%
D64*
X156850000Y-89250000D02*
X157850000Y-89250000D01*
X157850000Y-89250000D02*
X160100000Y-87000000D01*
%TO.N,Net-(J10-Pin_2)*%
X126750000Y-68075000D02*
X127100000Y-68425000D01*
X126750000Y-66000000D02*
X126750000Y-68075000D01*
%TO.N,Net-(U14-FB)*%
D63*
X149000000Y-107325000D02*
X149000000Y-108900000D01*
X149000000Y-108900000D02*
X149100000Y-109000000D01*
X149075000Y-107400000D02*
X149000000Y-107325000D01*
X151725000Y-107400000D02*
X149075000Y-107400000D01*
%TO.N,/USB_D+*%
D10*
X119400000Y-87325000D02*
X119400000Y-88175000D01*
X119400000Y-87325000D02*
X121706249Y-87325000D01*
X112475000Y-103594493D02*
X112475000Y-104072216D01*
X112227818Y-128000000D02*
X111087500Y-128000000D01*
X121706249Y-87325000D02*
X121731249Y-87350000D01*
X112969859Y-102874493D02*
X112969859Y-102994493D01*
X112475000Y-126612500D02*
X112600000Y-126737500D01*
X112729859Y-103234493D02*
X112715000Y-103234493D01*
X112475000Y-103474493D02*
X112475000Y-103594493D01*
X112475000Y-104072216D02*
X112475000Y-126612500D01*
X112715000Y-102634493D02*
X112729859Y-102634493D01*
X118393198Y-87325000D02*
X112475000Y-93243198D01*
X121731249Y-87350000D02*
X122837500Y-87350000D01*
X112475000Y-93243198D02*
X112475000Y-102394493D01*
X112600000Y-126737500D02*
X112600000Y-127627818D01*
X111087500Y-128000000D02*
X110737500Y-128350000D01*
X112600000Y-127627818D02*
X112227818Y-128000000D01*
X119400000Y-87325000D02*
X118393198Y-87325000D01*
X112969859Y-102994493D02*
G75*
G02*
X112729859Y-103234459I-239959J-7D01*
G01*
X112475000Y-102394493D02*
G75*
G03*
X112715000Y-102634500I240000J-7D01*
G01*
X112729859Y-102634493D02*
G75*
G02*
X112969907Y-102874493I41J-240007D01*
G01*
X112715000Y-103234493D02*
G75*
G03*
X112474993Y-103474493I0J-240007D01*
G01*
%TO.N,/USB_D-*%
X112025000Y-126426103D02*
X112025000Y-99083492D01*
X111785000Y-97643492D02*
X111571520Y-97643492D01*
X111331520Y-97403492D02*
X111331520Y-97283492D01*
X118206802Y-86875000D02*
X121706249Y-86875000D01*
X112025000Y-98003492D02*
X112025000Y-97883492D01*
X121731249Y-86850000D02*
X122837500Y-86850000D01*
X121706249Y-86875000D02*
X121731249Y-86850000D01*
X111571495Y-98243492D02*
X111785000Y-98243492D01*
X111571520Y-97043492D02*
X111785000Y-97043492D01*
X112025000Y-95508206D02*
X112025000Y-93056802D01*
X112025000Y-96803492D02*
X112025000Y-96683492D01*
X112001103Y-126450000D02*
X112025000Y-126426103D01*
X111331495Y-98603492D02*
X111331495Y-98483492D01*
X110737500Y-126450000D02*
X112001103Y-126450000D01*
X112025000Y-96683492D02*
X112025000Y-95508206D01*
X112025000Y-93056802D02*
X118206802Y-86875000D01*
X111785000Y-98843492D02*
X111571495Y-98843492D01*
X112025000Y-97883492D02*
G75*
G03*
X111785000Y-97643500I-240000J-8D01*
G01*
X112025000Y-99083492D02*
G75*
G03*
X111785000Y-98843500I-240000J-8D01*
G01*
X111331520Y-97283492D02*
G75*
G02*
X111571520Y-97043520I239980J-8D01*
G01*
X111331495Y-98483492D02*
G75*
G02*
X111571495Y-98243495I240005J-8D01*
G01*
X111785000Y-98243492D02*
G75*
G03*
X112024992Y-98003492I0J239992D01*
G01*
X111785000Y-97043492D02*
G75*
G03*
X112024992Y-96803492I0J239992D01*
G01*
X111571520Y-97643492D02*
G75*
G02*
X111331508Y-97403492I-20J239992D01*
G01*
X111571495Y-98843492D02*
G75*
G02*
X111331508Y-98603492I5J239992D01*
G01*
%TO.N,R2*%
D64*
X126950000Y-91500000D02*
X126750000Y-91300000D01*
X126750000Y-91300000D02*
X126750000Y-89762500D01*
%TO.N,/RCC_OSC_IN*%
D10*
X134986827Y-87815254D02*
X134015254Y-87815254D01*
X136134834Y-87178858D02*
X135623223Y-87178858D01*
X137303984Y-88348008D02*
X136134834Y-87178858D01*
X132550000Y-86350000D02*
X131162500Y-86350000D01*
X134015254Y-87815254D02*
X132550000Y-86350000D01*
X135623223Y-87178858D02*
X134986827Y-87815254D01*
%TO.N,Net-(U7-VDDA)*%
D64*
X125750000Y-79325000D02*
X125600000Y-79175000D01*
X129025000Y-79400000D02*
X128800000Y-79175000D01*
X126250000Y-80125000D02*
X127200000Y-79175000D01*
X126250000Y-81437500D02*
X126250000Y-80125000D01*
X127200000Y-79175000D02*
X128800000Y-79175000D01*
X125750000Y-81437500D02*
X125750000Y-79325000D01*
X125600000Y-79175000D02*
X127200000Y-79175000D01*
X130612500Y-79400000D02*
X129025000Y-79400000D01*
%TO.N,/Fan2*%
X125200000Y-83950000D02*
X125250000Y-83900000D01*
X125250000Y-83900000D02*
X125250000Y-81437500D01*
%TO.N,/VBUS_SENSE*%
X104075000Y-118775000D02*
X104025000Y-118825000D01*
X117500000Y-86350000D02*
X105800000Y-98050000D01*
X105800000Y-98050000D02*
X105800000Y-118775000D01*
X105800000Y-118775000D02*
X104075000Y-118775000D01*
X122837500Y-86350000D02*
X117500000Y-86350000D01*
%TO.N,R1*%
X126250000Y-92150000D02*
X126450000Y-92350000D01*
X126250000Y-89762500D02*
X126250000Y-92150000D01*
%TO.N,Net-(U12-VOUTB)*%
X159850000Y-90250000D02*
X160100000Y-90000000D01*
X156850000Y-90250000D02*
X159850000Y-90250000D01*
%TO.N,/Set1*%
X188750000Y-76320000D02*
X184500000Y-80570000D01*
X163750000Y-92000000D02*
X183250000Y-92000000D01*
X184500000Y-80570000D02*
X184500000Y-88210000D01*
X183250000Y-92000000D02*
X184500000Y-90750000D01*
X161750000Y-90000000D02*
X163750000Y-92000000D01*
%TO.N,Net-(J1-Pin_3)*%
X140500000Y-95636396D02*
X132213604Y-87350000D01*
X140500000Y-99000000D02*
X140500000Y-95636396D01*
X132213604Y-87350000D02*
X131162500Y-87350000D01*
X133750000Y-105750000D02*
X140500000Y-99000000D01*
%TO.N,Net-(J1-Pin_2)*%
X141000000Y-95500000D02*
X132350000Y-86850000D01*
X132350000Y-86850000D02*
X131162500Y-86850000D01*
X135500000Y-105000000D02*
X141000000Y-99500000D01*
X141000000Y-99500000D02*
X141000000Y-95500000D01*
%TO.N,Net-(J1-Pin_4)*%
X140000000Y-96250000D02*
X135250000Y-91500000D01*
X135250000Y-91132236D02*
X131967764Y-87850000D01*
X132000000Y-106500000D02*
X140000000Y-98500000D01*
X140000000Y-98500000D02*
X140000000Y-96250000D01*
X131967764Y-87850000D02*
X131162500Y-87850000D01*
X135250000Y-91500000D02*
X135250000Y-91132236D01*
%TO.N,Net-(J2-Pin_2)*%
X119350000Y-84850000D02*
X122837500Y-84850000D01*
X115750000Y-81250000D02*
X119350000Y-84850000D01*
%TO.N,Net-(J2-Pin_4)*%
X120100000Y-83850000D02*
X115250000Y-79000000D01*
X115250000Y-79000000D02*
X114750000Y-79000000D01*
X122837500Y-83850000D02*
X120100000Y-83850000D01*
%TO.N,Net-(J2-Pin_3)*%
X119850000Y-84350000D02*
X115750000Y-80250000D01*
X122837500Y-84350000D02*
X119850000Y-84350000D01*
X115750000Y-80250000D02*
X115250000Y-80250000D01*
%TD*%
M02*
