%TF.GenerationSoftware,KiCad,Pcbnew,10.0.3*%
%TF.CreationDate,2026-09-11T18:41:02+02:00*%
%TF.ProjectId,ControlBoard,436f6e74-726f-46c4-926f-6172642e6b69,rev?*%
%TF.SameCoordinates,Original*%
%TF.FileFunction,Soldermask,Bot*%
%TF.FilePolarity,Negative*%
%FSLAX46Y46*%
G04 Gerber Fmt 4.6, Leading zero omitted, Abs format (unit mm)*
G04 Created by KiCad (PCBNEW 10.0.3) date 2026-09-11 18:41:02*
%MOMM*%
%LPD*%
G01*
G04 APERTURE LIST*
G04 Aperture macros list*
%AMRoundRect*
0 Rectangle with rounded corners*
0 $1 Rounding radius*
0 $2 $3 $4 $5 $6 $7 $8 $9 X,Y pos of 4 corners*
0 Add a 4 corners polygon primitive as box body*
4,1,4,$2,$3,$4,$5,$6,$7,$8,$9,$2,$3,0*
0 Add four circle primitives for the rounded corners*
1,1,$1+$1,$2,$3*
1,1,$1+$1,$4,$5*
1,1,$1+$1,$6,$7*
1,1,$1+$1,$8,$9*
0 Add four rect primitives between the rounded corners*
20,1,$1+$1,$2,$3,$4,$5,0*
20,1,$1+$1,$4,$5,$6,$7,0*
20,1,$1+$1,$6,$7,$8,$9,0*
20,1,$1+$1,$8,$9,$2,$3,0*%
G04 Aperture macros list end*
%ADD10C,1.100000*%
%ADD11R,1.730000X2.030000*%
%ADD12O,1.730000X2.030000*%
%ADD13C,1.440000*%
%ADD14R,1.700000X1.700000*%
%ADD15C,1.700000*%
%ADD16RoundRect,0.250000X-0.550000X0.550000X-0.550000X-0.550000X0.550000X-0.550000X0.550000X0.550000X0*%
%ADD17C,1.600000*%
%ADD18C,3.200000*%
%ADD19RoundRect,0.250000X-0.550000X-0.550000X0.550000X-0.550000X0.550000X0.550000X-0.550000X0.550000X0*%
%ADD20C,0.650000*%
%ADD21O,1.800000X1.000000*%
%ADD22O,2.100000X1.000000*%
%ADD23RoundRect,0.250001X1.149999X-1.149999X1.149999X1.149999X-1.149999X1.149999X-1.149999X-1.149999X0*%
%ADD24C,2.800000*%
%ADD25RoundRect,0.250000X0.550000X0.550000X-0.550000X0.550000X-0.550000X-0.550000X0.550000X-0.550000X0*%
%ADD26RoundRect,0.250001X-1.149999X-1.149999X1.149999X-1.149999X1.149999X1.149999X-1.149999X1.149999X0*%
G04 APERTURE END LIST*
D10*
%TO.C,M1*%
X193080000Y-145840000D03*
D11*
X188000000Y-148000000D03*
D12*
X190540000Y-148000000D03*
X193080000Y-148000000D03*
X195620000Y-148000000D03*
%TD*%
D13*
%TO.C,RV3*%
X176245000Y-88210000D03*
X176245000Y-90750000D03*
X176245000Y-93290000D03*
%TD*%
D14*
%TO.C,J4*%
X195000000Y-56000000D03*
D15*
X195000000Y-58540000D03*
X195000000Y-61080000D03*
X195000000Y-63620000D03*
X195000000Y-66160000D03*
X195000000Y-68700000D03*
X195000000Y-71240000D03*
X195000000Y-73780000D03*
X195000000Y-76320000D03*
X195000000Y-78860000D03*
%TD*%
D14*
%TO.C,J7*%
X175250000Y-55920000D03*
D15*
X175250000Y-58460000D03*
X175250000Y-61000000D03*
X175250000Y-63540000D03*
X175250000Y-66080000D03*
X175250000Y-68620000D03*
X175250000Y-71160000D03*
X175250000Y-73700000D03*
X175250000Y-76240000D03*
X175250000Y-78780000D03*
%TD*%
D14*
%TO.C,J2*%
X105750000Y-91330000D03*
D15*
X105750000Y-88790000D03*
X105750000Y-86250000D03*
X105750000Y-83710000D03*
X105750000Y-81170000D03*
%TD*%
D16*
%TO.C,C1*%
X129250000Y-137500000D03*
D17*
X129250000Y-140000000D03*
%TD*%
D10*
%TO.C,M4*%
X154000000Y-146000000D03*
D11*
X148920000Y-148160000D03*
D12*
X151460000Y-148160000D03*
X154000000Y-148160000D03*
X156540000Y-148160000D03*
%TD*%
D18*
%TO.C,H3*%
X194500000Y-133000000D03*
%TD*%
D19*
%TO.C,C7*%
X155500000Y-57250000D03*
D17*
X158000000Y-57250000D03*
%TD*%
D13*
%TO.C,RV1*%
X168000000Y-88250000D03*
X168000000Y-90790000D03*
X168000000Y-93330000D03*
%TD*%
D18*
%TO.C,H2*%
X101500000Y-56500000D03*
%TD*%
D10*
%TO.C,M2*%
X180080000Y-145840000D03*
D11*
X175000000Y-148000000D03*
D12*
X177540000Y-148000000D03*
X180080000Y-148000000D03*
X182620000Y-148000000D03*
%TD*%
D14*
%TO.C,J9*%
X125210000Y-102250000D03*
D15*
X127750000Y-102250000D03*
X130290000Y-102250000D03*
X132830000Y-102250000D03*
%TD*%
D14*
%TO.C,J8*%
X108180000Y-55750000D03*
D15*
X110720000Y-55750000D03*
X113260000Y-55750000D03*
X115800000Y-55750000D03*
X118340000Y-55750000D03*
X120880000Y-55750000D03*
X123420000Y-55750000D03*
X125960000Y-55750000D03*
X128500000Y-55750000D03*
X131040000Y-55750000D03*
X133580000Y-55750000D03*
X136120000Y-55750000D03*
X138660000Y-55750000D03*
X141200000Y-55750000D03*
%TD*%
D20*
%TO.C,J12*%
X103430000Y-124680000D03*
X103430000Y-130460000D03*
D21*
X99750000Y-131890000D03*
D22*
X103950000Y-123250000D03*
D21*
X99750000Y-123250000D03*
D22*
X103950000Y-131890000D03*
%TD*%
D14*
%TO.C,J6*%
X182000000Y-56000000D03*
D15*
X182000000Y-58540000D03*
X182000000Y-61080000D03*
X182000000Y-63620000D03*
X182000000Y-66160000D03*
X182000000Y-68700000D03*
X182000000Y-71240000D03*
X182000000Y-73780000D03*
X182000000Y-76320000D03*
X182000000Y-78860000D03*
%TD*%
D23*
%TO.C,J14*%
X193717500Y-113500000D03*
D24*
X193717500Y-108500000D03*
%TD*%
D13*
%TO.C,RV2*%
X178545000Y-110360000D03*
X178545000Y-112900000D03*
X178545000Y-115440000D03*
%TD*%
D16*
%TO.C,C4*%
X117250000Y-97817621D03*
D17*
X117250000Y-100317621D03*
%TD*%
D14*
%TO.C,J10*%
X129290000Y-66000000D03*
D15*
X126750000Y-66000000D03*
X124210000Y-66000000D03*
%TD*%
D14*
%TO.C,J1*%
X105750000Y-76250000D03*
D15*
X105750000Y-73710000D03*
X105750000Y-71170000D03*
X105750000Y-68630000D03*
X105750000Y-66090000D03*
%TD*%
D25*
%TO.C,C9*%
X170689759Y-57075000D03*
D17*
X168189759Y-57075000D03*
%TD*%
D13*
%TO.C,RV4*%
X184500000Y-88210000D03*
X184500000Y-90750000D03*
X184500000Y-93290000D03*
%TD*%
D14*
%TO.C,J11*%
X134720000Y-71200000D03*
D15*
X137260000Y-71200000D03*
X139800000Y-71200000D03*
X142340000Y-71200000D03*
%TD*%
D26*
%TO.C,J13*%
X113750000Y-148217500D03*
D24*
X118750000Y-148217500D03*
%TD*%
D10*
%TO.C,M3*%
X167000000Y-145840000D03*
D11*
X161920000Y-148000000D03*
D12*
X164460000Y-148000000D03*
X167000000Y-148000000D03*
X169540000Y-148000000D03*
%TD*%
D18*
%TO.C,H1*%
X101500000Y-149500000D03*
%TD*%
D16*
%TO.C,C5*%
X185250000Y-132067621D03*
D17*
X185250000Y-134567621D03*
%TD*%
D13*
%TO.C,RV5*%
X192750000Y-88250000D03*
X192750000Y-90790000D03*
X192750000Y-93330000D03*
%TD*%
D16*
%TO.C,C8*%
X178000000Y-132067621D03*
D17*
X178000000Y-134567621D03*
%TD*%
D19*
%TO.C,C3*%
X166817621Y-103250000D03*
D17*
X169317621Y-103250000D03*
%TD*%
D14*
%TO.C,J5*%
X188750000Y-56000000D03*
D15*
X188750000Y-58540000D03*
X188750000Y-61080000D03*
X188750000Y-63620000D03*
X188750000Y-66160000D03*
X188750000Y-68700000D03*
X188750000Y-71240000D03*
X188750000Y-73780000D03*
X188750000Y-76320000D03*
X188750000Y-78860000D03*
%TD*%
M02*
