%TF.GenerationSoftware,KiCad,Pcbnew,10.0.3*%
%TF.CreationDate,2026-09-11T14:08:20+02:00*%
%TF.ProjectId,ControlBoard,436f6e74-726f-46c4-926f-6172642e6b69,rev?*%
%TF.SameCoordinates,Original*%
%TF.FileFunction,Copper,L2,Bot*%
%TF.FilePolarity,Positive*%
%FSLAX46Y46*%
G04 Gerber Fmt 4.6, Leading zero omitted, Abs format (unit mm)*
G04 Created by KiCad (PCBNEW 10.0.3) date 2026-09-11 14:08:20*
%MOMM*%
%LPD*%
G01*
G04 APERTURE LIST*
G04 Aperture macros list*
%AMRoundRect*
0 Rectangle with rounded corners*
0 $1 Rounding radius*
0 $2 $3 $4 $5 $6 $7 $8 $9 X,Y pos of 4 corners*
0 Add a 4 corners polygon primitive as box body*
4,1,4,$2,$3,$4,$5,$6,$7,$8,$9,$2,$3,0*
0 Add four circle primitives for the rounded corners*
1,1,$1+$1,$2,$3*
1,1,$1+$1,$4,$5*
1,1,$1+$1,$6,$7*
1,1,$1+$1,$8,$9*
0 Add four rect primitives between the rounded corners*
20,1,$1+$1,$2,$3,$4,$5,0*
20,1,$1+$1,$4,$5,$6,$7,0*
20,1,$1+$1,$6,$7,$8,$9,0*
20,1,$1+$1,$8,$9,$2,$3,0*%
G04 Aperture macros list end*
%TA.AperFunction,ComponentPad*%
%ADD10R,1.730000X2.030000*%
%TD*%
%TA.AperFunction,ComponentPad*%
%ADD11O,1.730000X2.030000*%
%TD*%
%TA.AperFunction,ComponentPad*%
%ADD12C,2.340000*%
%TD*%
%TA.AperFunction,ComponentPad*%
%ADD13R,1.700000X1.700000*%
%TD*%
%TA.AperFunction,ComponentPad*%
%ADD14C,1.700000*%
%TD*%
%TA.AperFunction,ComponentPad*%
%ADD15C,0.600000*%
%TD*%
%TA.AperFunction,SMDPad,CuDef*%
%ADD16R,2.950000X4.900000*%
%TD*%
%TA.AperFunction,ComponentPad*%
%ADD17O,2.100000X1.000000*%
%TD*%
%TA.AperFunction,ComponentPad*%
%ADD18O,1.800000X1.000000*%
%TD*%
%TA.AperFunction,ComponentPad*%
%ADD19RoundRect,0.250001X1.149999X-1.149999X1.149999X1.149999X-1.149999X1.149999X-1.149999X-1.149999X0*%
%TD*%
%TA.AperFunction,ComponentPad*%
%ADD20C,2.800000*%
%TD*%
%TA.AperFunction,ComponentPad*%
%ADD21RoundRect,0.250001X-1.149999X-1.149999X1.149999X-1.149999X1.149999X1.149999X-1.149999X1.149999X0*%
%TD*%
G04 APERTURE END LIST*
D10*
%TO.P,M1,1,-_1*%
%TO.N,Masa*%
X188000000Y-148000000D03*
D11*
%TO.P,M1,2,+_2*%
%TO.N,+12V*%
X190540000Y-148000000D03*
%TO.P,M1,3,Tacho_3*%
%TO.N,unconnected-(M1-Tacho-Pad3)*%
X193080000Y-148000000D03*
%TO.P,M1,4,PWM_4*%
%TO.N,/Fan0*%
X195620000Y-148000000D03*
%TD*%
D12*
%TO.P,RV3,1,1_1*%
%TO.N,/Set2*%
X174750000Y-88250000D03*
%TO.P,RV3,2,2_2*%
X179750000Y-93250000D03*
%TO.P,RV3,3,3_3*%
%TO.N,Masa*%
X174750000Y-98250000D03*
%TD*%
D13*
%TO.P,J4,1,Pin_1_1*%
%TO.N,+24V*%
X195000000Y-56000000D03*
D14*
%TO.P,J4,2,Pin_2_2*%
%TO.N,+15V*%
X195000000Y-58540000D03*
%TO.P,J4,3,Pin_3_3*%
%TO.N,+5V*%
X195000000Y-61080000D03*
%TO.P,J4,4,Pin_4_4*%
%TO.N,Masa*%
X195000000Y-63620000D03*
%TO.P,J4,5,Pin_5_5*%
%TO.N,/Det0*%
X195000000Y-66160000D03*
%TO.P,J4,6,Pin_6_6*%
%TO.N,Net-(J4-Pin_6)*%
X195000000Y-68700000D03*
%TO.P,J4,7,Pin_7_7*%
%TO.N,Net-(J4-Pin_7)*%
X195000000Y-71240000D03*
%TO.P,J4,8,Pin_8_8*%
%TO.N,R0*%
X195000000Y-73780000D03*
%TO.P,J4,9,Pin_9_9*%
%TO.N,/Set0*%
X195000000Y-76320000D03*
%TO.P,J4,10,Pin_10_10*%
%TO.N,Masa*%
X195000000Y-78860000D03*
%TD*%
D13*
%TO.P,J7,1,Pin_1_1*%
%TO.N,+24V*%
X175250000Y-55920000D03*
D14*
%TO.P,J7,2,Pin_2_2*%
%TO.N,+15V*%
X175250000Y-58460000D03*
%TO.P,J7,3,Pin_3_3*%
%TO.N,+5V*%
X175250000Y-61000000D03*
%TO.P,J7,4,Pin_4_4*%
%TO.N,Masa*%
X175250000Y-63540000D03*
%TO.P,J7,5,Pin_5_5*%
%TO.N,/Det3*%
X175250000Y-66080000D03*
%TO.P,J7,6,Pin_6_6*%
%TO.N,Net-(J7-Pin_6)*%
X175250000Y-68620000D03*
%TO.P,J7,7,Pin_7_7*%
%TO.N,Net-(J7-Pin_7)*%
X175250000Y-71160000D03*
%TO.P,J7,8,Pin_8_8*%
%TO.N,R3*%
X175250000Y-73700000D03*
%TO.P,J7,9,Pin_9_9*%
%TO.N,/Set3*%
X175250000Y-76240000D03*
%TO.P,J7,10,Pin_10_10*%
%TO.N,Masa*%
X175250000Y-78780000D03*
%TD*%
D10*
%TO.P,M4,1,-_1*%
%TO.N,Masa*%
X148920000Y-148160000D03*
D11*
%TO.P,M4,2,+_2*%
%TO.N,+12V*%
X151460000Y-148160000D03*
%TO.P,M4,3,Tacho_3*%
%TO.N,unconnected-(M4-Tacho-Pad3)*%
X154000000Y-148160000D03*
%TO.P,M4,4,PWM_4*%
%TO.N,/Fan3*%
X156540000Y-148160000D03*
%TD*%
D12*
%TO.P,RV1,1,1_1*%
%TO.N,/Set3*%
X166500000Y-88250000D03*
%TO.P,RV1,2,2_2*%
X171500000Y-93250000D03*
%TO.P,RV1,3,3_3*%
%TO.N,Masa*%
X166500000Y-98250000D03*
%TD*%
D10*
%TO.P,M2,1,-_1*%
%TO.N,Masa*%
X175000000Y-148000000D03*
D11*
%TO.P,M2,2,+_2*%
%TO.N,+12V*%
X177540000Y-148000000D03*
%TO.P,M2,3,Tacho_3*%
%TO.N,unconnected-(M2-Tacho-Pad3)*%
X180080000Y-148000000D03*
%TO.P,M2,4,PWM_4*%
%TO.N,/Fan1*%
X182620000Y-148000000D03*
%TD*%
D13*
%TO.P,J9,1,Pin_1_1*%
%TO.N,+3V3*%
X125210000Y-102250000D03*
D14*
%TO.P,J9,2,Pin_2_2*%
%TO.N,/SYS_JTMS_SWDIO*%
X127750000Y-102250000D03*
%TO.P,J9,3,Pin_3_3*%
%TO.N,/SYS_JTCK_SWCLK*%
X130290000Y-102250000D03*
%TO.P,J9,4,Pin_4_4*%
%TO.N,Masa*%
X132830000Y-102250000D03*
%TD*%
D13*
%TO.P,J8,1,Pin_1_1*%
%TO.N,+3V3*%
X108180000Y-55750000D03*
D14*
%TO.P,J8,2,Pin_2_2*%
%TO.N,Masa*%
X110720000Y-55750000D03*
%TO.P,J8,3,Pin_3_3*%
%TO.N,/CS*%
X113260000Y-55750000D03*
%TO.P,J8,4,Pin_4_4*%
%TO.N,/Reset*%
X115800000Y-55750000D03*
%TO.P,J8,5,Pin_5_5*%
%TO.N,/DC{slash}RS*%
X118340000Y-55750000D03*
%TO.P,J8,6,Pin_6_6*%
%TO.N,/MOSI*%
X120880000Y-55750000D03*
%TO.P,J8,7,Pin_7_7*%
%TO.N,/SCK*%
X123420000Y-55750000D03*
%TO.P,J8,8,Pin_8_8*%
%TO.N,/LED*%
X125960000Y-55750000D03*
%TO.P,J8,9,Pin_9_9*%
%TO.N,/MISO*%
X128500000Y-55750000D03*
%TO.P,J8,10,Pin_10_10*%
%TO.N,/SCK*%
X131040000Y-55750000D03*
%TO.P,J8,11,Pin_11_11*%
%TO.N,/T_CS*%
X133580000Y-55750000D03*
%TO.P,J8,12,Pin_12_12*%
%TO.N,/MOSI*%
X136120000Y-55750000D03*
%TO.P,J8,13,Pin_13_13*%
%TO.N,/MISO*%
X138660000Y-55750000D03*
%TO.P,J8,14,Pin_14_14*%
%TO.N,/T_IRQ*%
X141200000Y-55750000D03*
%TD*%
D15*
%TO.P,U6,9,GND_9*%
%TO.N,Masa*%
X150950000Y-132850000D03*
X150950000Y-134150000D03*
X150950000Y-135450000D03*
X150950000Y-136750000D03*
D16*
X151600000Y-134800000D03*
D15*
X152250000Y-132850000D03*
X152250000Y-134150000D03*
X152250000Y-135450000D03*
X152250000Y-136750000D03*
%TD*%
D17*
%TO.P,J12,SH,SHIELD_SH*%
%TO.N,Net-(J12-SHIELD)*%
X103950000Y-123250000D03*
D18*
X99750000Y-123250000D03*
D17*
X103950000Y-131890000D03*
D18*
X99750000Y-131890000D03*
%TD*%
D13*
%TO.P,J6,1,Pin_1_1*%
%TO.N,+24V*%
X182000000Y-56000000D03*
D14*
%TO.P,J6,2,Pin_2_2*%
%TO.N,+15V*%
X182000000Y-58540000D03*
%TO.P,J6,3,Pin_3_3*%
%TO.N,+5V*%
X182000000Y-61080000D03*
%TO.P,J6,4,Pin_4_4*%
%TO.N,Masa*%
X182000000Y-63620000D03*
%TO.P,J6,5,Pin_5_5*%
%TO.N,/Det2*%
X182000000Y-66160000D03*
%TO.P,J6,6,Pin_6_6*%
%TO.N,Net-(J6-Pin_6)*%
X182000000Y-68700000D03*
%TO.P,J6,7,Pin_7_7*%
%TO.N,Net-(J6-Pin_7)*%
X182000000Y-71240000D03*
%TO.P,J6,8,Pin_8_8*%
%TO.N,R2*%
X182000000Y-73780000D03*
%TO.P,J6,9,Pin_9_9*%
%TO.N,/Set2*%
X182000000Y-76320000D03*
%TO.P,J6,10,Pin_10_10*%
%TO.N,Masa*%
X182000000Y-78860000D03*
%TD*%
D19*
%TO.P,J14,1,Pin_1_1*%
%TO.N,Masa*%
X193717500Y-113500000D03*
D20*
%TO.P,J14,2,Pin_2_2*%
%TO.N,VIN*%
X193717500Y-108500000D03*
%TD*%
D12*
%TO.P,RV2,1,1_1*%
%TO.N,Net-(R27-Pad2)*%
X178500000Y-113000000D03*
%TO.P,RV2,2,2_2*%
%TO.N,Net-(U2-AIN1)*%
X182500000Y-118000000D03*
%TO.P,RV2,3,3_3*%
X178500000Y-123000000D03*
%TD*%
D13*
%TO.P,J10,1,Pin_1_1*%
%TO.N,Masa*%
X129290000Y-73500000D03*
D14*
%TO.P,J10,2,Pin_2_2*%
%TO.N,Net-(J10-Pin_2)*%
X126750000Y-73500000D03*
%TO.P,J10,3,Pin_3_3*%
%TO.N,+3V3*%
X124210000Y-73500000D03*
%TD*%
D12*
%TO.P,RV4,1,1_1*%
%TO.N,/Set1*%
X183000000Y-88250000D03*
%TO.P,RV4,2,2_2*%
X188000000Y-93250000D03*
%TO.P,RV4,3,3_3*%
%TO.N,Masa*%
X183000000Y-98250000D03*
%TD*%
D13*
%TO.P,J11,1,Pin_1_1*%
%TO.N,+3V3*%
X135460000Y-73500000D03*
D14*
%TO.P,J11,2,Pin_2_2*%
%TO.N,SDA*%
X138000000Y-73500000D03*
%TO.P,J11,3,Pin_3_3*%
%TO.N,SCL*%
X140540000Y-73500000D03*
%TO.P,J11,4,Pin_4_4*%
%TO.N,Masa*%
X143080000Y-73500000D03*
%TD*%
D21*
%TO.P,J13,1,Pin_1_1*%
%TO.N,Masa*%
X113750000Y-148217500D03*
D20*
%TO.P,J13,2,Pin_2_2*%
%TO.N,+24V*%
X118750000Y-148217500D03*
%TD*%
D10*
%TO.P,M3,1,-_1*%
%TO.N,Masa*%
X161920000Y-148000000D03*
D11*
%TO.P,M3,2,+_2*%
%TO.N,+12V*%
X164460000Y-148000000D03*
%TO.P,M3,3,Tacho_3*%
%TO.N,unconnected-(M3-Tacho-Pad3)*%
X167000000Y-148000000D03*
%TO.P,M3,4,PWM_4*%
%TO.N,/Fan2*%
X169540000Y-148000000D03*
%TD*%
D12*
%TO.P,RV5,1,1_1*%
%TO.N,/Set0*%
X191250000Y-88250000D03*
%TO.P,RV5,2,2_2*%
X196250000Y-93250000D03*
%TO.P,RV5,3,3_3*%
%TO.N,Masa*%
X191250000Y-98250000D03*
%TD*%
D13*
%TO.P,J5,1,Pin_1_1*%
%TO.N,+24V*%
X188750000Y-56000000D03*
D14*
%TO.P,J5,2,Pin_2_2*%
%TO.N,+15V*%
X188750000Y-58540000D03*
%TO.P,J5,3,Pin_3_3*%
%TO.N,+5V*%
X188750000Y-61080000D03*
%TO.P,J5,4,Pin_4_4*%
%TO.N,Masa*%
X188750000Y-63620000D03*
%TO.P,J5,5,Pin_5_5*%
%TO.N,/Det1*%
X188750000Y-66160000D03*
%TO.P,J5,6,Pin_6_6*%
%TO.N,Net-(J5-Pin_6)*%
X188750000Y-68700000D03*
%TO.P,J5,7,Pin_7_7*%
%TO.N,Net-(J5-Pin_7)*%
X188750000Y-71240000D03*
%TO.P,J5,8,Pin_8_8*%
%TO.N,R1*%
X188750000Y-73780000D03*
%TO.P,J5,9,Pin_9_9*%
%TO.N,/Set1*%
X188750000Y-76320000D03*
%TO.P,J5,10,Pin_10_10*%
%TO.N,Masa*%
X188750000Y-78860000D03*
%TD*%
M02*
