%TF.GenerationSoftware,KiCad,Pcbnew,10.0.3*%
%TF.CreationDate,2026-09-11T14:08:20+02:00*%
%TF.ProjectId,ControlBoard,436f6e74-726f-46c4-926f-6172642e6b69,rev?*%
%TF.SameCoordinates,Original*%
%TF.FileFunction,Paste,Top*%
%TF.FilePolarity,Positive*%
%FSLAX46Y46*%
G04 Gerber Fmt 4.6, Leading zero omitted, Abs format (unit mm)*
G04 Created by KiCad (PCBNEW 10.0.3) date 2026-09-11 14:08:20*
%MOMM*%
%LPD*%
G01*
G04 APERTURE LIST*
G04 Aperture macros list*
%AMRoundRect*
0 Rectangle with rounded corners*
0 $1 Rounding radius*
0 $2 $3 $4 $5 $6 $7 $8 $9 X,Y pos of 4 corners*
0 Add a 4 corners polygon primitive as box body*
4,1,4,$2,$3,$4,$5,$6,$7,$8,$9,$2,$3,0*
0 Add four circle primitives for the rounded corners*
1,1,$1+$1,$2,$3*
1,1,$1+$1,$4,$5*
1,1,$1+$1,$6,$7*
1,1,$1+$1,$8,$9*
0 Add four rect primitives between the rounded corners*
20,1,$1+$1,$2,$3,$4,$5,0*
20,1,$1+$1,$4,$5,$6,$7,0*
20,1,$1+$1,$6,$7,$8,$9,0*
20,1,$1+$1,$8,$9,$2,$3,0*%
G04 Aperture macros list end*
%ADD10RoundRect,0.150000X0.825000X0.150000X-0.825000X0.150000X-0.825000X-0.150000X0.825000X-0.150000X0*%
%ADD11RoundRect,0.250000X-0.325000X-0.650000X0.325000X-0.650000X0.325000X0.650000X-0.325000X0.650000X0*%
%ADD12RoundRect,0.200000X-0.200000X-0.275000X0.200000X-0.275000X0.200000X0.275000X-0.200000X0.275000X0*%
%ADD13RoundRect,0.075000X0.650000X0.075000X-0.650000X0.075000X-0.650000X-0.075000X0.650000X-0.075000X0*%
%ADD14RoundRect,0.150000X-0.825000X-0.150000X0.825000X-0.150000X0.825000X0.150000X-0.825000X0.150000X0*%
%ADD15RoundRect,0.225000X-0.225000X-0.250000X0.225000X-0.250000X0.225000X0.250000X-0.225000X0.250000X0*%
%ADD16RoundRect,0.225000X0.225000X0.250000X-0.225000X0.250000X-0.225000X-0.250000X0.225000X-0.250000X0*%
%ADD17RoundRect,0.200000X0.200000X0.275000X-0.200000X0.275000X-0.200000X-0.275000X0.200000X-0.275000X0*%
%ADD18RoundRect,0.250000X0.650000X-0.325000X0.650000X0.325000X-0.650000X0.325000X-0.650000X-0.325000X0*%
%ADD19RoundRect,0.249999X-0.450001X-1.850001X0.450001X-1.850001X0.450001X1.850001X-0.450001X1.850001X0*%
%ADD20RoundRect,0.250000X1.125000X-1.275000X1.125000X1.275000X-1.125000X1.275000X-1.125000X-1.275000X0*%
%ADD21RoundRect,0.250000X0.350000X-0.850000X0.350000X0.850000X-0.350000X0.850000X-0.350000X-0.850000X0*%
%ADD22RoundRect,0.225000X0.250000X-0.225000X0.250000X0.225000X-0.250000X0.225000X-0.250000X-0.225000X0*%
%ADD23R,2.600000X3.100000*%
%ADD24R,1.550000X0.600000*%
%ADD25RoundRect,0.150000X-0.470000X0.150000X-0.470000X-0.150000X0.470000X-0.150000X0.470000X0.150000X0*%
%ADD26RoundRect,0.075000X-0.545000X0.075000X-0.545000X-0.075000X0.545000X-0.075000X0.545000X0.075000X0*%
%ADD27RoundRect,0.200000X-0.275000X0.200000X-0.275000X-0.200000X0.275000X-0.200000X0.275000X0.200000X0*%
%ADD28RoundRect,0.150000X-0.512500X-0.150000X0.512500X-0.150000X0.512500X0.150000X-0.512500X0.150000X0*%
%ADD29RoundRect,0.250002X-1.799998X-2.499998X1.799998X-2.499998X1.799998X2.499998X-1.799998X2.499998X0*%
%ADD30RoundRect,0.075000X0.662500X0.075000X-0.662500X0.075000X-0.662500X-0.075000X0.662500X-0.075000X0*%
%ADD31RoundRect,0.075000X0.075000X0.662500X-0.075000X0.662500X-0.075000X-0.662500X0.075000X-0.662500X0*%
%ADD32RoundRect,0.250001X-0.499999X0.649999X-0.499999X-0.649999X0.499999X-0.649999X0.499999X0.649999X0*%
%ADD33RoundRect,0.087500X-0.662500X-0.087500X0.662500X-0.087500X0.662500X0.087500X-0.662500X0.087500X0*%
%ADD34RoundRect,0.087500X-0.250000X-0.087500X0.250000X-0.087500X0.250000X0.087500X-0.250000X0.087500X0*%
%ADD35RoundRect,0.225000X-0.375000X0.225000X-0.375000X-0.225000X0.375000X-0.225000X0.375000X0.225000X0*%
%ADD36RoundRect,0.225000X-0.250000X0.225000X-0.250000X-0.225000X0.250000X-0.225000X0.250000X0.225000X0*%
%ADD37RoundRect,0.218750X0.256250X-0.218750X0.256250X0.218750X-0.256250X0.218750X-0.256250X-0.218750X0*%
G04 APERTURE END LIST*
D10*
%TO.C,U9*%
X152725000Y-65155000D03*
X152725000Y-63885000D03*
X152725000Y-62615000D03*
X152725000Y-61345000D03*
X147775000Y-61345000D03*
X147775000Y-62615000D03*
X147775000Y-63885000D03*
X147775000Y-65155000D03*
%TD*%
D11*
%TO.C,C51*%
X143525000Y-141500000D03*
X146475000Y-141500000D03*
%TD*%
%TO.C,C6*%
X152300000Y-109750000D03*
X155250000Y-109750000D03*
%TD*%
D12*
%TO.C,R16*%
X150400000Y-140350000D03*
X152050000Y-140350000D03*
%TD*%
D13*
%TO.C,U2*%
X154000000Y-74000000D03*
X154000000Y-73500000D03*
X154000000Y-73000000D03*
X154000000Y-72500000D03*
X154000000Y-72000000D03*
X149700000Y-72000000D03*
X149700000Y-72500000D03*
X149700000Y-73000000D03*
X149700000Y-73500000D03*
X149700000Y-74000000D03*
%TD*%
D14*
%TO.C,U5*%
X158000000Y-69880000D03*
X158000000Y-71150000D03*
X158000000Y-72420000D03*
X158000000Y-73690000D03*
X158000000Y-74960000D03*
X158000000Y-76230000D03*
X158000000Y-77500000D03*
X158000000Y-78770000D03*
X162950000Y-78770000D03*
X162950000Y-77500000D03*
X162950000Y-76230000D03*
X162950000Y-74960000D03*
X162950000Y-73690000D03*
X162950000Y-72420000D03*
X162950000Y-71150000D03*
X162950000Y-69880000D03*
%TD*%
D15*
%TO.C,C37*%
X166975000Y-58250000D03*
X168525000Y-58250000D03*
%TD*%
%TO.C,C54*%
X119950000Y-120450000D03*
X121500000Y-120450000D03*
%TD*%
D16*
%TO.C,C61*%
X145800000Y-107000000D03*
X144250000Y-107000000D03*
%TD*%
D17*
%TO.C,R27*%
X186750000Y-108250000D03*
X185100000Y-108250000D03*
%TD*%
D15*
%TO.C,C59*%
X134950000Y-121250000D03*
X136500000Y-121250000D03*
%TD*%
D12*
%TO.C,R32*%
X160100000Y-91500000D03*
X161750000Y-91500000D03*
%TD*%
D15*
%TO.C,C25*%
X154400000Y-85000000D03*
X155950000Y-85000000D03*
%TD*%
D18*
%TO.C,C55*%
X126000000Y-131975000D03*
X126000000Y-129025000D03*
%TD*%
D15*
%TO.C,C47*%
X125775000Y-80450000D03*
X127325000Y-80450000D03*
%TD*%
%TO.C,C28*%
X148625000Y-129500000D03*
X150175000Y-129500000D03*
%TD*%
%TO.C,C30*%
X120000000Y-88510000D03*
X121550000Y-88510000D03*
%TD*%
D11*
%TO.C,C45*%
X161775000Y-133500000D03*
X164725000Y-133500000D03*
%TD*%
D15*
%TO.C,C40*%
X124010000Y-86000000D03*
X125560000Y-86000000D03*
%TD*%
%TO.C,C16*%
X158200000Y-110250000D03*
X159750000Y-110250000D03*
%TD*%
D12*
%TO.C,R29*%
X185600000Y-118000000D03*
X187250000Y-118000000D03*
%TD*%
D19*
%TO.C,L2*%
X150150000Y-104250000D03*
X153850000Y-104250000D03*
%TD*%
D12*
%TO.C,R21*%
X147100000Y-78750000D03*
X148750000Y-78750000D03*
%TD*%
D15*
%TO.C,C31*%
X121475000Y-81500000D03*
X123025000Y-81500000D03*
%TD*%
D12*
%TO.C,R30*%
X160100000Y-88500000D03*
X161750000Y-88500000D03*
%TD*%
D15*
%TO.C,C35*%
X141550000Y-82550000D03*
X143100000Y-82550000D03*
%TD*%
D12*
%TO.C,R22*%
X147100000Y-76250000D03*
X148750000Y-76250000D03*
%TD*%
D15*
%TO.C,C24*%
X152425000Y-76800000D03*
X153975000Y-76800000D03*
%TD*%
%TO.C,C64*%
X151700000Y-98950000D03*
X153250000Y-98950000D03*
%TD*%
%TO.C,C56*%
X115700000Y-142450000D03*
X117250000Y-142450000D03*
%TD*%
D20*
%TO.C,U11*%
X119475000Y-127415000D03*
X122525000Y-127415000D03*
X119475000Y-124065000D03*
X122525000Y-124065000D03*
D21*
X118720000Y-132040000D03*
X123280000Y-132040000D03*
%TD*%
D11*
%TO.C,C50*%
X168025000Y-140250000D03*
X170975000Y-140250000D03*
%TD*%
D22*
%TO.C,C41*%
X139240000Y-91775000D03*
X139240000Y-90225000D03*
%TD*%
D23*
%TO.C,U6*%
X151600000Y-134800000D03*
D24*
X148900000Y-132895000D03*
X148900000Y-134165000D03*
X148900000Y-135435000D03*
X148900000Y-136705000D03*
X154300000Y-136705000D03*
X154300000Y-135435000D03*
X154300000Y-134165000D03*
X154300000Y-132895000D03*
%TD*%
D12*
%TO.C,R38*%
X152100000Y-114000000D03*
X153750000Y-114000000D03*
%TD*%
D15*
%TO.C,C36*%
X151475000Y-59100000D03*
X153025000Y-59100000D03*
%TD*%
%TO.C,C63*%
X155975000Y-102000000D03*
X157525000Y-102000000D03*
%TD*%
D25*
%TO.C,J12*%
X104550000Y-124370000D03*
X104550000Y-125170000D03*
D26*
X104550000Y-126320000D03*
X104550000Y-127320000D03*
X104550000Y-127820000D03*
X104550000Y-128820000D03*
D25*
X104550000Y-129970000D03*
X104550000Y-130770000D03*
X104550000Y-130770000D03*
X104550000Y-129970000D03*
D26*
X104550000Y-129320000D03*
X104550000Y-128320000D03*
X104550000Y-126820000D03*
X104550000Y-125820000D03*
D25*
X104550000Y-125170000D03*
X104550000Y-124370000D03*
%TD*%
D12*
%TO.C,R35*%
X102100000Y-117750000D03*
X103750000Y-117750000D03*
%TD*%
%TO.C,R26*%
X160100000Y-87000000D03*
X161750000Y-87000000D03*
%TD*%
D20*
%TO.C,U13*%
X134505000Y-127415000D03*
X137555000Y-127415000D03*
X134505000Y-124065000D03*
X137555000Y-124065000D03*
D21*
X133750000Y-132040000D03*
X138310000Y-132040000D03*
%TD*%
D15*
%TO.C,C44*%
X148800000Y-125900000D03*
X150350000Y-125900000D03*
%TD*%
D27*
%TO.C,R28*%
X126750000Y-76350000D03*
X126750000Y-78000000D03*
%TD*%
D22*
%TO.C,C22*%
X164000000Y-68300000D03*
X164000000Y-66750000D03*
%TD*%
D12*
%TO.C,R39*%
X143425000Y-111250000D03*
X145075000Y-111250000D03*
%TD*%
D28*
%TO.C,U8*%
X109000000Y-125300000D03*
X109000000Y-126250000D03*
X109000000Y-127200000D03*
X111275000Y-127200000D03*
X111275000Y-126250000D03*
X111275000Y-125300000D03*
%TD*%
D18*
%TO.C,C57*%
X131250000Y-132225000D03*
X131250000Y-129275000D03*
%TD*%
D15*
%TO.C,C29*%
X120000000Y-86000000D03*
X121550000Y-86000000D03*
%TD*%
D29*
%TO.C,L1*%
X154700000Y-124500000D03*
X165300000Y-124500000D03*
%TD*%
D15*
%TO.C,C43*%
X102200000Y-120250000D03*
X103750000Y-120250000D03*
%TD*%
D12*
%TO.C,R40*%
X146675000Y-113750000D03*
X148325000Y-113750000D03*
%TD*%
D15*
%TO.C,C34*%
X145475000Y-88450000D03*
X147025000Y-88450000D03*
%TD*%
D11*
%TO.C,C49*%
X166775000Y-135750000D03*
X169725000Y-135750000D03*
%TD*%
D12*
%TO.C,R20*%
X111500000Y-121300000D03*
X113150000Y-121300000D03*
%TD*%
%TO.C,R37*%
X156350000Y-138250000D03*
X158000000Y-138250000D03*
%TD*%
D30*
%TO.C,U7*%
X136662500Y-88000000D03*
X136662500Y-87500000D03*
X136662500Y-87000000D03*
X136662500Y-86500000D03*
X136662500Y-86000000D03*
X136662500Y-85500000D03*
X136662500Y-85000000D03*
X136662500Y-84500000D03*
X136662500Y-84000000D03*
X136662500Y-83500000D03*
X136662500Y-83000000D03*
X136662500Y-82500000D03*
D31*
X135250000Y-81087500D03*
X134750000Y-81087500D03*
X134250000Y-81087500D03*
X133750000Y-81087500D03*
X133250000Y-81087500D03*
X132750000Y-81087500D03*
X132250000Y-81087500D03*
X131750000Y-81087500D03*
X131250000Y-81087500D03*
X130750000Y-81087500D03*
X130250000Y-81087500D03*
X129750000Y-81087500D03*
D30*
X128337500Y-82500000D03*
X128337500Y-83000000D03*
X128337500Y-83500000D03*
X128337500Y-84000000D03*
X128337500Y-84500000D03*
X128337500Y-85000000D03*
X128337500Y-85500000D03*
X128337500Y-86000000D03*
X128337500Y-86500000D03*
X128337500Y-87000000D03*
X128337500Y-87500000D03*
X128337500Y-88000000D03*
D31*
X129750000Y-89412500D03*
X130250000Y-89412500D03*
X130750000Y-89412500D03*
X131250000Y-89412500D03*
X131750000Y-89412500D03*
X132250000Y-89412500D03*
X132750000Y-89412500D03*
X133250000Y-89412500D03*
X133750000Y-89412500D03*
X134250000Y-89412500D03*
X134750000Y-89412500D03*
X135250000Y-89412500D03*
%TD*%
D15*
%TO.C,C27*%
X144000000Y-136900000D03*
X145550000Y-136900000D03*
%TD*%
D12*
%TO.C,R25*%
X120850000Y-59750000D03*
X122500000Y-59750000D03*
%TD*%
D32*
%TO.C,Y1*%
X141550000Y-84750000D03*
X141550000Y-86950000D03*
X143250000Y-86950000D03*
X143250000Y-84750000D03*
%TD*%
D12*
%TO.C,R23*%
X109000000Y-136750000D03*
X110650000Y-136750000D03*
%TD*%
%TO.C,R31*%
X160100000Y-90000000D03*
X161750000Y-90000000D03*
%TD*%
D33*
%TO.C,U12*%
X152650000Y-88750000D03*
X152650000Y-89250000D03*
X152650000Y-89750000D03*
X152650000Y-90250000D03*
X152650000Y-90750000D03*
X156850000Y-90750000D03*
X156850000Y-90250000D03*
X156850000Y-89750000D03*
X156850000Y-89250000D03*
X156850000Y-88750000D03*
%TD*%
D18*
%TO.C,C60*%
X141000000Y-132475000D03*
X141000000Y-129525000D03*
%TD*%
%TO.C,C52*%
X116000000Y-132475000D03*
X116000000Y-129525000D03*
%TD*%
D15*
%TO.C,C26*%
X155350000Y-141950000D03*
X156900000Y-141950000D03*
%TD*%
%TO.C,C53*%
X120425000Y-116050000D03*
X121975000Y-116050000D03*
%TD*%
D34*
%TO.C,U10*%
X164250000Y-61750000D03*
X164250000Y-62250000D03*
X164250000Y-62750000D03*
X165675000Y-62750000D03*
X165675000Y-62250000D03*
X165675000Y-61750000D03*
%TD*%
D35*
%TO.C,D1*%
X175250000Y-130500000D03*
X175250000Y-133800000D03*
%TD*%
D28*
%TO.C,U14*%
X147500000Y-109750000D03*
X147500000Y-110700000D03*
X147500000Y-111650000D03*
X149775000Y-111650000D03*
X149775000Y-110700000D03*
X149775000Y-109750000D03*
%TD*%
D12*
%TO.C,R34*%
X106750000Y-121500000D03*
X108400000Y-121500000D03*
%TD*%
D22*
%TO.C,C32*%
X136240000Y-96050000D03*
X136240000Y-94500000D03*
%TD*%
%TO.C,C33*%
X138750000Y-96050000D03*
X138750000Y-94500000D03*
%TD*%
D15*
%TO.C,C23*%
X153975000Y-69050000D03*
X155525000Y-69050000D03*
%TD*%
%TO.C,C48*%
X125950000Y-69850000D03*
X127500000Y-69850000D03*
%TD*%
D12*
%TO.C,R24*%
X105425000Y-136250000D03*
X107075000Y-136250000D03*
%TD*%
D11*
%TO.C,C46*%
X162050000Y-137750000D03*
X165000000Y-137750000D03*
%TD*%
D12*
%TO.C,R33*%
X107100000Y-131750000D03*
X108750000Y-131750000D03*
%TD*%
%TO.C,R36*%
X157350000Y-133500000D03*
X159000000Y-133500000D03*
%TD*%
D22*
%TO.C,C39*%
X143970000Y-96050000D03*
X143970000Y-94500000D03*
%TD*%
D11*
%TO.C,C62*%
X156300000Y-105750000D03*
X159250000Y-105750000D03*
%TD*%
D36*
%TO.C,C65*%
X186750000Y-110475000D03*
X186750000Y-112025000D03*
%TD*%
D15*
%TO.C,C42*%
X108975000Y-60000000D03*
X110525000Y-60000000D03*
%TD*%
D37*
%TO.C,FB3*%
X142740000Y-92250000D03*
X142740000Y-90675000D03*
%TD*%
D15*
%TO.C,C58*%
X134750000Y-118200000D03*
X136300000Y-118200000D03*
%TD*%
M02*
