%TF.GenerationSoftware,KiCad,Pcbnew,10.0.3*%
%TF.CreationDate,2026-09-11T18:38:36+02:00*%
%TF.ProjectId,DummyLoad,44756d6d-794c-46f6-9164-2e6b69636164,rev?*%
%TF.SameCoordinates,Original*%
%TF.FileFunction,Paste,Top*%
%TF.FilePolarity,Positive*%
%FSLAX46Y46*%
G04 Gerber Fmt 4.6, Leading zero omitted, Abs format (unit mm)*
G04 Created by KiCad (PCBNEW 10.0.3) date 2026-09-11 18:38:36*
%MOMM*%
%LPD*%
G01*
G04 APERTURE LIST*
G04 Aperture macros list*
%AMRoundRect*
0 Rectangle with rounded corners*
0 $1 Rounding radius*
0 $2 $3 $4 $5 $6 $7 $8 $9 X,Y pos of 4 corners*
0 Add a 4 corners polygon primitive as box body*
4,1,4,$2,$3,$4,$5,$6,$7,$8,$9,$2,$3,0*
0 Add four circle primitives for the rounded corners*
1,1,$1+$1,$2,$3*
1,1,$1+$1,$4,$5*
1,1,$1+$1,$6,$7*
1,1,$1+$1,$8,$9*
0 Add four rect primitives between the rounded corners*
20,1,$1+$1,$2,$3,$4,$5,0*
20,1,$1+$1,$4,$5,$6,$7,0*
20,1,$1+$1,$6,$7,$8,$9,0*
20,1,$1+$1,$8,$9,$2,$3,0*%
G04 Aperture macros list end*
%ADD10RoundRect,0.200000X-0.275000X0.200000X-0.275000X-0.200000X0.275000X-0.200000X0.275000X0.200000X0*%
%ADD11RoundRect,0.225000X-0.225000X-0.250000X0.225000X-0.250000X0.225000X0.250000X-0.225000X0.250000X0*%
%ADD12RoundRect,0.225000X-0.250000X0.225000X-0.250000X-0.225000X0.250000X-0.225000X0.250000X0.225000X0*%
%ADD13RoundRect,0.225000X0.225000X0.375000X-0.225000X0.375000X-0.225000X-0.375000X0.225000X-0.375000X0*%
%ADD14RoundRect,0.150000X-0.587500X-0.150000X0.587500X-0.150000X0.587500X0.150000X-0.587500X0.150000X0*%
%ADD15RoundRect,0.225000X0.225000X0.250000X-0.225000X0.250000X-0.225000X-0.250000X0.225000X-0.250000X0*%
%ADD16RoundRect,0.225000X0.250000X-0.225000X0.250000X0.225000X-0.250000X0.225000X-0.250000X-0.225000X0*%
%ADD17RoundRect,0.150000X0.512500X0.150000X-0.512500X0.150000X-0.512500X-0.150000X0.512500X-0.150000X0*%
%ADD18RoundRect,0.218750X-0.218750X-0.256250X0.218750X-0.256250X0.218750X0.256250X-0.218750X0.256250X0*%
%ADD19RoundRect,0.200000X0.275000X-0.200000X0.275000X0.200000X-0.275000X0.200000X-0.275000X-0.200000X0*%
G04 APERTURE END LIST*
D10*
%TO.C,R9*%
X145750000Y-113425000D03*
X145750000Y-115075000D03*
%TD*%
%TO.C,R5*%
X183500000Y-87350000D03*
X183500000Y-89000000D03*
%TD*%
%TO.C,R12*%
X156250000Y-91600000D03*
X156250000Y-93250000D03*
%TD*%
D11*
%TO.C,C14*%
X166450000Y-131000000D03*
X168000000Y-131000000D03*
%TD*%
D12*
%TO.C,C19*%
X225250000Y-115975000D03*
X225250000Y-117525000D03*
%TD*%
D13*
%TO.C,D2*%
X171900000Y-118750000D03*
X168600000Y-118750000D03*
%TD*%
D14*
%TO.C,Q4*%
X168812500Y-121550000D03*
X168812500Y-123450000D03*
X170687500Y-122500000D03*
%TD*%
D15*
%TO.C,C10*%
X147300000Y-110500000D03*
X145750000Y-110500000D03*
%TD*%
D16*
%TO.C,C1*%
X223500000Y-112550000D03*
X223500000Y-111000000D03*
%TD*%
D10*
%TO.C,R19*%
X166500000Y-121600000D03*
X166500000Y-123250000D03*
%TD*%
D15*
%TO.C,C17*%
X236125000Y-108400000D03*
X234575000Y-108400000D03*
%TD*%
D11*
%TO.C,C15*%
X168450000Y-150500000D03*
X170000000Y-150500000D03*
%TD*%
D17*
%TO.C,U3*%
X168250000Y-129200000D03*
X168250000Y-128250000D03*
X168250000Y-127300000D03*
X165975000Y-127300000D03*
X165975000Y-129200000D03*
%TD*%
D11*
%TO.C,C13*%
X150475000Y-111250000D03*
X152025000Y-111250000D03*
%TD*%
D10*
%TO.C,R6*%
X166250000Y-87425000D03*
X166250000Y-89075000D03*
%TD*%
D12*
%TO.C,C21*%
X233750000Y-118950000D03*
X233750000Y-120500000D03*
%TD*%
%TO.C,C18*%
X223500000Y-115950000D03*
X223500000Y-117500000D03*
%TD*%
D16*
%TO.C,C9*%
X158000000Y-97550000D03*
X158000000Y-96000000D03*
%TD*%
%TO.C,C5*%
X233750000Y-113025000D03*
X233750000Y-111475000D03*
%TD*%
%TO.C,C11*%
X154750000Y-97525000D03*
X154750000Y-95975000D03*
%TD*%
D15*
%TO.C,C8*%
X147800000Y-97250000D03*
X146250000Y-97250000D03*
%TD*%
D10*
%TO.C,R11*%
X149750000Y-91600000D03*
X149750000Y-93250000D03*
%TD*%
D16*
%TO.C,C3*%
X153000000Y-97550000D03*
X153000000Y-96000000D03*
%TD*%
%TO.C,C12*%
X151250000Y-97525000D03*
X151250000Y-95975000D03*
%TD*%
D18*
%TO.C,FB2*%
X227425000Y-115750000D03*
X229000000Y-115750000D03*
%TD*%
D10*
%TO.C,R4*%
X201000000Y-87350000D03*
X201000000Y-89000000D03*
%TD*%
D19*
%TO.C,R8*%
X146250000Y-94900000D03*
X146250000Y-93250000D03*
%TD*%
D16*
%TO.C,C2*%
X225250000Y-112550000D03*
X225250000Y-111000000D03*
%TD*%
D18*
%TO.C,FB1*%
X227425000Y-112500000D03*
X229000000Y-112500000D03*
%TD*%
D17*
%TO.C,U4*%
X170387500Y-148700000D03*
X170387500Y-147750000D03*
X170387500Y-146800000D03*
X168112500Y-146800000D03*
X168112500Y-148700000D03*
%TD*%
D19*
%TO.C,R13*%
X150500000Y-114825000D03*
X150500000Y-113175000D03*
%TD*%
%TO.C,R7*%
X160500000Y-95825000D03*
X160500000Y-94175000D03*
%TD*%
M02*
