%TF.GenerationSoftware,KiCad,Pcbnew,10.0.3*%
%TF.CreationDate,2026-09-11T18:38:36+02:00*%
%TF.ProjectId,DummyLoad,44756d6d-794c-46f6-9164-2e6b69636164,rev?*%
%TF.SameCoordinates,Original*%
%TF.FileFunction,Legend,Top*%
%TF.FilePolarity,Positive*%
%FSLAX46Y46*%
G04 Gerber Fmt 4.6, Leading zero omitted, Abs format (unit mm)*
G04 Created by KiCad (PCBNEW 10.0.3) date 2026-09-11 18:38:36*
%MOMM*%
%LPD*%
G01*
G04 APERTURE LIST*
%ADD10C,0.500000*%
%ADD11C,0.150000*%
%ADD12C,0.120000*%
G04 APERTURE END LIST*
D10*
X167114661Y-152249714D02*
X166828947Y-152106857D01*
X166828947Y-152106857D02*
X166400375Y-152106857D01*
X166400375Y-152106857D02*
X165971804Y-152249714D01*
X165971804Y-152249714D02*
X165686089Y-152535428D01*
X165686089Y-152535428D02*
X165543232Y-152821142D01*
X165543232Y-152821142D02*
X165400375Y-153392571D01*
X165400375Y-153392571D02*
X165400375Y-153821142D01*
X165400375Y-153821142D02*
X165543232Y-154392571D01*
X165543232Y-154392571D02*
X165686089Y-154678285D01*
X165686089Y-154678285D02*
X165971804Y-154964000D01*
X165971804Y-154964000D02*
X166400375Y-155106857D01*
X166400375Y-155106857D02*
X166686089Y-155106857D01*
X166686089Y-155106857D02*
X167114661Y-154964000D01*
X167114661Y-154964000D02*
X167257518Y-154821142D01*
X167257518Y-154821142D02*
X167257518Y-153821142D01*
X167257518Y-153821142D02*
X166686089Y-153821142D01*
X168543232Y-155106857D02*
X168543232Y-152106857D01*
X168543232Y-152106857D02*
X170257518Y-155106857D01*
X170257518Y-155106857D02*
X170257518Y-152106857D01*
X171686089Y-155106857D02*
X171686089Y-152106857D01*
X171686089Y-152106857D02*
X172400375Y-152106857D01*
X172400375Y-152106857D02*
X172828946Y-152249714D01*
X172828946Y-152249714D02*
X173114661Y-152535428D01*
X173114661Y-152535428D02*
X173257518Y-152821142D01*
X173257518Y-152821142D02*
X173400375Y-153392571D01*
X173400375Y-153392571D02*
X173400375Y-153821142D01*
X173400375Y-153821142D02*
X173257518Y-154392571D01*
X173257518Y-154392571D02*
X173114661Y-154678285D01*
X173114661Y-154678285D02*
X172828946Y-154964000D01*
X172828946Y-154964000D02*
X172400375Y-155106857D01*
X172400375Y-155106857D02*
X171686089Y-155106857D01*
X206614661Y-152356857D02*
X207614661Y-155356857D01*
X207614661Y-155356857D02*
X208614661Y-152356857D01*
X209614661Y-155356857D02*
X209614661Y-152356857D01*
X211043232Y-155356857D02*
X211043232Y-152356857D01*
X211043232Y-152356857D02*
X212757518Y-155356857D01*
X212757518Y-155356857D02*
X212757518Y-152356857D01*
D11*
X191654761Y-87050057D02*
X191559523Y-87002438D01*
X191559523Y-87002438D02*
X191464285Y-86907200D01*
X191464285Y-86907200D02*
X191321428Y-86764342D01*
X191321428Y-86764342D02*
X191226190Y-86716723D01*
X191226190Y-86716723D02*
X191130952Y-86716723D01*
X191178571Y-86954819D02*
X191083333Y-86907200D01*
X191083333Y-86907200D02*
X190988095Y-86811961D01*
X190988095Y-86811961D02*
X190940476Y-86621485D01*
X190940476Y-86621485D02*
X190940476Y-86288152D01*
X190940476Y-86288152D02*
X190988095Y-86097676D01*
X190988095Y-86097676D02*
X191083333Y-86002438D01*
X191083333Y-86002438D02*
X191178571Y-85954819D01*
X191178571Y-85954819D02*
X191369047Y-85954819D01*
X191369047Y-85954819D02*
X191464285Y-86002438D01*
X191464285Y-86002438D02*
X191559523Y-86097676D01*
X191559523Y-86097676D02*
X191607142Y-86288152D01*
X191607142Y-86288152D02*
X191607142Y-86621485D01*
X191607142Y-86621485D02*
X191559523Y-86811961D01*
X191559523Y-86811961D02*
X191464285Y-86907200D01*
X191464285Y-86907200D02*
X191369047Y-86954819D01*
X191369047Y-86954819D02*
X191178571Y-86954819D01*
X191988095Y-86050057D02*
X192035714Y-86002438D01*
X192035714Y-86002438D02*
X192130952Y-85954819D01*
X192130952Y-85954819D02*
X192369047Y-85954819D01*
X192369047Y-85954819D02*
X192464285Y-86002438D01*
X192464285Y-86002438D02*
X192511904Y-86050057D01*
X192511904Y-86050057D02*
X192559523Y-86145295D01*
X192559523Y-86145295D02*
X192559523Y-86240533D01*
X192559523Y-86240533D02*
X192511904Y-86383390D01*
X192511904Y-86383390D02*
X191940476Y-86954819D01*
X191940476Y-86954819D02*
X192559523Y-86954819D01*
X237166666Y-110204819D02*
X237166666Y-110919104D01*
X237166666Y-110919104D02*
X237119047Y-111061961D01*
X237119047Y-111061961D02*
X237023809Y-111157200D01*
X237023809Y-111157200D02*
X236880952Y-111204819D01*
X236880952Y-111204819D02*
X236785714Y-111204819D01*
X237547619Y-110204819D02*
X238166666Y-110204819D01*
X238166666Y-110204819D02*
X237833333Y-110585771D01*
X237833333Y-110585771D02*
X237976190Y-110585771D01*
X237976190Y-110585771D02*
X238071428Y-110633390D01*
X238071428Y-110633390D02*
X238119047Y-110681009D01*
X238119047Y-110681009D02*
X238166666Y-110776247D01*
X238166666Y-110776247D02*
X238166666Y-111014342D01*
X238166666Y-111014342D02*
X238119047Y-111109580D01*
X238119047Y-111109580D02*
X238071428Y-111157200D01*
X238071428Y-111157200D02*
X237976190Y-111204819D01*
X237976190Y-111204819D02*
X237690476Y-111204819D01*
X237690476Y-111204819D02*
X237595238Y-111157200D01*
X237595238Y-111157200D02*
X237547619Y-111109580D01*
X147634819Y-114416666D02*
X147158628Y-114749999D01*
X147634819Y-114988094D02*
X146634819Y-114988094D01*
X146634819Y-114988094D02*
X146634819Y-114607142D01*
X146634819Y-114607142D02*
X146682438Y-114511904D01*
X146682438Y-114511904D02*
X146730057Y-114464285D01*
X146730057Y-114464285D02*
X146825295Y-114416666D01*
X146825295Y-114416666D02*
X146968152Y-114416666D01*
X146968152Y-114416666D02*
X147063390Y-114464285D01*
X147063390Y-114464285D02*
X147111009Y-114511904D01*
X147111009Y-114511904D02*
X147158628Y-114607142D01*
X147158628Y-114607142D02*
X147158628Y-114988094D01*
X147634819Y-113940475D02*
X147634819Y-113749999D01*
X147634819Y-113749999D02*
X147587200Y-113654761D01*
X147587200Y-113654761D02*
X147539580Y-113607142D01*
X147539580Y-113607142D02*
X147396723Y-113511904D01*
X147396723Y-113511904D02*
X147206247Y-113464285D01*
X147206247Y-113464285D02*
X146825295Y-113464285D01*
X146825295Y-113464285D02*
X146730057Y-113511904D01*
X146730057Y-113511904D02*
X146682438Y-113559523D01*
X146682438Y-113559523D02*
X146634819Y-113654761D01*
X146634819Y-113654761D02*
X146634819Y-113845237D01*
X146634819Y-113845237D02*
X146682438Y-113940475D01*
X146682438Y-113940475D02*
X146730057Y-113988094D01*
X146730057Y-113988094D02*
X146825295Y-114035713D01*
X146825295Y-114035713D02*
X147063390Y-114035713D01*
X147063390Y-114035713D02*
X147158628Y-113988094D01*
X147158628Y-113988094D02*
X147206247Y-113940475D01*
X147206247Y-113940475D02*
X147253866Y-113845237D01*
X147253866Y-113845237D02*
X147253866Y-113654761D01*
X147253866Y-113654761D02*
X147206247Y-113559523D01*
X147206247Y-113559523D02*
X147158628Y-113511904D01*
X147158628Y-113511904D02*
X147063390Y-113464285D01*
X183954819Y-90916666D02*
X183478628Y-91249999D01*
X183954819Y-91488094D02*
X182954819Y-91488094D01*
X182954819Y-91488094D02*
X182954819Y-91107142D01*
X182954819Y-91107142D02*
X183002438Y-91011904D01*
X183002438Y-91011904D02*
X183050057Y-90964285D01*
X183050057Y-90964285D02*
X183145295Y-90916666D01*
X183145295Y-90916666D02*
X183288152Y-90916666D01*
X183288152Y-90916666D02*
X183383390Y-90964285D01*
X183383390Y-90964285D02*
X183431009Y-91011904D01*
X183431009Y-91011904D02*
X183478628Y-91107142D01*
X183478628Y-91107142D02*
X183478628Y-91488094D01*
X182954819Y-90011904D02*
X182954819Y-90488094D01*
X182954819Y-90488094D02*
X183431009Y-90535713D01*
X183431009Y-90535713D02*
X183383390Y-90488094D01*
X183383390Y-90488094D02*
X183335771Y-90392856D01*
X183335771Y-90392856D02*
X183335771Y-90154761D01*
X183335771Y-90154761D02*
X183383390Y-90059523D01*
X183383390Y-90059523D02*
X183431009Y-90011904D01*
X183431009Y-90011904D02*
X183526247Y-89964285D01*
X183526247Y-89964285D02*
X183764342Y-89964285D01*
X183764342Y-89964285D02*
X183859580Y-90011904D01*
X183859580Y-90011904D02*
X183907200Y-90059523D01*
X183907200Y-90059523D02*
X183954819Y-90154761D01*
X183954819Y-90154761D02*
X183954819Y-90392856D01*
X183954819Y-90392856D02*
X183907200Y-90488094D01*
X183907200Y-90488094D02*
X183859580Y-90535713D01*
X209154761Y-87050057D02*
X209059523Y-87002438D01*
X209059523Y-87002438D02*
X208964285Y-86907200D01*
X208964285Y-86907200D02*
X208821428Y-86764342D01*
X208821428Y-86764342D02*
X208726190Y-86716723D01*
X208726190Y-86716723D02*
X208630952Y-86716723D01*
X208678571Y-86954819D02*
X208583333Y-86907200D01*
X208583333Y-86907200D02*
X208488095Y-86811961D01*
X208488095Y-86811961D02*
X208440476Y-86621485D01*
X208440476Y-86621485D02*
X208440476Y-86288152D01*
X208440476Y-86288152D02*
X208488095Y-86097676D01*
X208488095Y-86097676D02*
X208583333Y-86002438D01*
X208583333Y-86002438D02*
X208678571Y-85954819D01*
X208678571Y-85954819D02*
X208869047Y-85954819D01*
X208869047Y-85954819D02*
X208964285Y-86002438D01*
X208964285Y-86002438D02*
X209059523Y-86097676D01*
X209059523Y-86097676D02*
X209107142Y-86288152D01*
X209107142Y-86288152D02*
X209107142Y-86621485D01*
X209107142Y-86621485D02*
X209059523Y-86811961D01*
X209059523Y-86811961D02*
X208964285Y-86907200D01*
X208964285Y-86907200D02*
X208869047Y-86954819D01*
X208869047Y-86954819D02*
X208678571Y-86954819D01*
X209440476Y-85954819D02*
X210059523Y-85954819D01*
X210059523Y-85954819D02*
X209726190Y-86335771D01*
X209726190Y-86335771D02*
X209869047Y-86335771D01*
X209869047Y-86335771D02*
X209964285Y-86383390D01*
X209964285Y-86383390D02*
X210011904Y-86431009D01*
X210011904Y-86431009D02*
X210059523Y-86526247D01*
X210059523Y-86526247D02*
X210059523Y-86764342D01*
X210059523Y-86764342D02*
X210011904Y-86859580D01*
X210011904Y-86859580D02*
X209964285Y-86907200D01*
X209964285Y-86907200D02*
X209869047Y-86954819D01*
X209869047Y-86954819D02*
X209583333Y-86954819D01*
X209583333Y-86954819D02*
X209488095Y-86907200D01*
X209488095Y-86907200D02*
X209440476Y-86859580D01*
X155204819Y-93142857D02*
X154728628Y-93476190D01*
X155204819Y-93714285D02*
X154204819Y-93714285D01*
X154204819Y-93714285D02*
X154204819Y-93333333D01*
X154204819Y-93333333D02*
X154252438Y-93238095D01*
X154252438Y-93238095D02*
X154300057Y-93190476D01*
X154300057Y-93190476D02*
X154395295Y-93142857D01*
X154395295Y-93142857D02*
X154538152Y-93142857D01*
X154538152Y-93142857D02*
X154633390Y-93190476D01*
X154633390Y-93190476D02*
X154681009Y-93238095D01*
X154681009Y-93238095D02*
X154728628Y-93333333D01*
X154728628Y-93333333D02*
X154728628Y-93714285D01*
X155204819Y-92190476D02*
X155204819Y-92761904D01*
X155204819Y-92476190D02*
X154204819Y-92476190D01*
X154204819Y-92476190D02*
X154347676Y-92571428D01*
X154347676Y-92571428D02*
X154442914Y-92666666D01*
X154442914Y-92666666D02*
X154490533Y-92761904D01*
X154300057Y-91809523D02*
X154252438Y-91761904D01*
X154252438Y-91761904D02*
X154204819Y-91666666D01*
X154204819Y-91666666D02*
X154204819Y-91428571D01*
X154204819Y-91428571D02*
X154252438Y-91333333D01*
X154252438Y-91333333D02*
X154300057Y-91285714D01*
X154300057Y-91285714D02*
X154395295Y-91238095D01*
X154395295Y-91238095D02*
X154490533Y-91238095D01*
X154490533Y-91238095D02*
X154633390Y-91285714D01*
X154633390Y-91285714D02*
X155204819Y-91857142D01*
X155204819Y-91857142D02*
X155204819Y-91238095D01*
X169607142Y-131359580D02*
X169559523Y-131407200D01*
X169559523Y-131407200D02*
X169416666Y-131454819D01*
X169416666Y-131454819D02*
X169321428Y-131454819D01*
X169321428Y-131454819D02*
X169178571Y-131407200D01*
X169178571Y-131407200D02*
X169083333Y-131311961D01*
X169083333Y-131311961D02*
X169035714Y-131216723D01*
X169035714Y-131216723D02*
X168988095Y-131026247D01*
X168988095Y-131026247D02*
X168988095Y-130883390D01*
X168988095Y-130883390D02*
X169035714Y-130692914D01*
X169035714Y-130692914D02*
X169083333Y-130597676D01*
X169083333Y-130597676D02*
X169178571Y-130502438D01*
X169178571Y-130502438D02*
X169321428Y-130454819D01*
X169321428Y-130454819D02*
X169416666Y-130454819D01*
X169416666Y-130454819D02*
X169559523Y-130502438D01*
X169559523Y-130502438D02*
X169607142Y-130550057D01*
X170559523Y-131454819D02*
X169988095Y-131454819D01*
X170273809Y-131454819D02*
X170273809Y-130454819D01*
X170273809Y-130454819D02*
X170178571Y-130597676D01*
X170178571Y-130597676D02*
X170083333Y-130692914D01*
X170083333Y-130692914D02*
X169988095Y-130740533D01*
X171416666Y-130788152D02*
X171416666Y-131454819D01*
X171178571Y-130407200D02*
X170940476Y-131121485D01*
X170940476Y-131121485D02*
X171559523Y-131121485D01*
X223857142Y-119609580D02*
X223809523Y-119657200D01*
X223809523Y-119657200D02*
X223666666Y-119704819D01*
X223666666Y-119704819D02*
X223571428Y-119704819D01*
X223571428Y-119704819D02*
X223428571Y-119657200D01*
X223428571Y-119657200D02*
X223333333Y-119561961D01*
X223333333Y-119561961D02*
X223285714Y-119466723D01*
X223285714Y-119466723D02*
X223238095Y-119276247D01*
X223238095Y-119276247D02*
X223238095Y-119133390D01*
X223238095Y-119133390D02*
X223285714Y-118942914D01*
X223285714Y-118942914D02*
X223333333Y-118847676D01*
X223333333Y-118847676D02*
X223428571Y-118752438D01*
X223428571Y-118752438D02*
X223571428Y-118704819D01*
X223571428Y-118704819D02*
X223666666Y-118704819D01*
X223666666Y-118704819D02*
X223809523Y-118752438D01*
X223809523Y-118752438D02*
X223857142Y-118800057D01*
X224809523Y-119704819D02*
X224238095Y-119704819D01*
X224523809Y-119704819D02*
X224523809Y-118704819D01*
X224523809Y-118704819D02*
X224428571Y-118847676D01*
X224428571Y-118847676D02*
X224333333Y-118942914D01*
X224333333Y-118942914D02*
X224238095Y-118990533D01*
X225285714Y-119704819D02*
X225476190Y-119704819D01*
X225476190Y-119704819D02*
X225571428Y-119657200D01*
X225571428Y-119657200D02*
X225619047Y-119609580D01*
X225619047Y-119609580D02*
X225714285Y-119466723D01*
X225714285Y-119466723D02*
X225761904Y-119276247D01*
X225761904Y-119276247D02*
X225761904Y-118895295D01*
X225761904Y-118895295D02*
X225714285Y-118800057D01*
X225714285Y-118800057D02*
X225666666Y-118752438D01*
X225666666Y-118752438D02*
X225571428Y-118704819D01*
X225571428Y-118704819D02*
X225380952Y-118704819D01*
X225380952Y-118704819D02*
X225285714Y-118752438D01*
X225285714Y-118752438D02*
X225238095Y-118800057D01*
X225238095Y-118800057D02*
X225190476Y-118895295D01*
X225190476Y-118895295D02*
X225190476Y-119133390D01*
X225190476Y-119133390D02*
X225238095Y-119228628D01*
X225238095Y-119228628D02*
X225285714Y-119276247D01*
X225285714Y-119276247D02*
X225380952Y-119323866D01*
X225380952Y-119323866D02*
X225571428Y-119323866D01*
X225571428Y-119323866D02*
X225666666Y-119276247D01*
X225666666Y-119276247D02*
X225714285Y-119228628D01*
X225714285Y-119228628D02*
X225761904Y-119133390D01*
X200074819Y-100916666D02*
X199598628Y-101249999D01*
X200074819Y-101488094D02*
X199074819Y-101488094D01*
X199074819Y-101488094D02*
X199074819Y-101107142D01*
X199074819Y-101107142D02*
X199122438Y-101011904D01*
X199122438Y-101011904D02*
X199170057Y-100964285D01*
X199170057Y-100964285D02*
X199265295Y-100916666D01*
X199265295Y-100916666D02*
X199408152Y-100916666D01*
X199408152Y-100916666D02*
X199503390Y-100964285D01*
X199503390Y-100964285D02*
X199551009Y-101011904D01*
X199551009Y-101011904D02*
X199598628Y-101107142D01*
X199598628Y-101107142D02*
X199598628Y-101488094D01*
X199170057Y-100535713D02*
X199122438Y-100488094D01*
X199122438Y-100488094D02*
X199074819Y-100392856D01*
X199074819Y-100392856D02*
X199074819Y-100154761D01*
X199074819Y-100154761D02*
X199122438Y-100059523D01*
X199122438Y-100059523D02*
X199170057Y-100011904D01*
X199170057Y-100011904D02*
X199265295Y-99964285D01*
X199265295Y-99964285D02*
X199360533Y-99964285D01*
X199360533Y-99964285D02*
X199503390Y-100011904D01*
X199503390Y-100011904D02*
X200074819Y-100583332D01*
X200074819Y-100583332D02*
X200074819Y-99964285D01*
X182707142Y-143204819D02*
X182373809Y-142728628D01*
X182135714Y-143204819D02*
X182135714Y-142204819D01*
X182135714Y-142204819D02*
X182516666Y-142204819D01*
X182516666Y-142204819D02*
X182611904Y-142252438D01*
X182611904Y-142252438D02*
X182659523Y-142300057D01*
X182659523Y-142300057D02*
X182707142Y-142395295D01*
X182707142Y-142395295D02*
X182707142Y-142538152D01*
X182707142Y-142538152D02*
X182659523Y-142633390D01*
X182659523Y-142633390D02*
X182611904Y-142681009D01*
X182611904Y-142681009D02*
X182516666Y-142728628D01*
X182516666Y-142728628D02*
X182135714Y-142728628D01*
X183659523Y-143204819D02*
X183088095Y-143204819D01*
X183373809Y-143204819D02*
X183373809Y-142204819D01*
X183373809Y-142204819D02*
X183278571Y-142347676D01*
X183278571Y-142347676D02*
X183183333Y-142442914D01*
X183183333Y-142442914D02*
X183088095Y-142490533D01*
X184230952Y-142633390D02*
X184135714Y-142585771D01*
X184135714Y-142585771D02*
X184088095Y-142538152D01*
X184088095Y-142538152D02*
X184040476Y-142442914D01*
X184040476Y-142442914D02*
X184040476Y-142395295D01*
X184040476Y-142395295D02*
X184088095Y-142300057D01*
X184088095Y-142300057D02*
X184135714Y-142252438D01*
X184135714Y-142252438D02*
X184230952Y-142204819D01*
X184230952Y-142204819D02*
X184421428Y-142204819D01*
X184421428Y-142204819D02*
X184516666Y-142252438D01*
X184516666Y-142252438D02*
X184564285Y-142300057D01*
X184564285Y-142300057D02*
X184611904Y-142395295D01*
X184611904Y-142395295D02*
X184611904Y-142442914D01*
X184611904Y-142442914D02*
X184564285Y-142538152D01*
X184564285Y-142538152D02*
X184516666Y-142585771D01*
X184516666Y-142585771D02*
X184421428Y-142633390D01*
X184421428Y-142633390D02*
X184230952Y-142633390D01*
X184230952Y-142633390D02*
X184135714Y-142681009D01*
X184135714Y-142681009D02*
X184088095Y-142728628D01*
X184088095Y-142728628D02*
X184040476Y-142823866D01*
X184040476Y-142823866D02*
X184040476Y-143014342D01*
X184040476Y-143014342D02*
X184088095Y-143109580D01*
X184088095Y-143109580D02*
X184135714Y-143157200D01*
X184135714Y-143157200D02*
X184230952Y-143204819D01*
X184230952Y-143204819D02*
X184421428Y-143204819D01*
X184421428Y-143204819D02*
X184516666Y-143157200D01*
X184516666Y-143157200D02*
X184564285Y-143109580D01*
X184564285Y-143109580D02*
X184611904Y-143014342D01*
X184611904Y-143014342D02*
X184611904Y-142823866D01*
X184611904Y-142823866D02*
X184564285Y-142728628D01*
X184564285Y-142728628D02*
X184516666Y-142681009D01*
X184516666Y-142681009D02*
X184421428Y-142633390D01*
X167454819Y-101642857D02*
X166978628Y-101976190D01*
X167454819Y-102214285D02*
X166454819Y-102214285D01*
X166454819Y-102214285D02*
X166454819Y-101833333D01*
X166454819Y-101833333D02*
X166502438Y-101738095D01*
X166502438Y-101738095D02*
X166550057Y-101690476D01*
X166550057Y-101690476D02*
X166645295Y-101642857D01*
X166645295Y-101642857D02*
X166788152Y-101642857D01*
X166788152Y-101642857D02*
X166883390Y-101690476D01*
X166883390Y-101690476D02*
X166931009Y-101738095D01*
X166931009Y-101738095D02*
X166978628Y-101833333D01*
X166978628Y-101833333D02*
X166978628Y-102214285D01*
X167454819Y-100690476D02*
X167454819Y-101261904D01*
X167454819Y-100976190D02*
X166454819Y-100976190D01*
X166454819Y-100976190D02*
X166597676Y-101071428D01*
X166597676Y-101071428D02*
X166692914Y-101166666D01*
X166692914Y-101166666D02*
X166740533Y-101261904D01*
X166454819Y-100071428D02*
X166454819Y-99976190D01*
X166454819Y-99976190D02*
X166502438Y-99880952D01*
X166502438Y-99880952D02*
X166550057Y-99833333D01*
X166550057Y-99833333D02*
X166645295Y-99785714D01*
X166645295Y-99785714D02*
X166835771Y-99738095D01*
X166835771Y-99738095D02*
X167073866Y-99738095D01*
X167073866Y-99738095D02*
X167264342Y-99785714D01*
X167264342Y-99785714D02*
X167359580Y-99833333D01*
X167359580Y-99833333D02*
X167407200Y-99880952D01*
X167407200Y-99880952D02*
X167454819Y-99976190D01*
X167454819Y-99976190D02*
X167454819Y-100071428D01*
X167454819Y-100071428D02*
X167407200Y-100166666D01*
X167407200Y-100166666D02*
X167359580Y-100214285D01*
X167359580Y-100214285D02*
X167264342Y-100261904D01*
X167264342Y-100261904D02*
X167073866Y-100309523D01*
X167073866Y-100309523D02*
X166835771Y-100309523D01*
X166835771Y-100309523D02*
X166645295Y-100261904D01*
X166645295Y-100261904D02*
X166550057Y-100214285D01*
X166550057Y-100214285D02*
X166502438Y-100166666D01*
X166502438Y-100166666D02*
X166454819Y-100071428D01*
X169511905Y-117454819D02*
X169511905Y-116454819D01*
X169511905Y-116454819D02*
X169750000Y-116454819D01*
X169750000Y-116454819D02*
X169892857Y-116502438D01*
X169892857Y-116502438D02*
X169988095Y-116597676D01*
X169988095Y-116597676D02*
X170035714Y-116692914D01*
X170035714Y-116692914D02*
X170083333Y-116883390D01*
X170083333Y-116883390D02*
X170083333Y-117026247D01*
X170083333Y-117026247D02*
X170035714Y-117216723D01*
X170035714Y-117216723D02*
X169988095Y-117311961D01*
X169988095Y-117311961D02*
X169892857Y-117407200D01*
X169892857Y-117407200D02*
X169750000Y-117454819D01*
X169750000Y-117454819D02*
X169511905Y-117454819D01*
X170464286Y-116550057D02*
X170511905Y-116502438D01*
X170511905Y-116502438D02*
X170607143Y-116454819D01*
X170607143Y-116454819D02*
X170845238Y-116454819D01*
X170845238Y-116454819D02*
X170940476Y-116502438D01*
X170940476Y-116502438D02*
X170988095Y-116550057D01*
X170988095Y-116550057D02*
X171035714Y-116645295D01*
X171035714Y-116645295D02*
X171035714Y-116740533D01*
X171035714Y-116740533D02*
X170988095Y-116883390D01*
X170988095Y-116883390D02*
X170416667Y-117454819D01*
X170416667Y-117454819D02*
X171035714Y-117454819D01*
X169654761Y-125550057D02*
X169559523Y-125502438D01*
X169559523Y-125502438D02*
X169464285Y-125407200D01*
X169464285Y-125407200D02*
X169321428Y-125264342D01*
X169321428Y-125264342D02*
X169226190Y-125216723D01*
X169226190Y-125216723D02*
X169130952Y-125216723D01*
X169178571Y-125454819D02*
X169083333Y-125407200D01*
X169083333Y-125407200D02*
X168988095Y-125311961D01*
X168988095Y-125311961D02*
X168940476Y-125121485D01*
X168940476Y-125121485D02*
X168940476Y-124788152D01*
X168940476Y-124788152D02*
X168988095Y-124597676D01*
X168988095Y-124597676D02*
X169083333Y-124502438D01*
X169083333Y-124502438D02*
X169178571Y-124454819D01*
X169178571Y-124454819D02*
X169369047Y-124454819D01*
X169369047Y-124454819D02*
X169464285Y-124502438D01*
X169464285Y-124502438D02*
X169559523Y-124597676D01*
X169559523Y-124597676D02*
X169607142Y-124788152D01*
X169607142Y-124788152D02*
X169607142Y-125121485D01*
X169607142Y-125121485D02*
X169559523Y-125311961D01*
X169559523Y-125311961D02*
X169464285Y-125407200D01*
X169464285Y-125407200D02*
X169369047Y-125454819D01*
X169369047Y-125454819D02*
X169178571Y-125454819D01*
X170464285Y-124788152D02*
X170464285Y-125454819D01*
X170226190Y-124407200D02*
X169988095Y-125121485D01*
X169988095Y-125121485D02*
X170607142Y-125121485D01*
X145882142Y-112289580D02*
X145834523Y-112337200D01*
X145834523Y-112337200D02*
X145691666Y-112384819D01*
X145691666Y-112384819D02*
X145596428Y-112384819D01*
X145596428Y-112384819D02*
X145453571Y-112337200D01*
X145453571Y-112337200D02*
X145358333Y-112241961D01*
X145358333Y-112241961D02*
X145310714Y-112146723D01*
X145310714Y-112146723D02*
X145263095Y-111956247D01*
X145263095Y-111956247D02*
X145263095Y-111813390D01*
X145263095Y-111813390D02*
X145310714Y-111622914D01*
X145310714Y-111622914D02*
X145358333Y-111527676D01*
X145358333Y-111527676D02*
X145453571Y-111432438D01*
X145453571Y-111432438D02*
X145596428Y-111384819D01*
X145596428Y-111384819D02*
X145691666Y-111384819D01*
X145691666Y-111384819D02*
X145834523Y-111432438D01*
X145834523Y-111432438D02*
X145882142Y-111480057D01*
X146834523Y-112384819D02*
X146263095Y-112384819D01*
X146548809Y-112384819D02*
X146548809Y-111384819D01*
X146548809Y-111384819D02*
X146453571Y-111527676D01*
X146453571Y-111527676D02*
X146358333Y-111622914D01*
X146358333Y-111622914D02*
X146263095Y-111670533D01*
X147453571Y-111384819D02*
X147548809Y-111384819D01*
X147548809Y-111384819D02*
X147644047Y-111432438D01*
X147644047Y-111432438D02*
X147691666Y-111480057D01*
X147691666Y-111480057D02*
X147739285Y-111575295D01*
X147739285Y-111575295D02*
X147786904Y-111765771D01*
X147786904Y-111765771D02*
X147786904Y-112003866D01*
X147786904Y-112003866D02*
X147739285Y-112194342D01*
X147739285Y-112194342D02*
X147691666Y-112289580D01*
X147691666Y-112289580D02*
X147644047Y-112337200D01*
X147644047Y-112337200D02*
X147548809Y-112384819D01*
X147548809Y-112384819D02*
X147453571Y-112384819D01*
X147453571Y-112384819D02*
X147358333Y-112337200D01*
X147358333Y-112337200D02*
X147310714Y-112289580D01*
X147310714Y-112289580D02*
X147263095Y-112194342D01*
X147263095Y-112194342D02*
X147215476Y-112003866D01*
X147215476Y-112003866D02*
X147215476Y-111765771D01*
X147215476Y-111765771D02*
X147263095Y-111575295D01*
X147263095Y-111575295D02*
X147310714Y-111480057D01*
X147310714Y-111480057D02*
X147358333Y-111432438D01*
X147358333Y-111432438D02*
X147453571Y-111384819D01*
X184704819Y-101392857D02*
X184228628Y-101726190D01*
X184704819Y-101964285D02*
X183704819Y-101964285D01*
X183704819Y-101964285D02*
X183704819Y-101583333D01*
X183704819Y-101583333D02*
X183752438Y-101488095D01*
X183752438Y-101488095D02*
X183800057Y-101440476D01*
X183800057Y-101440476D02*
X183895295Y-101392857D01*
X183895295Y-101392857D02*
X184038152Y-101392857D01*
X184038152Y-101392857D02*
X184133390Y-101440476D01*
X184133390Y-101440476D02*
X184181009Y-101488095D01*
X184181009Y-101488095D02*
X184228628Y-101583333D01*
X184228628Y-101583333D02*
X184228628Y-101964285D01*
X184704819Y-100440476D02*
X184704819Y-101011904D01*
X184704819Y-100726190D02*
X183704819Y-100726190D01*
X183704819Y-100726190D02*
X183847676Y-100821428D01*
X183847676Y-100821428D02*
X183942914Y-100916666D01*
X183942914Y-100916666D02*
X183990533Y-101011904D01*
X184038152Y-99583333D02*
X184704819Y-99583333D01*
X183657200Y-99821428D02*
X184371485Y-100059523D01*
X184371485Y-100059523D02*
X184371485Y-99440476D01*
X223333333Y-114359580D02*
X223285714Y-114407200D01*
X223285714Y-114407200D02*
X223142857Y-114454819D01*
X223142857Y-114454819D02*
X223047619Y-114454819D01*
X223047619Y-114454819D02*
X222904762Y-114407200D01*
X222904762Y-114407200D02*
X222809524Y-114311961D01*
X222809524Y-114311961D02*
X222761905Y-114216723D01*
X222761905Y-114216723D02*
X222714286Y-114026247D01*
X222714286Y-114026247D02*
X222714286Y-113883390D01*
X222714286Y-113883390D02*
X222761905Y-113692914D01*
X222761905Y-113692914D02*
X222809524Y-113597676D01*
X222809524Y-113597676D02*
X222904762Y-113502438D01*
X222904762Y-113502438D02*
X223047619Y-113454819D01*
X223047619Y-113454819D02*
X223142857Y-113454819D01*
X223142857Y-113454819D02*
X223285714Y-113502438D01*
X223285714Y-113502438D02*
X223333333Y-113550057D01*
X224285714Y-114454819D02*
X223714286Y-114454819D01*
X224000000Y-114454819D02*
X224000000Y-113454819D01*
X224000000Y-113454819D02*
X223904762Y-113597676D01*
X223904762Y-113597676D02*
X223809524Y-113692914D01*
X223809524Y-113692914D02*
X223714286Y-113740533D01*
X165204819Y-123067857D02*
X164728628Y-123401190D01*
X165204819Y-123639285D02*
X164204819Y-123639285D01*
X164204819Y-123639285D02*
X164204819Y-123258333D01*
X164204819Y-123258333D02*
X164252438Y-123163095D01*
X164252438Y-123163095D02*
X164300057Y-123115476D01*
X164300057Y-123115476D02*
X164395295Y-123067857D01*
X164395295Y-123067857D02*
X164538152Y-123067857D01*
X164538152Y-123067857D02*
X164633390Y-123115476D01*
X164633390Y-123115476D02*
X164681009Y-123163095D01*
X164681009Y-123163095D02*
X164728628Y-123258333D01*
X164728628Y-123258333D02*
X164728628Y-123639285D01*
X165204819Y-122115476D02*
X165204819Y-122686904D01*
X165204819Y-122401190D02*
X164204819Y-122401190D01*
X164204819Y-122401190D02*
X164347676Y-122496428D01*
X164347676Y-122496428D02*
X164442914Y-122591666D01*
X164442914Y-122591666D02*
X164490533Y-122686904D01*
X165204819Y-121639285D02*
X165204819Y-121448809D01*
X165204819Y-121448809D02*
X165157200Y-121353571D01*
X165157200Y-121353571D02*
X165109580Y-121305952D01*
X165109580Y-121305952D02*
X164966723Y-121210714D01*
X164966723Y-121210714D02*
X164776247Y-121163095D01*
X164776247Y-121163095D02*
X164395295Y-121163095D01*
X164395295Y-121163095D02*
X164300057Y-121210714D01*
X164300057Y-121210714D02*
X164252438Y-121258333D01*
X164252438Y-121258333D02*
X164204819Y-121353571D01*
X164204819Y-121353571D02*
X164204819Y-121544047D01*
X164204819Y-121544047D02*
X164252438Y-121639285D01*
X164252438Y-121639285D02*
X164300057Y-121686904D01*
X164300057Y-121686904D02*
X164395295Y-121734523D01*
X164395295Y-121734523D02*
X164633390Y-121734523D01*
X164633390Y-121734523D02*
X164728628Y-121686904D01*
X164728628Y-121686904D02*
X164776247Y-121639285D01*
X164776247Y-121639285D02*
X164823866Y-121544047D01*
X164823866Y-121544047D02*
X164823866Y-121353571D01*
X164823866Y-121353571D02*
X164776247Y-121258333D01*
X164776247Y-121258333D02*
X164728628Y-121210714D01*
X164728628Y-121210714D02*
X164633390Y-121163095D01*
X234707142Y-110189580D02*
X234659523Y-110237200D01*
X234659523Y-110237200D02*
X234516666Y-110284819D01*
X234516666Y-110284819D02*
X234421428Y-110284819D01*
X234421428Y-110284819D02*
X234278571Y-110237200D01*
X234278571Y-110237200D02*
X234183333Y-110141961D01*
X234183333Y-110141961D02*
X234135714Y-110046723D01*
X234135714Y-110046723D02*
X234088095Y-109856247D01*
X234088095Y-109856247D02*
X234088095Y-109713390D01*
X234088095Y-109713390D02*
X234135714Y-109522914D01*
X234135714Y-109522914D02*
X234183333Y-109427676D01*
X234183333Y-109427676D02*
X234278571Y-109332438D01*
X234278571Y-109332438D02*
X234421428Y-109284819D01*
X234421428Y-109284819D02*
X234516666Y-109284819D01*
X234516666Y-109284819D02*
X234659523Y-109332438D01*
X234659523Y-109332438D02*
X234707142Y-109380057D01*
X235659523Y-110284819D02*
X235088095Y-110284819D01*
X235373809Y-110284819D02*
X235373809Y-109284819D01*
X235373809Y-109284819D02*
X235278571Y-109427676D01*
X235278571Y-109427676D02*
X235183333Y-109522914D01*
X235183333Y-109522914D02*
X235088095Y-109570533D01*
X235992857Y-109284819D02*
X236659523Y-109284819D01*
X236659523Y-109284819D02*
X236230952Y-110284819D01*
X171607142Y-150859580D02*
X171559523Y-150907200D01*
X171559523Y-150907200D02*
X171416666Y-150954819D01*
X171416666Y-150954819D02*
X171321428Y-150954819D01*
X171321428Y-150954819D02*
X171178571Y-150907200D01*
X171178571Y-150907200D02*
X171083333Y-150811961D01*
X171083333Y-150811961D02*
X171035714Y-150716723D01*
X171035714Y-150716723D02*
X170988095Y-150526247D01*
X170988095Y-150526247D02*
X170988095Y-150383390D01*
X170988095Y-150383390D02*
X171035714Y-150192914D01*
X171035714Y-150192914D02*
X171083333Y-150097676D01*
X171083333Y-150097676D02*
X171178571Y-150002438D01*
X171178571Y-150002438D02*
X171321428Y-149954819D01*
X171321428Y-149954819D02*
X171416666Y-149954819D01*
X171416666Y-149954819D02*
X171559523Y-150002438D01*
X171559523Y-150002438D02*
X171607142Y-150050057D01*
X172559523Y-150954819D02*
X171988095Y-150954819D01*
X172273809Y-150954819D02*
X172273809Y-149954819D01*
X172273809Y-149954819D02*
X172178571Y-150097676D01*
X172178571Y-150097676D02*
X172083333Y-150192914D01*
X172083333Y-150192914D02*
X171988095Y-150240533D01*
X173464285Y-149954819D02*
X172988095Y-149954819D01*
X172988095Y-149954819D02*
X172940476Y-150431009D01*
X172940476Y-150431009D02*
X172988095Y-150383390D01*
X172988095Y-150383390D02*
X173083333Y-150335771D01*
X173083333Y-150335771D02*
X173321428Y-150335771D01*
X173321428Y-150335771D02*
X173416666Y-150383390D01*
X173416666Y-150383390D02*
X173464285Y-150431009D01*
X173464285Y-150431009D02*
X173511904Y-150526247D01*
X173511904Y-150526247D02*
X173511904Y-150764342D01*
X173511904Y-150764342D02*
X173464285Y-150859580D01*
X173464285Y-150859580D02*
X173416666Y-150907200D01*
X173416666Y-150907200D02*
X173321428Y-150954819D01*
X173321428Y-150954819D02*
X173083333Y-150954819D01*
X173083333Y-150954819D02*
X172988095Y-150907200D01*
X172988095Y-150907200D02*
X172940476Y-150859580D01*
X166488095Y-125204819D02*
X166488095Y-126014342D01*
X166488095Y-126014342D02*
X166535714Y-126109580D01*
X166535714Y-126109580D02*
X166583333Y-126157200D01*
X166583333Y-126157200D02*
X166678571Y-126204819D01*
X166678571Y-126204819D02*
X166869047Y-126204819D01*
X166869047Y-126204819D02*
X166964285Y-126157200D01*
X166964285Y-126157200D02*
X167011904Y-126109580D01*
X167011904Y-126109580D02*
X167059523Y-126014342D01*
X167059523Y-126014342D02*
X167059523Y-125204819D01*
X167440476Y-125204819D02*
X168059523Y-125204819D01*
X168059523Y-125204819D02*
X167726190Y-125585771D01*
X167726190Y-125585771D02*
X167869047Y-125585771D01*
X167869047Y-125585771D02*
X167964285Y-125633390D01*
X167964285Y-125633390D02*
X168011904Y-125681009D01*
X168011904Y-125681009D02*
X168059523Y-125776247D01*
X168059523Y-125776247D02*
X168059523Y-126014342D01*
X168059523Y-126014342D02*
X168011904Y-126109580D01*
X168011904Y-126109580D02*
X167964285Y-126157200D01*
X167964285Y-126157200D02*
X167869047Y-126204819D01*
X167869047Y-126204819D02*
X167583333Y-126204819D01*
X167583333Y-126204819D02*
X167488095Y-126157200D01*
X167488095Y-126157200D02*
X167440476Y-126109580D01*
X174404761Y-86800057D02*
X174309523Y-86752438D01*
X174309523Y-86752438D02*
X174214285Y-86657200D01*
X174214285Y-86657200D02*
X174071428Y-86514342D01*
X174071428Y-86514342D02*
X173976190Y-86466723D01*
X173976190Y-86466723D02*
X173880952Y-86466723D01*
X173928571Y-86704819D02*
X173833333Y-86657200D01*
X173833333Y-86657200D02*
X173738095Y-86561961D01*
X173738095Y-86561961D02*
X173690476Y-86371485D01*
X173690476Y-86371485D02*
X173690476Y-86038152D01*
X173690476Y-86038152D02*
X173738095Y-85847676D01*
X173738095Y-85847676D02*
X173833333Y-85752438D01*
X173833333Y-85752438D02*
X173928571Y-85704819D01*
X173928571Y-85704819D02*
X174119047Y-85704819D01*
X174119047Y-85704819D02*
X174214285Y-85752438D01*
X174214285Y-85752438D02*
X174309523Y-85847676D01*
X174309523Y-85847676D02*
X174357142Y-86038152D01*
X174357142Y-86038152D02*
X174357142Y-86371485D01*
X174357142Y-86371485D02*
X174309523Y-86561961D01*
X174309523Y-86561961D02*
X174214285Y-86657200D01*
X174214285Y-86657200D02*
X174119047Y-86704819D01*
X174119047Y-86704819D02*
X173928571Y-86704819D01*
X175309523Y-86704819D02*
X174738095Y-86704819D01*
X175023809Y-86704819D02*
X175023809Y-85704819D01*
X175023809Y-85704819D02*
X174928571Y-85847676D01*
X174928571Y-85847676D02*
X174833333Y-85942914D01*
X174833333Y-85942914D02*
X174738095Y-85990533D01*
X150607142Y-110179580D02*
X150559523Y-110227200D01*
X150559523Y-110227200D02*
X150416666Y-110274819D01*
X150416666Y-110274819D02*
X150321428Y-110274819D01*
X150321428Y-110274819D02*
X150178571Y-110227200D01*
X150178571Y-110227200D02*
X150083333Y-110131961D01*
X150083333Y-110131961D02*
X150035714Y-110036723D01*
X150035714Y-110036723D02*
X149988095Y-109846247D01*
X149988095Y-109846247D02*
X149988095Y-109703390D01*
X149988095Y-109703390D02*
X150035714Y-109512914D01*
X150035714Y-109512914D02*
X150083333Y-109417676D01*
X150083333Y-109417676D02*
X150178571Y-109322438D01*
X150178571Y-109322438D02*
X150321428Y-109274819D01*
X150321428Y-109274819D02*
X150416666Y-109274819D01*
X150416666Y-109274819D02*
X150559523Y-109322438D01*
X150559523Y-109322438D02*
X150607142Y-109370057D01*
X151559523Y-110274819D02*
X150988095Y-110274819D01*
X151273809Y-110274819D02*
X151273809Y-109274819D01*
X151273809Y-109274819D02*
X151178571Y-109417676D01*
X151178571Y-109417676D02*
X151083333Y-109512914D01*
X151083333Y-109512914D02*
X150988095Y-109560533D01*
X151892857Y-109274819D02*
X152511904Y-109274819D01*
X152511904Y-109274819D02*
X152178571Y-109655771D01*
X152178571Y-109655771D02*
X152321428Y-109655771D01*
X152321428Y-109655771D02*
X152416666Y-109703390D01*
X152416666Y-109703390D02*
X152464285Y-109751009D01*
X152464285Y-109751009D02*
X152511904Y-109846247D01*
X152511904Y-109846247D02*
X152511904Y-110084342D01*
X152511904Y-110084342D02*
X152464285Y-110179580D01*
X152464285Y-110179580D02*
X152416666Y-110227200D01*
X152416666Y-110227200D02*
X152321428Y-110274819D01*
X152321428Y-110274819D02*
X152035714Y-110274819D01*
X152035714Y-110274819D02*
X151940476Y-110227200D01*
X151940476Y-110227200D02*
X151892857Y-110179580D01*
X225459580Y-108166666D02*
X225507200Y-108214285D01*
X225507200Y-108214285D02*
X225554819Y-108357142D01*
X225554819Y-108357142D02*
X225554819Y-108452380D01*
X225554819Y-108452380D02*
X225507200Y-108595237D01*
X225507200Y-108595237D02*
X225411961Y-108690475D01*
X225411961Y-108690475D02*
X225316723Y-108738094D01*
X225316723Y-108738094D02*
X225126247Y-108785713D01*
X225126247Y-108785713D02*
X224983390Y-108785713D01*
X224983390Y-108785713D02*
X224792914Y-108738094D01*
X224792914Y-108738094D02*
X224697676Y-108690475D01*
X224697676Y-108690475D02*
X224602438Y-108595237D01*
X224602438Y-108595237D02*
X224554819Y-108452380D01*
X224554819Y-108452380D02*
X224554819Y-108357142D01*
X224554819Y-108357142D02*
X224602438Y-108214285D01*
X224602438Y-108214285D02*
X224650057Y-108166666D01*
X224888152Y-107309523D02*
X225554819Y-107309523D01*
X224507200Y-107547618D02*
X225221485Y-107785713D01*
X225221485Y-107785713D02*
X225221485Y-107166666D01*
X166704819Y-90991666D02*
X166228628Y-91324999D01*
X166704819Y-91563094D02*
X165704819Y-91563094D01*
X165704819Y-91563094D02*
X165704819Y-91182142D01*
X165704819Y-91182142D02*
X165752438Y-91086904D01*
X165752438Y-91086904D02*
X165800057Y-91039285D01*
X165800057Y-91039285D02*
X165895295Y-90991666D01*
X165895295Y-90991666D02*
X166038152Y-90991666D01*
X166038152Y-90991666D02*
X166133390Y-91039285D01*
X166133390Y-91039285D02*
X166181009Y-91086904D01*
X166181009Y-91086904D02*
X166228628Y-91182142D01*
X166228628Y-91182142D02*
X166228628Y-91563094D01*
X165704819Y-90134523D02*
X165704819Y-90324999D01*
X165704819Y-90324999D02*
X165752438Y-90420237D01*
X165752438Y-90420237D02*
X165800057Y-90467856D01*
X165800057Y-90467856D02*
X165942914Y-90563094D01*
X165942914Y-90563094D02*
X166133390Y-90610713D01*
X166133390Y-90610713D02*
X166514342Y-90610713D01*
X166514342Y-90610713D02*
X166609580Y-90563094D01*
X166609580Y-90563094D02*
X166657200Y-90515475D01*
X166657200Y-90515475D02*
X166704819Y-90420237D01*
X166704819Y-90420237D02*
X166704819Y-90229761D01*
X166704819Y-90229761D02*
X166657200Y-90134523D01*
X166657200Y-90134523D02*
X166609580Y-90086904D01*
X166609580Y-90086904D02*
X166514342Y-90039285D01*
X166514342Y-90039285D02*
X166276247Y-90039285D01*
X166276247Y-90039285D02*
X166181009Y-90086904D01*
X166181009Y-90086904D02*
X166133390Y-90134523D01*
X166133390Y-90134523D02*
X166085771Y-90229761D01*
X166085771Y-90229761D02*
X166085771Y-90420237D01*
X166085771Y-90420237D02*
X166133390Y-90515475D01*
X166133390Y-90515475D02*
X166181009Y-90563094D01*
X166181009Y-90563094D02*
X166276247Y-90610713D01*
X217574819Y-100866666D02*
X217098628Y-101199999D01*
X217574819Y-101438094D02*
X216574819Y-101438094D01*
X216574819Y-101438094D02*
X216574819Y-101057142D01*
X216574819Y-101057142D02*
X216622438Y-100961904D01*
X216622438Y-100961904D02*
X216670057Y-100914285D01*
X216670057Y-100914285D02*
X216765295Y-100866666D01*
X216765295Y-100866666D02*
X216908152Y-100866666D01*
X216908152Y-100866666D02*
X217003390Y-100914285D01*
X217003390Y-100914285D02*
X217051009Y-100961904D01*
X217051009Y-100961904D02*
X217098628Y-101057142D01*
X217098628Y-101057142D02*
X217098628Y-101438094D01*
X216574819Y-100533332D02*
X216574819Y-99914285D01*
X216574819Y-99914285D02*
X216955771Y-100247618D01*
X216955771Y-100247618D02*
X216955771Y-100104761D01*
X216955771Y-100104761D02*
X217003390Y-100009523D01*
X217003390Y-100009523D02*
X217051009Y-99961904D01*
X217051009Y-99961904D02*
X217146247Y-99914285D01*
X217146247Y-99914285D02*
X217384342Y-99914285D01*
X217384342Y-99914285D02*
X217479580Y-99961904D01*
X217479580Y-99961904D02*
X217527200Y-100009523D01*
X217527200Y-100009523D02*
X217574819Y-100104761D01*
X217574819Y-100104761D02*
X217574819Y-100390475D01*
X217574819Y-100390475D02*
X217527200Y-100485713D01*
X217527200Y-100485713D02*
X217479580Y-100533332D01*
X234109580Y-123392857D02*
X234157200Y-123440476D01*
X234157200Y-123440476D02*
X234204819Y-123583333D01*
X234204819Y-123583333D02*
X234204819Y-123678571D01*
X234204819Y-123678571D02*
X234157200Y-123821428D01*
X234157200Y-123821428D02*
X234061961Y-123916666D01*
X234061961Y-123916666D02*
X233966723Y-123964285D01*
X233966723Y-123964285D02*
X233776247Y-124011904D01*
X233776247Y-124011904D02*
X233633390Y-124011904D01*
X233633390Y-124011904D02*
X233442914Y-123964285D01*
X233442914Y-123964285D02*
X233347676Y-123916666D01*
X233347676Y-123916666D02*
X233252438Y-123821428D01*
X233252438Y-123821428D02*
X233204819Y-123678571D01*
X233204819Y-123678571D02*
X233204819Y-123583333D01*
X233204819Y-123583333D02*
X233252438Y-123440476D01*
X233252438Y-123440476D02*
X233300057Y-123392857D01*
X233300057Y-123011904D02*
X233252438Y-122964285D01*
X233252438Y-122964285D02*
X233204819Y-122869047D01*
X233204819Y-122869047D02*
X233204819Y-122630952D01*
X233204819Y-122630952D02*
X233252438Y-122535714D01*
X233252438Y-122535714D02*
X233300057Y-122488095D01*
X233300057Y-122488095D02*
X233395295Y-122440476D01*
X233395295Y-122440476D02*
X233490533Y-122440476D01*
X233490533Y-122440476D02*
X233633390Y-122488095D01*
X233633390Y-122488095D02*
X234204819Y-123059523D01*
X234204819Y-123059523D02*
X234204819Y-122440476D01*
X234204819Y-121488095D02*
X234204819Y-122059523D01*
X234204819Y-121773809D02*
X233204819Y-121773809D01*
X233204819Y-121773809D02*
X233347676Y-121869047D01*
X233347676Y-121869047D02*
X233442914Y-121964285D01*
X233442914Y-121964285D02*
X233490533Y-122059523D01*
X222359580Y-117392857D02*
X222407200Y-117440476D01*
X222407200Y-117440476D02*
X222454819Y-117583333D01*
X222454819Y-117583333D02*
X222454819Y-117678571D01*
X222454819Y-117678571D02*
X222407200Y-117821428D01*
X222407200Y-117821428D02*
X222311961Y-117916666D01*
X222311961Y-117916666D02*
X222216723Y-117964285D01*
X222216723Y-117964285D02*
X222026247Y-118011904D01*
X222026247Y-118011904D02*
X221883390Y-118011904D01*
X221883390Y-118011904D02*
X221692914Y-117964285D01*
X221692914Y-117964285D02*
X221597676Y-117916666D01*
X221597676Y-117916666D02*
X221502438Y-117821428D01*
X221502438Y-117821428D02*
X221454819Y-117678571D01*
X221454819Y-117678571D02*
X221454819Y-117583333D01*
X221454819Y-117583333D02*
X221502438Y-117440476D01*
X221502438Y-117440476D02*
X221550057Y-117392857D01*
X222454819Y-116440476D02*
X222454819Y-117011904D01*
X222454819Y-116726190D02*
X221454819Y-116726190D01*
X221454819Y-116726190D02*
X221597676Y-116821428D01*
X221597676Y-116821428D02*
X221692914Y-116916666D01*
X221692914Y-116916666D02*
X221740533Y-117011904D01*
X221883390Y-115869047D02*
X221835771Y-115964285D01*
X221835771Y-115964285D02*
X221788152Y-116011904D01*
X221788152Y-116011904D02*
X221692914Y-116059523D01*
X221692914Y-116059523D02*
X221645295Y-116059523D01*
X221645295Y-116059523D02*
X221550057Y-116011904D01*
X221550057Y-116011904D02*
X221502438Y-115964285D01*
X221502438Y-115964285D02*
X221454819Y-115869047D01*
X221454819Y-115869047D02*
X221454819Y-115678571D01*
X221454819Y-115678571D02*
X221502438Y-115583333D01*
X221502438Y-115583333D02*
X221550057Y-115535714D01*
X221550057Y-115535714D02*
X221645295Y-115488095D01*
X221645295Y-115488095D02*
X221692914Y-115488095D01*
X221692914Y-115488095D02*
X221788152Y-115535714D01*
X221788152Y-115535714D02*
X221835771Y-115583333D01*
X221835771Y-115583333D02*
X221883390Y-115678571D01*
X221883390Y-115678571D02*
X221883390Y-115869047D01*
X221883390Y-115869047D02*
X221931009Y-115964285D01*
X221931009Y-115964285D02*
X221978628Y-116011904D01*
X221978628Y-116011904D02*
X222073866Y-116059523D01*
X222073866Y-116059523D02*
X222264342Y-116059523D01*
X222264342Y-116059523D02*
X222359580Y-116011904D01*
X222359580Y-116011904D02*
X222407200Y-115964285D01*
X222407200Y-115964285D02*
X222454819Y-115869047D01*
X222454819Y-115869047D02*
X222454819Y-115678571D01*
X222454819Y-115678571D02*
X222407200Y-115583333D01*
X222407200Y-115583333D02*
X222359580Y-115535714D01*
X222359580Y-115535714D02*
X222264342Y-115488095D01*
X222264342Y-115488095D02*
X222073866Y-115488095D01*
X222073866Y-115488095D02*
X221978628Y-115535714D01*
X221978628Y-115535714D02*
X221931009Y-115583333D01*
X221931009Y-115583333D02*
X221883390Y-115678571D01*
X158359580Y-94416666D02*
X158407200Y-94464285D01*
X158407200Y-94464285D02*
X158454819Y-94607142D01*
X158454819Y-94607142D02*
X158454819Y-94702380D01*
X158454819Y-94702380D02*
X158407200Y-94845237D01*
X158407200Y-94845237D02*
X158311961Y-94940475D01*
X158311961Y-94940475D02*
X158216723Y-94988094D01*
X158216723Y-94988094D02*
X158026247Y-95035713D01*
X158026247Y-95035713D02*
X157883390Y-95035713D01*
X157883390Y-95035713D02*
X157692914Y-94988094D01*
X157692914Y-94988094D02*
X157597676Y-94940475D01*
X157597676Y-94940475D02*
X157502438Y-94845237D01*
X157502438Y-94845237D02*
X157454819Y-94702380D01*
X157454819Y-94702380D02*
X157454819Y-94607142D01*
X157454819Y-94607142D02*
X157502438Y-94464285D01*
X157502438Y-94464285D02*
X157550057Y-94416666D01*
X158454819Y-93940475D02*
X158454819Y-93749999D01*
X158454819Y-93749999D02*
X158407200Y-93654761D01*
X158407200Y-93654761D02*
X158359580Y-93607142D01*
X158359580Y-93607142D02*
X158216723Y-93511904D01*
X158216723Y-93511904D02*
X158026247Y-93464285D01*
X158026247Y-93464285D02*
X157645295Y-93464285D01*
X157645295Y-93464285D02*
X157550057Y-93511904D01*
X157550057Y-93511904D02*
X157502438Y-93559523D01*
X157502438Y-93559523D02*
X157454819Y-93654761D01*
X157454819Y-93654761D02*
X157454819Y-93845237D01*
X157454819Y-93845237D02*
X157502438Y-93940475D01*
X157502438Y-93940475D02*
X157550057Y-93988094D01*
X157550057Y-93988094D02*
X157645295Y-94035713D01*
X157645295Y-94035713D02*
X157883390Y-94035713D01*
X157883390Y-94035713D02*
X157978628Y-93988094D01*
X157978628Y-93988094D02*
X158026247Y-93940475D01*
X158026247Y-93940475D02*
X158073866Y-93845237D01*
X158073866Y-93845237D02*
X158073866Y-93654761D01*
X158073866Y-93654761D02*
X158026247Y-93559523D01*
X158026247Y-93559523D02*
X157978628Y-93511904D01*
X157978628Y-93511904D02*
X157883390Y-93464285D01*
X234109580Y-114916666D02*
X234157200Y-114964285D01*
X234157200Y-114964285D02*
X234204819Y-115107142D01*
X234204819Y-115107142D02*
X234204819Y-115202380D01*
X234204819Y-115202380D02*
X234157200Y-115345237D01*
X234157200Y-115345237D02*
X234061961Y-115440475D01*
X234061961Y-115440475D02*
X233966723Y-115488094D01*
X233966723Y-115488094D02*
X233776247Y-115535713D01*
X233776247Y-115535713D02*
X233633390Y-115535713D01*
X233633390Y-115535713D02*
X233442914Y-115488094D01*
X233442914Y-115488094D02*
X233347676Y-115440475D01*
X233347676Y-115440475D02*
X233252438Y-115345237D01*
X233252438Y-115345237D02*
X233204819Y-115202380D01*
X233204819Y-115202380D02*
X233204819Y-115107142D01*
X233204819Y-115107142D02*
X233252438Y-114964285D01*
X233252438Y-114964285D02*
X233300057Y-114916666D01*
X233204819Y-114011904D02*
X233204819Y-114488094D01*
X233204819Y-114488094D02*
X233681009Y-114535713D01*
X233681009Y-114535713D02*
X233633390Y-114488094D01*
X233633390Y-114488094D02*
X233585771Y-114392856D01*
X233585771Y-114392856D02*
X233585771Y-114154761D01*
X233585771Y-114154761D02*
X233633390Y-114059523D01*
X233633390Y-114059523D02*
X233681009Y-114011904D01*
X233681009Y-114011904D02*
X233776247Y-113964285D01*
X233776247Y-113964285D02*
X234014342Y-113964285D01*
X234014342Y-113964285D02*
X234109580Y-114011904D01*
X234109580Y-114011904D02*
X234157200Y-114059523D01*
X234157200Y-114059523D02*
X234204819Y-114154761D01*
X234204819Y-114154761D02*
X234204819Y-114392856D01*
X234204819Y-114392856D02*
X234157200Y-114488094D01*
X234157200Y-114488094D02*
X234109580Y-114535713D01*
X156609580Y-97392857D02*
X156657200Y-97440476D01*
X156657200Y-97440476D02*
X156704819Y-97583333D01*
X156704819Y-97583333D02*
X156704819Y-97678571D01*
X156704819Y-97678571D02*
X156657200Y-97821428D01*
X156657200Y-97821428D02*
X156561961Y-97916666D01*
X156561961Y-97916666D02*
X156466723Y-97964285D01*
X156466723Y-97964285D02*
X156276247Y-98011904D01*
X156276247Y-98011904D02*
X156133390Y-98011904D01*
X156133390Y-98011904D02*
X155942914Y-97964285D01*
X155942914Y-97964285D02*
X155847676Y-97916666D01*
X155847676Y-97916666D02*
X155752438Y-97821428D01*
X155752438Y-97821428D02*
X155704819Y-97678571D01*
X155704819Y-97678571D02*
X155704819Y-97583333D01*
X155704819Y-97583333D02*
X155752438Y-97440476D01*
X155752438Y-97440476D02*
X155800057Y-97392857D01*
X156704819Y-96440476D02*
X156704819Y-97011904D01*
X156704819Y-96726190D02*
X155704819Y-96726190D01*
X155704819Y-96726190D02*
X155847676Y-96821428D01*
X155847676Y-96821428D02*
X155942914Y-96916666D01*
X155942914Y-96916666D02*
X155990533Y-97011904D01*
X156704819Y-95488095D02*
X156704819Y-96059523D01*
X156704819Y-95773809D02*
X155704819Y-95773809D01*
X155704819Y-95773809D02*
X155847676Y-95869047D01*
X155847676Y-95869047D02*
X155942914Y-95964285D01*
X155942914Y-95964285D02*
X155990533Y-96059523D01*
X182857142Y-136704819D02*
X182523809Y-136228628D01*
X182285714Y-136704819D02*
X182285714Y-135704819D01*
X182285714Y-135704819D02*
X182666666Y-135704819D01*
X182666666Y-135704819D02*
X182761904Y-135752438D01*
X182761904Y-135752438D02*
X182809523Y-135800057D01*
X182809523Y-135800057D02*
X182857142Y-135895295D01*
X182857142Y-135895295D02*
X182857142Y-136038152D01*
X182857142Y-136038152D02*
X182809523Y-136133390D01*
X182809523Y-136133390D02*
X182761904Y-136181009D01*
X182761904Y-136181009D02*
X182666666Y-136228628D01*
X182666666Y-136228628D02*
X182285714Y-136228628D01*
X183809523Y-136704819D02*
X183238095Y-136704819D01*
X183523809Y-136704819D02*
X183523809Y-135704819D01*
X183523809Y-135704819D02*
X183428571Y-135847676D01*
X183428571Y-135847676D02*
X183333333Y-135942914D01*
X183333333Y-135942914D02*
X183238095Y-135990533D01*
X184142857Y-135704819D02*
X184809523Y-135704819D01*
X184809523Y-135704819D02*
X184380952Y-136704819D01*
X146833333Y-96109580D02*
X146785714Y-96157200D01*
X146785714Y-96157200D02*
X146642857Y-96204819D01*
X146642857Y-96204819D02*
X146547619Y-96204819D01*
X146547619Y-96204819D02*
X146404762Y-96157200D01*
X146404762Y-96157200D02*
X146309524Y-96061961D01*
X146309524Y-96061961D02*
X146261905Y-95966723D01*
X146261905Y-95966723D02*
X146214286Y-95776247D01*
X146214286Y-95776247D02*
X146214286Y-95633390D01*
X146214286Y-95633390D02*
X146261905Y-95442914D01*
X146261905Y-95442914D02*
X146309524Y-95347676D01*
X146309524Y-95347676D02*
X146404762Y-95252438D01*
X146404762Y-95252438D02*
X146547619Y-95204819D01*
X146547619Y-95204819D02*
X146642857Y-95204819D01*
X146642857Y-95204819D02*
X146785714Y-95252438D01*
X146785714Y-95252438D02*
X146833333Y-95300057D01*
X147404762Y-95633390D02*
X147309524Y-95585771D01*
X147309524Y-95585771D02*
X147261905Y-95538152D01*
X147261905Y-95538152D02*
X147214286Y-95442914D01*
X147214286Y-95442914D02*
X147214286Y-95395295D01*
X147214286Y-95395295D02*
X147261905Y-95300057D01*
X147261905Y-95300057D02*
X147309524Y-95252438D01*
X147309524Y-95252438D02*
X147404762Y-95204819D01*
X147404762Y-95204819D02*
X147595238Y-95204819D01*
X147595238Y-95204819D02*
X147690476Y-95252438D01*
X147690476Y-95252438D02*
X147738095Y-95300057D01*
X147738095Y-95300057D02*
X147785714Y-95395295D01*
X147785714Y-95395295D02*
X147785714Y-95442914D01*
X147785714Y-95442914D02*
X147738095Y-95538152D01*
X147738095Y-95538152D02*
X147690476Y-95585771D01*
X147690476Y-95585771D02*
X147595238Y-95633390D01*
X147595238Y-95633390D02*
X147404762Y-95633390D01*
X147404762Y-95633390D02*
X147309524Y-95681009D01*
X147309524Y-95681009D02*
X147261905Y-95728628D01*
X147261905Y-95728628D02*
X147214286Y-95823866D01*
X147214286Y-95823866D02*
X147214286Y-96014342D01*
X147214286Y-96014342D02*
X147261905Y-96109580D01*
X147261905Y-96109580D02*
X147309524Y-96157200D01*
X147309524Y-96157200D02*
X147404762Y-96204819D01*
X147404762Y-96204819D02*
X147595238Y-96204819D01*
X147595238Y-96204819D02*
X147690476Y-96157200D01*
X147690476Y-96157200D02*
X147738095Y-96109580D01*
X147738095Y-96109580D02*
X147785714Y-96014342D01*
X147785714Y-96014342D02*
X147785714Y-95823866D01*
X147785714Y-95823866D02*
X147738095Y-95728628D01*
X147738095Y-95728628D02*
X147690476Y-95681009D01*
X147690476Y-95681009D02*
X147595238Y-95633390D01*
X186824405Y-117642319D02*
X186824405Y-116642319D01*
X187395833Y-117642319D02*
X186967262Y-117070890D01*
X187395833Y-116642319D02*
X186824405Y-117213747D01*
X188348214Y-117642319D02*
X187776786Y-117642319D01*
X188062500Y-117642319D02*
X188062500Y-116642319D01*
X188062500Y-116642319D02*
X187967262Y-116785176D01*
X187967262Y-116785176D02*
X187872024Y-116880414D01*
X187872024Y-116880414D02*
X187776786Y-116928033D01*
X151634819Y-93067857D02*
X151158628Y-93401190D01*
X151634819Y-93639285D02*
X150634819Y-93639285D01*
X150634819Y-93639285D02*
X150634819Y-93258333D01*
X150634819Y-93258333D02*
X150682438Y-93163095D01*
X150682438Y-93163095D02*
X150730057Y-93115476D01*
X150730057Y-93115476D02*
X150825295Y-93067857D01*
X150825295Y-93067857D02*
X150968152Y-93067857D01*
X150968152Y-93067857D02*
X151063390Y-93115476D01*
X151063390Y-93115476D02*
X151111009Y-93163095D01*
X151111009Y-93163095D02*
X151158628Y-93258333D01*
X151158628Y-93258333D02*
X151158628Y-93639285D01*
X151634819Y-92115476D02*
X151634819Y-92686904D01*
X151634819Y-92401190D02*
X150634819Y-92401190D01*
X150634819Y-92401190D02*
X150777676Y-92496428D01*
X150777676Y-92496428D02*
X150872914Y-92591666D01*
X150872914Y-92591666D02*
X150920533Y-92686904D01*
X151634819Y-91163095D02*
X151634819Y-91734523D01*
X151634819Y-91448809D02*
X150634819Y-91448809D01*
X150634819Y-91448809D02*
X150777676Y-91544047D01*
X150777676Y-91544047D02*
X150872914Y-91639285D01*
X150872914Y-91639285D02*
X150920533Y-91734523D01*
X195083333Y-147359580D02*
X195035714Y-147407200D01*
X195035714Y-147407200D02*
X194892857Y-147454819D01*
X194892857Y-147454819D02*
X194797619Y-147454819D01*
X194797619Y-147454819D02*
X194654762Y-147407200D01*
X194654762Y-147407200D02*
X194559524Y-147311961D01*
X194559524Y-147311961D02*
X194511905Y-147216723D01*
X194511905Y-147216723D02*
X194464286Y-147026247D01*
X194464286Y-147026247D02*
X194464286Y-146883390D01*
X194464286Y-146883390D02*
X194511905Y-146692914D01*
X194511905Y-146692914D02*
X194559524Y-146597676D01*
X194559524Y-146597676D02*
X194654762Y-146502438D01*
X194654762Y-146502438D02*
X194797619Y-146454819D01*
X194797619Y-146454819D02*
X194892857Y-146454819D01*
X194892857Y-146454819D02*
X195035714Y-146502438D01*
X195035714Y-146502438D02*
X195083333Y-146550057D01*
X195416667Y-146454819D02*
X196083333Y-146454819D01*
X196083333Y-146454819D02*
X195654762Y-147454819D01*
X153359580Y-94416666D02*
X153407200Y-94464285D01*
X153407200Y-94464285D02*
X153454819Y-94607142D01*
X153454819Y-94607142D02*
X153454819Y-94702380D01*
X153454819Y-94702380D02*
X153407200Y-94845237D01*
X153407200Y-94845237D02*
X153311961Y-94940475D01*
X153311961Y-94940475D02*
X153216723Y-94988094D01*
X153216723Y-94988094D02*
X153026247Y-95035713D01*
X153026247Y-95035713D02*
X152883390Y-95035713D01*
X152883390Y-95035713D02*
X152692914Y-94988094D01*
X152692914Y-94988094D02*
X152597676Y-94940475D01*
X152597676Y-94940475D02*
X152502438Y-94845237D01*
X152502438Y-94845237D02*
X152454819Y-94702380D01*
X152454819Y-94702380D02*
X152454819Y-94607142D01*
X152454819Y-94607142D02*
X152502438Y-94464285D01*
X152502438Y-94464285D02*
X152550057Y-94416666D01*
X152454819Y-94083332D02*
X152454819Y-93464285D01*
X152454819Y-93464285D02*
X152835771Y-93797618D01*
X152835771Y-93797618D02*
X152835771Y-93654761D01*
X152835771Y-93654761D02*
X152883390Y-93559523D01*
X152883390Y-93559523D02*
X152931009Y-93511904D01*
X152931009Y-93511904D02*
X153026247Y-93464285D01*
X153026247Y-93464285D02*
X153264342Y-93464285D01*
X153264342Y-93464285D02*
X153359580Y-93511904D01*
X153359580Y-93511904D02*
X153407200Y-93559523D01*
X153407200Y-93559523D02*
X153454819Y-93654761D01*
X153454819Y-93654761D02*
X153454819Y-93940475D01*
X153454819Y-93940475D02*
X153407200Y-94035713D01*
X153407200Y-94035713D02*
X153359580Y-94083332D01*
X150179580Y-97392857D02*
X150227200Y-97440476D01*
X150227200Y-97440476D02*
X150274819Y-97583333D01*
X150274819Y-97583333D02*
X150274819Y-97678571D01*
X150274819Y-97678571D02*
X150227200Y-97821428D01*
X150227200Y-97821428D02*
X150131961Y-97916666D01*
X150131961Y-97916666D02*
X150036723Y-97964285D01*
X150036723Y-97964285D02*
X149846247Y-98011904D01*
X149846247Y-98011904D02*
X149703390Y-98011904D01*
X149703390Y-98011904D02*
X149512914Y-97964285D01*
X149512914Y-97964285D02*
X149417676Y-97916666D01*
X149417676Y-97916666D02*
X149322438Y-97821428D01*
X149322438Y-97821428D02*
X149274819Y-97678571D01*
X149274819Y-97678571D02*
X149274819Y-97583333D01*
X149274819Y-97583333D02*
X149322438Y-97440476D01*
X149322438Y-97440476D02*
X149370057Y-97392857D01*
X150274819Y-96440476D02*
X150274819Y-97011904D01*
X150274819Y-96726190D02*
X149274819Y-96726190D01*
X149274819Y-96726190D02*
X149417676Y-96821428D01*
X149417676Y-96821428D02*
X149512914Y-96916666D01*
X149512914Y-96916666D02*
X149560533Y-97011904D01*
X149370057Y-96059523D02*
X149322438Y-96011904D01*
X149322438Y-96011904D02*
X149274819Y-95916666D01*
X149274819Y-95916666D02*
X149274819Y-95678571D01*
X149274819Y-95678571D02*
X149322438Y-95583333D01*
X149322438Y-95583333D02*
X149370057Y-95535714D01*
X149370057Y-95535714D02*
X149465295Y-95488095D01*
X149465295Y-95488095D02*
X149560533Y-95488095D01*
X149560533Y-95488095D02*
X149703390Y-95535714D01*
X149703390Y-95535714D02*
X150274819Y-96107142D01*
X150274819Y-96107142D02*
X150274819Y-95488095D01*
X230166666Y-115681009D02*
X229833333Y-115681009D01*
X229833333Y-116204819D02*
X229833333Y-115204819D01*
X229833333Y-115204819D02*
X230309523Y-115204819D01*
X231023809Y-115681009D02*
X231166666Y-115728628D01*
X231166666Y-115728628D02*
X231214285Y-115776247D01*
X231214285Y-115776247D02*
X231261904Y-115871485D01*
X231261904Y-115871485D02*
X231261904Y-116014342D01*
X231261904Y-116014342D02*
X231214285Y-116109580D01*
X231214285Y-116109580D02*
X231166666Y-116157200D01*
X231166666Y-116157200D02*
X231071428Y-116204819D01*
X231071428Y-116204819D02*
X230690476Y-116204819D01*
X230690476Y-116204819D02*
X230690476Y-115204819D01*
X230690476Y-115204819D02*
X231023809Y-115204819D01*
X231023809Y-115204819D02*
X231119047Y-115252438D01*
X231119047Y-115252438D02*
X231166666Y-115300057D01*
X231166666Y-115300057D02*
X231214285Y-115395295D01*
X231214285Y-115395295D02*
X231214285Y-115490533D01*
X231214285Y-115490533D02*
X231166666Y-115585771D01*
X231166666Y-115585771D02*
X231119047Y-115633390D01*
X231119047Y-115633390D02*
X231023809Y-115681009D01*
X231023809Y-115681009D02*
X230690476Y-115681009D01*
X231642857Y-115300057D02*
X231690476Y-115252438D01*
X231690476Y-115252438D02*
X231785714Y-115204819D01*
X231785714Y-115204819D02*
X232023809Y-115204819D01*
X232023809Y-115204819D02*
X232119047Y-115252438D01*
X232119047Y-115252438D02*
X232166666Y-115300057D01*
X232166666Y-115300057D02*
X232214285Y-115395295D01*
X232214285Y-115395295D02*
X232214285Y-115490533D01*
X232214285Y-115490533D02*
X232166666Y-115633390D01*
X232166666Y-115633390D02*
X231595238Y-116204819D01*
X231595238Y-116204819D02*
X232214285Y-116204819D01*
X162324819Y-104821904D02*
X163134342Y-104821904D01*
X163134342Y-104821904D02*
X163229580Y-104774285D01*
X163229580Y-104774285D02*
X163277200Y-104726666D01*
X163277200Y-104726666D02*
X163324819Y-104631428D01*
X163324819Y-104631428D02*
X163324819Y-104440952D01*
X163324819Y-104440952D02*
X163277200Y-104345714D01*
X163277200Y-104345714D02*
X163229580Y-104298095D01*
X163229580Y-104298095D02*
X163134342Y-104250476D01*
X163134342Y-104250476D02*
X162324819Y-104250476D01*
X163324819Y-103250476D02*
X163324819Y-103821904D01*
X163324819Y-103536190D02*
X162324819Y-103536190D01*
X162324819Y-103536190D02*
X162467676Y-103631428D01*
X162467676Y-103631428D02*
X162562914Y-103726666D01*
X162562914Y-103726666D02*
X162610533Y-103821904D01*
X201454819Y-90916666D02*
X200978628Y-91249999D01*
X201454819Y-91488094D02*
X200454819Y-91488094D01*
X200454819Y-91488094D02*
X200454819Y-91107142D01*
X200454819Y-91107142D02*
X200502438Y-91011904D01*
X200502438Y-91011904D02*
X200550057Y-90964285D01*
X200550057Y-90964285D02*
X200645295Y-90916666D01*
X200645295Y-90916666D02*
X200788152Y-90916666D01*
X200788152Y-90916666D02*
X200883390Y-90964285D01*
X200883390Y-90964285D02*
X200931009Y-91011904D01*
X200931009Y-91011904D02*
X200978628Y-91107142D01*
X200978628Y-91107142D02*
X200978628Y-91488094D01*
X200788152Y-90059523D02*
X201454819Y-90059523D01*
X200407200Y-90297618D02*
X201121485Y-90535713D01*
X201121485Y-90535713D02*
X201121485Y-89916666D01*
X182824819Y-100916666D02*
X182348628Y-101249999D01*
X182824819Y-101488094D02*
X181824819Y-101488094D01*
X181824819Y-101488094D02*
X181824819Y-101107142D01*
X181824819Y-101107142D02*
X181872438Y-101011904D01*
X181872438Y-101011904D02*
X181920057Y-100964285D01*
X181920057Y-100964285D02*
X182015295Y-100916666D01*
X182015295Y-100916666D02*
X182158152Y-100916666D01*
X182158152Y-100916666D02*
X182253390Y-100964285D01*
X182253390Y-100964285D02*
X182301009Y-101011904D01*
X182301009Y-101011904D02*
X182348628Y-101107142D01*
X182348628Y-101107142D02*
X182348628Y-101488094D01*
X182824819Y-99964285D02*
X182824819Y-100535713D01*
X182824819Y-100249999D02*
X181824819Y-100249999D01*
X181824819Y-100249999D02*
X181967676Y-100345237D01*
X181967676Y-100345237D02*
X182062914Y-100440475D01*
X182062914Y-100440475D02*
X182110533Y-100535713D01*
X202204819Y-101392857D02*
X201728628Y-101726190D01*
X202204819Y-101964285D02*
X201204819Y-101964285D01*
X201204819Y-101964285D02*
X201204819Y-101583333D01*
X201204819Y-101583333D02*
X201252438Y-101488095D01*
X201252438Y-101488095D02*
X201300057Y-101440476D01*
X201300057Y-101440476D02*
X201395295Y-101392857D01*
X201395295Y-101392857D02*
X201538152Y-101392857D01*
X201538152Y-101392857D02*
X201633390Y-101440476D01*
X201633390Y-101440476D02*
X201681009Y-101488095D01*
X201681009Y-101488095D02*
X201728628Y-101583333D01*
X201728628Y-101583333D02*
X201728628Y-101964285D01*
X202204819Y-100440476D02*
X202204819Y-101011904D01*
X202204819Y-100726190D02*
X201204819Y-100726190D01*
X201204819Y-100726190D02*
X201347676Y-100821428D01*
X201347676Y-100821428D02*
X201442914Y-100916666D01*
X201442914Y-100916666D02*
X201490533Y-101011904D01*
X201204819Y-99535714D02*
X201204819Y-100011904D01*
X201204819Y-100011904D02*
X201681009Y-100059523D01*
X201681009Y-100059523D02*
X201633390Y-100011904D01*
X201633390Y-100011904D02*
X201585771Y-99916666D01*
X201585771Y-99916666D02*
X201585771Y-99678571D01*
X201585771Y-99678571D02*
X201633390Y-99583333D01*
X201633390Y-99583333D02*
X201681009Y-99535714D01*
X201681009Y-99535714D02*
X201776247Y-99488095D01*
X201776247Y-99488095D02*
X202014342Y-99488095D01*
X202014342Y-99488095D02*
X202109580Y-99535714D01*
X202109580Y-99535714D02*
X202157200Y-99583333D01*
X202157200Y-99583333D02*
X202204819Y-99678571D01*
X202204819Y-99678571D02*
X202204819Y-99916666D01*
X202204819Y-99916666D02*
X202157200Y-100011904D01*
X202157200Y-100011904D02*
X202109580Y-100059523D01*
X189666666Y-147204819D02*
X189666666Y-147919104D01*
X189666666Y-147919104D02*
X189619047Y-148061961D01*
X189619047Y-148061961D02*
X189523809Y-148157200D01*
X189523809Y-148157200D02*
X189380952Y-148204819D01*
X189380952Y-148204819D02*
X189285714Y-148204819D01*
X190666666Y-148204819D02*
X190095238Y-148204819D01*
X190380952Y-148204819D02*
X190380952Y-147204819D01*
X190380952Y-147204819D02*
X190285714Y-147347676D01*
X190285714Y-147347676D02*
X190190476Y-147442914D01*
X190190476Y-147442914D02*
X190095238Y-147490533D01*
X145274819Y-94241666D02*
X144798628Y-94574999D01*
X145274819Y-94813094D02*
X144274819Y-94813094D01*
X144274819Y-94813094D02*
X144274819Y-94432142D01*
X144274819Y-94432142D02*
X144322438Y-94336904D01*
X144322438Y-94336904D02*
X144370057Y-94289285D01*
X144370057Y-94289285D02*
X144465295Y-94241666D01*
X144465295Y-94241666D02*
X144608152Y-94241666D01*
X144608152Y-94241666D02*
X144703390Y-94289285D01*
X144703390Y-94289285D02*
X144751009Y-94336904D01*
X144751009Y-94336904D02*
X144798628Y-94432142D01*
X144798628Y-94432142D02*
X144798628Y-94813094D01*
X144703390Y-93670237D02*
X144655771Y-93765475D01*
X144655771Y-93765475D02*
X144608152Y-93813094D01*
X144608152Y-93813094D02*
X144512914Y-93860713D01*
X144512914Y-93860713D02*
X144465295Y-93860713D01*
X144465295Y-93860713D02*
X144370057Y-93813094D01*
X144370057Y-93813094D02*
X144322438Y-93765475D01*
X144322438Y-93765475D02*
X144274819Y-93670237D01*
X144274819Y-93670237D02*
X144274819Y-93479761D01*
X144274819Y-93479761D02*
X144322438Y-93384523D01*
X144322438Y-93384523D02*
X144370057Y-93336904D01*
X144370057Y-93336904D02*
X144465295Y-93289285D01*
X144465295Y-93289285D02*
X144512914Y-93289285D01*
X144512914Y-93289285D02*
X144608152Y-93336904D01*
X144608152Y-93336904D02*
X144655771Y-93384523D01*
X144655771Y-93384523D02*
X144703390Y-93479761D01*
X144703390Y-93479761D02*
X144703390Y-93670237D01*
X144703390Y-93670237D02*
X144751009Y-93765475D01*
X144751009Y-93765475D02*
X144798628Y-93813094D01*
X144798628Y-93813094D02*
X144893866Y-93860713D01*
X144893866Y-93860713D02*
X145084342Y-93860713D01*
X145084342Y-93860713D02*
X145179580Y-93813094D01*
X145179580Y-93813094D02*
X145227200Y-93765475D01*
X145227200Y-93765475D02*
X145274819Y-93670237D01*
X145274819Y-93670237D02*
X145274819Y-93479761D01*
X145274819Y-93479761D02*
X145227200Y-93384523D01*
X145227200Y-93384523D02*
X145179580Y-93336904D01*
X145179580Y-93336904D02*
X145084342Y-93289285D01*
X145084342Y-93289285D02*
X144893866Y-93289285D01*
X144893866Y-93289285D02*
X144798628Y-93336904D01*
X144798628Y-93336904D02*
X144751009Y-93384523D01*
X144751009Y-93384523D02*
X144703390Y-93479761D01*
X225333333Y-114359580D02*
X225285714Y-114407200D01*
X225285714Y-114407200D02*
X225142857Y-114454819D01*
X225142857Y-114454819D02*
X225047619Y-114454819D01*
X225047619Y-114454819D02*
X224904762Y-114407200D01*
X224904762Y-114407200D02*
X224809524Y-114311961D01*
X224809524Y-114311961D02*
X224761905Y-114216723D01*
X224761905Y-114216723D02*
X224714286Y-114026247D01*
X224714286Y-114026247D02*
X224714286Y-113883390D01*
X224714286Y-113883390D02*
X224761905Y-113692914D01*
X224761905Y-113692914D02*
X224809524Y-113597676D01*
X224809524Y-113597676D02*
X224904762Y-113502438D01*
X224904762Y-113502438D02*
X225047619Y-113454819D01*
X225047619Y-113454819D02*
X225142857Y-113454819D01*
X225142857Y-113454819D02*
X225285714Y-113502438D01*
X225285714Y-113502438D02*
X225333333Y-113550057D01*
X225714286Y-113550057D02*
X225761905Y-113502438D01*
X225761905Y-113502438D02*
X225857143Y-113454819D01*
X225857143Y-113454819D02*
X226095238Y-113454819D01*
X226095238Y-113454819D02*
X226190476Y-113502438D01*
X226190476Y-113502438D02*
X226238095Y-113550057D01*
X226238095Y-113550057D02*
X226285714Y-113645295D01*
X226285714Y-113645295D02*
X226285714Y-113740533D01*
X226285714Y-113740533D02*
X226238095Y-113883390D01*
X226238095Y-113883390D02*
X225666667Y-114454819D01*
X225666667Y-114454819D02*
X226285714Y-114454819D01*
X228357142Y-125109580D02*
X228309523Y-125157200D01*
X228309523Y-125157200D02*
X228166666Y-125204819D01*
X228166666Y-125204819D02*
X228071428Y-125204819D01*
X228071428Y-125204819D02*
X227928571Y-125157200D01*
X227928571Y-125157200D02*
X227833333Y-125061961D01*
X227833333Y-125061961D02*
X227785714Y-124966723D01*
X227785714Y-124966723D02*
X227738095Y-124776247D01*
X227738095Y-124776247D02*
X227738095Y-124633390D01*
X227738095Y-124633390D02*
X227785714Y-124442914D01*
X227785714Y-124442914D02*
X227833333Y-124347676D01*
X227833333Y-124347676D02*
X227928571Y-124252438D01*
X227928571Y-124252438D02*
X228071428Y-124204819D01*
X228071428Y-124204819D02*
X228166666Y-124204819D01*
X228166666Y-124204819D02*
X228309523Y-124252438D01*
X228309523Y-124252438D02*
X228357142Y-124300057D01*
X228738095Y-124300057D02*
X228785714Y-124252438D01*
X228785714Y-124252438D02*
X228880952Y-124204819D01*
X228880952Y-124204819D02*
X229119047Y-124204819D01*
X229119047Y-124204819D02*
X229214285Y-124252438D01*
X229214285Y-124252438D02*
X229261904Y-124300057D01*
X229261904Y-124300057D02*
X229309523Y-124395295D01*
X229309523Y-124395295D02*
X229309523Y-124490533D01*
X229309523Y-124490533D02*
X229261904Y-124633390D01*
X229261904Y-124633390D02*
X228690476Y-125204819D01*
X228690476Y-125204819D02*
X229309523Y-125204819D01*
X229928571Y-124204819D02*
X230023809Y-124204819D01*
X230023809Y-124204819D02*
X230119047Y-124252438D01*
X230119047Y-124252438D02*
X230166666Y-124300057D01*
X230166666Y-124300057D02*
X230214285Y-124395295D01*
X230214285Y-124395295D02*
X230261904Y-124585771D01*
X230261904Y-124585771D02*
X230261904Y-124823866D01*
X230261904Y-124823866D02*
X230214285Y-125014342D01*
X230214285Y-125014342D02*
X230166666Y-125109580D01*
X230166666Y-125109580D02*
X230119047Y-125157200D01*
X230119047Y-125157200D02*
X230023809Y-125204819D01*
X230023809Y-125204819D02*
X229928571Y-125204819D01*
X229928571Y-125204819D02*
X229833333Y-125157200D01*
X229833333Y-125157200D02*
X229785714Y-125109580D01*
X229785714Y-125109580D02*
X229738095Y-125014342D01*
X229738095Y-125014342D02*
X229690476Y-124823866D01*
X229690476Y-124823866D02*
X229690476Y-124585771D01*
X229690476Y-124585771D02*
X229738095Y-124395295D01*
X229738095Y-124395295D02*
X229785714Y-124300057D01*
X229785714Y-124300057D02*
X229833333Y-124252438D01*
X229833333Y-124252438D02*
X229928571Y-124204819D01*
X230166666Y-112431009D02*
X229833333Y-112431009D01*
X229833333Y-112954819D02*
X229833333Y-111954819D01*
X229833333Y-111954819D02*
X230309523Y-111954819D01*
X231023809Y-112431009D02*
X231166666Y-112478628D01*
X231166666Y-112478628D02*
X231214285Y-112526247D01*
X231214285Y-112526247D02*
X231261904Y-112621485D01*
X231261904Y-112621485D02*
X231261904Y-112764342D01*
X231261904Y-112764342D02*
X231214285Y-112859580D01*
X231214285Y-112859580D02*
X231166666Y-112907200D01*
X231166666Y-112907200D02*
X231071428Y-112954819D01*
X231071428Y-112954819D02*
X230690476Y-112954819D01*
X230690476Y-112954819D02*
X230690476Y-111954819D01*
X230690476Y-111954819D02*
X231023809Y-111954819D01*
X231023809Y-111954819D02*
X231119047Y-112002438D01*
X231119047Y-112002438D02*
X231166666Y-112050057D01*
X231166666Y-112050057D02*
X231214285Y-112145295D01*
X231214285Y-112145295D02*
X231214285Y-112240533D01*
X231214285Y-112240533D02*
X231166666Y-112335771D01*
X231166666Y-112335771D02*
X231119047Y-112383390D01*
X231119047Y-112383390D02*
X231023809Y-112431009D01*
X231023809Y-112431009D02*
X230690476Y-112431009D01*
X232214285Y-112954819D02*
X231642857Y-112954819D01*
X231928571Y-112954819D02*
X231928571Y-111954819D01*
X231928571Y-111954819D02*
X231833333Y-112097676D01*
X231833333Y-112097676D02*
X231738095Y-112192914D01*
X231738095Y-112192914D02*
X231642857Y-112240533D01*
X171488095Y-145954819D02*
X171488095Y-146764342D01*
X171488095Y-146764342D02*
X171535714Y-146859580D01*
X171535714Y-146859580D02*
X171583333Y-146907200D01*
X171583333Y-146907200D02*
X171678571Y-146954819D01*
X171678571Y-146954819D02*
X171869047Y-146954819D01*
X171869047Y-146954819D02*
X171964285Y-146907200D01*
X171964285Y-146907200D02*
X172011904Y-146859580D01*
X172011904Y-146859580D02*
X172059523Y-146764342D01*
X172059523Y-146764342D02*
X172059523Y-145954819D01*
X172964285Y-146288152D02*
X172964285Y-146954819D01*
X172726190Y-145907200D02*
X172488095Y-146621485D01*
X172488095Y-146621485D02*
X173107142Y-146621485D01*
X149524819Y-114642857D02*
X149048628Y-114976190D01*
X149524819Y-115214285D02*
X148524819Y-115214285D01*
X148524819Y-115214285D02*
X148524819Y-114833333D01*
X148524819Y-114833333D02*
X148572438Y-114738095D01*
X148572438Y-114738095D02*
X148620057Y-114690476D01*
X148620057Y-114690476D02*
X148715295Y-114642857D01*
X148715295Y-114642857D02*
X148858152Y-114642857D01*
X148858152Y-114642857D02*
X148953390Y-114690476D01*
X148953390Y-114690476D02*
X149001009Y-114738095D01*
X149001009Y-114738095D02*
X149048628Y-114833333D01*
X149048628Y-114833333D02*
X149048628Y-115214285D01*
X149524819Y-113690476D02*
X149524819Y-114261904D01*
X149524819Y-113976190D02*
X148524819Y-113976190D01*
X148524819Y-113976190D02*
X148667676Y-114071428D01*
X148667676Y-114071428D02*
X148762914Y-114166666D01*
X148762914Y-114166666D02*
X148810533Y-114261904D01*
X148524819Y-113357142D02*
X148524819Y-112738095D01*
X148524819Y-112738095D02*
X148905771Y-113071428D01*
X148905771Y-113071428D02*
X148905771Y-112928571D01*
X148905771Y-112928571D02*
X148953390Y-112833333D01*
X148953390Y-112833333D02*
X149001009Y-112785714D01*
X149001009Y-112785714D02*
X149096247Y-112738095D01*
X149096247Y-112738095D02*
X149334342Y-112738095D01*
X149334342Y-112738095D02*
X149429580Y-112785714D01*
X149429580Y-112785714D02*
X149477200Y-112833333D01*
X149477200Y-112833333D02*
X149524819Y-112928571D01*
X149524819Y-112928571D02*
X149524819Y-113214285D01*
X149524819Y-113214285D02*
X149477200Y-113309523D01*
X149477200Y-113309523D02*
X149429580Y-113357142D01*
X162704819Y-95166666D02*
X162228628Y-95499999D01*
X162704819Y-95738094D02*
X161704819Y-95738094D01*
X161704819Y-95738094D02*
X161704819Y-95357142D01*
X161704819Y-95357142D02*
X161752438Y-95261904D01*
X161752438Y-95261904D02*
X161800057Y-95214285D01*
X161800057Y-95214285D02*
X161895295Y-95166666D01*
X161895295Y-95166666D02*
X162038152Y-95166666D01*
X162038152Y-95166666D02*
X162133390Y-95214285D01*
X162133390Y-95214285D02*
X162181009Y-95261904D01*
X162181009Y-95261904D02*
X162228628Y-95357142D01*
X162228628Y-95357142D02*
X162228628Y-95738094D01*
X161704819Y-94833332D02*
X161704819Y-94166666D01*
X161704819Y-94166666D02*
X162704819Y-94595237D01*
%TO.C,Q2*%
D12*
X181990000Y-80060000D02*
X183090000Y-80060000D01*
X181990000Y-85310000D02*
X181990000Y-80060000D01*
X186110000Y-80060000D02*
X188540000Y-80060000D01*
X188245000Y-80060000D02*
X188245000Y-80280000D01*
X191560000Y-80060000D02*
X193990000Y-80060000D01*
X191855000Y-80060000D02*
X191855000Y-80280000D01*
X197010000Y-80060000D02*
X198110000Y-80060000D01*
X198110000Y-80060000D02*
X198110000Y-85310000D01*
X198110000Y-85310000D02*
X181990000Y-85310000D01*
%TO.C,J3*%
X236120000Y-111750000D02*
X237500000Y-111750000D01*
X236120000Y-113130000D02*
X236120000Y-111750000D01*
X236120000Y-114400000D02*
X236120000Y-137370000D01*
X236120000Y-114400000D02*
X238880000Y-114400000D01*
X236120000Y-137370000D02*
X238880000Y-137370000D01*
X238880000Y-114400000D02*
X238880000Y-137370000D01*
%TO.C,R9*%
X145227500Y-114012742D02*
X145227500Y-114487258D01*
X146272500Y-114012742D02*
X146272500Y-114487258D01*
%TO.C,R5*%
X182977500Y-87937742D02*
X182977500Y-88412258D01*
X184022500Y-87937742D02*
X184022500Y-88412258D01*
%TO.C,Q3*%
X199390000Y-80060000D02*
X200490000Y-80060000D01*
X199390000Y-85310000D02*
X199390000Y-80060000D01*
X203510000Y-80060000D02*
X205940000Y-80060000D01*
X205645000Y-80060000D02*
X205645000Y-80280000D01*
X208960000Y-80060000D02*
X211390000Y-80060000D01*
X209255000Y-80060000D02*
X209255000Y-80280000D01*
X214410000Y-80060000D02*
X215510000Y-80060000D01*
X215510000Y-80060000D02*
X215510000Y-85310000D01*
X215510000Y-85310000D02*
X199390000Y-85310000D01*
%TO.C,R12*%
X155727500Y-92187742D02*
X155727500Y-92662258D01*
X156772500Y-92187742D02*
X156772500Y-92662258D01*
%TO.C,C14*%
X167084420Y-130490000D02*
X167365580Y-130490000D01*
X167084420Y-131510000D02*
X167365580Y-131510000D01*
%TO.C,C19*%
X224740000Y-116609420D02*
X224740000Y-116890580D01*
X225760000Y-116609420D02*
X225760000Y-116890580D01*
%TO.C,R2*%
X195500000Y-89490000D02*
X195500000Y-92130000D01*
X195500000Y-112010000D02*
X195500000Y-109370000D01*
X192380000Y-92130000D02*
X198620000Y-92130000D01*
X198620000Y-109370000D01*
X192380000Y-109370000D01*
X192380000Y-92130000D01*
%TO.C,R18*%
X158980000Y-140230000D02*
X158980000Y-141010000D01*
X158980000Y-145270000D02*
X158980000Y-144490000D01*
X180520000Y-140230000D02*
X158980000Y-140230000D01*
X180520000Y-141010000D02*
X180520000Y-140230000D01*
X180520000Y-144490000D02*
X180520000Y-145270000D01*
X180520000Y-145270000D02*
X158980000Y-145270000D01*
X161460000Y-141750000D02*
X178040000Y-141750000D01*
X178040000Y-143750000D01*
X161460000Y-143750000D01*
X161460000Y-141750000D01*
G36*
X161460000Y-141750000D02*
G01*
X178040000Y-141750000D01*
X178040000Y-143750000D01*
X161460000Y-143750000D01*
X161460000Y-141750000D01*
G37*
%TO.C,R10*%
X171000000Y-89540000D02*
X171000000Y-92180000D01*
X171000000Y-112060000D02*
X171000000Y-109420000D01*
X167880000Y-92180000D02*
X174120000Y-92180000D01*
X174120000Y-109420000D01*
X167880000Y-109420000D01*
X167880000Y-92180000D01*
%TO.C,D2*%
X172610000Y-117750000D02*
X168600000Y-117750000D01*
X172610000Y-119750000D02*
X168600000Y-119750000D01*
X172610000Y-119750000D02*
X172610000Y-117750000D01*
%TO.C,Q4*%
X168990000Y-120940000D02*
X170510000Y-120940000D01*
X168990000Y-120990000D02*
X168990000Y-120940000D01*
X168990000Y-122890000D02*
X168990000Y-122110000D01*
X168990000Y-124060000D02*
X168990000Y-124010000D01*
X170510000Y-120940000D02*
X170510000Y-121940000D01*
X170510000Y-123060000D02*
X170510000Y-124060000D01*
X170510000Y-124060000D02*
X168990000Y-124060000D01*
X168450000Y-122120000D02*
X168690000Y-122450000D01*
X168210000Y-122450000D01*
X168450000Y-122120000D01*
G36*
X168690000Y-122450000D02*
G01*
X168210000Y-122450000D01*
X168450000Y-122120000D01*
X168690000Y-122450000D01*
G37*
%TO.C,C10*%
X146665580Y-109990000D02*
X146384420Y-109990000D01*
X146665580Y-111010000D02*
X146384420Y-111010000D01*
%TO.C,R14*%
X188250000Y-89490000D02*
X188250000Y-92130000D01*
X188250000Y-112010000D02*
X188250000Y-109370000D01*
X185130000Y-92130000D02*
X191370000Y-92130000D01*
X191370000Y-109370000D01*
X185130000Y-109370000D01*
X185130000Y-92130000D01*
%TO.C,C1*%
X222990000Y-111915580D02*
X222990000Y-111634420D01*
X224010000Y-111915580D02*
X224010000Y-111634420D01*
%TO.C,R19*%
X165977500Y-122187742D02*
X165977500Y-122662258D01*
X167022500Y-122187742D02*
X167022500Y-122662258D01*
%TO.C,C17*%
X235490580Y-107890000D02*
X235209420Y-107890000D01*
X235490580Y-108910000D02*
X235209420Y-108910000D01*
%TO.C,C15*%
X169084420Y-149990000D02*
X169365580Y-149990000D01*
X169084420Y-151010000D02*
X169365580Y-151010000D01*
%TO.C,U3*%
X166202500Y-126690000D02*
X168022500Y-126690000D01*
X166202500Y-126740000D02*
X166202500Y-126690000D01*
X166202500Y-128640000D02*
X166202500Y-127860000D01*
X166202500Y-129810000D02*
X166202500Y-129760000D01*
X168022500Y-126690000D02*
X168022500Y-126740000D01*
X168022500Y-129760000D02*
X168022500Y-129810000D01*
X168022500Y-129810000D02*
X166202500Y-129810000D01*
X168562500Y-129760000D02*
X168802500Y-130090000D01*
X168322500Y-130090000D01*
X168562500Y-129760000D01*
G36*
X168802500Y-130090000D02*
G01*
X168322500Y-130090000D01*
X168562500Y-129760000D01*
X168802500Y-130090000D01*
G37*
%TO.C,Q1*%
X164740000Y-80060000D02*
X165840000Y-80060000D01*
X164740000Y-85310000D02*
X164740000Y-80060000D01*
X168860000Y-80060000D02*
X171290000Y-80060000D01*
X170995000Y-80060000D02*
X170995000Y-80280000D01*
X174310000Y-80060000D02*
X176740000Y-80060000D01*
X174605000Y-80060000D02*
X174605000Y-80280000D01*
X179760000Y-80060000D02*
X180860000Y-80060000D01*
X180860000Y-80060000D02*
X180860000Y-85310000D01*
X180860000Y-85310000D02*
X164740000Y-85310000D01*
%TO.C,C13*%
X151109420Y-110740000D02*
X151390580Y-110740000D01*
X151109420Y-111760000D02*
X151390580Y-111760000D01*
%TO.C,C4*%
X232770000Y-108000000D02*
G75*
G02*
X226230000Y-108000000I-3270000J0D01*
G01*
X226230000Y-108000000D02*
G75*
G02*
X232770000Y-108000000I3270000J0D01*
G01*
%TO.C,R6*%
X165727500Y-88012742D02*
X165727500Y-88487258D01*
X166772500Y-88012742D02*
X166772500Y-88487258D01*
%TO.C,R3*%
X213000000Y-89440000D02*
X213000000Y-92080000D01*
X213000000Y-111960000D02*
X213000000Y-109320000D01*
X209880000Y-92080000D02*
X216120000Y-92080000D01*
X216120000Y-109320000D01*
X209880000Y-109320000D01*
X209880000Y-92080000D01*
%TO.C,C21*%
X233240000Y-119584420D02*
X233240000Y-119865580D01*
X234260000Y-119584420D02*
X234260000Y-119865580D01*
%TO.C,C18*%
X222990000Y-116584420D02*
X222990000Y-116865580D01*
X224010000Y-116584420D02*
X224010000Y-116865580D01*
%TO.C,C9*%
X157490000Y-96915580D02*
X157490000Y-96634420D01*
X158510000Y-96915580D02*
X158510000Y-96634420D01*
%TO.C,C5*%
X233240000Y-112390580D02*
X233240000Y-112109420D01*
X234260000Y-112390580D02*
X234260000Y-112109420D01*
%TO.C,C11*%
X154240000Y-96890580D02*
X154240000Y-96609420D01*
X155260000Y-96890580D02*
X155260000Y-96609420D01*
%TO.C,R17*%
X158980000Y-133730000D02*
X158980000Y-134510000D01*
X158980000Y-138770000D02*
X158980000Y-137990000D01*
X180520000Y-133730000D02*
X158980000Y-133730000D01*
X180520000Y-134510000D02*
X180520000Y-133730000D01*
X180520000Y-137990000D02*
X180520000Y-138770000D01*
X180520000Y-138770000D02*
X158980000Y-138770000D01*
X161460000Y-135250000D02*
X178040000Y-135250000D01*
X178040000Y-137250000D01*
X161460000Y-137250000D01*
X161460000Y-135250000D01*
G36*
X161460000Y-135250000D02*
G01*
X178040000Y-135250000D01*
X178040000Y-137250000D01*
X161460000Y-137250000D01*
X161460000Y-135250000D01*
G37*
%TO.C,C8*%
X147165580Y-96740000D02*
X146884420Y-96740000D01*
X147165580Y-97760000D02*
X146884420Y-97760000D01*
%TO.C,K1*%
X172822500Y-131527500D02*
X172822500Y-129337500D01*
X173062500Y-118587500D02*
X173062500Y-131287500D01*
X173062500Y-131287500D02*
X202062500Y-131287500D01*
X174862500Y-124587500D02*
X174862500Y-125287500D01*
X174862500Y-125287500D02*
X176062500Y-125287500D01*
X175162500Y-131527500D02*
X172822500Y-131527500D01*
X175662500Y-125287500D02*
X175262500Y-124587500D01*
X176062500Y-124587500D02*
X174862500Y-124587500D01*
X176062500Y-125287500D02*
X176062500Y-124587500D01*
X202062500Y-118587500D02*
X173062500Y-118587500D01*
X202062500Y-131287500D02*
X202062500Y-118587500D01*
%TO.C,R11*%
X149227500Y-92187742D02*
X149227500Y-92662258D01*
X150272500Y-92187742D02*
X150272500Y-92662258D01*
%TO.C,C7*%
X189630000Y-140630000D02*
X200870000Y-140630000D01*
X189630000Y-142176000D02*
X189630000Y-140630000D01*
X189630000Y-145870000D02*
X189630000Y-144324000D01*
X200870000Y-140630000D02*
X200870000Y-142176000D01*
X200870000Y-144324000D02*
X200870000Y-145870000D01*
X200870000Y-145870000D02*
X189630000Y-145870000D01*
%TO.C,C3*%
X152490000Y-96915580D02*
X152490000Y-96634420D01*
X153510000Y-96915580D02*
X153510000Y-96634420D01*
%TO.C,C12*%
X150740000Y-96890580D02*
X150740000Y-96609420D01*
X151760000Y-96890580D02*
X151760000Y-96609420D01*
%TO.C,FB2*%
X228049721Y-115240000D02*
X228375279Y-115240000D01*
X228049721Y-116260000D02*
X228375279Y-116260000D01*
%TO.C,U1*%
X143970000Y-101410000D02*
X143970000Y-106710000D01*
X143970000Y-106710000D02*
X161870000Y-106710000D01*
X161870000Y-101410000D02*
X143970000Y-101410000D01*
X161870000Y-103060000D02*
X161870000Y-101410000D01*
X161870000Y-106710000D02*
X161870000Y-105060000D01*
X161870000Y-105060000D02*
G75*
G02*
X161870000Y-103060000I0J1000000D01*
G01*
%TO.C,R4*%
X200477500Y-87937742D02*
X200477500Y-88412258D01*
X201522500Y-87937742D02*
X201522500Y-88412258D01*
%TO.C,R1*%
X178250000Y-89490000D02*
X178250000Y-92130000D01*
X178250000Y-112010000D02*
X178250000Y-109370000D01*
X175130000Y-92130000D02*
X181370000Y-92130000D01*
X181370000Y-109370000D01*
X175130000Y-109370000D01*
X175130000Y-92130000D01*
%TO.C,R15*%
X205750000Y-89490000D02*
X205750000Y-92130000D01*
X205750000Y-112010000D02*
X205750000Y-109370000D01*
X202630000Y-92130000D02*
X208870000Y-92130000D01*
X208870000Y-109370000D01*
X202630000Y-109370000D01*
X202630000Y-92130000D01*
%TO.C,J1*%
X174780000Y-148512500D02*
X200850000Y-148512500D01*
X174780000Y-159752500D02*
X174780000Y-148512500D01*
X201450000Y-148512500D02*
X205020000Y-148512500D01*
X205020000Y-148512500D02*
X205020000Y-159752500D01*
X205020000Y-149232500D02*
X174780000Y-149232500D01*
X205020000Y-151132500D02*
X174780000Y-151132500D01*
X205020000Y-157732500D02*
X174780000Y-157732500D01*
X205020000Y-159752500D02*
X174780000Y-159752500D01*
X201150000Y-148512500D02*
X200710000Y-147902500D01*
X201590000Y-147902500D01*
X201150000Y-148512500D01*
G36*
X201150000Y-148512500D02*
G01*
X200710000Y-147902500D01*
X201590000Y-147902500D01*
X201150000Y-148512500D01*
G37*
%TO.C,R8*%
X145727500Y-94312258D02*
X145727500Y-93837742D01*
X146772500Y-94312258D02*
X146772500Y-93837742D01*
%TO.C,C2*%
X224740000Y-111915580D02*
X224740000Y-111634420D01*
X225760000Y-111915580D02*
X225760000Y-111634420D01*
%TO.C,C20*%
X232520000Y-120500000D02*
G75*
G02*
X225980000Y-120500000I-3270000J0D01*
G01*
X225980000Y-120500000D02*
G75*
G02*
X232520000Y-120500000I3270000J0D01*
G01*
%TO.C,FB1*%
X228049721Y-111990000D02*
X228375279Y-111990000D01*
X228049721Y-113010000D02*
X228375279Y-113010000D01*
%TO.C,U4*%
X168340000Y-146190000D02*
X170160000Y-146190000D01*
X168340000Y-146240000D02*
X168340000Y-146190000D01*
X168340000Y-148140000D02*
X168340000Y-147360000D01*
X168340000Y-149310000D02*
X168340000Y-149260000D01*
X170160000Y-146190000D02*
X170160000Y-146240000D01*
X170160000Y-149260000D02*
X170160000Y-149310000D01*
X170160000Y-149310000D02*
X168340000Y-149310000D01*
X170700000Y-149260000D02*
X170940000Y-149590000D01*
X170460000Y-149590000D01*
X170700000Y-149260000D01*
G36*
X170940000Y-149590000D02*
G01*
X170460000Y-149590000D01*
X170700000Y-149260000D01*
X170940000Y-149590000D01*
G37*
%TO.C,R13*%
X149977500Y-114237258D02*
X149977500Y-113762742D01*
X151022500Y-114237258D02*
X151022500Y-113762742D01*
%TO.C,R7*%
X159977500Y-95237258D02*
X159977500Y-94762742D01*
X161022500Y-95237258D02*
X161022500Y-94762742D01*
%TD*%
M02*
