M48
; DRILL file KiCad 10.0.3 date 2026-09-11T18:41:06
; FORMAT={-:-/ absolute / metric / decimal}
; #@! TF.CreationDate,2026-09-11T18:41:06+02:00
; #@! TF.GenerationSoftware,Kicad,Pcbnew,10.0.3
; #@! TF.FileFunction,Plated,1,4,PTH
FMAT,2
METRIC
; #@! TA.AperFunction,Plated,PTH,ViaDrill
T1C0.300
; #@! TA.AperFunction,Plated,PTH,ComponentDrill
T2C0.300
; #@! TA.AperFunction,Plated,PTH,ViaDrill
T3C0.400
; #@! TA.AperFunction,Plated,PTH,ViaDrill
T4C0.500
; #@! TA.AperFunction,Plated,PTH,ViaDrill
T5C0.600
; #@! TA.AperFunction,Plated,PTH,ComponentDrill
T6C0.600
; #@! TA.AperFunction,Plated,PTH,ComponentDrill
T7C0.800
; #@! TA.AperFunction,Plated,PTH,ComponentDrill
T8C1.000
; #@! TA.AperFunction,Plated,PTH,ComponentDrill
T9C1.020
; #@! TA.AperFunction,Plated,PTH,ComponentDrill
T10C1.300
%
G90
G05
T1
X106.75Y-123.25
X112.05Y-127.4
X114.75Y-79.0
X115.27Y-80.134
X115.75Y-81.25
X117.475Y-85.075
X118.35Y-76.45
X118.85Y-81.15
X119.4Y-90.85
X120.0Y-82.0
X121.05Y-76.9
X121.1Y-88.7
X122.2Y-92.6
X122.6Y-81.55
X123.6Y-79.0
X124.4Y-87.8
X124.75Y-80.0
X125.2Y-83.95
X125.55Y-91.55
X125.6Y-76.4
X125.95Y-87.7
X126.05Y-61.45
X126.45Y-92.35
X126.8Y-82.8
X126.95Y-91.5
X127.1Y-88.35
X127.45Y-80.2
X128.45Y-73.25
X128.75Y-80.1
X128.9Y-86.25
X129.113Y-88.402
X129.5Y-80.05
X129.5Y-95.3
X129.65Y-82.95
X130.8Y-80.65
X131.186Y-89.97
X131.65Y-58.5
X132.0Y-106.5
X132.15Y-76.25
X132.2Y-68.85
X133.0Y-74.75
X133.75Y-105.75
X134.0Y-92.5
X134.4Y-58.55
X135.1Y-97.0
X135.5Y-105.0
X136.45Y-132.0
X137.85Y-79.9
X139.15Y-80.2
X140.7Y-80.8
X144.0Y-74.75
X144.15Y-68.15
X144.25Y-66.75
X145.75Y-64.75
X147.5Y-123.8
X148.95Y-70.4
X149.45Y-71.1
X151.15Y-61.35
X151.155Y-65.155
X152.1Y-76.65
X155.55Y-74.1
X155.879Y-68.342
X156.9Y-88.0
X158.0Y-80.15
X159.1Y-85.75
X160.05Y-75.0
X160.3Y-79.55
X160.35Y-78.5
X160.4Y-77.55
X164.0Y-65.65
X164.65Y-69.55
X164.75Y-72.65
X166.0Y-59.0
X166.0Y-63.0
X167.4Y-76.4
X186.75Y-113.35
X188.295Y-118.0
T2
X164.95Y-133.75
X164.95Y-135.05
X164.95Y-136.35
X164.95Y-137.65
X166.25Y-133.75
X166.25Y-135.05
X166.25Y-136.35
X166.25Y-137.65
T3
X101.25Y-137.25
X101.4Y-118.8
X106.0Y-124.0
X106.0Y-131.0
X107.5Y-133.5
X108.2Y-120.6
X109.525Y-127.413
X114.5Y-128.0
X116.5Y-129.75
X118.5Y-121.5
X119.5Y-121.5
X120.5Y-121.5
X121.5Y-121.5
X122.5Y-121.5
X123.5Y-121.5
X125.5Y-129.5
X127.509Y-127.693
X130.25Y-127.75
X132.25Y-129.5
X134.25Y-121.5
X135.25Y-121.5
X136.25Y-121.5
X137.25Y-121.5
X138.25Y-121.5
X139.0Y-85.6
X139.25Y-121.5
X141.25Y-129.5
X143.25Y-128.0
X144.4Y-101.6
X145.4Y-99.6
X149.0Y-135.25
X150.25Y-106.5
X151.6Y-95.7
X152.9Y-110.05
X156.3Y-103.1
X158.35Y-132.45
X162.1Y-139.95
X165.6Y-139.45
X168.35Y-141.95
X169.85Y-136.45
X171.85Y-139.95
T4
X114.35Y-142.4
X148.75Y-98.75
X148.75Y-99.75
X148.75Y-100.75
X148.75Y-101.75
T5
X149.0Y-128.5
X150.0Y-128.5
X154.85Y-134.6
X157.0Y-122.6
T7
X117.25Y-97.818
X117.25Y-100.318
X129.25Y-137.5
X129.25Y-140.0
X155.5Y-57.25
X158.0Y-57.25
X166.818Y-103.25
X168.0Y-88.25
X168.0Y-90.79
X168.0Y-93.33
X168.19Y-57.075
X169.318Y-103.25
X170.69Y-57.075
X176.245Y-88.21
X176.245Y-90.75
X176.245Y-93.29
X178.0Y-132.068
X178.0Y-134.568
X178.545Y-110.36
X178.545Y-112.9
X178.545Y-115.44
X184.5Y-88.21
X184.5Y-90.75
X184.5Y-93.29
X185.25Y-132.068
X185.25Y-134.568
X192.75Y-88.25
X192.75Y-90.79
X192.75Y-93.33
T8
X105.75Y-66.09
X105.75Y-68.63
X105.75Y-71.17
X105.75Y-73.71
X105.75Y-76.25
X105.75Y-81.17
X105.75Y-83.71
X105.75Y-86.25
X105.75Y-88.79
X105.75Y-91.33
X108.18Y-55.75
X110.72Y-55.75
X113.26Y-55.75
X115.8Y-55.75
X118.34Y-55.75
X120.88Y-55.75
X123.42Y-55.75
X124.21Y-66.0
X125.21Y-102.25
X125.96Y-55.75
X126.75Y-66.0
X127.75Y-102.25
X128.5Y-55.75
X129.29Y-66.0
X130.29Y-102.25
X131.04Y-55.75
X132.83Y-102.25
X133.58Y-55.75
X134.72Y-71.2
X136.12Y-55.75
X137.26Y-71.2
X138.66Y-55.75
X139.8Y-71.2
X141.2Y-55.75
X142.34Y-71.2
X175.25Y-55.92
X175.25Y-58.46
X175.25Y-61.0
X175.25Y-63.54
X175.25Y-66.08
X175.25Y-68.62
X175.25Y-71.16
X175.25Y-73.7
X175.25Y-76.24
X175.25Y-78.78
X182.0Y-56.0
X182.0Y-58.54
X182.0Y-61.08
X182.0Y-63.62
X182.0Y-66.16
X182.0Y-68.7
X182.0Y-71.24
X182.0Y-73.78
X182.0Y-76.32
X182.0Y-78.86
X188.75Y-56.0
X188.75Y-58.54
X188.75Y-61.08
X188.75Y-63.62
X188.75Y-66.16
X188.75Y-68.7
X188.75Y-71.24
X188.75Y-73.78
X188.75Y-76.32
X188.75Y-78.86
X195.0Y-56.0
X195.0Y-58.54
X195.0Y-61.08
X195.0Y-63.62
X195.0Y-66.16
X195.0Y-68.7
X195.0Y-71.24
X195.0Y-73.78
X195.0Y-76.32
X195.0Y-78.86
T9
X148.92Y-148.16
X151.46Y-148.16
X154.0Y-148.16
X156.54Y-148.16
X161.92Y-148.0
X164.46Y-148.0
X167.0Y-148.0
X169.54Y-148.0
X175.0Y-148.0
X177.54Y-148.0
X180.08Y-148.0
X182.62Y-148.0
X188.0Y-148.0
X190.54Y-148.0
X193.08Y-148.0
X195.62Y-148.0
T10
X113.75Y-148.218
X118.75Y-148.218
X193.718Y-108.5
X193.718Y-113.5
T6
X100.15Y-123.25G85X99.35Y-123.25
G05
X100.15Y-131.89G85X99.35Y-131.89
G05
X104.5Y-123.25G85X103.4Y-123.25
G05
X104.5Y-131.89G85X103.4Y-131.89
G05
M30
