%TF.GenerationSoftware,KiCad,Pcbnew,10.0.3*%
%TF.CreationDate,2026-09-11T18:41:02+02:00*%
%TF.ProjectId,ControlBoard,436f6e74-726f-46c4-926f-6172642e6b69,rev?*%
%TF.SameCoordinates,Original*%
%TF.FileFunction,Copper,L4,Bot*%
%TF.FilePolarity,Positive*%
%FSLAX46Y46*%
G04 Gerber Fmt 4.6, Leading zero omitted, Abs format (unit mm)*
G04 Created by KiCad (PCBNEW 10.0.3) date 2026-09-11 18:41:02*
%MOMM*%
%LPD*%
G01*
G04 APERTURE LIST*
G04 Aperture macros list*
%AMRoundRect*
0 Rectangle with rounded corners*
0 $1 Rounding radius*
0 $2 $3 $4 $5 $6 $7 $8 $9 X,Y pos of 4 corners*
0 Add a 4 corners polygon primitive as box body*
4,1,4,$2,$3,$4,$5,$6,$7,$8,$9,$2,$3,0*
0 Add four circle primitives for the rounded corners*
1,1,$1+$1,$2,$3*
1,1,$1+$1,$4,$5*
1,1,$1+$1,$6,$7*
1,1,$1+$1,$8,$9*
0 Add four rect primitives between the rounded corners*
20,1,$1+$1,$2,$3,$4,$5,0*
20,1,$1+$1,$4,$5,$6,$7,0*
20,1,$1+$1,$6,$7,$8,$9,0*
20,1,$1+$1,$8,$9,$2,$3,0*%
G04 Aperture macros list end*
%TA.AperFunction,ComponentPad*%
%ADD10R,1.730000X2.030000*%
%TD*%
%TA.AperFunction,ComponentPad*%
%ADD11O,1.730000X2.030000*%
%TD*%
%TA.AperFunction,ComponentPad*%
%ADD12C,1.440000*%
%TD*%
%TA.AperFunction,ComponentPad*%
%ADD13R,1.700000X1.700000*%
%TD*%
%TA.AperFunction,ComponentPad*%
%ADD14C,1.700000*%
%TD*%
%TA.AperFunction,ComponentPad*%
%ADD15RoundRect,0.250000X-0.550000X0.550000X-0.550000X-0.550000X0.550000X-0.550000X0.550000X0.550000X0*%
%TD*%
%TA.AperFunction,ComponentPad*%
%ADD16C,1.600000*%
%TD*%
%TA.AperFunction,ComponentPad*%
%ADD17RoundRect,0.250000X-0.550000X-0.550000X0.550000X-0.550000X0.550000X0.550000X-0.550000X0.550000X0*%
%TD*%
%TA.AperFunction,ComponentPad*%
%ADD18C,0.600000*%
%TD*%
%TA.AperFunction,SMDPad,CuDef*%
%ADD19R,2.950000X4.900000*%
%TD*%
%TA.AperFunction,ComponentPad*%
%ADD20O,1.800000X1.000000*%
%TD*%
%TA.AperFunction,ComponentPad*%
%ADD21O,2.100000X1.000000*%
%TD*%
%TA.AperFunction,ComponentPad*%
%ADD22RoundRect,0.250001X1.149999X-1.149999X1.149999X1.149999X-1.149999X1.149999X-1.149999X-1.149999X0*%
%TD*%
%TA.AperFunction,ComponentPad*%
%ADD23C,2.800000*%
%TD*%
%TA.AperFunction,ComponentPad*%
%ADD24RoundRect,0.250000X0.550000X0.550000X-0.550000X0.550000X-0.550000X-0.550000X0.550000X-0.550000X0*%
%TD*%
%TA.AperFunction,ComponentPad*%
%ADD25RoundRect,0.250001X-1.149999X-1.149999X1.149999X-1.149999X1.149999X1.149999X-1.149999X1.149999X0*%
%TD*%
%TA.AperFunction,ViaPad*%
%ADD26C,0.500000*%
%TD*%
%TA.AperFunction,ViaPad*%
%ADD27C,0.700000*%
%TD*%
%TA.AperFunction,ViaPad*%
%ADD28C,1.000000*%
%TD*%
%TA.AperFunction,ViaPad*%
%ADD29C,0.800000*%
%TD*%
%TA.AperFunction,Conductor*%
%ADD30C,0.250000*%
%TD*%
%TA.AperFunction,Conductor*%
%ADD31C,0.300000*%
%TD*%
G04 APERTURE END LIST*
D10*
%TO.P,M1,1,-_1*%
%TO.N,Masa*%
X188000000Y-148000000D03*
D11*
%TO.P,M1,2,+_2*%
%TO.N,+12V*%
X190540000Y-148000000D03*
%TO.P,M1,3,Tacho_3*%
%TO.N,unconnected-(M1-Tacho-Pad3)*%
X193080000Y-148000000D03*
%TO.P,M1,4,PWM_4*%
%TO.N,/Fan0*%
X195620000Y-148000000D03*
%TD*%
D12*
%TO.P,RV3,1,1_1*%
%TO.N,/Set2*%
X176245000Y-88210000D03*
%TO.P,RV3,2,2_2*%
X176245000Y-90750000D03*
%TO.P,RV3,3,3_3*%
%TO.N,Masa*%
X176245000Y-93290000D03*
%TD*%
D13*
%TO.P,J4,1,Pin_1_1*%
%TO.N,+24V*%
X195000000Y-56000000D03*
D14*
%TO.P,J4,2,Pin_2_2*%
%TO.N,+15V*%
X195000000Y-58540000D03*
%TO.P,J4,3,Pin_3_3*%
%TO.N,+5V*%
X195000000Y-61080000D03*
%TO.P,J4,4,Pin_4_4*%
%TO.N,Masa*%
X195000000Y-63620000D03*
%TO.P,J4,5,Pin_5_5*%
%TO.N,/Det0*%
X195000000Y-66160000D03*
%TO.P,J4,6,Pin_6_6*%
%TO.N,Net-(J4-Pin_6)*%
X195000000Y-68700000D03*
%TO.P,J4,7,Pin_7_7*%
%TO.N,Net-(J4-Pin_7)*%
X195000000Y-71240000D03*
%TO.P,J4,8,Pin_8_8*%
%TO.N,R0*%
X195000000Y-73780000D03*
%TO.P,J4,9,Pin_9_9*%
%TO.N,/Set0*%
X195000000Y-76320000D03*
%TO.P,J4,10,Pin_10_10*%
%TO.N,Masa*%
X195000000Y-78860000D03*
%TD*%
D13*
%TO.P,J7,1,Pin_1_1*%
%TO.N,+24V*%
X175250000Y-55920000D03*
D14*
%TO.P,J7,2,Pin_2_2*%
%TO.N,+15V*%
X175250000Y-58460000D03*
%TO.P,J7,3,Pin_3_3*%
%TO.N,+5V*%
X175250000Y-61000000D03*
%TO.P,J7,4,Pin_4_4*%
%TO.N,Masa*%
X175250000Y-63540000D03*
%TO.P,J7,5,Pin_5_5*%
%TO.N,/Det3*%
X175250000Y-66080000D03*
%TO.P,J7,6,Pin_6_6*%
%TO.N,Net-(J7-Pin_6)*%
X175250000Y-68620000D03*
%TO.P,J7,7,Pin_7_7*%
%TO.N,Net-(J7-Pin_7)*%
X175250000Y-71160000D03*
%TO.P,J7,8,Pin_8_8*%
%TO.N,R3*%
X175250000Y-73700000D03*
%TO.P,J7,9,Pin_9_9*%
%TO.N,/Set3*%
X175250000Y-76240000D03*
%TO.P,J7,10,Pin_10_10*%
%TO.N,Masa*%
X175250000Y-78780000D03*
%TD*%
D13*
%TO.P,J2,1,Pin_1_1*%
%TO.N,Masa*%
X105750000Y-91330000D03*
D14*
%TO.P,J2,2,Pin_2_2*%
%TO.N,Net-(J2-Pin_2)*%
X105750000Y-88790000D03*
%TO.P,J2,3,Pin_3_3*%
%TO.N,Net-(J2-Pin_3)*%
X105750000Y-86250000D03*
%TO.P,J2,4,Pin_4_4*%
%TO.N,Net-(J2-Pin_4)*%
X105750000Y-83710000D03*
%TO.P,J2,5,Pin_5_5*%
%TO.N,+3V3*%
X105750000Y-81170000D03*
%TD*%
D15*
%TO.P,C1,1*%
%TO.N,+24V*%
X129250000Y-137500000D03*
D16*
%TO.P,C1,2*%
%TO.N,Masa*%
X129250000Y-140000000D03*
%TD*%
D10*
%TO.P,M4,1,-_1*%
%TO.N,Masa*%
X148920000Y-148160000D03*
D11*
%TO.P,M4,2,+_2*%
%TO.N,+12V*%
X151460000Y-148160000D03*
%TO.P,M4,3,Tacho_3*%
%TO.N,unconnected-(M4-Tacho-Pad3)*%
X154000000Y-148160000D03*
%TO.P,M4,4,PWM_4*%
%TO.N,/Fan3*%
X156540000Y-148160000D03*
%TD*%
D17*
%TO.P,C7,1*%
%TO.N,+3V3*%
X155500000Y-57250000D03*
D16*
%TO.P,C7,2*%
%TO.N,Masa*%
X158000000Y-57250000D03*
%TD*%
D12*
%TO.P,RV1,1,1_1*%
%TO.N,/Set3*%
X168000000Y-88250000D03*
%TO.P,RV1,2,2_2*%
X168000000Y-90790000D03*
%TO.P,RV1,3,3_3*%
%TO.N,Masa*%
X168000000Y-93330000D03*
%TD*%
D10*
%TO.P,M2,1,-_1*%
%TO.N,Masa*%
X175000000Y-148000000D03*
D11*
%TO.P,M2,2,+_2*%
%TO.N,+12V*%
X177540000Y-148000000D03*
%TO.P,M2,3,Tacho_3*%
%TO.N,unconnected-(M2-Tacho-Pad3)*%
X180080000Y-148000000D03*
%TO.P,M2,4,PWM_4*%
%TO.N,/Fan1*%
X182620000Y-148000000D03*
%TD*%
D13*
%TO.P,J9,1,Pin_1_1*%
%TO.N,+3V3*%
X125210000Y-102250000D03*
D14*
%TO.P,J9,2,Pin_2_2*%
%TO.N,/SYS_JTMS_SWDIO*%
X127750000Y-102250000D03*
%TO.P,J9,3,Pin_3_3*%
%TO.N,/SYS_JTCK_SWCLK*%
X130290000Y-102250000D03*
%TO.P,J9,4,Pin_4_4*%
%TO.N,Masa*%
X132830000Y-102250000D03*
%TD*%
D13*
%TO.P,J8,1,Pin_1_1*%
%TO.N,+3V3*%
X108180000Y-55750000D03*
D14*
%TO.P,J8,2,Pin_2_2*%
%TO.N,Masa*%
X110720000Y-55750000D03*
%TO.P,J8,3,Pin_3_3*%
%TO.N,/CS*%
X113260000Y-55750000D03*
%TO.P,J8,4,Pin_4_4*%
%TO.N,/Reset*%
X115800000Y-55750000D03*
%TO.P,J8,5,Pin_5_5*%
%TO.N,/DC{slash}RS*%
X118340000Y-55750000D03*
%TO.P,J8,6,Pin_6_6*%
%TO.N,/MOSI*%
X120880000Y-55750000D03*
%TO.P,J8,7,Pin_7_7*%
%TO.N,/SCK*%
X123420000Y-55750000D03*
%TO.P,J8,8,Pin_8_8*%
%TO.N,/LED*%
X125960000Y-55750000D03*
%TO.P,J8,9,Pin_9_9*%
%TO.N,/MISO*%
X128500000Y-55750000D03*
%TO.P,J8,10,Pin_10_10*%
%TO.N,/SCK*%
X131040000Y-55750000D03*
%TO.P,J8,11,Pin_11_11*%
%TO.N,/T_CS*%
X133580000Y-55750000D03*
%TO.P,J8,12,Pin_12_12*%
%TO.N,/MOSI*%
X136120000Y-55750000D03*
%TO.P,J8,13,Pin_13_13*%
%TO.N,/MISO*%
X138660000Y-55750000D03*
%TO.P,J8,14,Pin_14_14*%
%TO.N,/T_IRQ*%
X141200000Y-55750000D03*
%TD*%
D18*
%TO.P,U6,9,GND_9*%
%TO.N,Masa*%
X164950000Y-133750000D03*
X164950000Y-135050000D03*
X164950000Y-136350000D03*
X164950000Y-137650000D03*
D19*
X165600000Y-135700000D03*
D18*
X166250000Y-133750000D03*
X166250000Y-135050000D03*
X166250000Y-136350000D03*
X166250000Y-137650000D03*
%TD*%
D20*
%TO.P,J12,*%
%TO.N,*%
X99750000Y-131890000D03*
D21*
%TO.P,J12,SH,SHIELD_SH*%
%TO.N,Net-(J12-SHIELD)*%
X103950000Y-123250000D03*
D20*
X99750000Y-123250000D03*
D21*
X103950000Y-131890000D03*
%TD*%
D13*
%TO.P,J6,1,Pin_1_1*%
%TO.N,+24V*%
X182000000Y-56000000D03*
D14*
%TO.P,J6,2,Pin_2_2*%
%TO.N,+15V*%
X182000000Y-58540000D03*
%TO.P,J6,3,Pin_3_3*%
%TO.N,+5V*%
X182000000Y-61080000D03*
%TO.P,J6,4,Pin_4_4*%
%TO.N,Masa*%
X182000000Y-63620000D03*
%TO.P,J6,5,Pin_5_5*%
%TO.N,/Det2*%
X182000000Y-66160000D03*
%TO.P,J6,6,Pin_6_6*%
%TO.N,Net-(J6-Pin_6)*%
X182000000Y-68700000D03*
%TO.P,J6,7,Pin_7_7*%
%TO.N,Net-(J6-Pin_7)*%
X182000000Y-71240000D03*
%TO.P,J6,8,Pin_8_8*%
%TO.N,R2*%
X182000000Y-73780000D03*
%TO.P,J6,9,Pin_9_9*%
%TO.N,/Set2*%
X182000000Y-76320000D03*
%TO.P,J6,10,Pin_10_10*%
%TO.N,Masa*%
X182000000Y-78860000D03*
%TD*%
D22*
%TO.P,J14,1,Pin_1_1*%
%TO.N,Masa*%
X193717500Y-113500000D03*
D23*
%TO.P,J14,2,Pin_2_2*%
%TO.N,VIN*%
X193717500Y-108500000D03*
%TD*%
D12*
%TO.P,RV2,1,1_1*%
%TO.N,Net-(R27-Pad2)*%
X178545000Y-110360000D03*
%TO.P,RV2,2,2_2*%
%TO.N,Net-(U2-AIN1)*%
X178545000Y-112900000D03*
%TO.P,RV2,3,3_3*%
X178545000Y-115440000D03*
%TD*%
D15*
%TO.P,C4,1*%
%TO.N,+3V3*%
X117250000Y-97817621D03*
D16*
%TO.P,C4,2*%
%TO.N,Masa*%
X117250000Y-100317621D03*
%TD*%
D13*
%TO.P,J10,1,Pin_1_1*%
%TO.N,Masa*%
X129290000Y-66000000D03*
D14*
%TO.P,J10,2,Pin_2_2*%
%TO.N,Net-(J10-Pin_2)*%
X126750000Y-66000000D03*
%TO.P,J10,3,Pin_3_3*%
%TO.N,+3V3*%
X124210000Y-66000000D03*
%TD*%
D13*
%TO.P,J1,1,Pin_1_1*%
%TO.N,Masa*%
X105750000Y-76250000D03*
D14*
%TO.P,J1,2,Pin_2_2*%
%TO.N,Net-(J1-Pin_2)*%
X105750000Y-73710000D03*
%TO.P,J1,3,Pin_3_3*%
%TO.N,Net-(J1-Pin_3)*%
X105750000Y-71170000D03*
%TO.P,J1,4,Pin_4_4*%
%TO.N,Net-(J1-Pin_4)*%
X105750000Y-68630000D03*
%TO.P,J1,5,Pin_5_5*%
%TO.N,+3V3*%
X105750000Y-66090000D03*
%TD*%
D24*
%TO.P,C9,1*%
%TO.N,+15V*%
X170689759Y-57075000D03*
D16*
%TO.P,C9,2*%
%TO.N,Masa*%
X168189759Y-57075000D03*
%TD*%
D12*
%TO.P,RV4,1,1_1*%
%TO.N,/Set1*%
X184500000Y-88210000D03*
%TO.P,RV4,2,2_2*%
X184500000Y-90750000D03*
%TO.P,RV4,3,3_3*%
%TO.N,Masa*%
X184500000Y-93290000D03*
%TD*%
D13*
%TO.P,J11,1,Pin_1_1*%
%TO.N,+3V3*%
X134720000Y-71200000D03*
D14*
%TO.P,J11,2,Pin_2_2*%
%TO.N,SDA*%
X137260000Y-71200000D03*
%TO.P,J11,3,Pin_3_3*%
%TO.N,SCL*%
X139800000Y-71200000D03*
%TO.P,J11,4,Pin_4_4*%
%TO.N,Masa*%
X142340000Y-71200000D03*
%TD*%
D25*
%TO.P,J13,1,Pin_1_1*%
%TO.N,Masa*%
X113750000Y-148217500D03*
D23*
%TO.P,J13,2,Pin_2_2*%
%TO.N,+24V*%
X118750000Y-148217500D03*
%TD*%
D10*
%TO.P,M3,1,-_1*%
%TO.N,Masa*%
X161920000Y-148000000D03*
D11*
%TO.P,M3,2,+_2*%
%TO.N,+12V*%
X164460000Y-148000000D03*
%TO.P,M3,3,Tacho_3*%
%TO.N,unconnected-(M3-Tacho-Pad3)*%
X167000000Y-148000000D03*
%TO.P,M3,4,PWM_4*%
%TO.N,/Fan2*%
X169540000Y-148000000D03*
%TD*%
D15*
%TO.P,C5,1*%
%TO.N,+12V*%
X185250000Y-132067621D03*
D16*
%TO.P,C5,2*%
%TO.N,Masa*%
X185250000Y-134567621D03*
%TD*%
D12*
%TO.P,RV5,1,1_1*%
%TO.N,/Set0*%
X192750000Y-88250000D03*
%TO.P,RV5,2,2_2*%
X192750000Y-90790000D03*
%TO.P,RV5,3,3_3*%
%TO.N,Masa*%
X192750000Y-93330000D03*
%TD*%
D15*
%TO.P,C8,1*%
%TO.N,+12V*%
X178000000Y-132067621D03*
D16*
%TO.P,C8,2*%
%TO.N,Masa*%
X178000000Y-134567621D03*
%TD*%
D17*
%TO.P,C3,1*%
%TO.N,+5V*%
X166817621Y-103250000D03*
D16*
%TO.P,C3,2*%
%TO.N,Masa*%
X169317621Y-103250000D03*
%TD*%
D13*
%TO.P,J5,1,Pin_1_1*%
%TO.N,+24V*%
X188750000Y-56000000D03*
D14*
%TO.P,J5,2,Pin_2_2*%
%TO.N,+15V*%
X188750000Y-58540000D03*
%TO.P,J5,3,Pin_3_3*%
%TO.N,+5V*%
X188750000Y-61080000D03*
%TO.P,J5,4,Pin_4_4*%
%TO.N,Masa*%
X188750000Y-63620000D03*
%TO.P,J5,5,Pin_5_5*%
%TO.N,/Det1*%
X188750000Y-66160000D03*
%TO.P,J5,6,Pin_6_6*%
%TO.N,Net-(J5-Pin_6)*%
X188750000Y-68700000D03*
%TO.P,J5,7,Pin_7_7*%
%TO.N,Net-(J5-Pin_7)*%
X188750000Y-71240000D03*
%TO.P,J5,8,Pin_8_8*%
%TO.N,R1*%
X188750000Y-73780000D03*
%TO.P,J5,9,Pin_9_9*%
%TO.N,/Set1*%
X188750000Y-76320000D03*
%TO.P,J5,10,Pin_10_10*%
%TO.N,Masa*%
X188750000Y-78860000D03*
%TD*%
D26*
%TO.N,Masa*%
X151150000Y-61350000D03*
D27*
X143250000Y-128000000D03*
D26*
X122200000Y-92600000D03*
X155878808Y-68341583D03*
D27*
X149000000Y-135250000D03*
X108200000Y-120600000D03*
X150250000Y-106500000D03*
X171850000Y-139950000D03*
X136250000Y-121500000D03*
X125500000Y-129500000D03*
D26*
X148950000Y-70400000D03*
D28*
X157000000Y-122600000D03*
D26*
X188295076Y-118000000D03*
D27*
X168350000Y-141950000D03*
X138250000Y-121500000D03*
X114500000Y-128000000D03*
X151600000Y-95700000D03*
D28*
X154850000Y-134600000D03*
D27*
X152900000Y-110050000D03*
D26*
X186750000Y-113350000D03*
D27*
X106000000Y-124000000D03*
X139250000Y-121500000D03*
X120500000Y-121500000D03*
D29*
X114350000Y-142400000D03*
D26*
X155550000Y-74100000D03*
X156900000Y-88000000D03*
X134000000Y-92500000D03*
D27*
X121500000Y-121500000D03*
X123500000Y-121500000D03*
X122500000Y-121500000D03*
X134250000Y-121500000D03*
D26*
X124750000Y-80000000D03*
D27*
X137250000Y-121500000D03*
D26*
X128450000Y-73250000D03*
D27*
X127509420Y-127692567D03*
X130250000Y-127750000D03*
X101400000Y-118800000D03*
D26*
X145750000Y-64750000D03*
D27*
X139000000Y-85600000D03*
X116500000Y-129750000D03*
D26*
X164000000Y-65650000D03*
D27*
X101250000Y-137250000D03*
X119500000Y-121500000D03*
X141250000Y-129500000D03*
X158350000Y-132450000D03*
X156300000Y-103100000D03*
X118500000Y-121500000D03*
D26*
X144250000Y-66750000D03*
D27*
X135250000Y-121500000D03*
D26*
X123600000Y-79000000D03*
X125600000Y-76400000D03*
D27*
X106000000Y-131000000D03*
D26*
X129112828Y-88401763D03*
D27*
X107500000Y-133500000D03*
D26*
X124400000Y-87800000D03*
X151155000Y-65155000D03*
D27*
X145400000Y-99600000D03*
X109525000Y-127412897D03*
D26*
X158000000Y-80150000D03*
X166000000Y-63000000D03*
D27*
X132250000Y-129500000D03*
X144400000Y-101600000D03*
D26*
X126800000Y-82800000D03*
%TO.N,SDA*%
X128900000Y-86250000D03*
%TO.N,SCL*%
X125950000Y-87700000D03*
D29*
%TO.N,+3V3*%
X148750000Y-98750000D03*
D26*
X119400000Y-90850000D03*
X122600000Y-81550000D03*
X132150000Y-76250000D03*
X121100000Y-88700000D03*
X144150000Y-68150000D03*
D29*
X148750000Y-100750000D03*
X148750000Y-99750000D03*
X148750000Y-101750000D03*
D26*
X144000000Y-74750000D03*
X126050000Y-61450000D03*
X131186169Y-89969529D03*
X166000000Y-59000000D03*
X133000000Y-74750000D03*
D28*
%TO.N,+12V*%
X149000000Y-128500000D03*
D27*
X165600000Y-139450000D03*
D28*
X150000000Y-128500000D03*
D26*
%TO.N,/Fan0*%
X129500000Y-95300000D03*
D27*
%TO.N,Net-(U6-VCC)*%
X162100000Y-139950000D03*
X169850000Y-136450000D03*
D26*
%TO.N,Net-(U2-AIN1)*%
X159100000Y-85750000D03*
%TO.N,+5V*%
X152100000Y-76650000D03*
X167400000Y-76400000D03*
X149450000Y-71100000D03*
X164650000Y-69550000D03*
X147500000Y-123800000D03*
%TO.N,Net-(J6-Pin_7)*%
X160050000Y-75000000D03*
%TO.N,S2*%
X160300000Y-79550000D03*
X140700000Y-80800000D03*
%TO.N,S1*%
X137850000Y-79900000D03*
X160350000Y-78500000D03*
%TO.N,S0*%
X139150000Y-80200000D03*
X160400000Y-77550000D03*
%TO.N,Net-(J4-Pin_7)*%
X164750000Y-72650000D03*
%TO.N,+15V*%
X136450000Y-132000000D03*
%TO.N,R0*%
X125550000Y-91550000D03*
%TO.N,R3*%
X127100000Y-88350000D03*
%TO.N,Net-(U7-PB12)*%
X121050000Y-76900000D03*
X118850000Y-81150000D03*
%TO.N,/Fan3*%
X120000000Y-82000000D03*
%TO.N,/Fan1*%
X135100000Y-97000000D03*
%TO.N,/DC{slash}RS*%
X127450000Y-80200000D03*
%TO.N,/MOSI*%
X128750000Y-80100000D03*
%TO.N,/SCK*%
X130800000Y-80650000D03*
%TO.N,/MISO*%
X129500000Y-80050000D03*
X131650000Y-58500000D03*
X134400000Y-58550000D03*
%TO.N,/T_CS*%
X132200000Y-68850000D03*
X118350000Y-76450000D03*
X117475000Y-85075000D03*
%TO.N,/T_IRQ*%
X129650000Y-82950000D03*
%TO.N,Vbus*%
X112050000Y-127400000D03*
X106750000Y-123250000D03*
%TO.N,R2*%
X126950000Y-91500000D03*
%TO.N,/Fan2*%
X125200000Y-83950000D03*
%TO.N,R1*%
X126450000Y-92350000D03*
%TO.N,Net-(J1-Pin_3)*%
X133750000Y-105750000D03*
%TO.N,Net-(J1-Pin_2)*%
X135500000Y-105000000D03*
%TO.N,Net-(J1-Pin_4)*%
X132000000Y-106500000D03*
%TO.N,Net-(J2-Pin_2)*%
X115750000Y-81250000D03*
%TO.N,Net-(J2-Pin_4)*%
X114750000Y-79000000D03*
%TO.N,Net-(J2-Pin_3)*%
X115269706Y-80133750D03*
%TD*%
%TO.N,SDA*%
D30*
X128900000Y-86250000D02*
X137260000Y-77890000D01*
X137260000Y-77890000D02*
X137260000Y-71200000D01*
%TO.N,SCL*%
X128700000Y-87650000D02*
X126000000Y-87650000D01*
X139800000Y-71200000D02*
X139800000Y-76550000D01*
X139800000Y-76550000D02*
X128700000Y-87650000D01*
%TO.N,/Fan0*%
X182045405Y-141250000D02*
X191450000Y-141250000D01*
X191450000Y-141250000D02*
X195620000Y-145420000D01*
X129500000Y-95300000D02*
X129800000Y-95000000D01*
X129800000Y-95000000D02*
X135795405Y-95000000D01*
X195620000Y-145420000D02*
X195620000Y-148000000D01*
X135795405Y-95000000D02*
X182045405Y-141250000D01*
%TO.N,Net-(U6-VCC)*%
D31*
X166600000Y-140950000D02*
X169850000Y-137700000D01*
X162100000Y-139950000D02*
X163100000Y-140950000D01*
X169850000Y-137700000D02*
X169850000Y-136450000D01*
X163100000Y-140950000D02*
X166600000Y-140950000D01*
%TO.N,Net-(U2-AIN1)*%
D30*
X159100000Y-85750000D02*
X159100000Y-98950000D01*
X159100000Y-98950000D02*
X173050000Y-112900000D01*
X173050000Y-112900000D02*
X178545000Y-112900000D01*
%TO.N,+5V*%
X156900000Y-76400000D02*
X157800000Y-76400000D01*
X156900000Y-76400000D02*
X167400000Y-76400000D01*
X152100000Y-76650000D02*
X152100000Y-76400000D01*
X155500000Y-76400000D02*
X156900000Y-76400000D01*
X149450000Y-71100000D02*
X150200000Y-71100000D01*
X150200000Y-71100000D02*
X153800000Y-74700000D01*
X153800000Y-74700000D02*
X155500000Y-76400000D01*
X152100000Y-76400000D02*
X153800000Y-74700000D01*
X157800000Y-76400000D02*
X164650000Y-69550000D01*
%TO.N,Net-(J6-Pin_7)*%
X180890000Y-72350000D02*
X171800000Y-72350000D01*
X169150000Y-75000000D02*
X160050000Y-75000000D01*
X171800000Y-72350000D02*
X169150000Y-75000000D01*
X182000000Y-71240000D02*
X180890000Y-72350000D01*
%TO.N,S2*%
X160300000Y-79550000D02*
X141950000Y-79550000D01*
X141950000Y-79550000D02*
X140700000Y-80800000D01*
%TO.N,S1*%
X138725000Y-80775000D02*
X137850000Y-79900000D01*
X139775000Y-80775000D02*
X138725000Y-80775000D01*
X142050000Y-78500000D02*
X139775000Y-80775000D01*
X160350000Y-78500000D02*
X142050000Y-78500000D01*
%TO.N,S0*%
X141800000Y-77550000D02*
X139150000Y-80200000D01*
X160400000Y-77550000D02*
X141800000Y-77550000D01*
%TO.N,Net-(J4-Pin_7)*%
X165550000Y-72650000D02*
X168300000Y-69900000D01*
X164750000Y-72650000D02*
X165550000Y-72650000D01*
X193660000Y-69900000D02*
X168300000Y-69900000D01*
X195000000Y-71240000D02*
X193660000Y-69900000D01*
%TO.N,/Set2*%
X176245000Y-90750000D02*
X176245000Y-88210000D01*
%TO.N,R0*%
X144450000Y-94050000D02*
X154350000Y-84150000D01*
X125550000Y-92263173D02*
X127336827Y-94050000D01*
X192100000Y-79600000D02*
X192100000Y-76680000D01*
X125550000Y-91550000D02*
X125550000Y-92263173D01*
X127336827Y-94050000D02*
X144450000Y-94050000D01*
X192100000Y-76680000D02*
X195000000Y-73780000D01*
X187550000Y-84150000D02*
X192100000Y-79600000D01*
X154350000Y-84150000D02*
X187550000Y-84150000D01*
%TO.N,/Set0*%
X192750000Y-88250000D02*
X192750000Y-90790000D01*
%TO.N,R3*%
X152675000Y-80725000D02*
X142650000Y-90750000D01*
X129500000Y-90750000D02*
X127100000Y-88350000D01*
X168225000Y-80725000D02*
X152675000Y-80725000D01*
X175250000Y-73700000D02*
X168225000Y-80725000D01*
X142650000Y-90750000D02*
X129500000Y-90750000D01*
%TO.N,/Set3*%
X168000000Y-90790000D02*
X168000000Y-88250000D01*
%TO.N,Net-(U7-PB12)*%
X118850000Y-79100000D02*
X118850000Y-81150000D01*
X121050000Y-76900000D02*
X118850000Y-79100000D01*
%TO.N,/Fan3*%
X118150000Y-92400000D02*
X123400000Y-97650000D01*
X144650000Y-109500000D02*
X144650000Y-133550000D01*
X123400000Y-97650000D02*
X132800000Y-97650000D01*
X156540000Y-145440000D02*
X156540000Y-148160000D01*
X132800000Y-97650000D02*
X144650000Y-109500000D01*
X118150000Y-85650000D02*
X118150000Y-92400000D01*
X118250000Y-85550000D02*
X118150000Y-85650000D01*
X144650000Y-133550000D02*
X156540000Y-145440000D01*
X120000000Y-82000000D02*
X118250000Y-83750000D01*
X118250000Y-83750000D02*
X118250000Y-85550000D01*
%TO.N,/Fan1*%
X135100000Y-97000000D02*
X182620000Y-144520000D01*
X182620000Y-144520000D02*
X182620000Y-148000000D01*
%TO.N,/DC{slash}RS*%
X118340000Y-55750000D02*
X118340000Y-66840000D01*
X118340000Y-66840000D02*
X118400000Y-66900000D01*
X118400000Y-66900000D02*
X118400000Y-71150000D01*
X127450000Y-80200000D02*
X118400000Y-71150000D01*
%TO.N,/MOSI*%
X123300000Y-73400000D02*
X123413173Y-73400000D01*
X120880000Y-70980000D02*
X123300000Y-73400000D01*
X123413173Y-73400000D02*
X128750000Y-78736827D01*
X128750000Y-78736827D02*
X128750000Y-80100000D01*
X120880000Y-55750000D02*
X120880000Y-70980000D01*
%TO.N,/SCK*%
X132500000Y-57210000D02*
X132500000Y-67100000D01*
X132500000Y-67100000D02*
X130800000Y-68800000D01*
X131040000Y-55750000D02*
X132500000Y-57210000D01*
X130800000Y-68800000D02*
X130800000Y-80650000D01*
%TO.N,/MISO*%
X122300000Y-61950000D02*
X128500000Y-55750000D01*
X128500000Y-55750000D02*
X131250000Y-58500000D01*
X134400000Y-58550000D02*
X135860000Y-58550000D01*
X129500000Y-77250000D02*
X122300000Y-70050000D01*
X122300000Y-70050000D02*
X122300000Y-61950000D01*
X129500000Y-80050000D02*
X129500000Y-77250000D01*
X131250000Y-58500000D02*
X131650000Y-58500000D01*
X135860000Y-58550000D02*
X138660000Y-55750000D01*
%TO.N,/T_CS*%
X133580000Y-55750000D02*
X133580000Y-67520000D01*
X117300000Y-84900000D02*
X117300000Y-77500000D01*
X117475000Y-85075000D02*
X117300000Y-84900000D01*
X133580000Y-67520000D02*
X132200000Y-68900000D01*
X117300000Y-77500000D02*
X118350000Y-76450000D01*
%TO.N,/T_IRQ*%
X131550000Y-81050000D02*
X129650000Y-82950000D01*
X134700000Y-62250000D02*
X134700000Y-67950000D01*
X134700000Y-67950000D02*
X131550000Y-71100000D01*
X131550000Y-71100000D02*
X131550000Y-81050000D01*
X141200000Y-55750000D02*
X134700000Y-62250000D01*
%TO.N,Vbus*%
X107900000Y-123250000D02*
X106750000Y-123250000D01*
X112050000Y-127400000D02*
X107900000Y-123250000D01*
%TO.N,R2*%
X153200000Y-82150000D02*
X174950000Y-82150000D01*
X174950000Y-82150000D02*
X178200000Y-78900000D01*
X178200000Y-77580000D02*
X182000000Y-73780000D01*
X127150000Y-91700000D02*
X143650000Y-91700000D01*
X178200000Y-78900000D02*
X178200000Y-77580000D01*
X126950000Y-91500000D02*
X127150000Y-91700000D01*
X143650000Y-91700000D02*
X153200000Y-82150000D01*
%TO.N,/Fan2*%
X133250000Y-96550000D02*
X146000000Y-109300000D01*
X125200000Y-83950000D02*
X123300000Y-85850000D01*
X146000000Y-133650000D02*
X154850000Y-142500000D01*
X123300000Y-85850000D02*
X123300000Y-91200000D01*
X146000000Y-109300000D02*
X146000000Y-133650000D01*
X123300000Y-91200000D02*
X128650000Y-96550000D01*
X154850000Y-142500000D02*
X165950000Y-142500000D01*
X169540000Y-146090000D02*
X169540000Y-148000000D01*
X128650000Y-96550000D02*
X133250000Y-96550000D01*
X165950000Y-142500000D02*
X169540000Y-146090000D01*
%TO.N,R1*%
X181700000Y-83350000D02*
X153600000Y-83350000D01*
X143675000Y-93275000D02*
X127375000Y-93275000D01*
X188750000Y-73780000D02*
X185450000Y-77080000D01*
X185450000Y-79600000D02*
X181700000Y-83350000D01*
X153600000Y-83350000D02*
X143675000Y-93275000D01*
X185450000Y-77080000D02*
X185450000Y-79600000D01*
X127375000Y-93275000D02*
X126450000Y-92350000D01*
%TO.N,/Set1*%
X184500000Y-90750000D02*
X184500000Y-88210000D01*
%TO.N,Net-(J1-Pin_3)*%
X102500000Y-92500000D02*
X102500000Y-74420000D01*
X133750000Y-105750000D02*
X115750000Y-105750000D01*
X102500000Y-74420000D02*
X105750000Y-71170000D01*
X115750000Y-105750000D02*
X102500000Y-92500000D01*
%TO.N,Net-(J1-Pin_2)*%
X103500000Y-75960000D02*
X105750000Y-73710000D01*
X116500000Y-105000000D02*
X103500000Y-92000000D01*
X135500000Y-105000000D02*
X116500000Y-105000000D01*
X103500000Y-92000000D02*
X103500000Y-75960000D01*
%TO.N,Net-(J1-Pin_4)*%
X132000000Y-106500000D02*
X115000000Y-106500000D01*
X101500000Y-93000000D02*
X101500000Y-72880000D01*
X101500000Y-72880000D02*
X105750000Y-68630000D01*
X115000000Y-106500000D02*
X101500000Y-93000000D01*
%TO.N,Net-(J2-Pin_2)*%
X115750000Y-81250000D02*
X113290000Y-81250000D01*
X113290000Y-81250000D02*
X105750000Y-88790000D01*
%TO.N,Net-(J2-Pin_4)*%
X110460000Y-79000000D02*
X105750000Y-83710000D01*
X114750000Y-79000000D02*
X110460000Y-79000000D01*
%TO.N,Net-(J2-Pin_3)*%
X115269706Y-80133750D02*
X111866250Y-80133750D01*
X111866250Y-80133750D02*
X105750000Y-86250000D01*
%TD*%
M02*
