%TF.GenerationSoftware,KiCad,Pcbnew,10.0.3*%
%TF.CreationDate,2026-09-11T14:08:20+02:00*%
%TF.ProjectId,ControlBoard,436f6e74-726f-46c4-926f-6172642e6b69,rev?*%
%TF.SameCoordinates,Original*%
%TF.FileFunction,Copper,L1,Top*%
%TF.FilePolarity,Positive*%
%FSLAX46Y46*%
G04 Gerber Fmt 4.6, Leading zero omitted, Abs format (unit mm)*
G04 Created by KiCad (PCBNEW 10.0.3) date 2026-09-11 14:08:20*
%MOMM*%
%LPD*%
G01*
G04 APERTURE LIST*
G04 Aperture macros list*
%AMRoundRect*
0 Rectangle with rounded corners*
0 $1 Rounding radius*
0 $2 $3 $4 $5 $6 $7 $8 $9 X,Y pos of 4 corners*
0 Add a 4 corners polygon primitive as box body*
4,1,4,$2,$3,$4,$5,$6,$7,$8,$9,$2,$3,0*
0 Add four circle primitives for the rounded corners*
1,1,$1+$1,$2,$3*
1,1,$1+$1,$4,$5*
1,1,$1+$1,$6,$7*
1,1,$1+$1,$8,$9*
0 Add four rect primitives between the rounded corners*
20,1,$1+$1,$2,$3,$4,$5,0*
20,1,$1+$1,$4,$5,$6,$7,0*
20,1,$1+$1,$6,$7,$8,$9,0*
20,1,$1+$1,$8,$9,$2,$3,0*%
G04 Aperture macros list end*
%TA.AperFunction,SMDPad,CuDef*%
%ADD10RoundRect,0.150000X0.825000X0.150000X-0.825000X0.150000X-0.825000X-0.150000X0.825000X-0.150000X0*%
%TD*%
%TA.AperFunction,ComponentPad*%
%ADD11R,1.730000X2.030000*%
%TD*%
%TA.AperFunction,ComponentPad*%
%ADD12O,1.730000X2.030000*%
%TD*%
%TA.AperFunction,SMDPad,CuDef*%
%ADD13RoundRect,0.250000X-0.325000X-0.650000X0.325000X-0.650000X0.325000X0.650000X-0.325000X0.650000X0*%
%TD*%
%TA.AperFunction,SMDPad,CuDef*%
%ADD14RoundRect,0.200000X-0.200000X-0.275000X0.200000X-0.275000X0.200000X0.275000X-0.200000X0.275000X0*%
%TD*%
%TA.AperFunction,SMDPad,CuDef*%
%ADD15RoundRect,0.075000X0.650000X0.075000X-0.650000X0.075000X-0.650000X-0.075000X0.650000X-0.075000X0*%
%TD*%
%TA.AperFunction,SMDPad,CuDef*%
%ADD16RoundRect,0.150000X-0.825000X-0.150000X0.825000X-0.150000X0.825000X0.150000X-0.825000X0.150000X0*%
%TD*%
%TA.AperFunction,SMDPad,CuDef*%
%ADD17RoundRect,0.225000X-0.225000X-0.250000X0.225000X-0.250000X0.225000X0.250000X-0.225000X0.250000X0*%
%TD*%
%TA.AperFunction,ComponentPad*%
%ADD18C,2.340000*%
%TD*%
%TA.AperFunction,ComponentPad*%
%ADD19R,1.700000X1.700000*%
%TD*%
%TA.AperFunction,ComponentPad*%
%ADD20C,1.700000*%
%TD*%
%TA.AperFunction,SMDPad,CuDef*%
%ADD21RoundRect,0.225000X0.225000X0.250000X-0.225000X0.250000X-0.225000X-0.250000X0.225000X-0.250000X0*%
%TD*%
%TA.AperFunction,SMDPad,CuDef*%
%ADD22RoundRect,0.200000X0.200000X0.275000X-0.200000X0.275000X-0.200000X-0.275000X0.200000X-0.275000X0*%
%TD*%
%TA.AperFunction,SMDPad,CuDef*%
%ADD23RoundRect,0.250000X0.650000X-0.325000X0.650000X0.325000X-0.650000X0.325000X-0.650000X-0.325000X0*%
%TD*%
%TA.AperFunction,SMDPad,CuDef*%
%ADD24RoundRect,0.249999X-0.450001X-1.850001X0.450001X-1.850001X0.450001X1.850001X-0.450001X1.850001X0*%
%TD*%
%TA.AperFunction,SMDPad,CuDef*%
%ADD25RoundRect,0.250000X0.350000X-0.850000X0.350000X0.850000X-0.350000X0.850000X-0.350000X-0.850000X0*%
%TD*%
%TA.AperFunction,SMDPad,CuDef*%
%ADD26RoundRect,0.249997X2.650003X-2.950003X2.650003X2.950003X-2.650003X2.950003X-2.650003X-2.950003X0*%
%TD*%
%TA.AperFunction,SMDPad,CuDef*%
%ADD27RoundRect,0.225000X0.250000X-0.225000X0.250000X0.225000X-0.250000X0.225000X-0.250000X-0.225000X0*%
%TD*%
%TA.AperFunction,SMDPad,CuDef*%
%ADD28R,1.550000X0.600000*%
%TD*%
%TA.AperFunction,ComponentPad*%
%ADD29C,0.600000*%
%TD*%
%TA.AperFunction,SMDPad,CuDef*%
%ADD30R,2.950000X4.900000*%
%TD*%
%TA.AperFunction,SMDPad,CuDef*%
%ADD31RoundRect,0.150000X-0.470000X0.150000X-0.470000X-0.150000X0.470000X-0.150000X0.470000X0.150000X0*%
%TD*%
%TA.AperFunction,SMDPad,CuDef*%
%ADD32RoundRect,0.075000X-0.545000X0.075000X-0.545000X-0.075000X0.545000X-0.075000X0.545000X0.075000X0*%
%TD*%
%TA.AperFunction,ComponentPad*%
%ADD33O,2.100000X1.000000*%
%TD*%
%TA.AperFunction,ComponentPad*%
%ADD34O,1.800000X1.000000*%
%TD*%
%TA.AperFunction,SMDPad,CuDef*%
%ADD35RoundRect,0.200000X-0.275000X0.200000X-0.275000X-0.200000X0.275000X-0.200000X0.275000X0.200000X0*%
%TD*%
%TA.AperFunction,SMDPad,CuDef*%
%ADD36RoundRect,0.150000X-0.512500X-0.150000X0.512500X-0.150000X0.512500X0.150000X-0.512500X0.150000X0*%
%TD*%
%TA.AperFunction,ComponentPad*%
%ADD37RoundRect,0.250001X1.149999X-1.149999X1.149999X1.149999X-1.149999X1.149999X-1.149999X-1.149999X0*%
%TD*%
%TA.AperFunction,ComponentPad*%
%ADD38C,2.800000*%
%TD*%
%TA.AperFunction,SMDPad,CuDef*%
%ADD39RoundRect,0.250002X-1.799998X-2.499998X1.799998X-2.499998X1.799998X2.499998X-1.799998X2.499998X0*%
%TD*%
%TA.AperFunction,SMDPad,CuDef*%
%ADD40RoundRect,0.075000X0.662500X0.075000X-0.662500X0.075000X-0.662500X-0.075000X0.662500X-0.075000X0*%
%TD*%
%TA.AperFunction,SMDPad,CuDef*%
%ADD41RoundRect,0.075000X0.075000X0.662500X-0.075000X0.662500X-0.075000X-0.662500X0.075000X-0.662500X0*%
%TD*%
%TA.AperFunction,SMDPad,CuDef*%
%ADD42RoundRect,0.250001X-0.499999X0.649999X-0.499999X-0.649999X0.499999X-0.649999X0.499999X0.649999X0*%
%TD*%
%TA.AperFunction,SMDPad,CuDef*%
%ADD43RoundRect,0.087500X-0.662500X-0.087500X0.662500X-0.087500X0.662500X0.087500X-0.662500X0.087500X0*%
%TD*%
%TA.AperFunction,ComponentPad*%
%ADD44RoundRect,0.250001X-1.149999X-1.149999X1.149999X-1.149999X1.149999X1.149999X-1.149999X1.149999X0*%
%TD*%
%TA.AperFunction,SMDPad,CuDef*%
%ADD45RoundRect,0.087500X-0.250000X-0.087500X0.250000X-0.087500X0.250000X0.087500X-0.250000X0.087500X0*%
%TD*%
%TA.AperFunction,SMDPad,CuDef*%
%ADD46RoundRect,0.225000X-0.375000X0.225000X-0.375000X-0.225000X0.375000X-0.225000X0.375000X0.225000X0*%
%TD*%
%TA.AperFunction,SMDPad,CuDef*%
%ADD47RoundRect,0.225000X-0.250000X0.225000X-0.250000X-0.225000X0.250000X-0.225000X0.250000X0.225000X0*%
%TD*%
%TA.AperFunction,SMDPad,CuDef*%
%ADD48RoundRect,0.218750X0.256250X-0.218750X0.256250X0.218750X-0.256250X0.218750X-0.256250X-0.218750X0*%
%TD*%
G04 APERTURE END LIST*
D10*
%TO.P,U9,1,A0_1*%
%TO.N,Masa*%
X152725000Y-65155000D03*
%TO.P,U9,2,A1_2*%
X152725000Y-63885000D03*
%TO.P,U9,3,A2_3*%
X152725000Y-62615000D03*
%TO.P,U9,4,VSS_4*%
X152725000Y-61345000D03*
%TO.P,U9,5,SDA_5*%
%TO.N,SDA*%
X147775000Y-61345000D03*
%TO.P,U9,6,SCL_6*%
%TO.N,SCL*%
X147775000Y-62615000D03*
%TO.P,U9,7,WP_7*%
%TO.N,Masa*%
X147775000Y-63885000D03*
%TO.P,U9,8,VDD_8*%
%TO.N,+3V3*%
X147775000Y-65155000D03*
%TD*%
D11*
%TO.P,M1,1,-_1*%
%TO.N,Masa*%
X188000000Y-148000000D03*
D12*
%TO.P,M1,2,+_2*%
%TO.N,+12V*%
X190540000Y-148000000D03*
%TO.P,M1,3,Tacho_3*%
%TO.N,unconnected-(M1-Tacho-Pad3)*%
X193080000Y-148000000D03*
%TO.P,M1,4,PWM_4*%
%TO.N,/Fan0*%
X195620000Y-148000000D03*
%TD*%
D13*
%TO.P,C51,1*%
%TO.N,+24V*%
X143525000Y-141500000D03*
%TO.P,C51,2*%
%TO.N,Masa*%
X146475000Y-141500000D03*
%TD*%
%TO.P,C6,1*%
%TO.N,+12V*%
X152300000Y-109750000D03*
%TO.P,C6,2*%
%TO.N,Masa*%
X155250000Y-109750000D03*
%TD*%
D14*
%TO.P,R16,1*%
%TO.N,Net-(U6-PG)*%
X150400000Y-140350000D03*
%TO.P,R16,2*%
%TO.N,Net-(U6-VCC)*%
X152050000Y-140350000D03*
%TD*%
D15*
%TO.P,U2,1,ADDR_1*%
%TO.N,Masa*%
X154000000Y-74000000D03*
%TO.P,U2,2,ALERT/RDY_2*%
%TO.N,unconnected-(U2-ALERT{slash}RDY-Pad2)*%
X154000000Y-73500000D03*
%TO.P,U2,3,GND_3*%
%TO.N,Masa*%
X154000000Y-73000000D03*
%TO.P,U2,4,AIN0_4*%
%TO.N,Net-(U2-AIN0)*%
X154000000Y-72500000D03*
%TO.P,U2,5,AIN1_5*%
%TO.N,Net-(U2-AIN1)*%
X154000000Y-72000000D03*
%TO.P,U2,6,AIN2_6*%
%TO.N,unconnected-(U2-AIN2-Pad6)*%
X149700000Y-72000000D03*
%TO.P,U2,7,AIN3_7*%
%TO.N,unconnected-(U2-AIN3-Pad7)*%
X149700000Y-72500000D03*
%TO.P,U2,8,VDD_8*%
%TO.N,+5V*%
X149700000Y-73000000D03*
%TO.P,U2,9,SDA_9*%
%TO.N,SDA*%
X149700000Y-73500000D03*
%TO.P,U2,10,SCL_10*%
%TO.N,SCL*%
X149700000Y-74000000D03*
%TD*%
D16*
%TO.P,U5,1,A4_1*%
%TO.N,Net-(J6-Pin_6)*%
X158000000Y-69880000D03*
%TO.P,U5,2,A6_2*%
%TO.N,Net-(J7-Pin_6)*%
X158000000Y-71150000D03*
%TO.P,U5,3,A_3*%
%TO.N,Net-(U2-AIN0)*%
X158000000Y-72420000D03*
%TO.P,U5,4,A7_4*%
%TO.N,Net-(J7-Pin_7)*%
X158000000Y-73690000D03*
%TO.P,U5,5,A5_5*%
%TO.N,Net-(J6-Pin_7)*%
X158000000Y-74960000D03*
%TO.P,U5,6,~{E}_6*%
%TO.N,Masa*%
X158000000Y-76230000D03*
%TO.P,U5,7,VEE_7*%
X158000000Y-77500000D03*
%TO.P,U5,8,GND_8*%
X158000000Y-78770000D03*
%TO.P,U5,9,S2_9*%
%TO.N,S2*%
X162950000Y-78770000D03*
%TO.P,U5,10,S1_10*%
%TO.N,S1*%
X162950000Y-77500000D03*
%TO.P,U5,11,S0_11*%
%TO.N,S0*%
X162950000Y-76230000D03*
%TO.P,U5,12,A3_12*%
%TO.N,Net-(J5-Pin_7)*%
X162950000Y-74960000D03*
%TO.P,U5,13,A0_13*%
%TO.N,Net-(J4-Pin_6)*%
X162950000Y-73690000D03*
%TO.P,U5,14,A1_14*%
%TO.N,Net-(J4-Pin_7)*%
X162950000Y-72420000D03*
%TO.P,U5,15,A2_15*%
%TO.N,Net-(J5-Pin_6)*%
X162950000Y-71150000D03*
%TO.P,U5,16,VCC_16*%
%TO.N,+5V*%
X162950000Y-69880000D03*
%TD*%
D17*
%TO.P,C37,1*%
%TO.N,+3V3*%
X166975000Y-58250000D03*
%TO.P,C37,2*%
%TO.N,Masa*%
X168525000Y-58250000D03*
%TD*%
D18*
%TO.P,RV3,1,1_1*%
%TO.N,/Set2*%
X174750000Y-88250000D03*
%TO.P,RV3,2,2_2*%
X179750000Y-93250000D03*
%TO.P,RV3,3,3_3*%
%TO.N,Masa*%
X174750000Y-98250000D03*
%TD*%
D17*
%TO.P,C54,1*%
%TO.N,+15V*%
X119950000Y-120450000D03*
%TO.P,C54,2*%
%TO.N,Masa*%
X121500000Y-120450000D03*
%TD*%
D19*
%TO.P,J4,1,Pin_1_1*%
%TO.N,+24V*%
X195000000Y-56000000D03*
D20*
%TO.P,J4,2,Pin_2_2*%
%TO.N,+15V*%
X195000000Y-58540000D03*
%TO.P,J4,3,Pin_3_3*%
%TO.N,+5V*%
X195000000Y-61080000D03*
%TO.P,J4,4,Pin_4_4*%
%TO.N,Masa*%
X195000000Y-63620000D03*
%TO.P,J4,5,Pin_5_5*%
%TO.N,/Det0*%
X195000000Y-66160000D03*
%TO.P,J4,6,Pin_6_6*%
%TO.N,Net-(J4-Pin_6)*%
X195000000Y-68700000D03*
%TO.P,J4,7,Pin_7_7*%
%TO.N,Net-(J4-Pin_7)*%
X195000000Y-71240000D03*
%TO.P,J4,8,Pin_8_8*%
%TO.N,R0*%
X195000000Y-73780000D03*
%TO.P,J4,9,Pin_9_9*%
%TO.N,/Set0*%
X195000000Y-76320000D03*
%TO.P,J4,10,Pin_10_10*%
%TO.N,Masa*%
X195000000Y-78860000D03*
%TD*%
D19*
%TO.P,J7,1,Pin_1_1*%
%TO.N,+24V*%
X175250000Y-55920000D03*
D20*
%TO.P,J7,2,Pin_2_2*%
%TO.N,+15V*%
X175250000Y-58460000D03*
%TO.P,J7,3,Pin_3_3*%
%TO.N,+5V*%
X175250000Y-61000000D03*
%TO.P,J7,4,Pin_4_4*%
%TO.N,Masa*%
X175250000Y-63540000D03*
%TO.P,J7,5,Pin_5_5*%
%TO.N,/Det3*%
X175250000Y-66080000D03*
%TO.P,J7,6,Pin_6_6*%
%TO.N,Net-(J7-Pin_6)*%
X175250000Y-68620000D03*
%TO.P,J7,7,Pin_7_7*%
%TO.N,Net-(J7-Pin_7)*%
X175250000Y-71160000D03*
%TO.P,J7,8,Pin_8_8*%
%TO.N,R3*%
X175250000Y-73700000D03*
%TO.P,J7,9,Pin_9_9*%
%TO.N,/Set3*%
X175250000Y-76240000D03*
%TO.P,J7,10,Pin_10_10*%
%TO.N,Masa*%
X175250000Y-78780000D03*
%TD*%
D21*
%TO.P,C61,1*%
%TO.N,Net-(U14-SW)*%
X145800000Y-107000000D03*
%TO.P,C61,2*%
%TO.N,Net-(U14-BOOT)*%
X144250000Y-107000000D03*
%TD*%
D22*
%TO.P,R27,1*%
%TO.N,VIN*%
X186750000Y-108250000D03*
%TO.P,R27,2*%
%TO.N,Net-(R27-Pad2)*%
X185100000Y-108250000D03*
%TD*%
D17*
%TO.P,C59,1*%
%TO.N,+5V*%
X134950000Y-121250000D03*
%TO.P,C59,2*%
%TO.N,Masa*%
X136500000Y-121250000D03*
%TD*%
D14*
%TO.P,R32,1*%
%TO.N,Net-(U12-VOUTA)*%
X160100000Y-91500000D03*
%TO.P,R32,2*%
%TO.N,/Set0*%
X161750000Y-91500000D03*
%TD*%
D17*
%TO.P,C25,1*%
%TO.N,+5V*%
X154400000Y-85000000D03*
%TO.P,C25,2*%
%TO.N,Masa*%
X155950000Y-85000000D03*
%TD*%
D23*
%TO.P,C55,1*%
%TO.N,+15V*%
X126000000Y-131975000D03*
%TO.P,C55,2*%
%TO.N,Masa*%
X126000000Y-129025000D03*
%TD*%
D17*
%TO.P,C47,1*%
%TO.N,Net-(U7-PB12)*%
X125775000Y-80450000D03*
%TO.P,C47,2*%
%TO.N,Masa*%
X127325000Y-80450000D03*
%TD*%
%TO.P,C28,1*%
%TO.N,Net-(U6-BOOT)*%
X148625000Y-129500000D03*
%TO.P,C28,2*%
%TO.N,Net-(U6-SW)*%
X150175000Y-129500000D03*
%TD*%
D11*
%TO.P,M4,1,-_1*%
%TO.N,Masa*%
X148920000Y-148160000D03*
D12*
%TO.P,M4,2,+_2*%
%TO.N,+12V*%
X151460000Y-148160000D03*
%TO.P,M4,3,Tacho_3*%
%TO.N,unconnected-(M4-Tacho-Pad3)*%
X154000000Y-148160000D03*
%TO.P,M4,4,PWM_4*%
%TO.N,/Fan3*%
X156540000Y-148160000D03*
%TD*%
D17*
%TO.P,C30,1*%
%TO.N,+3V3*%
X120000000Y-88510000D03*
%TO.P,C30,2*%
%TO.N,Masa*%
X121550000Y-88510000D03*
%TD*%
D13*
%TO.P,C45,1*%
%TO.N,+12V*%
X161775000Y-133500000D03*
%TO.P,C45,2*%
%TO.N,Masa*%
X164725000Y-133500000D03*
%TD*%
D17*
%TO.P,C40,1*%
%TO.N,+3V3*%
X124010000Y-86000000D03*
%TO.P,C40,2*%
%TO.N,Masa*%
X125560000Y-86000000D03*
%TD*%
D18*
%TO.P,RV1,1,1_1*%
%TO.N,/Set3*%
X166500000Y-88250000D03*
%TO.P,RV1,2,2_2*%
X171500000Y-93250000D03*
%TO.P,RV1,3,3_3*%
%TO.N,Masa*%
X166500000Y-98250000D03*
%TD*%
D17*
%TO.P,C16,1*%
%TO.N,+12V*%
X158200000Y-110250000D03*
%TO.P,C16,2*%
%TO.N,Masa*%
X159750000Y-110250000D03*
%TD*%
D14*
%TO.P,R29,1*%
%TO.N,Net-(U2-AIN1)*%
X185600000Y-118000000D03*
%TO.P,R29,2*%
%TO.N,Masa*%
X187250000Y-118000000D03*
%TD*%
D24*
%TO.P,L2,1,1_1*%
%TO.N,Net-(U14-SW)*%
X150150000Y-104250000D03*
%TO.P,L2,2,2_2*%
%TO.N,+3V3*%
X153850000Y-104250000D03*
%TD*%
D14*
%TO.P,R21,1*%
%TO.N,+3V3*%
X147100000Y-78750000D03*
%TO.P,R21,2*%
%TO.N,SDA*%
X148750000Y-78750000D03*
%TD*%
D17*
%TO.P,C31,1*%
%TO.N,+3V3*%
X121475000Y-81500000D03*
%TO.P,C31,2*%
%TO.N,Masa*%
X123025000Y-81500000D03*
%TD*%
D14*
%TO.P,R30,1*%
%TO.N,Net-(U12-VOUTC)*%
X160100000Y-88500000D03*
%TO.P,R30,2*%
%TO.N,/Set2*%
X161750000Y-88500000D03*
%TD*%
D17*
%TO.P,C35,1*%
%TO.N,/RCC_OSC_OUT*%
X141550000Y-82550000D03*
%TO.P,C35,2*%
%TO.N,Masa*%
X143100000Y-82550000D03*
%TD*%
D11*
%TO.P,M2,1,-_1*%
%TO.N,Masa*%
X175000000Y-148000000D03*
D12*
%TO.P,M2,2,+_2*%
%TO.N,+12V*%
X177540000Y-148000000D03*
%TO.P,M2,3,Tacho_3*%
%TO.N,unconnected-(M2-Tacho-Pad3)*%
X180080000Y-148000000D03*
%TO.P,M2,4,PWM_4*%
%TO.N,/Fan1*%
X182620000Y-148000000D03*
%TD*%
D14*
%TO.P,R22,1*%
%TO.N,+3V3*%
X147100000Y-76250000D03*
%TO.P,R22,2*%
%TO.N,SCL*%
X148750000Y-76250000D03*
%TD*%
D17*
%TO.P,C24,1*%
%TO.N,+5V*%
X152425000Y-76800000D03*
%TO.P,C24,2*%
%TO.N,Masa*%
X153975000Y-76800000D03*
%TD*%
D19*
%TO.P,J9,1,Pin_1_1*%
%TO.N,+3V3*%
X125210000Y-102250000D03*
D20*
%TO.P,J9,2,Pin_2_2*%
%TO.N,/SYS_JTMS_SWDIO*%
X127750000Y-102250000D03*
%TO.P,J9,3,Pin_3_3*%
%TO.N,/SYS_JTCK_SWCLK*%
X130290000Y-102250000D03*
%TO.P,J9,4,Pin_4_4*%
%TO.N,Masa*%
X132830000Y-102250000D03*
%TD*%
D17*
%TO.P,C64,1*%
%TO.N,+3V3*%
X151700000Y-98950000D03*
%TO.P,C64,2*%
%TO.N,Masa*%
X153250000Y-98950000D03*
%TD*%
D19*
%TO.P,J8,1,Pin_1_1*%
%TO.N,+3V3*%
X108180000Y-55750000D03*
D20*
%TO.P,J8,2,Pin_2_2*%
%TO.N,Masa*%
X110720000Y-55750000D03*
%TO.P,J8,3,Pin_3_3*%
%TO.N,/CS*%
X113260000Y-55750000D03*
%TO.P,J8,4,Pin_4_4*%
%TO.N,/Reset*%
X115800000Y-55750000D03*
%TO.P,J8,5,Pin_5_5*%
%TO.N,/DC{slash}RS*%
X118340000Y-55750000D03*
%TO.P,J8,6,Pin_6_6*%
%TO.N,/MOSI*%
X120880000Y-55750000D03*
%TO.P,J8,7,Pin_7_7*%
%TO.N,/SCK*%
X123420000Y-55750000D03*
%TO.P,J8,8,Pin_8_8*%
%TO.N,/LED*%
X125960000Y-55750000D03*
%TO.P,J8,9,Pin_9_9*%
%TO.N,/MISO*%
X128500000Y-55750000D03*
%TO.P,J8,10,Pin_10_10*%
%TO.N,/SCK*%
X131040000Y-55750000D03*
%TO.P,J8,11,Pin_11_11*%
%TO.N,/T_CS*%
X133580000Y-55750000D03*
%TO.P,J8,12,Pin_12_12*%
%TO.N,/MOSI*%
X136120000Y-55750000D03*
%TO.P,J8,13,Pin_13_13*%
%TO.N,/MISO*%
X138660000Y-55750000D03*
%TO.P,J8,14,Pin_14_14*%
%TO.N,/T_IRQ*%
X141200000Y-55750000D03*
%TD*%
D17*
%TO.P,C56,1*%
%TO.N,+24V*%
X115700000Y-142450000D03*
%TO.P,C56,2*%
%TO.N,Masa*%
X117250000Y-142450000D03*
%TD*%
D25*
%TO.P,U11,1,IN_1*%
%TO.N,+24V*%
X118720000Y-132040000D03*
D26*
%TO.P,U11,2,GND_2*%
%TO.N,Masa*%
X121000000Y-125740000D03*
D25*
%TO.P,U11,3,OUT_3*%
%TO.N,+15V*%
X123280000Y-132040000D03*
%TD*%
D13*
%TO.P,C50,1*%
%TO.N,+12V*%
X168025000Y-140250000D03*
%TO.P,C50,2*%
%TO.N,Masa*%
X170975000Y-140250000D03*
%TD*%
D27*
%TO.P,C41,1*%
%TO.N,+3V3*%
X139240000Y-91775000D03*
%TO.P,C41,2*%
%TO.N,Masa*%
X139240000Y-90225000D03*
%TD*%
D28*
%TO.P,U6,1,GND_1*%
%TO.N,Masa*%
X148900000Y-132895000D03*
%TO.P,U6,2,VIN_2*%
%TO.N,+24V*%
X148900000Y-134165000D03*
%TO.P,U6,3,EN_3*%
X148900000Y-135435000D03*
%TO.P,U6,4,PG_4*%
%TO.N,Net-(U6-PG)*%
X148900000Y-136705000D03*
%TO.P,U6,5,FB_5*%
%TO.N,Net-(U6-FB)*%
X154300000Y-136705000D03*
%TO.P,U6,6,VCC_6*%
%TO.N,Net-(U6-VCC)*%
X154300000Y-135435000D03*
%TO.P,U6,7,BOOT_7*%
%TO.N,Net-(U6-BOOT)*%
X154300000Y-134165000D03*
%TO.P,U6,8,SW_8*%
%TO.N,Net-(U6-SW)*%
X154300000Y-132895000D03*
D29*
%TO.P,U6,9,GND_9*%
%TO.N,Masa*%
X150950000Y-132850000D03*
X150950000Y-134150000D03*
X150950000Y-135450000D03*
X150950000Y-136750000D03*
D30*
X151600000Y-134800000D03*
D29*
X152250000Y-132850000D03*
X152250000Y-134150000D03*
X152250000Y-135450000D03*
X152250000Y-136750000D03*
%TD*%
D14*
%TO.P,R38,1*%
%TO.N,+12V*%
X152100000Y-114000000D03*
%TO.P,R38,2*%
%TO.N,Net-(U14-EN)*%
X153750000Y-114000000D03*
%TD*%
D17*
%TO.P,C36,1*%
%TO.N,+3V3*%
X151475000Y-59100000D03*
%TO.P,C36,2*%
%TO.N,Masa*%
X153025000Y-59100000D03*
%TD*%
%TO.P,C63,1*%
%TO.N,+3V3*%
X155975000Y-102000000D03*
%TO.P,C63,2*%
%TO.N,Masa*%
X157525000Y-102000000D03*
%TD*%
D31*
%TO.P,J12,A1,GND_A1*%
%TO.N,Masa*%
X104550000Y-124370000D03*
%TO.P,J12,A4,VBUS_A4*%
%TO.N,Vbus*%
X104550000Y-125170000D03*
D32*
%TO.P,J12,A5,CC1_A5*%
%TO.N,Net-(J12-CC1)*%
X104550000Y-126320000D03*
%TO.P,J12,A6,D+_A6*%
%TO.N,/D+*%
X104550000Y-127320000D03*
%TO.P,J12,A7,D-_A7*%
%TO.N,/D-*%
X104550000Y-127820000D03*
%TO.P,J12,A8,SBU1_A8*%
%TO.N,unconnected-(J12-SBU1-PadA8)*%
X104550000Y-128820000D03*
D31*
%TO.P,J12,A9,VBUS_A9*%
%TO.N,Vbus*%
X104550000Y-129970000D03*
%TO.P,J12,A12,GND_A12*%
%TO.N,Masa*%
X104550000Y-130770000D03*
%TO.P,J12,B1,GND_B1*%
X104550000Y-130770000D03*
%TO.P,J12,B4,VBUS_B4*%
%TO.N,Vbus*%
X104550000Y-129970000D03*
D32*
%TO.P,J12,B5,CC2_B5*%
%TO.N,Net-(J12-CC2)*%
X104550000Y-129320000D03*
%TO.P,J12,B6,D+_B6*%
%TO.N,/D+*%
X104550000Y-128320000D03*
%TO.P,J12,B7,D-_B7*%
%TO.N,/D-*%
X104550000Y-126820000D03*
%TO.P,J12,B8,SBU2_B8*%
%TO.N,unconnected-(J12-SBU2-PadB8)*%
X104550000Y-125820000D03*
D31*
%TO.P,J12,B9,VBUS_B9*%
%TO.N,Vbus*%
X104550000Y-125170000D03*
%TO.P,J12,B12,GND_B12*%
%TO.N,Masa*%
X104550000Y-124370000D03*
D33*
%TO.P,J12,SH,SHIELD_SH*%
%TO.N,Net-(J12-SHIELD)*%
X103950000Y-123250000D03*
D34*
X99750000Y-123250000D03*
D33*
X103950000Y-131890000D03*
D34*
X99750000Y-131890000D03*
%TD*%
D14*
%TO.P,R35,1*%
%TO.N,Masa*%
X102100000Y-117750000D03*
%TO.P,R35,2*%
%TO.N,Net-(J12-SHIELD)*%
X103750000Y-117750000D03*
%TD*%
%TO.P,R26,1*%
%TO.N,Net-(U12-VOUTD)*%
X160100000Y-87000000D03*
%TO.P,R26,2*%
%TO.N,/Set3*%
X161750000Y-87000000D03*
%TD*%
D25*
%TO.P,U13,1,IN_1*%
%TO.N,+15V*%
X133750000Y-132040000D03*
D26*
%TO.P,U13,2,GND_2*%
%TO.N,Masa*%
X136030000Y-125740000D03*
D25*
%TO.P,U13,3,OUT_3*%
%TO.N,+5V*%
X138310000Y-132040000D03*
%TD*%
D17*
%TO.P,C44,1*%
%TO.N,+12V*%
X148800000Y-125900000D03*
%TO.P,C44,2*%
%TO.N,Masa*%
X150350000Y-125900000D03*
%TD*%
D35*
%TO.P,R28,1*%
%TO.N,Net-(J10-Pin_2)*%
X126750000Y-76350000D03*
%TO.P,R28,2*%
%TO.N,Net-(U7-PB12)*%
X126750000Y-78000000D03*
%TD*%
D27*
%TO.P,C22,1*%
%TO.N,+5V*%
X164000000Y-68300000D03*
%TO.P,C22,2*%
%TO.N,Masa*%
X164000000Y-66750000D03*
%TD*%
D14*
%TO.P,R39,1*%
%TO.N,Net-(U14-FB)*%
X143425000Y-111250000D03*
%TO.P,R39,2*%
%TO.N,Masa*%
X145075000Y-111250000D03*
%TD*%
D36*
%TO.P,U8,1,I/O1_1*%
%TO.N,/D-*%
X109000000Y-125300000D03*
%TO.P,U8,2,GND_2*%
%TO.N,Masa*%
X109000000Y-126250000D03*
%TO.P,U8,3,I/O2_3*%
%TO.N,/D+*%
X109000000Y-127200000D03*
%TO.P,U8,4,I/O2_4*%
%TO.N,/USB_D+*%
X111275000Y-127200000D03*
%TO.P,U8,5,VBUS_5*%
%TO.N,Vbus*%
X111275000Y-126250000D03*
%TO.P,U8,6,I/O1_6*%
%TO.N,/USB_D-*%
X111275000Y-125300000D03*
%TD*%
D19*
%TO.P,J6,1,Pin_1_1*%
%TO.N,+24V*%
X182000000Y-56000000D03*
D20*
%TO.P,J6,2,Pin_2_2*%
%TO.N,+15V*%
X182000000Y-58540000D03*
%TO.P,J6,3,Pin_3_3*%
%TO.N,+5V*%
X182000000Y-61080000D03*
%TO.P,J6,4,Pin_4_4*%
%TO.N,Masa*%
X182000000Y-63620000D03*
%TO.P,J6,5,Pin_5_5*%
%TO.N,/Det2*%
X182000000Y-66160000D03*
%TO.P,J6,6,Pin_6_6*%
%TO.N,Net-(J6-Pin_6)*%
X182000000Y-68700000D03*
%TO.P,J6,7,Pin_7_7*%
%TO.N,Net-(J6-Pin_7)*%
X182000000Y-71240000D03*
%TO.P,J6,8,Pin_8_8*%
%TO.N,R2*%
X182000000Y-73780000D03*
%TO.P,J6,9,Pin_9_9*%
%TO.N,/Set2*%
X182000000Y-76320000D03*
%TO.P,J6,10,Pin_10_10*%
%TO.N,Masa*%
X182000000Y-78860000D03*
%TD*%
D37*
%TO.P,J14,1,Pin_1_1*%
%TO.N,Masa*%
X193717500Y-113500000D03*
D38*
%TO.P,J14,2,Pin_2_2*%
%TO.N,VIN*%
X193717500Y-108500000D03*
%TD*%
D23*
%TO.P,C57,1*%
%TO.N,+15V*%
X131250000Y-132225000D03*
%TO.P,C57,2*%
%TO.N,Masa*%
X131250000Y-129275000D03*
%TD*%
D17*
%TO.P,C29,1*%
%TO.N,+3V3*%
X120000000Y-86000000D03*
%TO.P,C29,2*%
%TO.N,Masa*%
X121550000Y-86000000D03*
%TD*%
D18*
%TO.P,RV2,1,1_1*%
%TO.N,Net-(R27-Pad2)*%
X178500000Y-113000000D03*
%TO.P,RV2,2,2_2*%
%TO.N,Net-(U2-AIN1)*%
X182500000Y-118000000D03*
%TO.P,RV2,3,3_3*%
X178500000Y-123000000D03*
%TD*%
D39*
%TO.P,L1,1,1_1*%
%TO.N,Net-(U6-SW)*%
X154700000Y-124500000D03*
%TO.P,L1,2,2_2*%
%TO.N,+12V*%
X165300000Y-124500000D03*
%TD*%
D17*
%TO.P,C43,1*%
%TO.N,Net-(J12-SHIELD)*%
X102200000Y-120250000D03*
%TO.P,C43,2*%
%TO.N,Masa*%
X103750000Y-120250000D03*
%TD*%
D14*
%TO.P,R40,1*%
%TO.N,Net-(U14-FB)*%
X146675000Y-113750000D03*
%TO.P,R40,2*%
%TO.N,+3V3*%
X148325000Y-113750000D03*
%TD*%
D17*
%TO.P,C34,1*%
%TO.N,/RCC_OSC_IN*%
X145475000Y-88450000D03*
%TO.P,C34,2*%
%TO.N,Masa*%
X147025000Y-88450000D03*
%TD*%
D13*
%TO.P,C49,1*%
%TO.N,+12V*%
X166775000Y-135750000D03*
%TO.P,C49,2*%
%TO.N,Masa*%
X169725000Y-135750000D03*
%TD*%
D14*
%TO.P,R20,1*%
%TO.N,+3V3*%
X111500000Y-121300000D03*
%TO.P,R20,2*%
%TO.N,/USB_D+*%
X113150000Y-121300000D03*
%TD*%
%TO.P,R37,1*%
%TO.N,Masa*%
X156350000Y-138250000D03*
%TO.P,R37,2*%
%TO.N,Net-(U6-FB)*%
X158000000Y-138250000D03*
%TD*%
D19*
%TO.P,J10,1,Pin_1_1*%
%TO.N,Masa*%
X129290000Y-73500000D03*
D20*
%TO.P,J10,2,Pin_2_2*%
%TO.N,Net-(J10-Pin_2)*%
X126750000Y-73500000D03*
%TO.P,J10,3,Pin_3_3*%
%TO.N,+3V3*%
X124210000Y-73500000D03*
%TD*%
D40*
%TO.P,U7,1,VBAT_1*%
%TO.N,+3V3*%
X136662500Y-88000000D03*
%TO.P,U7,2,PC13_2*%
%TO.N,unconnected-(U7-PC13-Pad2)*%
X136662500Y-87500000D03*
%TO.P,U7,3,PC14_3*%
%TO.N,unconnected-(U7-PC14-Pad3)*%
X136662500Y-87000000D03*
%TO.P,U7,4,PC15_4*%
%TO.N,unconnected-(U7-PC15-Pad4)*%
X136662500Y-86500000D03*
%TO.P,U7,5,PF0_5*%
%TO.N,/RCC_OSC_IN*%
X136662500Y-86000000D03*
%TO.P,U7,6,PF1_6*%
%TO.N,/RCC_OSC_OUT*%
X136662500Y-85500000D03*
%TO.P,U7,7,PG10_7*%
%TO.N,unconnected-(U7-PG10-Pad7)*%
X136662500Y-85000000D03*
%TO.P,U7,8,PA0_8*%
%TO.N,S0*%
X136662500Y-84500000D03*
%TO.P,U7,9,PA1_9*%
%TO.N,S1*%
X136662500Y-84000000D03*
%TO.P,U7,10,PA2_10*%
%TO.N,S2*%
X136662500Y-83500000D03*
%TO.P,U7,11,PA3_11*%
%TO.N,unconnected-(U7-PA3-Pad11)*%
X136662500Y-83000000D03*
%TO.P,U7,12,PA4_12*%
%TO.N,unconnected-(U7-PA4-Pad12)*%
X136662500Y-82500000D03*
D41*
%TO.P,U7,13,PA5_13*%
%TO.N,/SCK*%
X135250000Y-81087500D03*
%TO.P,U7,14,PA6_14*%
%TO.N,/MISO*%
X134750000Y-81087500D03*
%TO.P,U7,15,PA7_15*%
%TO.N,/MOSI*%
X134250000Y-81087500D03*
%TO.P,U7,16,PB0_16*%
%TO.N,/T_IRQ*%
X133750000Y-81087500D03*
%TO.P,U7,17,PB1_17*%
%TO.N,/DC{slash}RS*%
X133250000Y-81087500D03*
%TO.P,U7,18,PB2_18*%
%TO.N,/Reset*%
X132750000Y-81087500D03*
%TO.P,U7,19,VSSA_19*%
%TO.N,Masa*%
X132250000Y-81087500D03*
%TO.P,U7,20,VREF+_20*%
%TO.N,Net-(U7-VDDA)*%
X131750000Y-81087500D03*
%TO.P,U7,21,VDDA_21*%
X131250000Y-81087500D03*
%TO.P,U7,22,PB10_22*%
%TO.N,/Fan2*%
X130750000Y-81087500D03*
%TO.P,U7,23,VSS_23*%
%TO.N,Masa*%
X130250000Y-81087500D03*
%TO.P,U7,24,VDD_24*%
%TO.N,+3V3*%
X129750000Y-81087500D03*
D40*
%TO.P,U7,25,PB11_25*%
%TO.N,/Fan3*%
X128337500Y-82500000D03*
%TO.P,U7,26,PB12_26*%
%TO.N,Net-(U7-PB12)*%
X128337500Y-83000000D03*
%TO.P,U7,27,PB13_27*%
%TO.N,unconnected-(U7-PB13-Pad27)*%
X128337500Y-83500000D03*
%TO.P,U7,28,PB14_28*%
%TO.N,unconnected-(U7-PB14-Pad28)*%
X128337500Y-84000000D03*
%TO.P,U7,29,PB15_29*%
%TO.N,unconnected-(U7-PB15-Pad29)*%
X128337500Y-84500000D03*
%TO.P,U7,30,PA8_30*%
%TO.N,/CS*%
X128337500Y-85000000D03*
%TO.P,U7,31,PA9_31*%
%TO.N,/T_CS*%
X128337500Y-85500000D03*
%TO.P,U7,32,PA10_32*%
%TO.N,/VBUS_SENSE*%
X128337500Y-86000000D03*
%TO.P,U7,33,PA11_33*%
%TO.N,/USB_D-*%
X128337500Y-86500000D03*
%TO.P,U7,34,PA12_34*%
%TO.N,/USB_D+*%
X128337500Y-87000000D03*
%TO.P,U7,35,VSS_35*%
%TO.N,Masa*%
X128337500Y-87500000D03*
%TO.P,U7,36,VDD_36*%
%TO.N,+3V3*%
X128337500Y-88000000D03*
D41*
%TO.P,U7,37,PA13_37*%
%TO.N,/SYS_JTMS_SWDIO*%
X129750000Y-89412500D03*
%TO.P,U7,38,PA14_38*%
%TO.N,/SYS_JTCK_SWCLK*%
X130250000Y-89412500D03*
%TO.P,U7,39,PA15_39*%
%TO.N,SCL*%
X130750000Y-89412500D03*
%TO.P,U7,40,PB3_40*%
%TO.N,R0*%
X131250000Y-89412500D03*
%TO.P,U7,41,PB4_41*%
%TO.N,R1*%
X131750000Y-89412500D03*
%TO.P,U7,42,PB5_42*%
%TO.N,R2*%
X132250000Y-89412500D03*
%TO.P,U7,43,PB6_43*%
%TO.N,R3*%
X132750000Y-89412500D03*
%TO.P,U7,44,PB7_44*%
%TO.N,SDA*%
X133250000Y-89412500D03*
%TO.P,U7,45,PB8_45*%
%TO.N,/Fan0*%
X133750000Y-89412500D03*
%TO.P,U7,46,PB9_46*%
%TO.N,/Fan1*%
X134250000Y-89412500D03*
%TO.P,U7,47,VSS_47*%
%TO.N,Masa*%
X134750000Y-89412500D03*
%TO.P,U7,48,VDD_48*%
%TO.N,+3V3*%
X135250000Y-89412500D03*
%TD*%
D17*
%TO.P,C27,1*%
%TO.N,Net-(U6-VCC)*%
X144000000Y-136900000D03*
%TO.P,C27,2*%
%TO.N,Masa*%
X145550000Y-136900000D03*
%TD*%
D14*
%TO.P,R25,1*%
%TO.N,+3V3*%
X120850000Y-59750000D03*
%TO.P,R25,2*%
%TO.N,/LED*%
X122500000Y-59750000D03*
%TD*%
D42*
%TO.P,Y1,1,1_1*%
%TO.N,/RCC_OSC_OUT*%
X141550000Y-84750000D03*
%TO.P,Y1,2,G_2*%
%TO.N,Masa*%
X141550000Y-86950000D03*
%TO.P,Y1,3,3_3*%
%TO.N,/RCC_OSC_IN*%
X143250000Y-86950000D03*
%TO.P,Y1,4,G_4*%
%TO.N,Masa*%
X143250000Y-84750000D03*
%TD*%
D14*
%TO.P,R23,1*%
%TO.N,Vbus*%
X109000000Y-136750000D03*
%TO.P,R23,2*%
%TO.N,/VBUS_SENSE*%
X110650000Y-136750000D03*
%TD*%
%TO.P,R31,1*%
%TO.N,Net-(U12-VOUTB)*%
X160100000Y-90000000D03*
%TO.P,R31,2*%
%TO.N,/Set1*%
X161750000Y-90000000D03*
%TD*%
D43*
%TO.P,U12,1,VDD_1*%
%TO.N,+5V*%
X152650000Y-88750000D03*
%TO.P,U12,2,SCL_2*%
%TO.N,SCL*%
X152650000Y-89250000D03*
%TO.P,U12,3,SDA_3*%
%TO.N,SDA*%
X152650000Y-89750000D03*
%TO.P,U12,4,~{LDAC}_4*%
%TO.N,unconnected-(U12-~{LDAC}-Pad4)*%
X152650000Y-90250000D03*
%TO.P,U12,5,RDY/~{BSY}_5*%
%TO.N,unconnected-(U12-RDY{slash}~{BSY}-Pad5)*%
X152650000Y-90750000D03*
%TO.P,U12,6,VOUTA_6*%
%TO.N,Net-(U12-VOUTA)*%
X156850000Y-90750000D03*
%TO.P,U12,7,VOUTB_7*%
%TO.N,Net-(U12-VOUTB)*%
X156850000Y-90250000D03*
%TO.P,U12,8,VOUTC_8*%
%TO.N,Net-(U12-VOUTC)*%
X156850000Y-89750000D03*
%TO.P,U12,9,VOUTD_9*%
%TO.N,Net-(U12-VOUTD)*%
X156850000Y-89250000D03*
%TO.P,U12,10,VSS_10*%
%TO.N,Masa*%
X156850000Y-88750000D03*
%TD*%
D23*
%TO.P,C60,1*%
%TO.N,+5V*%
X141000000Y-132475000D03*
%TO.P,C60,2*%
%TO.N,Masa*%
X141000000Y-129525000D03*
%TD*%
%TO.P,C52,1*%
%TO.N,+24V*%
X116000000Y-132475000D03*
%TO.P,C52,2*%
%TO.N,Masa*%
X116000000Y-129525000D03*
%TD*%
D18*
%TO.P,RV4,1,1_1*%
%TO.N,/Set1*%
X183000000Y-88250000D03*
%TO.P,RV4,2,2_2*%
X188000000Y-93250000D03*
%TO.P,RV4,3,3_3*%
%TO.N,Masa*%
X183000000Y-98250000D03*
%TD*%
D19*
%TO.P,J11,1,Pin_1_1*%
%TO.N,+3V3*%
X135460000Y-73500000D03*
D20*
%TO.P,J11,2,Pin_2_2*%
%TO.N,SDA*%
X138000000Y-73500000D03*
%TO.P,J11,3,Pin_3_3*%
%TO.N,SCL*%
X140540000Y-73500000D03*
%TO.P,J11,4,Pin_4_4*%
%TO.N,Masa*%
X143080000Y-73500000D03*
%TD*%
D44*
%TO.P,J13,1,Pin_1_1*%
%TO.N,Masa*%
X113750000Y-148217500D03*
D38*
%TO.P,J13,2,Pin_2_2*%
%TO.N,+24V*%
X118750000Y-148217500D03*
%TD*%
D11*
%TO.P,M3,1,-_1*%
%TO.N,Masa*%
X161920000Y-148000000D03*
D12*
%TO.P,M3,2,+_2*%
%TO.N,+12V*%
X164460000Y-148000000D03*
%TO.P,M3,3,Tacho_3*%
%TO.N,unconnected-(M3-Tacho-Pad3)*%
X167000000Y-148000000D03*
%TO.P,M3,4,PWM_4*%
%TO.N,/Fan2*%
X169540000Y-148000000D03*
%TD*%
D17*
%TO.P,C26,1*%
%TO.N,+24V*%
X155350000Y-141950000D03*
%TO.P,C26,2*%
%TO.N,Masa*%
X156900000Y-141950000D03*
%TD*%
%TO.P,C53,1*%
%TO.N,+24V*%
X120425000Y-116050000D03*
%TO.P,C53,2*%
%TO.N,Masa*%
X121975000Y-116050000D03*
%TD*%
D45*
%TO.P,U10,1,SCL_1*%
%TO.N,SCL*%
X164250000Y-61750000D03*
%TO.P,U10,2,GND_2*%
%TO.N,Masa*%
X164250000Y-62250000D03*
%TO.P,U10,3,ALERT_3*%
%TO.N,unconnected-(U10-ALERT-Pad3)*%
X164250000Y-62750000D03*
%TO.P,U10,4,ADD0_4*%
%TO.N,Masa*%
X165675000Y-62750000D03*
%TO.P,U10,5,V+_5*%
%TO.N,+3V3*%
X165675000Y-62250000D03*
%TO.P,U10,6,SDA_6*%
%TO.N,SDA*%
X165675000Y-61750000D03*
%TD*%
D18*
%TO.P,RV5,1,1_1*%
%TO.N,/Set0*%
X191250000Y-88250000D03*
%TO.P,RV5,2,2_2*%
X196250000Y-93250000D03*
%TO.P,RV5,3,3_3*%
%TO.N,Masa*%
X191250000Y-98250000D03*
%TD*%
D46*
%TO.P,D1,1,K_1*%
%TO.N,+12V*%
X175250000Y-130500000D03*
%TO.P,D1,2,A_2*%
%TO.N,Masa*%
X175250000Y-133800000D03*
%TD*%
D36*
%TO.P,U14,1,BOOT_1*%
%TO.N,Net-(U14-BOOT)*%
X147500000Y-109750000D03*
%TO.P,U14,2,GND_2*%
%TO.N,Masa*%
X147500000Y-110700000D03*
%TO.P,U14,3,FB_3*%
%TO.N,Net-(U14-FB)*%
X147500000Y-111650000D03*
%TO.P,U14,4,EN_4*%
%TO.N,Net-(U14-EN)*%
X149775000Y-111650000D03*
%TO.P,U14,5,VIN_5*%
%TO.N,+12V*%
X149775000Y-110700000D03*
%TO.P,U14,6,SW_6*%
%TO.N,Net-(U14-SW)*%
X149775000Y-109750000D03*
%TD*%
D19*
%TO.P,J5,1,Pin_1_1*%
%TO.N,+24V*%
X188750000Y-56000000D03*
D20*
%TO.P,J5,2,Pin_2_2*%
%TO.N,+15V*%
X188750000Y-58540000D03*
%TO.P,J5,3,Pin_3_3*%
%TO.N,+5V*%
X188750000Y-61080000D03*
%TO.P,J5,4,Pin_4_4*%
%TO.N,Masa*%
X188750000Y-63620000D03*
%TO.P,J5,5,Pin_5_5*%
%TO.N,/Det1*%
X188750000Y-66160000D03*
%TO.P,J5,6,Pin_6_6*%
%TO.N,Net-(J5-Pin_6)*%
X188750000Y-68700000D03*
%TO.P,J5,7,Pin_7_7*%
%TO.N,Net-(J5-Pin_7)*%
X188750000Y-71240000D03*
%TO.P,J5,8,Pin_8_8*%
%TO.N,R1*%
X188750000Y-73780000D03*
%TO.P,J5,9,Pin_9_9*%
%TO.N,/Set1*%
X188750000Y-76320000D03*
%TO.P,J5,10,Pin_10_10*%
%TO.N,Masa*%
X188750000Y-78860000D03*
%TD*%
D14*
%TO.P,R34,1*%
%TO.N,Net-(J12-CC1)*%
X106750000Y-121500000D03*
%TO.P,R34,2*%
%TO.N,Masa*%
X108400000Y-121500000D03*
%TD*%
D27*
%TO.P,C32,1*%
%TO.N,Net-(U7-VDDA)*%
X136240000Y-96050000D03*
%TO.P,C32,2*%
%TO.N,Masa*%
X136240000Y-94500000D03*
%TD*%
%TO.P,C33,1*%
%TO.N,Net-(U7-VDDA)*%
X138750000Y-96050000D03*
%TO.P,C33,2*%
%TO.N,Masa*%
X138750000Y-94500000D03*
%TD*%
D17*
%TO.P,C23,1*%
%TO.N,Net-(U2-AIN0)*%
X153975000Y-69050000D03*
%TO.P,C23,2*%
%TO.N,Masa*%
X155525000Y-69050000D03*
%TD*%
%TO.P,C48,1*%
%TO.N,+3V3*%
X125950000Y-69850000D03*
%TO.P,C48,2*%
%TO.N,Masa*%
X127500000Y-69850000D03*
%TD*%
D14*
%TO.P,R24,1*%
%TO.N,/VBUS_SENSE*%
X105425000Y-136250000D03*
%TO.P,R24,2*%
%TO.N,Masa*%
X107075000Y-136250000D03*
%TD*%
D13*
%TO.P,C46,1*%
%TO.N,+12V*%
X162050000Y-137750000D03*
%TO.P,C46,2*%
%TO.N,Masa*%
X165000000Y-137750000D03*
%TD*%
D14*
%TO.P,R33,1*%
%TO.N,Net-(J12-CC2)*%
X107100000Y-131750000D03*
%TO.P,R33,2*%
%TO.N,Masa*%
X108750000Y-131750000D03*
%TD*%
%TO.P,R36,1*%
%TO.N,Net-(U6-FB)*%
X157350000Y-133500000D03*
%TO.P,R36,2*%
%TO.N,+12V*%
X159000000Y-133500000D03*
%TD*%
D27*
%TO.P,C39,1*%
%TO.N,Net-(U7-VDDA)*%
X143970000Y-96050000D03*
%TO.P,C39,2*%
%TO.N,Masa*%
X143970000Y-94500000D03*
%TD*%
D13*
%TO.P,C62,1*%
%TO.N,+3V3*%
X156300000Y-105750000D03*
%TO.P,C62,2*%
%TO.N,Masa*%
X159250000Y-105750000D03*
%TD*%
D47*
%TO.P,C65,1*%
%TO.N,VIN*%
X186750000Y-110475000D03*
%TO.P,C65,2*%
%TO.N,Masa*%
X186750000Y-112025000D03*
%TD*%
D17*
%TO.P,C42,1*%
%TO.N,+3V3*%
X108975000Y-60000000D03*
%TO.P,C42,2*%
%TO.N,Masa*%
X110525000Y-60000000D03*
%TD*%
D48*
%TO.P,FB3,1*%
%TO.N,Net-(U7-VDDA)*%
X142740000Y-92250000D03*
%TO.P,FB3,2*%
%TO.N,+3V3*%
X142740000Y-90675000D03*
%TD*%
D17*
%TO.P,C58,1*%
%TO.N,+15V*%
X134750000Y-118200000D03*
%TO.P,C58,2*%
%TO.N,Masa*%
X136300000Y-118200000D03*
%TD*%
M02*
